<svg width="65" height="58" viewBox="0 0 65 58" fill="none" xmlns="http://www.w3.org/2000/svg">
<path d="M50.9321 57.6241L50.65 57.5909L50.1986 57.4638L49.7472 57.3618L49.2959 57.3463L48.8445 57.3719L48.3932 57.3543L47.9418 57.2825L47.4904 57.2199L47.3037 57.1729L47.0391 57.0718L46.5877 56.8468L46.3125 56.7213L46.1363 56.624L45.685 56.4847L45.2336 56.288L45.2014 56.2702L44.7823 55.9395L44.6417 55.8186L44.3309 55.5439L44.1344 55.3674L43.8795 55.145L43.6538 54.9161L43.4281 54.6804L43.2322 54.4646L42.9768 54.2093L42.8149 54.0133L42.5255 53.6328L42.4762 53.5619L42.1728 53.1105L42.0741 52.989L41.8916 52.6592L41.6227 52.2579L41.5908 52.2077L41.3688 51.7564L41.2496 51.305L41.1713 51.0878L41.1055 50.8536L40.9065 50.4025L40.7199 50.0436L40.6894 49.9509L40.6211 49.4997L40.5174 49.0483L40.4726 48.5969L40.4054 48.1455L40.3363 47.6942L40.3082 47.2427L40.3231 46.7914L40.3559 46.34L40.3744 45.8886L40.3696 45.4372L40.3733 44.9859L40.4348 44.5347L40.5235 44.0831L40.5807 43.6319L40.6104 43.1803L40.6579 42.7292L40.7003 42.2778L40.7199 42.2316L40.9593 41.8264L41.0753 41.375L41.1713 41.0928L41.2455 40.9236L41.3856 40.4723L41.5109 40.0208L41.6227 39.7237L41.7214 39.5695L41.909 39.1181L41.9854 38.6669L42.0741 38.391L42.1698 38.2153L42.2968 37.7641L42.463 37.3125L42.5255 37.1497L42.6585 36.8614L42.7894 36.41L42.9372 35.9586L42.9768 35.882L43.231 35.5073L43.3593 35.0558L43.4281 34.8934L43.6208 34.6045L43.7643 34.1531L43.8344 33.7017L43.7146 33.2504L43.4281 33.0434L42.9768 32.8989L42.5255 32.8974L42.0741 32.9176L41.6227 32.8978L41.1713 32.895L40.7199 32.8743L40.2686 32.8525L39.8172 32.8273L39.3659 32.9118L38.9145 32.9402L38.4631 32.8789L38.0593 32.7991L38.0117 32.7834L37.5604 32.6949L37.109 32.7314L36.8833 32.7991L36.6576 32.841L36.2063 32.9131H35.7549L35.3036 32.9083L34.8522 32.9037L34.4008 32.8989L33.9495 32.8941L33.4981 32.8902L33.0467 32.8894L32.5954 32.9083L32.144 32.983L31.7191 33.2504L31.6926 33.2674L31.3189 33.7017L31.2413 33.8463L31.0563 34.1531L30.9253 34.6045L30.7899 34.927L30.7079 35.0558L30.4514 35.5073L30.3386 35.7148L30.1951 35.9586L29.9601 36.41L29.8872 36.5246L29.6707 36.8614L29.4946 37.3125L29.4358 37.433L29.1674 37.7641L28.9983 38.2153L28.9844 38.2552L28.8073 38.6669L28.6124 39.1181L28.533 39.2625L28.3338 39.5695L28.1468 40.0208L28.0817 40.1714L27.9217 40.4723L27.6921 40.9236L27.6303 41.0386L27.4186 41.375L27.2963 41.8264L27.179 42.0188L26.9764 42.2778L26.7887 42.7292L26.7276 42.8722L26.5521 43.1803L26.3457 43.6319L26.2762 43.8027L26.1481 44.0831L26.0462 44.5347L25.8824 44.9859L25.8248 45.0987L25.6488 45.4372L25.4699 45.8886L25.3735 46.119L25.2251 46.34L25.0165 46.7914L24.9221 47.0171L24.7738 47.2427L24.543 47.6942L24.4708 47.8415L24.2891 48.1455L24.0338 48.5969L24.0194 48.6275L23.8138 49.0483L23.6025 49.4997L23.568 49.5922L23.3909 49.9509L23.1577 50.4025L23.1167 50.4604L22.8038 50.8536L22.6653 51.113L22.5566 51.305L22.39 51.7564L22.214 52.0824L22.1186 52.2077L21.9555 52.6592L21.7626 53.0331L21.6798 53.1105L21.3888 53.5619L21.3112 53.7225L21.1516 54.0133L20.9392 54.4646L20.8599 54.612L20.6664 54.9161L20.5097 55.3674L20.4085 55.6602L20.3258 55.8186L20.1704 56.2702L19.9571 56.6662L19.9148 56.7213L19.5474 57.1729L19.5057 57.2076L19.0544 57.3343L18.603 57.2987L18.1517 57.2224L17.7003 57.2022L17.4226 57.1729L17.2489 57.1391L16.7975 57.0143L16.3461 56.9606L15.8948 56.9807L15.4435 56.9163L14.9921 56.7621L14.8918 56.7213L14.5407 56.5073L14.359 56.2702L14.3501 55.8186L14.4385 55.3674L14.5407 55.0392L14.5979 54.9161L14.7593 54.4646L14.9482 54.0133L14.9921 53.9281L15.2259 53.5619L15.338 53.1105L15.4435 52.848L15.5612 52.6592L15.777 52.2077L15.8948 51.9436L15.9932 51.7564L16.1869 51.305L16.3461 51.0297L16.4828 50.8536L16.7478 50.4025L16.7975 50.3271L17.0951 49.9509L17.2489 49.6096L17.3153 49.4997L17.5438 49.0483L17.7003 48.7048L17.7817 48.5969L18.0131 48.1455L18.1517 47.7674L18.1946 47.6942L18.4264 47.2427L18.5716 46.7914L18.603 46.7178L18.8433 46.34L19.0278 45.8886L19.0544 45.8504L19.3392 45.4372L19.4904 44.9859L19.5057 44.9506L19.7553 44.5347L19.9482 44.0831L19.9571 44.0636L20.1707 43.6319L20.3876 43.1803L20.4085 43.1464L20.6866 42.7292L20.7853 42.2778L20.8599 42.1273L21.0561 41.8264L21.2525 41.375L21.3112 41.2703L21.5245 40.9236L21.7046 40.4723L21.7626 40.3253L21.9371 40.0208L22.1162 39.5695L22.214 39.3542L22.3623 39.1181L22.5183 38.6669L22.6653 38.3551L22.7503 38.2153L22.9801 37.7641L23.1167 37.3615L23.1463 37.3125L23.4061 36.8614L23.568 36.489L23.6132 36.41L23.7825 35.9586L23.9673 35.5073L24.0194 35.3989L24.2312 35.0558L24.4377 34.6045L24.4708 34.5351L24.7191 34.1531L24.8277 33.7017L24.6842 33.2504L24.4708 33.0581L24.0194 32.9009L23.568 32.8867L23.1167 32.8949L22.6653 32.9062L22.214 32.935L21.7626 32.9179H21.3112H20.8599H20.4085H19.9571H19.5057H19.0544H18.603H18.1517H17.7003H17.2489H16.7975H16.3461H15.8948H15.4435H14.9921L14.5407 32.9037H14.0893H13.638H13.1866H12.7352H12.2839H11.8325H11.3812L10.9298 32.9118L10.5658 32.7991L10.4784 32.7469L10.2312 32.3476L10.185 31.8964L10.212 31.4448L10.3061 30.9937L10.4236 30.5423L10.4784 30.4174L10.6634 30.0909L10.8517 29.6395L10.9298 29.4628L11.0858 29.1881L11.2875 28.7367L11.3812 28.5561L11.5721 28.2854L11.7197 27.8339L11.8325 27.6407L12.0332 27.3826L12.2839 26.9411L12.2915 26.9314L12.4945 26.4798L12.6311 26.0287L12.7352 25.822L12.9228 25.5771L13.1276 25.1259L13.1866 25.0239L13.4574 24.6745L13.638 24.3912L13.766 24.2231L13.9544 23.7717L14.0893 23.538L14.2519 23.3204L14.456 22.869L14.5407 22.6379L14.6679 22.4176L14.899 21.9662L14.9921 21.8132L15.251 21.5148L15.4435 21.2477L15.5868 21.0637L15.7392 20.6121L15.8948 20.2361L15.9407 20.1609L16.1625 19.7093L16.3461 19.2938L16.3688 19.2581L16.6048 18.8068L16.7637 18.3554L16.7975 18.2773L17.0232 17.904L17.2446 17.4526L17.2489 17.4404L17.4236 17.0012L17.5584 16.5498L17.7003 16.0985L17.9582 15.647L18.092 15.1957L18.1517 14.9852L18.2493 14.7443L18.4267 14.2931L18.5616 13.8416L18.603 13.5876L18.6475 13.3903L18.7677 12.939L18.8363 12.4876L18.9071 12.0362L18.9241 11.5849L18.8748 11.1335L18.7889 10.6821L18.6981 10.2307L18.6357 9.77942L18.603 9.70172L18.5027 9.32792L18.3574 8.87662L18.1517 8.63941L18.0324 8.42542L17.8117 7.97381L17.7003 7.80682L17.501 7.52272L17.2489 7.26361L17.0637 7.07112L16.7975 6.79802L16.5641 6.61992L16.3461 6.47301L15.8948 6.24502L15.7255 6.16852L15.4435 5.96012L14.9921 5.79012L14.7901 5.71712L14.5407 5.59562L14.0893 5.43632L13.638 5.34171L13.1866 5.32592L12.7352 5.30492L12.2839 5.29241L11.8325 5.35431L11.3812 5.46402L10.9298 5.55931L10.4784 5.63321L10.2527 5.71712L10.0271 5.77522L9.57571 5.95532L9.12441 6.09311L8.95881 6.16852L8.67301 6.24862L8.22161 6.43941L8.01231 6.61992L7.77021 6.84552L7.54451 7.07112L7.31881 7.35441L7.16611 7.52272L6.86751 7.93562L6.83881 7.97381L6.57431 8.42542L6.41621 8.81872L6.37791 8.87662L6.21561 9.32792L6.14351 9.77942V10.2307L6.18061 10.6821L6.22041 11.1335L6.27881 11.5849L6.41621 11.9009L6.45641 12.0362L6.70591 12.4876L6.86751 12.6543L7.16591 12.939L7.31881 13.0547L7.77021 13.3424L7.88801 13.3903L8.22161 13.5896L8.67301 13.7108L9.12441 13.7723L9.41451 13.8416L9.57571 13.9034L10.0271 14.0674L10.4784 14.2751L10.5145 14.2931L10.9298 14.5164L11.3812 14.674L11.4907 14.7443L11.8325 15.1569L11.8532 15.1957L11.9897 15.647L12.0161 16.0985L11.9529 16.5498L11.8325 16.9746L11.8186 17.0012L11.5759 17.4526L11.3812 17.7716L11.2716 17.904L10.9298 18.2148L10.6656 18.3554L10.4784 18.4305L10.0271 18.5644L9.57571 18.6756L9.33671 18.8068L9.12441 18.8737L8.67301 18.9387L8.22161 18.927L7.77021 18.9339L7.31881 18.913L6.86751 18.8437L6.75141 18.8068L6.41621 18.6563L5.96481 18.4528L5.78091 18.3554L5.51341 18.1749L5.06201 17.9216L5.03341 17.904L4.61061 17.6112L4.15931 17.4805L4.13161 17.4526L3.72281 17.0012L3.70791 16.9846L3.25661 16.5763L3.22501 16.5498L2.80521 16.0985L2.41301 15.647L2.35381 15.5686L2.14711 15.1957L1.90251 14.8573L1.84611 14.7443L1.69811 14.2931L1.55421 13.8416L1.45111 13.6611L1.33701 13.3903L1.21221 12.939L1.12441 12.4876L1.04081 12.0362L1.02241 11.5849L1.00731 11.1335L0.999705 10.9079L0.995605 10.6821L0.999705 10.6409L1.06241 10.2307L1.15771 9.77942L1.22041 9.32792L1.27051 8.87662L1.35381 8.42542L1.45111 8.11481L1.52051 7.97381L1.69011 7.52272L1.75361 7.07112L1.89801 6.61992L1.90251 6.61152L2.19421 6.16852L2.35381 5.93871L2.52461 5.71712L2.80021 5.26572L2.80521 5.25842L3.09031 4.81431L3.25661 4.52182L3.37401 4.36292L3.65931 3.91161L3.70791 3.84802L4.00441 3.46021L4.15931 3.26751L4.48571 3.00882L4.61061 2.86111L4.83041 2.55762L5.06201 2.36181L5.36101 2.10601L5.51341 1.97281L5.96481 1.70862L6.07421 1.65492L6.41621 1.52351L6.86751 1.35402L7.19941 1.20332L7.31881 1.16871L7.77021 1.06462L8.22161 0.919915L8.52601 0.752115L8.67301 0.691215L9.12441 0.621215L9.57571 0.583815L10.0271 0.504115L10.4784 0.415115L10.9298 0.376915L11.3812 0.418915L11.8325 0.417615L12.2839 0.371915L12.7352 0.345215L13.1866 0.372915L13.638 0.394515L14.0893 0.417615L14.5407 0.461915L14.9921 0.593515L15.4435 0.639215L15.8948 0.721115L15.9906 0.752115L16.3461 0.929915L16.7975 1.05132L17.2489 1.13151L17.4295 1.20332L17.7003 1.38251L18.1517 1.62362L18.1975 1.65492L18.603 1.89411L18.9688 2.10601L19.0544 2.19991L19.5057 2.55281L19.5113 2.55762L19.9571 2.99792L19.9681 3.00882L20.3998 3.46021L20.4085 3.46921L20.685 3.91161L20.8599 4.12691L21.0447 4.36292L21.3112 4.70311L21.3827 4.81431L21.7256 5.26572L21.7626 5.32222L21.9175 5.71712L22.1906 6.16852L22.214 6.20142L22.4024 6.61992L22.6152 7.07112L22.6653 7.19151L22.7756 7.52272L22.9126 7.97381L23.0522 8.42542L23.1167 8.59451L23.1766 8.87662L23.2509 9.32792L23.2918 9.77942L23.323 10.2307L23.3885 10.6821L23.4842 11.1335L23.568 11.5247L23.577 11.5849L23.6079 12.0362V12.4876L23.599 12.939L23.6306 13.3903L23.5814 13.8416L23.568 13.9545L23.5065 14.2931L23.4727 14.7443L23.4476 15.1957L23.3886 15.647L23.3147 16.0985L23.2726 16.5498L23.1556 17.0012L23.1167 17.1303L22.9662 17.4526L22.7978 17.904L22.7267 18.3554L22.6653 18.7503L22.6516 18.8068L22.488 19.2581L22.2956 19.7093L22.214 19.9418L22.1225 20.1609L21.9296 20.6121L21.8048 21.0637L21.7626 21.189L21.5973 21.5148L21.4486 21.9662L21.3278 22.4176L21.3112 22.4638L21.1376 22.869L20.9458 23.3204L20.8599 23.5783L20.7411 23.7717L20.5619 24.2231L20.4378 24.6745L20.4085 24.7364L20.1633 25.1259L19.9613 25.5771L19.9571 25.5875L19.7288 26.0287L19.538 26.4798L19.5057 26.7432L19.4699 26.9314L19.5057 27.0441L19.7049 27.3826L19.9571 27.5106L20.4085 27.5448L20.8599 27.6365L21.3112 27.6959L21.7626 27.6907L22.214 27.5526L22.6653 27.6289L23.1167 27.6961L23.568 27.7225L24.0194 27.6915L24.4708 27.6118L24.9221 27.5473L25.3735 27.533H25.8248L26.2762 27.5394L26.7276 27.5467L27.179 27.5406L27.6303 27.4877L27.8048 27.3826L28.0817 27.2157L28.3412 26.9314L28.533 26.6362L28.6372 26.4798L28.8239 26.0287L28.9844 25.649L29.0323 25.5771L29.2493 25.1259L29.4128 24.6745L29.4358 24.5876L29.5839 24.2231L29.8598 23.7717L29.8872 23.7004L30.0654 23.3204L30.2816 22.869L30.3386 22.7643L30.5669 22.4176L30.7284 21.9662L30.7899 21.8011L30.9507 21.5148L31.1952 21.0637L31.2413 20.9268L31.3744 20.6121L31.5468 20.1609L31.6926 19.7903L31.7491 19.7093L32.0186 19.2581L32.144 18.9896L32.2552 18.8068L32.442 18.3554L32.5954 17.9604L32.6357 17.904L32.8769 17.4526L32.955 17.0012L33.0467 16.7998L33.2411 16.5498L33.4412 16.0985L33.4981 15.948L33.6737 15.647L33.9169 15.1957L33.9495 15.1355L34.1641 14.7443L34.3097 14.2931L34.4008 14.0955L34.5724 13.8416L34.7238 13.3903L34.8522 13.1335L34.9812 12.939L35.1871 12.4876L35.3036 12.271L35.456 12.0362L35.6421 11.5849L35.7549 11.2986L35.844 11.1335L36.0635 10.6821L36.2063 10.3778L36.2978 10.2307L36.413 9.77942L36.618 9.32792L36.6576 9.26062L36.9343 8.87662L37.0435 8.42542L37.109 8.21702L37.2484 7.97381L37.5416 7.52272L37.5604 7.47861L37.7481 7.07112L37.9 6.61992L38.0117 6.31902L38.0944 6.16852L38.3421 5.71712L38.4631 5.43762L38.5634 5.26572L38.8348 4.81431L38.9145 4.69831L39.1843 4.36292L39.3659 4.09062L39.4956 3.91161L39.8172 3.51582L39.8795 3.46021L40.2686 3.07762L40.3609 3.00882L40.7199 2.78641L41.0449 2.55762L41.1713 2.50161L41.6227 2.43221L42.0741 2.36691L42.5255 2.36982L42.9768 2.44142L43.4281 2.49051L43.8795 2.52992L44.3309 2.55391L44.3445 2.55762L44.7823 2.75532L45.0166 3.00882L45.2336 3.40772L45.2527 3.46021L45.2706 3.91161L45.2336 4.14911L45.178 4.36292L45.003 4.81431L44.851 5.26572L44.7823 5.43762L44.6169 5.71712L44.4965 6.16852L44.3391 6.61992L44.3309 6.63502L44.0542 7.07112L43.8795 7.42442L43.8185 7.52272L43.6128 7.97381L43.4281 8.38842L43.3959 8.42542L43.1164 8.87662L43.0205 9.32792L42.9768 9.44081L42.7879 9.77942L42.5853 10.2307L42.5255 10.3583L42.3542 10.6821L42.2218 11.1335L42.0741 11.5202L42.0354 11.5849L41.7956 12.0362L41.6227 12.3921L41.5497 12.4876L41.3381 12.939L41.1713 13.2725L41.095 13.3903L40.8857 13.8416L40.7199 14.2693L40.7044 14.2931L40.424 14.7443L40.2686 15.1225L40.2288 15.1957L40.0224 15.647L39.8172 15.948L39.6864 16.0985L39.471 16.5498L39.3659 16.7582L39.2079 17.0012L38.9606 17.4526L38.9145 17.5466L38.726 17.904L38.5644 18.3554L38.4631 18.5522L38.2814 18.8068L38.1003 19.2581L38.0117 19.4438L37.8381 19.7093L37.6312 20.1609L37.5604 20.3178L37.3992 20.6121L37.1858 21.0637L37.109 21.1974L36.9163 21.5148L36.7606 21.9662L36.6576 22.2751L36.5768 22.4176L36.3375 22.869L36.2063 23.104L36.066 23.3204L35.931 23.7717L35.7692 24.2231L35.7549 24.2561L35.5406 24.6745L35.3496 25.1259L35.3036 25.2178L35.0749 25.5771L34.8978 26.0287L34.857 26.4798L35.0557 26.9314L35.3036 27.0997L35.7549 27.2101L36.2063 27.2263L36.6576 27.1946L37.109 27.1899L37.5604 27.1784L38.0117 27.169L38.4631 27.162L38.9145 27.1595L39.3659 27.1622H39.8172L40.2686 27.1669H40.7199H41.1713H41.6227H42.0741H42.5255H42.9768H43.4281L43.8795 27.162L44.3309 27.1547L44.7823 27.1477L45.2336 27.1262L45.685 27.0458L46.1363 26.9463L46.5877 26.9604L47.0391 27.0359L47.4904 27.1337L47.9418 27.169L48.3932 27.1686L48.8445 27.1593L49.2959 27.1673L49.7472 27.157L50.1986 27.1593L50.65 27.1899L51.1014 27.297L51.2328 27.3826L51.5528 27.7288L51.638 27.8339L51.8694 28.2854L52.0041 28.4906L52.0983 28.7367L52.1641 29.1881L52.128 29.6395L52.0087 30.0909L52.0041 30.1041L51.8028 30.5423L51.6498 30.9937L51.5528 31.4039L51.5372 31.4448L51.3329 31.8964L51.1244 32.3476L51.1014 32.3887L50.8757 32.7991L50.666 33.2504L50.65 33.2755L50.3164 33.7017L50.1986 33.8635L49.9398 34.1531L49.7472 34.6045L49.4994 35.0558L49.2959 35.463L49.2595 35.5073L48.9869 35.9586L48.8445 36.2566L48.7268 36.41L48.4525 36.8614L48.3932 36.981L48.2085 37.3125L48.0379 37.7641L47.9418 38.11L47.896 38.2153L47.671 38.6669L47.4904 39.0052L47.405 39.1181L47.1721 39.5695L47.0391 39.8798L46.9298 40.0208L46.7545 40.4723L46.6739 40.9236L46.5877 41.3028L46.56 41.375L46.406 41.8264L46.2492 42.2778L46.1578 42.7292L46.1363 42.7975L45.9876 43.1803L45.8879 43.6319L45.8046 44.0831L45.6891 44.5347L45.685 44.5481L45.4871 44.9859L45.4029 45.4372L45.4131 45.8886L45.3857 46.34L45.3775 46.7914L45.4109 47.2427L45.4739 47.6942L45.5903 48.1455L45.685 48.3132L45.7736 48.5969L45.9194 49.0483L46.1363 49.3901L46.2183 49.4997L46.426 49.9509L46.5877 50.1376L46.8167 50.4025L47.0391 50.6152L47.3085 50.8536L47.4904 51.0062L47.9418 51.2657L47.9946 51.305L48.3932 51.6386L48.5737 51.7564L48.8445 51.9411L49.2959 52.1509L49.3862 52.2077L49.7472 52.4856L50.1986 52.6425L50.3628 52.6592L50.65 52.7042L51.1014 52.686L51.5528 52.6592L52.0041 52.652L52.2298 52.6592L52.4554 52.673L52.9068 52.686L53.1325 52.6592L53.3582 52.643L53.8096 52.5546L54.261 52.4501L54.6662 52.2077L54.7123 52.1855L55.1637 52.038L55.615 51.8411L55.7153 51.7564L56.0664 51.4817L56.284 51.305L56.5178 51.1781L56.9353 50.8536L56.9691 50.8238L57.4205 50.4262L57.4407 50.4025L57.8128 49.9509L57.8719 49.8738L58.1435 49.4997L58.3232 49.2357L58.5016 49.0483L58.7439 48.5969L58.7746 48.5281L58.9841 48.1455L59.0963 47.6942L59.1447 47.2427L59.1238 46.7914L59.0463 46.34L58.9531 45.8886L58.7746 45.5932L58.6803 45.4372L58.3684 44.9859L58.3232 44.9489L57.8719 44.6124L57.6569 44.5347L57.4205 44.3947L56.9691 44.3038L56.5178 44.2724L56.0664 44.3597L55.6777 44.5347L55.615 44.5563L55.1637 44.6375L54.7123 44.7978L54.302 44.9859L54.261 44.9982L54.2108 44.9859L53.8096 44.8112L53.4447 44.5347L53.3582 44.4633L53.1415 44.0831L53.0839 43.6319L53.2093 43.1803L53.3582 42.9281L53.5308 42.7292L53.8096 42.3644L53.8874 42.2778L54.261 41.9494L54.4267 41.8264L54.7123 41.6373L55.1637 41.375L55.615 41.1369L55.9415 40.9236L56.0664 40.8678L56.5178 40.7314L56.9691 40.6466L57.4205 40.5759L57.8719 40.518L58.223 40.4723L58.3232 40.4628L58.7746 40.4498L59.226 40.455L59.3464 40.4723L59.6773 40.5476L60.1287 40.6569L60.5801 40.7362L61.0314 40.8699L61.1781 40.9236L61.4828 41.0953L61.9341 41.3112L62.0564 41.375L62.3855 41.5802L62.6383 41.8264L62.8369 42.0362L63.0855 42.2778L63.2883 42.5149L63.4271 42.7292L63.7396 43.1734L63.7439 43.1803L63.968 43.6319L64.191 43.9704L64.2495 44.0831L64.3837 44.5347L64.5671 44.9859L64.6423 45.1149L64.7599 45.4372L64.8735 45.8886L64.8962 46.34L64.9179 46.7914L64.9495 47.2427L64.9956 47.6942L64.9656 48.1455L64.8358 48.5969L64.7209 49.0483L64.6423 49.2545L64.531 49.4997L64.3769 49.9509L64.2396 50.4025L64.191 50.533L64.0386 50.8536L63.8067 51.305L63.7396 51.4378L63.5365 51.7564L63.2883 52.0667L63.1536 52.2077L62.8369 52.6497L62.8287 52.6592L62.3855 52.9976L62.2605 53.1105L61.9341 53.4528L61.8267 53.5619L61.4828 53.9113L61.3792 54.0133L61.0314 54.2817L60.8126 54.4646L60.5801 54.6351L60.229 54.9161L60.1287 54.992L59.6773 55.2383L59.507 55.3674L59.226 55.5634L58.8731 55.8186L58.7746 55.8631L58.3232 56.0276L57.9638 56.2702L57.8719 56.3105L57.4205 56.3818L56.9691 56.5247L56.5178 56.6857L56.4049 56.7213L56.0664 56.7892L55.615 56.8989L55.1637 57.0583L54.8512 57.1729L54.7123 57.2034L54.261 57.2638L53.8096 57.3064L53.3582 57.3496L52.9068 57.3803L52.4554 57.4573L52.0041 57.6012L51.8687 57.6241L51.5528 57.6546L51.1014 57.6373L50.9321 57.6241Z" fill="white"/>
</svg>
