<svg width="65" height="64" viewBox="0 0 65 64" fill="none" xmlns="http://www.w3.org/2000/svg">
<g clip-path="url(#clip0)">
<path d="M31.676 59.8469L31.3634 59.7874L30.9466 59.7262L30.5298 59.6458L30.1129 59.5528L29.6961 59.4889L29.4182 59.43L29.2793 59.3806L28.8625 59.181L28.4456 59.0174L28.4334 59.0131L28.0288 58.8221L27.612 58.6807L27.4036 58.5964L27.1952 58.4934L26.7783 58.252L26.6302 58.1796L26.3615 57.9876L26.0319 57.7627L25.9447 57.6945L25.5279 57.4197L25.4172 57.3458L25.111 57.1072L24.8795 56.9293L24.6942 56.7693L24.2865 56.5124L24.2774 56.5052L23.8997 56.0955L23.8606 56.05L23.5646 55.6786L23.4438 55.48L23.2982 55.2618L23.0269 55.034L22.8694 54.8451L22.6101 54.5419L22.5083 54.4282L22.1933 54.0518L22.1597 54.0113L21.8558 53.5944L21.7764 53.4965L21.568 53.1776L21.3596 52.9276L21.2629 52.7609L21.0555 52.344L20.9428 52.0661L20.8949 51.9271L20.7423 51.5102L20.5891 51.0937L20.526 50.971L20.4083 50.6768L20.2033 50.2599L20.1092 50.1176L19.9988 49.8431L19.8392 49.4264L19.6923 49.0862L19.6599 49.0095L19.5439 48.5926L19.333 48.1757L19.2755 48.0308L19.2197 47.7589L19.1607 47.3422L19.059 46.9253L18.8587 46.5194L18.8546 46.5084L18.7373 46.0915L18.6141 45.675L18.507 45.2581L18.4418 45.0387L18.4015 44.8412L18.3441 44.4244L18.2304 44.0075L18.0459 43.5908L18.025 43.5249L17.9621 43.1739L17.9458 42.757L17.8924 42.3402L17.8712 41.9233L17.825 41.5066L17.7493 41.0897L17.6468 40.6728L17.6082 40.5427L17.5599 40.2563L17.5083 39.8394L17.4823 39.4225L17.4196 39.0057L17.4123 38.5888L17.3973 38.1721L17.3784 37.7552L17.3477 37.3383L17.2891 36.9215L17.2065 36.5046L17.1914 36.4004L17.1659 36.0879L17.1827 35.671L17.1914 35.4626L17.2057 35.2541L17.2133 34.8373L17.1914 34.629L17.1776 34.4207L17.1187 34.0038L17.0473 33.587L17.0014 33.1701L16.983 32.7532L16.9915 32.3365V31.9196V31.5028V31.0859V30.669V30.2523V29.8354V29.4186L17.0067 29.0019L17.0267 28.5851L17.0673 28.1683L17.1195 27.7514L17.1682 27.3345L17.1914 26.9871L17.1991 26.9177L17.2133 26.5009L17.2126 26.0841L17.1914 25.8341L17.1828 25.6672V25.2503V24.8336V24.4167V23.9999V23.583V23.1664V22.7496L17.1666 22.3327L17.1873 21.9158L17.1914 21.8696L17.246 21.499L17.3096 21.0822L17.357 20.6654L17.3919 20.2485L17.4123 19.8316L17.417 19.4148L17.5312 18.998L17.5599 18.5812V18.1643L17.5365 17.7476L17.5724 17.3309L17.6082 17.1719L17.6942 16.914L17.7749 16.4971L17.7982 16.0803L17.8114 15.6634L17.8632 15.2467L17.9175 14.8298L17.95 14.4129L17.9694 13.9961L18.0095 13.5792L18.025 13.4751L18.1008 13.1625L18.1698 12.7456L18.17 12.3289L18.2361 11.9122L18.3498 11.4953L18.3904 11.0784L18.2225 10.6615L18.025 10.4771L17.6521 10.2447L17.6082 10.2165L17.1914 10.0019L16.7746 9.88868L16.3577 9.85448L16.1493 9.82798L15.9409 9.78538L15.5241 9.66668L15.1072 9.56958L14.6904 9.51408L14.2736 9.48508L13.8568 9.46918L13.4399 9.45788L13.0231 9.45438L12.6063 9.57498L12.1895 9.62198L11.7727 9.65808L11.3558 9.70968L10.939 9.79588L10.5917 9.82798L10.5222 9.83238L10.1054 9.83698L9.68851 9.85988L9.27171 9.93318L8.85491 10.019L8.43811 10.0509L8.02121 9.96328L7.60441 9.89488L7.18761 9.90498L6.77071 9.98008L6.35391 10.0362L5.93711 10.0552L5.52031 9.98818L5.10351 9.94638L4.68661 9.89158L4.26981 9.84198L3.85301 9.86378L3.48251 9.82798L3.43621 9.82108L3.01931 9.63168L2.71311 9.41108L2.60251 9.31768L2.18571 9.01098L2.16311 8.99418L1.76891 8.58348L1.76371 8.57738L1.46401 8.16048L1.35201 7.99748L1.20971 7.74378L1.01861 7.32688L0.995605 6.91018L1.06681 6.49328L1.15101 6.07658L1.27051 5.65968L1.35201 5.52558L1.58501 5.24278L1.76891 5.01958L1.94091 4.82598L2.18571 4.60238L2.43731 4.40908L2.60251 4.32408L3.01931 4.20628L3.43621 4.11338L3.73631 3.99238L3.85301 3.95908L4.26981 3.90018L4.68661 3.91088L5.10351 3.93068L5.52031 3.92218L5.93711 3.89498L6.35391 3.88208L6.77071 3.90238L7.18761 3.94018L7.60441 3.98768L7.64231 3.99238L8.02121 4.06528L8.43811 4.12468L8.85491 4.16648L9.27171 4.18618L9.68851 4.21558L10.1054 4.26868L10.5222 4.32148L10.939 4.37798L11.1474 4.40908L11.3558 4.46568L11.7727 4.52458L12.1895 4.58948L12.6063 4.66648L13.0231 4.75748L13.4399 4.76508L13.8568 4.76768L14.2736 4.76008L14.6904 4.76458L15.1072 4.79618L15.3018 4.82598L15.5241 4.87888L15.9409 4.93918L16.3577 4.93948L16.7746 4.90698L17.1914 4.88118L17.6082 4.91718L18.025 4.96998L18.4418 4.99258L18.8587 4.98038L19.2755 4.94838L19.6923 4.86228L20.1092 4.98008L20.526 5.08338L20.9428 5.10868L21.3596 5.11308L21.7764 5.18318L21.9358 5.24278L22.1933 5.37348L22.6101 5.49688L23.0269 5.53928L23.4438 5.54048L23.8606 5.53368L24.2774 5.52848L24.6942 5.56128L25.0802 5.65968L25.111 5.67498L25.5279 5.86798L25.9447 5.93898L26.3081 6.07658L26.3615 6.10948L26.7783 6.27428L27.0607 6.49328L27.1952 6.64498L27.3382 6.91018L27.4649 7.32688L27.5194 7.74378L27.481 8.16048L27.4012 8.57738L27.2809 8.99418L27.1952 9.20268L27.0805 9.41108L26.9962 9.82798L26.8951 10.2447L26.7902 10.6615L26.7783 10.6983L26.6188 11.0784L26.4493 11.4953L26.3615 11.7036L26.2518 11.9122L26.1573 12.3289L25.9525 12.7456L25.9447 12.7709L25.7652 13.1625L25.606 13.5792L25.5279 13.892L25.4875 13.9961L25.3675 14.4129L25.2546 14.8298L25.1414 15.2467L25.111 15.4183L25.0416 15.6634L24.9324 16.0803L24.8445 16.4971L24.7458 16.914L24.6942 17.1919L24.6526 17.3309L24.5709 17.7476L24.5156 18.1643L24.4627 18.5812L24.4312 18.998L24.3027 19.4148L24.2774 19.5538L24.2039 19.8316L24.0762 20.2485L23.9953 20.6654L23.9638 21.0822L23.9471 21.499L23.893 21.9158L23.8606 22.1241L23.804 22.3327L23.6938 22.7496L23.6801 23.1664L23.6028 23.583L23.5225 23.9999L23.5033 24.4167L23.5125 24.8336L23.4953 25.2503L23.4603 25.6672L23.4438 25.7313L23.3146 26.0841L23.2466 26.5009L23.1416 26.9177L23.0415 27.3345L23.0269 27.4126L22.9436 27.7514L22.8917 28.1683L22.8666 28.5851L22.855 29.0019L22.7966 29.4186L22.7682 29.8354L22.7435 30.2523L22.732 30.669L22.7315 31.0859L22.7334 31.5028L22.7317 31.9196L22.7292 32.3365L22.7215 32.7532V33.1701V33.587V34.0038V34.4207V34.8373V35.2541V35.671L22.7273 36.0879L22.7238 36.5046L22.7223 36.9215L22.7259 37.3383L22.732 37.7552L22.7505 38.1721L22.7749 38.5888L22.7996 39.0057L22.8731 39.4225L22.9143 39.8394L22.9987 40.2563L23.0269 40.3751L23.0743 40.6728L23.125 41.0897L23.1937 41.5066L23.2721 41.9233L23.3296 42.3402L23.4309 42.757L23.4438 42.896L23.4598 43.1739L23.5058 43.5908L23.5811 44.0075L23.6716 44.4244L23.7878 44.8412L23.8606 45.0594L23.9049 45.2581L23.9705 45.675L24.1364 46.0915L24.2774 46.4912L24.2818 46.5084L24.4441 46.9253L24.6479 47.3422L24.6942 47.4427L24.785 47.7589L24.9136 48.1757L25.111 48.482L25.1726 48.5926L25.3632 49.0095L25.5279 49.271L25.6063 49.4264L25.8018 49.8431L25.9447 50.0099L26.1078 50.2599L26.318 50.6768L26.3615 50.7479L26.564 51.0937L26.7783 51.3279L26.919 51.5102L27.1952 51.8687L27.2495 51.9271L27.612 52.2321L27.7266 52.344L28.0288 52.6156L28.2406 52.7609L28.4456 52.9626L28.6882 53.1776L28.8625 53.3073L29.2793 53.4795L29.4294 53.5944L29.6961 53.8245L30.0656 54.0113L30.1129 54.0455L30.5298 54.2199L30.9466 54.278L31.3634 54.3385L31.7802 54.4117L31.8469 54.4282L32.1971 54.5551L32.6139 54.6574L33.0307 54.7276L33.4475 54.7743L33.8644 54.8332L33.9894 54.8451L34.2812 54.8945L34.698 54.9256L35.1148 54.9122L35.5317 54.8594L35.6359 54.8451L35.9485 54.8208L36.3653 54.7291L36.7821 54.6919L37.199 54.596L37.5189 54.4282L37.6158 54.3847L38.0326 54.1169L38.1716 54.0113L38.4494 53.8348L38.7843 53.5944L38.8663 53.5268L39.2063 53.1776L39.2831 53.1065L39.5753 52.7609L39.6999 52.6219L39.9843 52.344L40.1167 52.192L40.3888 51.9271L40.5336 51.7718L40.7524 51.5102L40.9504 51.2115L41.0546 51.0937L41.2914 50.6768L41.3672 50.5137L41.5364 50.2599L41.784 49.8715L41.8086 49.8431L42.0077 49.4264L42.1622 49.0095L42.2009 48.8705L42.3037 48.5926L42.4463 48.1757L42.5621 47.7589L42.6177 47.481L42.6574 47.3422L42.7161 46.9253L42.7665 46.5084L42.802 46.0915L42.8928 45.675L42.9602 45.2581L43.0345 44.8632L43.0429 44.8412L43.1405 44.4244L43.19 44.0075L43.2649 43.5908L43.3544 43.1739L43.4114 42.757L43.4206 42.3402L43.4123 41.9233V41.5066L43.4219 41.0897L43.4513 40.6728L43.5135 40.2563L43.5655 39.8394L43.5921 39.4225L43.5851 39.0057L43.6121 38.5888L43.6524 38.1721L43.7043 37.7552L43.7504 37.3383L43.7795 36.9215L43.79 36.5046L43.7908 36.0879L43.7848 35.671V35.2541V34.8373V34.4207V34.0038V33.587V33.1701V32.7532V32.3365V31.9196V31.5028V31.0859V30.669V30.2523V29.8354V29.4186L43.7618 29.0019L43.7788 28.5851L43.777 28.1683L43.7277 27.7514L43.643 27.3345L43.5819 26.9177L43.5784 26.5009L43.6006 26.0841L43.5277 25.6672L43.4829 25.2503L43.4513 25.0901L43.4147 24.8336L43.3459 24.4167L43.2679 23.9999L43.1855 23.583L43.1073 23.1664L43.0554 22.7496L43.0345 22.7047L42.9431 22.3327L42.9226 21.9158L42.8826 21.499L42.8211 21.0822L42.7335 20.6654L42.6177 20.2485L42.5353 19.8316L42.4871 19.4148L42.3944 18.998L42.3106 18.5812L42.2009 18.2478L42.1794 18.1643L42.0917 17.7476L42.0418 17.3309L42.0093 16.914L41.9404 16.4971L41.8535 16.0803L41.784 15.8892L41.7225 15.6634L41.6483 15.2467L41.5625 14.8298L41.4714 14.4129L41.3672 14.123L41.3368 13.9961L41.2073 13.5792L41.0437 13.1625L40.9504 12.9308L40.9028 12.7456L40.8115 12.3289L40.7281 11.9122L40.541 11.4953L40.5336 11.4817L40.3898 11.0784L40.2917 10.6615L40.2268 10.2447L40.184 9.82798L40.1614 9.41108L40.1167 8.99418L40.1251 8.57738L40.1167 8.47308L40.1045 8.16048L40.1167 7.98178L40.1441 7.74378L40.2779 7.32688L40.5336 6.94358L40.5775 6.91018L40.9504 6.73928L41.3672 6.58438L41.5756 6.49328L41.784 6.43608L42.2009 6.36408L42.6177 6.29998L43.0345 6.32068L43.4513 6.31798L43.8682 6.34378L44.285 6.40398L44.7018 6.45648L45.1186 6.46418L45.5355 6.41348L45.9523 6.35108L46.3691 6.34578H46.7859H47.2028H47.6196H48.0364H48.4532H48.8701H49.2869L49.7037 6.36438L50.1205 6.35288L50.5374 6.33398L50.9542 6.29738L51.371 6.24548L51.7878 6.18218L52.2047 6.11748L52.6215 6.07658L53.0383 6.00288L53.4551 5.99128L53.872 5.96538L54.2888 5.91958L54.7056 5.85148L55.1224 5.78038L55.5393 5.73938L55.9561 5.72518L56.3729 5.72808L56.7897 5.70788L57.2066 5.67278L57.2992 5.65968L57.6234 5.63178L58.0402 5.59428L58.457 5.55978L58.8739 5.53198L59.2907 5.51348L59.7075 5.54118L60.1243 5.54338L60.5412 5.53928L60.958 5.53048L61.3748 5.50388L61.7916 5.45938L62.2085 5.39908L62.6253 5.34128L63.0421 5.37438L63.4589 5.51748L63.6914 5.65968L63.8758 5.80478L64.2272 6.07658L64.2926 6.14738L64.5882 6.49328L64.7094 6.64498L64.8467 6.91018L64.9285 7.32688L64.9853 7.74378L64.9956 8.16048L64.9206 8.57738L64.8136 8.99418L64.7094 9.18218L64.5473 9.41108L64.2926 9.71668L64.1507 9.82798L63.8758 9.99568L63.4589 10.2447L63.0421 10.3512L62.6253 10.4701L62.2085 10.5796L61.8958 10.6615L61.7916 10.6799L61.3748 10.666L61.3053 10.6615L60.958 10.6249L60.5412 10.6542L60.4717 10.6615L60.1243 10.6844H59.7075L59.2907 10.6799L58.8739 10.6615L58.457 10.6535L58.2486 10.6615L58.0402 10.666L57.6234 10.6707L57.5308 10.6615L57.2066 10.6121L56.7897 10.5122L56.3729 10.4389L55.9561 10.4746L55.5393 10.5329L55.1224 10.5181L54.7056 10.4249L54.2888 10.4043L53.872 10.4775L53.4551 10.5636L53.0383 10.6002L52.6215 10.6153L52.3089 10.6615L52.2047 10.6702L51.7878 10.7542L51.371 10.9061L50.9542 11.0647L50.8986 11.0784L50.5374 11.1343L50.1205 11.2655L49.7037 11.4953L49.2869 11.6468L48.8701 11.8885L48.846 11.9122L48.5922 12.3289L48.5116 12.7456L48.514 13.1625L48.5527 13.5792L48.6342 13.9961L48.7333 14.4129L48.8246 14.8298L48.8701 14.9966L48.9058 15.2467L48.9566 15.6634L48.9825 16.0803L49.0319 16.4971L49.0914 16.914L49.1075 17.3309L49.0917 17.7476L49.092 18.1643L49.1348 18.5812L49.1857 18.998L49.2869 19.2342L49.3405 19.4148L49.3861 19.8316L49.4452 20.2485L49.4759 20.6654L49.5288 21.0822L49.6499 21.499L49.7037 21.9158L49.6466 22.3327L49.6735 22.7496L49.7037 23.1664L49.7312 23.583L49.7553 23.9999L49.7666 24.4167L49.7693 24.8336L49.7681 25.2503L49.7701 25.6672L49.7563 26.0841V26.5009V26.9177V27.3345V27.7514V28.1683V28.5851V29.0019V29.4186V29.8354V30.2523V30.669V31.0859V31.5028V31.9196V32.3365V32.7532V33.1701V33.587V34.0038V34.4207V34.8373V35.2541V35.671L49.7666 36.0879L49.7505 36.5046L49.7192 36.9215L49.7037 37.073L49.6588 37.3383L49.6067 37.7552L49.5735 38.1721L49.5614 38.5888L49.5596 39.0057L49.5891 39.4225L49.5701 39.8394L49.5185 40.2563L49.4461 40.6728L49.3785 41.0897L49.3197 41.5066L49.2869 41.7718L49.2591 41.9233L49.2228 42.3402L49.1348 42.757L49.0709 43.1739L48.9977 43.5908L48.9324 44.0075L48.8701 44.3411L48.8423 44.4244L48.6891 44.8412L48.569 45.2581L48.5038 45.675L48.4532 46.0082L48.4327 46.0915L48.33 46.5084L48.2158 46.9253L48.1215 47.3422L48.0364 47.7212L48.021 47.7589L47.8685 48.1757L47.7707 48.5926L47.7258 49.0095L47.6196 49.3282L47.5631 49.4264L47.3947 49.8431L47.2072 50.2599L47.2028 50.2685L46.9579 50.6768L46.7903 51.0937L46.7859 51.1036L46.575 51.5102L46.3691 51.8893L46.3409 51.9271L46.1717 52.344L45.9523 52.6801L45.8703 52.7609L45.7012 53.1776L45.5355 53.572L45.5188 53.5944L45.2176 54.0113L45.1186 54.1763L44.9553 54.4282L44.7949 54.8451L44.7018 55.0041L44.5247 55.2618L44.3289 55.6786L44.285 55.7374L43.9613 56.0955L43.8682 56.2188L43.5903 56.5124L43.4513 56.6654L43.2328 56.9293L43.0345 57.1348L42.7699 57.3458L42.6177 57.4549L42.2009 57.6096L41.9838 57.7627L41.784 57.8811L41.3672 58.1316L41.2862 58.1796L40.9504 58.3234L40.5336 58.52L40.4129 58.5964L40.1167 58.7353L39.6999 58.9123L39.5906 59.0131L39.2831 59.1937L38.8663 59.2971L38.6116 59.43L38.4494 59.4872L38.0326 59.5675L37.6158 59.631L37.199 59.7135L36.7821 59.8263L36.6988 59.8469L36.3653 59.905L35.9485 59.9455L35.5317 59.9812L35.1148 60.0381L34.698 60.0909L34.2812 60.1177L33.8644 60.1061L33.4475 60.08L33.0307 60.0578L32.6139 59.9691L32.1971 59.9249L31.7802 59.8606L31.676 59.8469Z" fill="white"/>
</g>
<defs>
<clipPath id="clip0">
<rect width="64" height="64" fill="white" transform="translate(0.995605)"/>
</clipPath>
</defs>
</svg>
