<svg width="65" height="64" viewBox="0 0 65 64" fill="none" xmlns="http://www.w3.org/2000/svg">
<g clip-path="url(#clip0)">
<path d="M51.7606 62.1299L51.4956 62.0295L51.0317 61.9325L50.5678 61.7987L50.2767 61.6659L50.1039 61.5499L49.64 61.2931L49.3767 61.202L49.1761 61.0861L48.7122 60.8464L48.5005 60.7382L48.2483 60.5542L47.7845 60.2835L47.7745 60.2743L47.3557 59.8103L47.3205 59.7665L47.0422 59.3464L46.8567 59.1374L46.6247 58.8826L46.3928 58.6084L46.2746 58.4188L46.0172 57.955L45.9289 57.8311L45.7422 57.491L45.465 57.07L45.4413 57.0271L45.1683 56.5632L45.0011 56.2126L44.9543 56.0994L44.7629 55.6353L44.5372 55.2642L44.5021 55.1715L44.3952 54.7076L44.3087 54.2437L44.0733 53.8057L44.0641 53.7797L43.9692 53.3158L43.8388 52.852L43.7111 52.3883L43.6094 52.017L43.5924 51.9244L43.5138 51.4604L43.4218 50.9965L43.3529 50.5326L43.2108 50.0688L43.1455 49.6511L43.1415 49.6048L43.085 49.1409L43.0273 48.677L42.966 48.2132L42.9107 47.7491L42.8684 47.2853L42.8482 46.8214L42.8661 46.3577L42.8758 45.8935L42.8788 45.4298L42.8492 44.9659L42.7715 44.5021L42.6816 44.1542L42.6635 44.0382L42.6036 43.5742L42.5714 43.1103L42.5935 42.6464L42.5589 42.1824L42.4951 41.7186L42.4106 41.2547L42.3671 40.7908L42.358 40.3271L42.313 39.8629L42.2177 39.3992L42.1832 38.9353L42.1147 38.4715L42.0024 38.0076L41.8776 37.5436L41.7538 37.122L41.7459 37.0797L41.6653 36.6159L41.5787 36.1518L41.5116 35.688L41.3346 35.2241L41.29 35.1313L41.1923 34.7602L41.0092 34.2962L40.8261 33.93L40.7964 33.8324L40.6294 33.3686L40.3622 33.0452L40.251 32.9048L39.8983 32.4409L39.4634 31.9769L39.4344 31.9418L38.9705 31.5626L38.876 31.513L38.5066 31.2573L38.0427 31.0679L37.9881 31.0491L37.5788 30.8683L37.1149 30.76L36.651 30.7504L36.1871 30.8331L35.7233 30.9606L35.3521 31.0491L35.2594 31.0623L34.7955 31.1935L34.3725 31.513L34.3316 31.5394L33.8677 31.8797L33.779 31.9769L33.4038 32.2882L33.2453 32.4409L32.9581 32.9048L32.9399 32.9309L32.5827 33.3686L32.476 33.5072L32.1892 33.8324L32.0121 34.1069L31.8884 34.2962L31.6132 34.7602L31.5482 34.8876L31.3363 35.2241L31.0844 35.6494L31.0554 35.688L30.7575 36.1518L30.6205 36.5289L30.5783 36.6159L30.4172 37.0797L30.2811 37.5436L30.1649 38.0076L30.1566 38.0348L29.971 38.4715L29.8456 38.9353L29.7026 39.3992L29.6927 39.5539L29.6641 39.8629L29.5902 40.3271L29.5167 40.7908L29.429 41.2547L29.3282 41.7186L29.2288 42.1824L29.1257 42.6464L28.9945 43.1103L28.9416 43.5742L28.8707 44.0382L28.7961 44.5021L28.7649 44.6972L28.695 44.9659L28.5992 45.4298L28.5278 45.8935L28.4855 46.3577L28.39 46.8214L28.3286 47.2853L28.301 47.4063L28.1884 47.7491L28.0616 48.2132L27.9435 48.677L27.8371 48.9668L27.7348 49.1409L27.5007 49.6048L27.3821 50.0688L27.3732 50.0967L27.1678 50.5326L26.953 50.9965L26.9093 51.0968L26.7564 51.4604L26.6253 51.9244L26.4501 52.3883L26.4454 52.3967L26.1866 52.852L25.9815 53.3158L25.784 53.7797L25.5176 54.1755L25.4463 54.2437L25.0643 54.7076L25.0538 54.7213L24.7429 55.1715L24.5899 55.3898L24.3837 55.6353L24.126 55.9471L23.9881 56.0994L23.6621 56.5081L23.6113 56.5632L23.1982 56.9357L23.0822 57.0271L22.7343 57.388L22.6207 57.491L22.2704 57.7293L22.0206 57.955L21.8065 58.2278L21.6589 58.4188L21.3426 58.697L21.08 58.8826L20.8787 58.9926L20.4148 59.2656L20.3253 59.3464L19.9509 59.589L19.5762 59.8103L19.4871 59.8541L19.0232 60.0772L18.7139 60.2743L18.5593 60.3468L18.0954 60.4089L17.6315 60.5035L17.1676 60.7231L17.1395 60.7382L16.7037 60.8979L16.2398 61.0372L15.7759 61.1863L15.7337 61.202L15.312 61.2922L14.8481 61.3644L14.3842 61.3241H13.9204H13.4565H12.9926H12.5287H12.0648H11.6009H11.137L10.6731 61.3395L10.2092 61.2703L9.92381 61.202L9.74531 61.1328L9.28141 61.0041L8.81751 60.9495L8.35361 60.8515L8.11121 60.7382L7.88981 60.601L7.42591 60.4069L7.18941 60.2743L6.96201 60.111L6.49811 59.8869L6.40171 59.8103L6.03421 59.4612L5.91211 59.3464L5.57031 59.073L5.27851 58.8826L5.10641 58.7184L4.81121 58.4188L4.64251 58.276L4.29461 57.955L4.17861 57.7943L3.76361 57.491L3.71471 57.4522L3.44971 57.0271L3.25091 56.8052L3.07871 56.5632L2.81691 56.0994L2.78701 56.0562L2.58131 55.6353L2.33711 55.1715L2.32311 55.1464L2.11761 54.7076L1.85921 54.3074L1.83121 54.2437L1.74641 53.7797L1.68781 53.3158L1.54071 52.852L1.39531 52.5814L1.32431 52.3883L1.19581 51.9244L1.10261 51.4604L1.03441 50.9965L0.995605 50.5326L1.06901 50.0688L1.10841 49.6048L1.08231 49.1409L1.28901 48.677L1.39531 48.4451L1.52441 48.2132L1.60251 47.7491L1.75981 47.2853L1.85921 47.1682L2.32311 47.0733L2.66701 47.2853L2.78701 47.4398L2.93821 47.7491L3.15671 48.2132L3.25091 48.3514L3.38871 48.677L3.49381 49.1409L3.62201 49.6048L3.71471 49.8294L3.78541 50.0688L4.01591 50.5326L4.17861 50.778L4.27981 50.9965L4.48591 51.4604L4.64251 51.6882L4.79721 51.9244L5.10641 52.3179L5.14781 52.3883L5.46631 52.852L5.57031 52.9495L5.92551 53.3158L6.03421 53.4153L6.49811 53.7532L6.53621 53.7797L6.96201 54.1177L7.16191 54.2437L7.42591 54.4238L7.88981 54.6472L7.98711 54.7076L8.35361 54.969L8.72871 55.1715L8.81751 55.232L9.28141 55.471L9.68591 55.6353L9.74531 55.6747L10.2092 55.899L10.6731 55.98L11.079 56.0994L11.137 56.1312L11.6009 56.2796L12.0648 56.3552L12.5287 56.356H12.9926L13.4565 56.3552L13.9204 56.2796L14.3842 56.1312L14.4505 56.0994L14.8481 55.9971L15.312 55.9266L15.7759 55.8357L16.2398 55.6729L16.3009 55.6353L16.7037 55.4744L17.1676 55.2986L17.4253 55.1715L17.6315 55.0994L18.0954 54.8877L18.3273 54.7076L18.5593 54.543L18.9875 54.2437L19.0232 54.2216L19.4871 53.8958L19.5995 53.7797L19.9509 53.4532L20.0921 53.3158L20.4148 52.852L20.7352 52.3883L20.8787 52.1351L21.0294 51.9244L21.2639 51.4604L21.3426 51.2788L21.5135 50.9965L21.769 50.5326L21.8065 50.4441L21.9899 50.0688L22.0767 49.6048L22.2072 49.1409L22.2704 48.9959L22.4801 48.677L22.6433 48.2132L22.7343 47.8419L22.7695 47.7491L22.9605 47.2853L23.0903 46.8214L23.1982 46.5315L23.2755 46.3577L23.3622 45.8935L23.4639 45.4298L23.5624 44.9659L23.6537 44.5021L23.6621 44.4618L23.8013 44.0382L23.9053 43.5742L23.9573 43.1103L24.0322 42.6464L24.0938 42.1824L24.126 41.7765L24.1333 41.7186L24.2213 41.2547L24.3345 40.7908L24.389 40.3271L24.4245 39.8629L24.461 39.3992L24.5574 38.9353L24.5899 38.7033L24.6459 38.4715L24.6969 38.0076L24.699 37.5436L24.7646 37.0797L24.8557 36.6159L24.886 36.1518L24.8692 35.688L24.8736 35.2241V34.7602L24.8691 34.2962L24.8753 33.8324L24.8977 33.3686L24.9409 32.9048L24.9852 32.4409L25.0181 31.9769L25.0424 31.513V31.0491V30.5853V30.1213V29.6574V29.1935V28.7297V28.2656L25.0315 27.8018V27.3381V26.8742V26.4103V25.9463V25.4824V25.0186V24.5547V24.0907V23.6268V23.1629V22.6991V22.2351V21.7712V21.3075V20.8436V20.3797V19.9157V19.4519V18.988V18.5241V18.0601V17.5962V17.1324L24.9347 16.6685L24.9006 16.2045L24.84 15.7406L24.632 15.2769L24.5899 15.2287L24.126 14.8324L24.0896 14.8127L23.6621 14.5735L23.1982 14.4128L23.0472 14.3492L22.7343 14.1809L22.2704 14.0292L21.8898 13.8851L21.8065 13.8392L21.3426 13.6477L20.9367 13.4213L20.8787 13.3778L20.4148 13.0925L20.2216 12.9574L19.9509 12.7076L19.617 12.4935L19.4871 12.4008L19.0468 12.0295L19.0232 12.0011L18.6553 11.5657L18.5593 11.4645L18.3471 11.1018L18.0954 10.7638L18.0073 10.6378L17.6947 10.1739L17.6315 10.0904L17.4104 9.70996L17.1676 9.37876L17.0865 9.24626L16.8197 8.78206L16.7037 8.64856L16.5108 8.31856L16.275 7.85456L16.2398 7.79796L16.0777 7.39066L15.9485 6.92676L15.7759 6.46276L15.6263 5.99886L15.5045 5.53506L15.3261 5.07116L15.312 5.03076L15.2001 4.60716L15.0829 4.14326L14.961 3.67946L14.9423 3.21556L15.312 2.75156L15.7759 2.63676L16.2398 2.62136L16.7037 2.56396L17.1676 2.55436L17.6315 2.33576L18.0954 2.32276L18.5593 2.29586L19.0232 2.39376L19.4871 2.42026L19.9509 2.63576L20.1681 2.75156L20.4148 2.90046L20.6942 3.21556L20.8787 3.66646L20.8829 3.67946L21.0247 4.14326L21.2322 4.60716L21.3426 4.81816L21.4253 5.07116L21.694 5.53506L21.8065 5.63956L22.0723 5.99886L22.2704 6.25246L22.4517 6.46276L22.7343 6.79966L22.858 6.92676L23.1982 7.22326L23.3979 7.39066L23.6621 7.64086L24.068 7.85456L24.126 7.89026L24.5899 8.18576L24.7909 8.31856L25.0538 8.50176L25.5176 8.65836L25.7323 8.78206L25.9815 8.96186L26.4454 9.13246L26.79 9.24626L26.9093 9.30746L27.3732 9.46646L27.8371 9.60196L28.301 9.69656L28.4275 9.70996L28.7649 9.77086L29.2288 9.79556L29.3753 9.70996L29.6927 9.59936L30.1566 9.48996L30.6205 9.40286L30.9684 9.24626L31.0844 9.20406L31.5482 8.93316L31.7845 8.78206L32.0121 8.64016L32.35 8.31856L32.476 8.18246L32.8323 7.85456L32.9399 7.74696L33.2472 7.39066L33.4038 7.13496L33.5517 6.92676L33.8488 6.46276L33.8677 6.42176L34.1434 5.99886L34.3316 5.65706L34.3943 5.53506L34.6997 5.07116L34.7955 4.91386L34.9905 4.60716L35.1444 4.14326L35.2476 3.67946L35.2594 3.59766L35.3496 3.21556L35.5083 2.75156L35.7017 2.28796L35.7233 2.26876L36.1871 2.00626L36.6009 1.82396L36.651 1.80626L37.1149 1.69486L37.5788 1.68816L38.0427 1.70236L38.5066 1.68636L38.9705 1.57096L39.4344 1.45776L39.8983 1.50456L40.3622 1.63356L40.5525 1.82396L40.8261 2.22666L40.8617 2.28796L40.913 2.75156L40.9216 3.21556L40.8528 3.67946L40.8261 3.79066L40.7019 4.14326L40.5648 4.60716L40.4652 5.07116L40.4178 5.53506L40.3622 5.81316L40.2655 5.99886L40.0729 6.46276L39.9455 6.92676L39.8983 7.06576L39.7274 7.39066L39.4953 7.85456L39.4344 7.97036L39.2334 8.31856L39.0139 8.78206L38.9705 8.89826L38.7897 9.24626L38.5066 9.70056L38.4987 9.70996L38.1254 10.1739L38.0427 10.2932L37.7485 10.6378L37.5788 10.8209L37.3154 11.1018L37.1149 11.3214L36.8449 11.5657L36.651 11.7486L36.374 12.0295L36.1871 12.1978L35.8055 12.4935L35.7233 12.5527L35.2594 12.9321L35.2341 12.9574L34.7955 13.2035L34.4456 13.4213L34.3316 13.4938L33.8677 13.7286L33.4857 13.8851L33.4038 13.9097L32.9399 13.9999L32.476 14.1363L32.0121 14.2958L31.9074 14.3492L31.5482 14.4583L31.0844 14.6069L30.7751 14.8127L30.6205 14.9569L30.3996 15.2769L30.32 15.7406L30.343 16.2045L30.3627 16.6685L30.3459 17.1324L30.3403 17.5962L30.3261 18.0601L30.2897 18.5241L30.2477 18.988L30.205 19.4519L30.1802 19.9157L30.1682 20.3797L30.1867 20.8436V21.3075V21.7712V22.2351V22.6991V23.1629V23.6268V24.0907L30.1566 24.1999L29.9957 24.5547L29.8988 25.0186L29.8491 25.4824L29.8628 25.9463L29.9806 26.4103L30.1566 26.5957L30.6205 26.7196L31.0844 26.5773L31.2771 26.4103L31.5482 26.2165L31.9385 25.9463L32.0121 25.9001L32.476 25.6666L32.7206 25.4824L32.9399 25.3707L33.4038 25.2136L33.8677 25.0558L33.9505 25.0186L34.3316 24.8867L34.7955 24.8318L35.2594 24.7776L35.7233 24.6461L36.1871 24.5944L36.651 24.6603L37.1149 24.6415L37.5788 24.705L38.0427 24.7595L38.5066 24.8197L38.9705 24.9258L39.2223 25.0186L39.4344 25.1176L39.8983 25.3169L40.3622 25.4356L40.4567 25.4824L40.8261 25.7228L41.29 25.8377L41.6447 25.9463L41.7538 26.0026L42.2177 26.2812L42.411 26.4103L42.6816 26.6568L42.9677 26.8742L43.1455 27.0265L43.5089 27.3381L43.6094 27.4517L43.9407 27.8018L44.0733 27.9078L44.3238 28.2656L44.5372 28.6045L44.6258 28.7297L45.0011 29.1134L45.07 29.1935L45.3445 29.6574L45.465 29.8468L45.6096 30.1213L45.9126 30.5853L45.9289 30.6073L46.1202 31.0491L46.2839 31.513L46.3928 31.7132L46.5099 31.9769L46.6835 32.4409L46.8567 32.7232L46.9299 32.9048L47.0233 33.3686L47.0781 33.8324L47.1807 34.2962L47.3205 34.5799L47.3836 34.7602L47.5305 35.2241L47.7387 35.688L47.7637 36.1518L47.7845 36.3259L47.8065 36.6159L47.8441 37.0797L47.8819 37.5436L47.9291 38.0076L48.0017 38.4715L48.0797 38.9353L48.2137 39.3992L48.2483 39.5776L48.2809 39.8629L48.3297 40.3271L48.3514 40.7908L48.3925 41.2547L48.4561 41.7186L48.4908 42.1824L48.4859 42.6464L48.5302 43.1103L48.5806 43.5742L48.676 44.0382L48.7122 44.1668L48.7738 44.5021L48.8602 44.9659L48.9339 45.4298L48.9873 45.8935L49.0104 46.3577L49.1333 46.8214L49.1761 47.1307L49.1873 47.2853L49.2447 47.7491L49.3199 48.2132L49.4194 48.677L49.5473 49.1409L49.64 49.4279L49.6729 49.6048L49.7207 50.0688L49.8107 50.5326L49.879 50.9965L49.9306 51.4604L50.0156 51.9244L50.1039 52.1038L50.1938 52.3883L50.3502 52.852L50.5678 53.3039L50.5721 53.3158L50.7147 53.7797L50.9767 54.2437L51.0317 54.3338L51.1918 54.7076L51.4956 55.0721L51.5645 55.1715L51.8955 55.6353L51.9595 55.7055L52.2535 56.0994L52.4234 56.2716L52.728 56.5632L52.8873 56.7157L53.3322 57.0271L53.3512 57.042L53.815 57.2538L54.2789 57.3265L54.7428 57.3887L55.2067 57.4324L55.6706 57.3452L56.1345 57.2442L56.5984 57.1627L56.9358 57.0271L57.0623 56.9821L57.5262 56.7924L57.8804 56.5632L57.9901 56.5034L58.454 56.188L58.5656 56.0994L58.9178 55.8387L59.1462 55.6353L59.3817 55.3759L59.5645 55.1715L59.8456 54.8402L59.9616 54.7076L60.2286 54.2437L60.3095 54.1046L60.4822 53.7797L60.7166 53.3158L60.7734 53.2428L61.0764 52.852L61.2373 52.5546L61.3669 52.3883L61.6911 51.9244L61.7012 51.912L62.0743 51.4604L62.1651 51.3685L62.629 51.0449L62.685 50.9965L63.0929 50.7336L63.5568 50.6729L64.0207 50.6668L64.4551 50.9965L64.4845 51.044L64.6573 51.4604L64.8446 51.9244L64.9485 52.1821L64.9956 52.3883L64.981 52.852L64.9485 53.3158L64.862 53.7797L64.6816 54.2437L64.5224 54.7076L64.4845 54.8402L64.3557 55.1715L64.1946 55.6353L64.0207 56.053L63.9934 56.0994L63.7677 56.5632L63.5568 56.9891L63.5278 57.0271L63.2625 57.491L63.0929 57.7677L62.9426 57.955L62.629 58.2823L62.5001 58.4188L62.1651 58.8572L62.1393 58.8826L61.7417 59.3464L61.7012 59.4015L61.348 59.8103L61.2373 59.9264L60.9014 60.2743L60.7734 60.417L60.4051 60.7382L60.3095 60.809L59.8456 61.0621L59.5487 61.202L59.3817 61.2443L58.9178 61.5383L58.6805 61.6659L58.454 61.748L57.9901 61.8284L57.5262 61.8603L57.0623 61.9828L56.6602 62.1299L56.5984 62.1487L56.1345 62.2796L55.6706 62.4356L55.2067 62.5123L54.7428 62.481L54.2789 62.4748L53.815 62.5175L53.3512 62.5422L52.8873 62.4629L52.4234 62.3046L51.9595 62.191L51.7606 62.1299Z" fill="white"/>
</g>
<defs>
<clipPath id="clip0">
<rect width="64" height="64" fill="white" transform="translate(0.995605)"/>
</clipPath>
</defs>
</svg>
