<svg width="65" height="64" viewBox="0 0 65 64" fill="none" xmlns="http://www.w3.org/2000/svg">
<path d="M48.7063 63.7635L48.6666 63.7536L48.1502 63.682L47.6339 63.4562L47.1175 63.2859L47.0224 63.2471L46.6011 63.0471L46.0847 62.8077L45.9601 62.7309L45.5683 62.4357L45.1424 62.2146L45.052 62.1572L44.5356 61.7498L44.4679 61.6981L44.0192 61.3282L43.9013 61.1817L43.5028 60.7345L43.4383 60.6653L42.9865 60.1804L42.9604 60.149L42.7182 59.6325L42.4701 59.343L42.3055 59.1161L41.9703 58.5998L41.9537 58.5702L41.7579 58.0834L41.4938 57.5669L41.4373 57.483L41.216 57.0505L40.9477 56.5342L40.9209 56.486L40.7727 56.018L40.6716 55.5016L40.4537 54.9853L40.4046 54.8852L40.2687 54.4688L40.1658 53.9524L40.1043 53.436L40.0451 52.9197L39.9998 52.4032L39.8882 52.1452L39.8079 51.8868L39.7433 51.3705L39.6618 50.8541L39.6268 50.3376L39.606 49.8212L39.588 49.305L39.5699 48.7887L39.5481 48.2723L39.4496 47.756L39.3718 47.4218L39.3086 47.2395L38.8554 46.8429L38.3391 46.9572L38.0567 47.2395L37.8227 47.4976L37.6087 47.756L37.3367 48.2723L37.3063 48.3247L36.8736 48.7887L36.7899 48.8903L36.4957 49.305L36.2736 49.6522L36.1283 49.8212L35.7625 50.3376L35.7572 50.346L35.4256 50.8541L35.2408 51.1373L35.0371 51.3705L34.796 51.8868L34.7244 52.0095L34.4265 52.4032L34.208 52.7657L34.0985 52.9197L33.8605 53.436L33.6917 53.8017L33.567 53.9524L33.215 54.4688L33.1753 54.5473L32.9138 54.9853L32.6589 55.3774L32.5573 55.5016L32.3042 56.018L32.1425 56.3659L32.0215 56.5342L31.7317 57.0505L31.6262 57.2507L31.4301 57.5669L31.1318 58.0834L31.1098 58.1162L30.7036 58.5998L30.5934 58.7196L30.1658 59.1161L30.077 59.1801L29.5606 59.4092L29.0443 59.5188L28.5279 59.4849L28.0115 59.4799L27.4951 59.444L26.9788 59.6223L26.9214 59.6325L26.4624 59.6714L25.946 59.6424L25.8666 59.6325L25.4296 59.5437L24.9132 59.444L24.3969 59.1233L24.3911 59.1161L24.2501 58.5998L24.2247 58.0834L24.2228 57.5669L24.2485 57.0505L24.2389 56.5342L24.2228 56.018L24.1996 55.5016L24.1915 54.9853L24.2286 54.4688L24.2692 53.9524L24.2561 53.436L24.1781 52.9197L24.0982 52.4032L24.0635 51.8868L24.1387 51.3705L24.2286 50.8541L24.287 50.3376L24.2925 49.8212L24.2419 49.305L24.1571 48.7887L24.0908 48.2723L24.0044 47.756V47.2395V46.7231V46.2068V45.6904V45.1739V44.6575V44.1412L23.9823 43.6248V43.1083V42.5919V42.0757V41.5594V41.043V40.5267V40.0102V39.4938V38.9775V38.4611V37.9446V37.4282V36.9119V36.3955V35.879V35.3627V34.8464V34.3301V33.8137V33.2974V32.7809V32.2645V31.7482L23.9969 31.2318V30.7153V30.1989V29.6826V29.1662V28.6497V28.1337V27.6171L23.9133 27.1008L23.8805 26.8942L23.8482 26.5844L23.8059 26.0681L23.842 25.5516L23.8805 25.2737L23.9305 25.0352L23.952 24.5189L23.8805 24.0963L23.8701 24.0025L23.7954 23.486L23.7812 22.9696L23.7637 22.4533L23.5687 21.9369L23.3641 21.7361L22.8477 21.5786L22.3314 21.5057L21.815 21.5091L21.2986 21.5359L20.7822 21.5188L20.2658 21.53L19.7495 21.5823L19.2331 21.6104L18.7167 21.5777L18.2003 21.5614L17.684 21.5645L17.1676 21.6089L16.6512 21.6945L16.1348 21.7648L15.6185 21.7604L15.1021 21.7231L14.5857 21.7424H14.0693L13.5529 21.6574L13.0366 21.4598L12.981 21.4207L12.5794 20.9044L12.5202 20.5427L12.5064 20.3878L12.5202 20.0779L12.5383 19.8715L12.5836 19.3551L12.5202 19.1292L12.4742 18.8388L12.4524 18.3223L12.4315 17.8059L12.4375 17.2896L12.4464 16.7732L12.4147 16.2567L12.3313 15.7403L12.2411 15.224L12.2019 14.7078L12.1385 14.1914L12.0372 13.6751L12.0038 13.5161L11.9587 13.1586L11.9076 12.6422L11.8424 12.1258L11.7664 11.6095L11.7016 11.093L11.5284 10.5766L11.4874 10.4408L11.4062 10.0603L11.2224 9.5439L11.0141 9.0274L10.9711 8.9046L10.8966 8.511L10.7989 7.995L10.631 7.4785L10.4547 7.0654L10.4189 6.9621L10.2121 6.4458L9.93829 5.9622L9.92339 5.9294L9.66719 5.4129L9.42189 5.0355L9.34069 4.8965L8.97929 4.3802L8.90549 4.305L8.51409 3.8637L8.38919 3.7279L7.97989 3.3473L7.87279 3.2573L7.42519 2.831L7.35639 2.7664L6.83999 2.3833L6.74679 2.3146L6.32369 1.9136L6.19069 1.7981L5.80729 1.409L5.71849 1.2817L5.67529 0.7657L5.80729 0.518L6.12209 0.2492L6.32369 0.1573L6.83999 0.0392L7.35639 0L7.87279 0.1292L8.29689 0.2492L8.38919 0.2867L8.90549 0.5489L9.42189 0.7657L9.93829 0.9819L10.4547 1.2163L10.5838 1.2817L10.9711 1.553L11.4274 1.7981L11.4874 1.8393L12.0038 2.1144L12.3421 2.3146L12.5202 2.4785L13.0366 2.7966L13.0897 2.831L13.5529 3.3011L13.5898 3.3473L13.9944 3.8637L14.0693 3.9497L14.5249 4.3802L14.5857 4.4397L14.9402 4.8965L15.1021 5.1431L15.2185 5.4129L15.444 5.9294L15.6185 6.2227L15.7396 6.4458L16.0076 6.9621L16.1348 7.2545L16.2033 7.4785L16.3774 7.995L16.6235 8.511L16.6512 8.5531L16.8285 9.0274L16.9519 9.5439L17.044 10.0603L17.1676 10.5481L17.1732 10.5766L17.2766 11.093L17.3853 11.6095L17.5979 12.1258L17.684 12.3218L17.7708 12.6422L17.8031 13.1586L17.7783 13.6751L17.7987 14.1914L17.8656 14.7078L18.2003 15.224L18.7167 15.6129L19.0556 15.7403L19.2331 15.8252L19.7495 15.8696L20.2658 15.852L20.7822 15.7403L21.2986 15.7161L21.7289 15.7403L21.815 15.7487L21.9871 15.7403L22.3314 15.731L22.8477 15.6624L23.3641 15.3531L23.4755 15.224L23.7658 14.7078L23.7904 14.1914L23.7917 13.6751L23.7856 13.1586L23.8014 12.6422L23.8019 12.1258L23.7312 11.6095L23.6258 11.093L23.5414 10.5766V10.0603V9.5439V9.0274V8.511V7.995V7.4785V6.9621L23.5389 6.4458L23.531 5.9294L23.5206 5.4129V4.8965L23.5337 4.3802L23.5568 3.8637L23.5799 3.3473L23.5996 2.831L23.6938 2.3146L23.7104 1.7981L23.7322 1.2817L23.7843 0.7657L23.8805 0.5426L24.1387 0.2492L24.3969 0.1134L24.9132 0.0809L25.4296 0.0562L25.946 0.0619L26.4624 0.1033L26.9788 0.1143L27.4951 0.1428L28.0115 0.1491L28.5279 0.1268L29.0443 0.1428L29.4316 0.2492L29.5606 0.304L30.077 0.63L30.2061 0.7657L30.3868 1.2817L30.4532 1.7981L30.523 2.3146L30.5934 2.5166L30.6622 2.831V3.3473V3.8637V4.3802V4.8965V5.4129V5.9294V6.4458L30.6513 6.9621L30.6579 7.4785L30.6701 7.995L30.6716 8.511L30.6461 9.0274L30.5934 9.4971L30.5845 9.5439L30.4822 10.0603L30.4212 10.5766L30.397 11.093L30.4043 11.6095V12.1258L30.3926 12.6422L30.3812 13.1586L30.3701 13.6751V14.1914L30.3771 14.7078L30.5836 15.224L30.5934 15.2403L30.9072 15.7403L31.1098 15.9019L31.6262 16.1204L32.1425 16.1661L32.6589 16.169L33.1753 16.0911L33.6917 15.9797L34.208 15.9106L34.7244 15.8265L35.04 15.7403L35.2408 15.6935L35.6926 15.224L35.7572 15.0982L35.9826 14.7078L36.0682 14.1914L36.16 13.6751L36.2364 13.1586L36.2736 12.9864L36.3933 12.6422L36.5947 12.1258L36.7735 11.6095L36.7899 11.5358L36.9209 11.093L37.0808 10.5766L37.2958 10.0603L37.3063 10.0375L37.5804 9.5439L37.8116 9.0274L37.8227 9.0077L38.1229 8.511L38.3239 7.995L38.3391 7.9675L38.671 7.4785L38.8554 7.0598L38.9178 6.9621L39.2512 6.4458L39.3718 6.2268L39.5998 5.9294L39.8882 5.5327L39.9869 5.4129L40.3001 4.8965L40.4046 4.7658L40.7554 4.3802L40.9209 4.1576L41.1512 3.8637L41.4373 3.5109L41.6036 3.3473L41.9537 2.9172L42.0347 2.831L42.4701 2.5426L42.7361 2.3146L42.9865 2.133L43.5028 1.8964L43.6489 1.7981L44.0192 1.5434L44.344 1.2817L44.5356 1.1653L45.052 0.9721L45.4492 0.7657L45.5683 0.714L46.0847 0.5547L46.6011 0.4602L47.1175 0.4742L47.6339 0.6561L47.7445 0.7657L47.9243 1.2817L47.8313 1.7981L47.6339 2.1931L47.527 2.3146L47.1175 2.6978L46.975 2.831L46.6011 3.0893L46.2821 3.3473L46.0847 3.5194L45.7267 3.8637L45.5683 4.0018L45.1811 4.3802L45.052 4.5395L44.7195 4.8965L44.5356 5.1202L44.3133 5.4129L44.0192 5.8432L43.9362 5.9294L43.5815 6.4458L43.5028 6.5987L43.2664 6.9621L43.0886 7.4785L42.9865 7.7299L42.8199 7.995L42.5908 8.511L42.4701 8.9537L42.4403 9.0274L42.2926 9.5439L42.1667 10.0603L42.087 10.5766L41.9881 11.093L41.9537 11.3057L41.873 11.6095L41.7374 12.1258L41.6503 12.6422L41.5953 13.1586L41.5281 13.6751L41.4577 14.1914L41.4373 14.4494L41.4046 14.7078L41.2478 15.224L41.2358 15.7403L41.2059 16.2567L41.1623 16.7732L41.1038 17.2896L41.0357 17.8059L40.9777 18.3223L40.9416 18.8388L40.9582 19.3551L40.9721 19.8715L40.9209 20.1584L40.8564 20.3878L40.6914 20.9044L40.5308 21.4207L40.4046 21.5831L39.8882 21.8509L39.3718 21.8432L38.8554 21.7717L38.3391 21.7193L37.8227 21.7265L37.3063 21.7535L36.7899 21.7373L36.2736 21.6607L35.7572 21.6015L35.2408 21.5291L34.7244 21.5196L34.208 21.5835L33.6917 21.7109L33.1753 21.7671L32.6589 21.7109L32.1425 21.6978L31.6262 21.7498L31.2102 21.9369L31.1098 21.9952L30.7676 22.4533L30.6568 22.9696L30.6622 23.486V24.0025V24.5189V25.0352V25.5516V26.0681V26.5844V27.1008V27.6171V28.1337V28.6497V29.1662V29.6826V30.1989V30.7153V31.2318L30.6762 31.7482L30.6373 32.2645L30.5934 32.5965L30.5511 32.7809L30.4491 33.2974L30.3854 33.8137L30.3561 34.3301L30.3491 34.8464V35.3627L30.3771 35.879L30.3701 36.3955L30.367 36.9119L30.3812 37.4282L30.4115 37.9446L30.4385 38.4611L30.4512 38.9775L30.4567 39.4938L30.3825 40.0102V40.5267L30.3783 41.043V41.5594L30.3741 42.0757L30.3701 42.5919V43.1083L30.3662 43.6248L30.3416 44.1412L30.2849 44.6575L30.262 45.1739L30.4363 45.6904L30.5934 45.8584L31.1098 46.0053L31.6262 45.7316L31.6644 45.6904L31.9723 45.1739L32.1425 44.8966L32.3218 44.6575L32.5991 44.1412L32.6589 44.0525L32.9171 43.6248L33.1753 43.1274L33.1955 43.1083L33.5433 42.5919L33.6917 42.2823L33.8304 42.0757L34.1489 41.5594L34.208 41.4596L34.4843 41.043L34.7244 40.7098L34.9019 40.5267L35.2019 40.0102L35.2408 39.9586L35.6474 39.4938L35.7572 39.2355L35.8987 38.9775L36.2736 38.5127L36.3232 38.4611L36.7299 37.9446L36.7899 37.8688L37.1464 37.4282L37.3063 37.1798L37.51 36.9119L37.8227 36.4849L37.8989 36.3955L38.2436 35.879L38.3391 35.7554L38.6921 35.3627L38.8554 35.0822L39.0149 34.8464L39.3718 34.351L39.3906 34.3301L39.8545 33.8137L39.8882 33.7735L40.3465 33.2974L40.4046 33.2225L40.7304 32.7809L40.9209 32.5521L41.2171 32.2645L41.4373 32.0019L41.6598 31.7482L41.9537 31.445L42.1455 31.2318L42.4701 30.7153L42.9865 30.2168L43.0059 30.1989L43.5028 29.8333L43.8126 29.6826L44.0192 29.6218L44.4209 29.6826L44.5356 29.7154L45.052 30.0552L45.1888 30.1989L45.4696 30.7153L45.5683 31.1628L45.5772 31.2318L45.5683 31.2863L45.4373 31.7482V32.2645V32.7809V33.2974V33.8137V34.3301V34.8464V35.3627L45.4174 35.879L45.4413 36.3955L45.445 36.9119L45.4261 37.4282L45.4084 37.9446L45.445 38.4611L45.5597 38.9775L45.5683 39.0171L45.6291 39.4938L45.5961 40.0102L45.5683 40.1946L45.4868 40.5267L45.4037 41.043L45.4112 41.5594L45.4995 42.0757L45.5683 42.3934L45.5944 42.5919L45.6221 43.1083L45.6178 43.6248L45.5683 43.9822L45.5339 44.1412L45.5683 44.6575L45.6128 45.1739L45.6704 45.6904L45.7513 46.2068L45.8371 46.7231L45.9126 47.2395L45.9595 47.756L45.9999 48.2723L46.0847 48.6271L46.1096 48.7887L46.2062 49.305L46.2586 49.8212L46.2838 50.3376L46.3585 50.8541L46.5688 51.3705L46.6011 51.4408L46.7101 51.8868L46.8332 52.4032L46.9297 52.9197L47.1175 53.3862L47.132 53.436L47.3053 53.9524L47.5638 54.4688L47.6339 54.5776L47.7986 54.9853L48.0485 55.5016L48.1502 55.6306L48.3668 56.018L48.6666 56.3999L48.8199 56.5342L49.183 56.8919L49.3778 57.0505L49.6994 57.2749L50.1928 57.5669L50.2157 57.5854L50.7321 57.9214L51.1194 58.0834L51.2485 58.1594L51.7649 58.3243L52.2813 58.5337L52.5802 58.5998L52.7976 58.6652L53.314 58.7418L53.8304 58.8227L54.3468 58.8334L54.8631 58.6822L55.0126 58.5998L55.3795 58.4318L55.8047 58.0834L55.8959 58.0131L56.4056 57.5669L56.4123 57.5596L56.8241 57.0505L56.9287 56.8993L57.2269 56.5342L57.445 56.2244L57.6015 56.018L57.9086 55.5016L57.9614 55.3466L58.106 54.9853L58.2136 54.4688L58.3416 53.9524L58.4778 53.5098L58.5096 53.436L58.733 52.9197L58.9712 52.4032L58.9942 52.38L59.5105 52.2448L59.8372 52.4032L60.0269 52.6614L60.1122 52.9197L60.1933 53.436L60.2884 53.9524L60.3161 54.4688L60.2742 54.9853L60.2628 55.5016L60.2172 56.018L60.1367 56.5342L60.1112 57.0505L60.0502 57.5669L60.0269 57.7105L59.9268 58.0834L59.7968 58.5998L59.6861 59.1161L59.5105 59.5908L59.4842 59.6325L59.1841 60.149L58.9942 60.5004L58.8786 60.6653L58.4778 61.1817L58.1099 61.6981L57.9614 61.9028L57.6551 62.2146L57.445 62.3675L56.9851 62.7309L56.9287 62.7711L56.4123 63.0417L56.0418 63.2471L55.8959 63.3217L55.3795 63.5123L54.8631 63.7635L54.3468 63.807L53.8304 63.8058L53.314 63.8514L52.7976 63.9094L52.2813 63.9268L51.7649 63.9904L51.2485 63.9966L50.7321 64L50.2157 63.9701L49.6994 63.9071L49.183 63.828L48.7063 63.7635Z" fill="white"/>
</svg>
