<svg width="65" height="64" viewBox="0 0 65 64" fill="none" xmlns="http://www.w3.org/2000/svg">
<path d="M23.2527 63.5989L22.9211 63.4662L22.5066 63.2264L22.4702 63.1844L22.3417 62.77L22.2644 62.3555L22.2051 61.941L22.257 61.5265L22.3759 61.112L22.5066 60.7686L22.548 60.6975L22.7963 60.283L22.8837 59.8685L22.9211 59.7822L23.1339 59.454L23.3049 59.0395L23.3356 58.9606L23.5095 58.6252L23.7073 58.2107L23.75 58.1261L23.9472 57.7962L24.0518 57.3817L24.1645 57.1667L24.3045 56.9672L24.5567 56.5528L24.579 56.5121L24.7797 56.1383L24.8908 55.7238L24.9935 55.3235L25.0006 55.3093L25.2178 54.8948L25.3728 54.4803L25.408 54.0658L25.2258 53.6513L24.9935 53.4572L24.579 53.3559L24.1645 53.3701L23.75 53.3813L23.3356 53.3547L22.9211 53.3601L22.5066 53.3675L22.0921 53.37L21.6776 53.3531L21.2632 53.3025L20.9141 53.2369L20.8487 53.2154L20.4342 53.1084L20.0197 53.0607L19.6052 53.0096L19.1908 52.9508L18.7763 52.9202L18.3618 52.9184L17.9473 52.8723L17.7549 52.8224L17.5328 52.7336L17.1184 52.6223L16.7039 52.5888L16.2894 52.5721L15.8749 52.5606L15.4604 52.5149L15.1174 52.4079L15.0459 52.3765L14.6315 52.1898L14.217 52.0395L14.1213 51.9934L13.8025 51.7961L13.388 51.6461L13.2242 51.579L12.9735 51.4458L12.5591 51.1909L12.522 51.1645L12.1446 50.8984L11.9567 50.75L11.7301 50.514L11.5439 50.3355L11.3156 50.0815L11.1958 49.921L10.9011 49.5905L10.8313 49.5065L10.5594 49.092L10.4867 49.0075L10.2127 48.6776L10.0722 48.5182L9.93946 48.2631L9.70526 47.8487L9.65766 47.7796L9.48076 47.4341L9.24316 47.0595L9.22836 47.0196L9.19336 46.6051L9.18016 46.1907L9.19006 45.7763L9.15636 45.3618L9.07466 44.9473L9.04346 44.5328L9.08146 44.1183H12.2554L12.3544 44.5328L12.5336 44.9473L12.5591 44.996L12.7004 45.3618L12.9659 45.7763L12.9735 45.7859L13.2153 46.1907L13.388 46.3634L13.6332 46.6051L13.8025 46.7901L14.0895 47.0196L14.217 47.1171L14.6315 47.3192L15.0459 47.4243L15.0815 47.4341L15.4604 47.6158L15.8749 47.7193L16.2894 47.7626L16.5835 47.8487L16.7039 47.9004L17.1184 47.9678L17.5328 48.0297L17.9473 48.0488L18.3618 48.0318L18.7763 48.0164L19.1908 48.0241L19.6052 48.0392L20.0197 48.0088L20.4342 48.0559L20.8487 48.1196L21.2632 48.1705L21.6776 48.1982L22.0921 48.2049L22.5066 48.1985L22.9211 48.1921L23.3356 48.1825L23.75 48.1863L24.1645 48.1972L24.579 48.2276L24.8455 48.2631L24.9935 48.297L25.408 48.4012L25.8224 48.4784L26.2369 48.5158L26.6514 48.4807H27.0659H27.4804H27.8949H28.3093H28.7238H29.1383H29.5528L29.9673 48.4859H30.3817H30.7962H31.2107H31.6252H32.0397H32.4541H32.8686L33.2831 48.4278L33.6976 48.4804L34.1121 48.5454L34.5265 48.5955L34.941 48.623L35.3555 48.6307L35.77 48.63L36.1845 48.6282L36.5989 48.6173L37.0134 48.6178L37.4279 48.6216L37.8424 48.6257H38.2569H38.6713L39.0858 48.629H39.5003L39.9148 48.63H40.3293H40.7437H41.1582H41.5727H41.9872H42.4017H42.8161H43.2306H43.6451H44.0596H44.4741H44.8886H45.303H45.7175H46.132L46.5465 48.6105L46.961 48.575L47.3754 48.519L47.7899 48.4863L48.2044 48.4704L48.6189 48.4299L49.0334 48.3343L49.3015 48.2631L49.4478 48.2387L49.8623 48.1145L50.2768 48.0196L50.6275 47.8487L50.6913 47.8225L51.1058 47.5975L51.3053 47.4341L51.5202 47.3315L51.9347 47.1105L52.0648 47.0196L52.3492 46.7999L52.5118 46.6051L52.6744 46.1907L52.7637 45.9107L52.8328 45.7763L52.9267 45.3618L52.9257 44.9473L52.8396 44.5328L52.7637 44.3644L52.7012 44.1183L52.6333 43.7038L52.3994 43.2893L52.3492 43.2104L52.196 42.8748L51.9347 42.5667L51.818 42.4603L51.5202 42.2281L51.1598 42.0459L51.1058 42.0051L50.6913 41.8318L50.2768 41.7493L49.8623 41.6506L49.7909 41.6315L49.4478 41.471L49.0334 41.3805L48.6189 41.2972L48.2044 41.2515L47.7899 41.2205L47.7485 41.217L47.3754 41.1652L46.961 41.1145L46.5465 41.0847L46.132 41.1034H45.7175L45.303 41.0998H44.8886L44.4741 41.0985L44.0596 41.095L43.6451 41.0936H43.2306L42.8161 40.9421L42.4017 40.9106L41.9872 40.889L41.5727 40.89L41.1582 40.8854L40.7437 40.8715L40.3293 40.8807L39.9148 40.9083L39.5003 40.9129L39.0858 40.819L39.0266 40.8024L38.6713 40.6732L38.2569 40.6248L37.8424 40.6302L37.4279 40.6457L37.0134 40.6396L36.5989 40.6281L36.1845 40.6298L35.77 40.6327H35.3555H34.941L34.5265 40.6298L34.1121 40.6241L33.6976 40.6188L33.2831 40.6162L32.8686 40.5283L32.4541 40.5393L32.0397 40.5668L31.6252 40.5999L31.2107 40.6315L30.7962 40.6497L30.3817 40.6483L29.9673 40.647L29.5528 40.6377H29.1383H28.7238H28.3093H27.8949H27.4804H27.0659H26.6514L26.2369 40.6262L25.8224 40.6419L25.408 40.6398L24.9935 40.5929L24.579 40.548L24.1645 40.524L23.75 40.5196L23.3356 40.5238L22.9211 40.5273L22.5066 40.5261L22.0921 40.5248L21.6776 40.5225L21.2632 40.5202L20.8487 40.5179L20.4342 40.5158L20.0197 40.5147L19.6052 40.5119L19.1908 40.506H18.7763L18.3618 40.5152L17.9473 40.5202L17.5328 40.5183L17.1184 40.5553L16.7039 40.6665L16.3412 40.8024L16.2894 40.816L15.8749 40.8635L15.4604 40.97L15.0459 41.0441L14.6833 41.217L14.6315 41.2372L14.217 41.4501L13.9209 41.6315L13.8025 41.7013L13.4358 42.0459L13.388 42.0873L13.027 42.4603L12.9735 42.5381L12.7007 42.8748L12.5591 43.1182L12.4397 43.2893L12.2668 43.7038L12.2554 44.1183H9.08146L9.07936 43.7038L9.08776 43.2893L9.10936 42.8748L9.16576 42.4603L9.22846 42.0459L9.24316 41.8801L9.27866 41.6315L9.38616 41.217L9.52846 40.8024L9.65766 40.5668L9.77306 40.388L9.98246 39.9735L10.0722 39.8308L10.2606 39.559L10.4363 39.1446L10.4867 39.0746L10.8141 38.7301L10.9011 38.6279L11.1406 38.3156L11.3156 38.0656L11.4883 37.9011L11.7301 37.6968L12.0227 37.4866L12.1446 37.4135L12.5591 37.115L12.6282 37.0721L12.9735 36.944L13.3819 36.6577L13.388 36.6534L13.8025 36.4577L14.217 36.2691L14.3206 36.2432L14.6315 36.1919L15.0459 36.0663L15.4604 35.9153L15.8018 35.8287L15.8749 35.8181L16.2894 35.7838L16.7039 35.75H17.1184H17.5328H17.9473H18.3618H18.7763H19.1908H19.6052L20.0197 35.7465H20.4342H20.8487H21.2632H21.6776H22.0921H22.5066H22.9211L23.3356 35.8057L23.6119 35.8287L23.75 35.8485L24.1645 35.9234L24.579 35.9706L24.9935 35.9779L25.408 35.9392L25.7268 35.8287L25.8224 35.8016L26.2369 35.5597L26.3521 35.4142L26.4084 34.9998L26.2442 34.5853L26.2369 34.5727L26.1236 34.1708L26.0104 33.7563L25.8685 33.3418L25.8224 33.2512L25.7098 32.9273L25.5807 32.5128L25.4598 32.0983L25.408 31.8912L25.3717 31.6838L25.265 31.2694L25.1173 30.8549L24.9935 30.5973L24.9435 30.4404L24.8899 30.0259L24.8188 29.6114L24.7525 29.1971L24.6747 28.7826L24.579 28.5235L24.5371 28.3681L24.4055 27.9536L24.32 27.5391L24.2194 27.1246L24.1645 26.8137L24.1542 26.71L24.0729 26.2956L23.9523 25.8811L23.801 25.4667L23.75 25.3159L23.6953 25.0522L23.6464 24.6377L23.6222 24.2232L23.5223 23.8088L23.41 23.3943L23.4525 22.9798L23.5524 22.5653L23.75 22.2321L23.8981 22.1508L24.1645 22.0876L24.579 22.1101L24.9935 22.1402L25.0379 22.1508L25.408 22.2948L25.8224 22.289L26.2369 22.2125L26.6514 22.2572L27.0659 22.2684L27.4804 22.2852L27.8949 22.3056L28.3093 22.3133H28.7238L29.1383 22.3077L29.5528 22.3021L29.9673 22.3176L30.3817 22.2288L30.589 22.1508L30.7962 22.0799L31.1034 21.7364L31.2107 21.4422L31.2632 21.3219L31.3423 20.9074L31.3143 20.4929L31.3223 20.0784L31.313 19.6639L31.2758 19.2495L31.2107 18.8988L31.2029 18.835L31.1651 18.4206L31.1589 18.0061L31.1671 17.5915L31.1726 17.177L31.1444 16.7626L31.0872 16.3481L31.0009 15.9336L30.9087 15.5191L30.7962 15.1611L30.7833 15.1046L30.5318 14.6902L30.3817 14.5676L29.9673 14.303L29.922 14.2757L29.5528 14.0475L29.1484 13.8612L29.1383 13.8534L28.7238 13.5248L28.6133 13.4467L28.3093 13.2129L28.1287 13.0322L27.8949 12.738L27.8155 12.6178L27.5218 12.2034L27.4804 12.1481L27.3084 11.7889L27.1511 11.3744L27.0659 11.1801L26.9917 10.9599L26.8305 10.5453L26.755 10.1308L26.6514 9.8325L26.624 9.7163L26.54 9.3018L26.4684 8.8875L26.4163 8.473L26.3877 8.0585L26.3751 7.644L26.4488 7.2296L26.4561 6.8151L26.4916 6.4006L26.5525 5.9861L26.6041 5.5716L26.6514 5.3098L26.6941 5.1571L26.8539 4.7426L26.9633 4.3282L27.0659 4.1363L27.2107 3.9137L27.3625 3.4992L27.4804 3.2883L27.6536 3.0847L27.8949 2.748L27.9514 2.6702L28.2456 2.2557L28.3093 2.1926L28.7134 1.8414L28.7238 1.8322L29.1383 1.4983L29.2212 1.4269L29.5528 1.1409L29.6814 1.0123L29.9673 0.8431L30.3817 0.6616L30.4681 0.5978L30.7962 0.4321L31.2107 0.2786L31.4456 0.1833L31.6252 0.1348L32.0397 0.0439L32.4541 0.0122L32.8686 0.0275L33.2831 0.023L33.6976 0.0289V3.3026L33.2831 3.3172L32.8686 3.4992L32.4541 3.5795L32.0397 3.8082L31.9302 3.9137L31.6252 4.0953L31.3488 4.3282L31.2107 4.4501L30.9074 4.7426L30.7962 4.9147L30.61 5.1571L30.3861 5.5716L30.3817 5.5837L30.2169 5.9861L30.1112 6.4006L29.9988 6.8151L30.0069 7.2296L30.0087 7.644L30.0493 8.0585L30.1277 8.473L30.3344 8.8875L30.3817 8.9612L30.5622 9.3018L30.7962 9.645L30.8403 9.7163L31.157 10.1308L31.2107 10.1748L31.6252 10.5097L31.6694 10.5453L32.0397 10.854L32.2614 10.9599L32.4541 11.08L32.8686 11.1993L33.2831 11.2589L33.6976 11.2565L34.1121 11.248L34.5265 11.2225L34.941 11.1575L35.3555 11.0082L35.4434 10.9599L35.77 10.8476L36.1327 10.5453L36.1845 10.508L36.5989 10.2062L36.6928 10.1308L37.0134 9.7533L37.042 9.7163L37.3517 9.3018L37.4279 9.1719L37.6027 8.8875L37.6981 8.473L37.7415 8.0585L37.7642 7.644L37.7425 7.2296L37.7663 6.8151L37.7388 6.4006L37.5855 5.9861L37.4279 5.7479L37.3442 5.5716L37.1695 5.1571L37.0134 4.9425L36.8662 4.7426L36.5989 4.4644L36.4181 4.3282L36.1845 4.1655L35.77 3.9217L35.7568 3.9137L35.3555 3.6327L34.941 3.5101L34.887 3.4992L34.5265 3.3824L34.1121 3.3144L33.6976 3.3026V0.0289L34.1121 0.0175L34.5265 0L34.941 0.0161L35.3555 0.1012L35.5954 0.1833L35.77 0.2823L36.1845 0.4104L36.5989 0.5648L36.6878 0.5978L37.0134 0.7587L37.4279 0.9738L37.509 1.0123L37.8424 1.2378L38.1279 1.4269L38.2569 1.5269L38.6713 1.8414L39.0858 2.2119L39.1362 2.2557L39.5003 2.5765L39.5868 2.6702L39.9148 3.0213L39.976 3.0847L40.3293 3.4834L40.3422 3.4992L40.6022 3.9137L40.7437 4.2191L40.7848 4.3282L40.9291 4.7426L41.1582 5.1402L41.1658 5.1571L41.2536 5.5716L41.2782 5.9861L41.2869 6.4006L41.2829 6.8151L41.2706 7.2296L41.2628 7.644L41.2719 8.0585L41.2797 8.473L41.2746 8.8875L41.2273 9.3018L41.1582 9.548L41.0823 9.7163L40.8879 10.1308L40.7637 10.5453L40.7437 10.5894L40.5234 10.9599L40.3293 11.2548L40.2365 11.3744L40.0008 11.7889L39.9148 11.9312L39.7075 12.2034L39.5003 12.5034L39.3879 12.6178L39.0858 12.9099L38.9674 13.0322L38.6713 13.2809L38.474 13.4467L38.2569 13.6539L38.0464 13.8612L37.8424 14.007L37.5163 14.2757L37.4279 14.3371L37.0134 14.4899L36.7061 14.6902L36.5989 14.7843L36.3443 15.1046L36.2343 15.5191L36.1965 15.9336L36.2019 16.3481L36.2292 16.7626L36.2457 17.177L36.2081 17.5915L36.2132 18.0061L36.2207 18.4206L36.2314 18.835L36.2515 19.2495L36.2845 19.6639L36.3124 20.0784L36.3193 20.4929L36.24 20.9074L36.2529 21.3219L36.321 21.7364L36.5299 22.1508L36.5989 22.2317L37.0134 22.4856L37.4279 22.5356L37.8424 22.541L38.2569 22.5368L38.6713 22.5246L39.0858 22.549L39.5003 22.5565L39.9148 22.5439H40.3293H40.7437H41.1582H41.5727H41.9872H42.4017H42.8161L43.2306 22.5116L43.536 22.5653L43.6451 22.6011L44.0596 22.6747L44.4741 22.8303L44.6367 22.9798L44.8886 23.3778L44.8964 23.3943L44.9715 23.8088L44.8886 24.1029L44.8293 24.2232L44.6861 24.6377L44.5683 25.0522L44.4741 25.4508L44.4673 25.4667L44.304 25.8811L44.1512 26.2956L44.0596 26.5132L43.9517 26.71L43.8354 27.1246L43.7027 27.5391L43.6451 27.6772L43.4771 27.9536L43.2887 28.3681L43.2306 28.5197L43.1053 28.7826L42.9598 29.1971L42.8161 29.5891L42.8028 29.6114L42.6294 30.0259L42.5614 30.4404L42.4017 30.7042L42.2596 30.8549L42.098 31.2694L41.9872 31.5872L41.9463 31.6838L41.8214 32.0983L41.6888 32.5128L41.5727 32.7652L41.4561 32.9273L41.2748 33.3418L41.2015 33.7563L41.1582 33.8579L40.9591 34.1708L40.7437 34.5564L40.7219 34.5853L40.5387 34.9998L36.2965 33.3418L36.4377 32.9273L36.5012 32.5128L36.578 32.0983L36.5989 32.0406L36.812 31.6838L36.9918 31.2694L37.0134 31.1752L37.1155 30.8549L37.2301 30.4404L37.3319 30.0259L37.4023 29.6114L37.4279 29.5443L37.6039 29.1971L37.7461 28.7826L37.8273 28.3681L37.8051 27.9536L37.4279 27.5539L37.3801 27.5391L37.0134 27.4283L36.5989 27.4551L36.1845 27.443H35.77H35.3555L34.941 27.4393H34.5265H34.1121H33.6976H33.2831L32.8686 27.451L32.4541 27.4317L32.0397 27.4393L31.6252 27.443L31.2107 27.4317L30.7962 27.4728L30.3817 27.443L30.2027 27.5391L29.9673 27.6517L29.7002 27.9536L29.6453 28.3681L29.7077 28.7826L29.865 29.1971L29.9673 29.3801L30.0657 29.6114L30.1701 30.0259L30.2619 30.4404L30.3817 30.7835L30.4029 30.8549L30.4774 31.2694L30.6155 31.6838L30.7962 32.0983L30.9109 32.5128L31.0495 32.9273L31.2107 33.2899L31.2274 33.3418L31.3028 33.7563L31.4113 34.1708L31.4993 34.5853L31.6252 34.8962L31.6583 34.9998L31.8926 35.4142L32.0397 35.5464L32.4541 35.723L32.8533 35.8287L32.8686 35.8361L33.2831 35.9592L33.6976 35.9804L34.1121 35.9454L34.5265 35.8879L34.7042 35.8287L34.941 35.7814L35.3555 35.575L35.5239 35.4142L35.7119 34.9998L35.77 34.751L35.83 34.5853L35.9302 34.1708L36.0983 33.7563L36.1845 33.5439L36.2965 33.3418L40.5387 34.9998L40.4959 35.4142L40.5611 35.8287L40.7437 36.0211L41.1582 36.1919L41.5727 36.235L41.9872 36.1898L42.4017 36.1651L42.8161 36.211L43.2306 36.2025H43.6451H44.0596H44.4741H44.8886H45.303H45.7175H46.132L46.5465 36.1957L46.961 36.1935L47.3754 36.193L47.7899 36.211L48.0268 36.2432L48.2044 36.2788L48.6189 36.388L49.0334 36.4892L49.4478 36.5431L49.8623 36.5446L50.2768 36.6013L50.464 36.6577L50.6913 36.7598L51.1058 36.9046L51.5202 37.0299L51.6141 37.0721L51.9347 37.2769L52.29 37.4866L52.3492 37.5349L52.7637 37.7006L53.1436 37.9011L53.1782 37.9275L53.5926 38.241L53.6921 38.3156L54.0071 38.5935L54.1487 38.7301L54.4216 38.9997L54.584 39.1446L54.8361 39.4111L54.9625 39.559L55.2506 39.8369L55.381 39.9735L55.6008 40.388L55.6651 40.468L55.8723 40.8024L56.03 41.217L56.0795 41.2999L56.1959 41.6315L56.3244 42.0459L56.494 42.4189L56.5106 42.4603L56.6294 42.8748L56.7105 43.2893L56.7605 43.7038L56.8951 44.1183L56.9085 44.2564L56.923 44.5328L56.9448 44.9473L56.9481 45.3618L56.9192 45.7763L56.9085 45.8591L56.8364 46.1907L56.7582 46.6051L56.7205 47.0196L56.6375 47.4341L56.5299 47.8487L56.494 47.9233L56.2917 48.2631L56.1327 48.6776L56.0795 48.7746L55.8378 49.092L55.6651 49.3943L55.587 49.5065L55.3306 49.921L55.2506 50.0385L54.996 50.3355L54.8361 50.4954L54.6105 50.75L54.4216 50.9366L54.1937 51.1645L54.0071 51.3661L53.7821 51.579L53.5926 51.7606L53.3352 51.9934L53.1782 52.097L52.7637 52.2462L52.3736 52.4079L52.3492 52.4164L51.9347 52.6233L51.628 52.8224L51.5202 52.8752L51.1058 53.0206L50.6913 53.1193L50.2768 53.2017L50.1288 53.2369L49.8623 53.2734L49.4478 53.3648L49.0334 53.3609H48.6189L48.2044 53.362L47.7899 53.3686L47.3754 53.375L46.961 53.3829L46.5465 53.3908L46.132 53.4965L45.7175 53.4865L45.303 53.4705L44.8886 53.4484L44.4741 53.4276L44.0596 53.4059L43.6451 53.3948L43.2306 53.3855L42.8161 53.3697L42.4017 53.3376L41.9872 53.3485L41.5727 53.3872L41.1582 53.3725L40.7437 53.3517L40.3293 53.43L39.9397 53.6513L39.9148 53.6748L39.6681 54.0658L39.673 54.4803L39.8034 54.8948L39.9148 55.0813L39.9948 55.3093L40.0762 55.7238L40.2414 56.1383L40.3293 56.2834L40.4404 56.5528L40.5761 56.9672L40.7437 57.3599L40.7514 57.3817L40.8397 57.7962L41.009 58.2107L41.1582 58.5052L41.1965 58.6252L41.2852 59.0395L41.383 59.454L41.5727 59.829L41.5891 59.8685L41.7015 60.283L41.805 60.6975L41.9088 61.112L41.9872 61.3758L42.0176 61.5265L42.0636 61.941L42.0626 62.3555L42.0306 62.77L41.9872 62.8868L41.826 63.1844L41.5727 63.51L41.4669 63.5989L41.1582 63.7601L40.7437 63.9258L40.3293 64L39.9148 63.9833L39.5003 63.8769L39.0858 63.7945L38.6713 63.7409L38.3062 63.5989L38.2569 63.5605L37.8942 63.1844L37.8424 63.1296L37.6395 62.77L37.4279 62.3797L37.4154 62.3555L37.2105 61.941L37.0535 61.5265L37.0134 61.4184L36.9516 61.112L36.8881 60.6975L36.6366 60.283L36.5989 60.209L36.5146 59.8685L36.3997 59.454L36.2881 59.0395L36.1845 58.8147L36.1154 58.6252L35.968 58.2107L35.8308 57.7962L35.77 57.5682L35.7381 57.3817L35.5852 56.9672L35.3841 56.5528L35.3555 56.5009L35.2509 56.1383L35.1814 55.7238L35.0964 55.3093L34.9478 54.8948L34.941 54.8789L34.8259 54.4803L34.5887 54.0658L34.5265 53.9847L34.1121 53.6649L34.0692 53.6513L33.6976 53.5303L33.2831 53.4914L32.8686 53.5391L32.4541 53.504L32.0397 53.505L31.6252 53.6246L31.5837 53.6513L31.2107 53.9043L31.0836 54.0658L30.8744 54.4803L30.7962 54.6876L30.6743 54.8948L30.4702 55.3093L30.3817 55.4925L30.2574 55.7238L30.1684 56.1383L30.0541 56.5528L29.9673 56.7047L29.8032 56.9672L29.6146 57.3817L29.5528 57.6881L29.512 57.7962L29.3072 58.2107L29.1467 58.6252L29.1383 58.6503L28.9816 59.0395L28.8633 59.454L28.7238 59.7915L28.6666 59.8685L28.461 60.283L28.331 60.6975L28.3093 60.7804L28.1834 61.112L28.0018 61.5265L27.8949 61.7752L27.8052 61.941L27.6185 62.3555L27.4804 62.5996L27.3359 62.77L27.0659 63.1336L27.0207 63.1844L26.6514 63.5287L26.5258 63.5989L26.2369 63.6855L25.8224 63.6796L25.408 63.6654L24.9935 63.6512L24.579 63.6396L24.1645 63.6317L23.75 63.6276L23.3356 63.6235L23.2527 63.5989Z" fill="white"/>
</svg>
