<svg width="65" height="64" viewBox="0 0 65 64" fill="none" xmlns="http://www.w3.org/2000/svg">
<path d="M15.4867 63.7435L15.149 63.5222L14.9245 63.3339L14.7394 63.1291L14.5745 62.9243L14.3298 62.5841L14.29 62.5147L14.1228 62.1051L13.9202 61.7858L13.8647 61.6955L13.7177 61.2859L13.7061 60.8763L13.7965 60.4668L13.9202 60.2467L14.0605 60.0572L14.3298 59.7239L14.4132 59.6476L14.7394 59.3635L14.8573 59.238L15.149 59.0114L15.3848 58.8285L15.5586 58.7024L15.8694 58.4189L15.9681 58.3151L16.2397 58.0092L16.3777 57.8887L16.7873 57.6719L16.8721 57.5997L17.1969 57.3343L17.3545 57.19L17.6065 56.938L17.7487 56.7805L18.0161 56.5055L18.168 56.3708L18.4257 56.1046L18.569 55.9613L18.8353 55.7931L19.122 55.5517L19.2448 55.446L19.552 55.1422L19.6544 55.0286L19.9778 54.7325L20.064 54.6427L20.3522 54.323L20.4736 54.2195L20.8157 53.9133L20.8832 53.8291L21.1236 53.5037L21.2928 53.2444L21.4381 53.0942L21.7024 52.8068L21.8129 52.6846L22.112 52.4034L22.2348 52.275L22.5215 52.0074L22.6581 51.8654L22.9311 51.5044L22.9733 51.4558L23.261 51.0462L23.3407 50.9403L23.6408 50.6366L23.7503 50.5204L23.9952 50.227L24.1599 49.9736L24.3088 49.8175L24.5695 49.5607L24.7295 49.4079L24.9791 49.0364L25.0078 48.9983L25.3837 48.5887L25.3887 48.5834L25.6999 48.1791L25.7982 48.0563L26.078 47.7696L26.2078 47.5686L26.3593 47.36L26.6174 46.9976L26.6546 46.9504L26.9948 46.5408L27.027 46.4945L27.3051 46.1312L27.4366 45.8892L27.5466 45.7216L27.7843 45.312L27.8462 45.1991L28.051 44.9024L28.2558 44.5897L28.3297 44.4928L28.6403 44.0833L28.6654 44.0501L28.9075 43.6737L29.0749 43.3729L29.2088 43.2641L29.4845 42.8659L29.4917 42.8545L29.7629 42.445L29.8941 42.2462L30.0668 42.0354L30.2419 41.6258L30.3037 41.4982L30.5085 41.2162L30.7133 40.8578L30.7484 40.8066L30.9583 40.397L31.1229 40.1302L31.2502 39.9874L31.4351 39.5778L31.5325 39.4152L31.7284 39.1682L31.942 38.7751L31.9555 38.7586L32.1837 38.3491L32.3175 37.9394L32.3516 37.8685L32.5518 37.5299L32.6969 37.1202L32.7612 36.9474L32.9133 36.7107L33.0616 36.3011L33.1708 36.1317L33.3309 35.8916L33.4575 35.4819L33.5804 35.0724L33.7493 34.6627L33.8958 34.2532L33.99 33.9587L34.0434 33.8435L34.1218 33.434L34.1338 33.0244L34.2491 32.6148L34.3452 32.2052L34.3996 31.9834L34.4734 31.7956L34.4941 31.3861L34.3996 31.0447L34.3862 30.9765L34.255 30.5669L34.1423 30.1573L34.0798 29.7477L33.99 29.5706L33.9139 29.3381L33.7852 28.9285L33.5804 28.6487L33.4967 28.5189L33.2612 28.1093L33.1708 27.9758L33.0015 27.6998L32.7612 27.3944L32.701 27.2902L32.4882 26.8806L32.3516 26.727L32.1589 26.471L31.942 26.215L31.8021 26.0615L31.5325 25.8017L31.3826 25.6519L31.1229 25.3788L30.975 25.2423L30.7133 25.0281L30.3037 24.8471L30.2777 24.8327L29.8941 24.5729L29.5702 24.4231L29.4845 24.3627L29.0749 24.1749L28.6654 24.1371L28.2558 24.0774L28.0568 24.0135L27.8462 23.9018L27.4366 23.7169L27.027 23.6642L26.6174 23.6859L26.2078 23.7027L25.7982 23.6787L25.3887 23.6675L24.9791 23.6551L24.5695 23.7268L24.1599 23.951L24.0575 24.0135L23.7503 24.1096L23.3407 24.1693L22.9311 24.2086L22.5215 24.3645L22.354 24.4231L22.112 24.4823L21.7024 24.6664L21.3651 24.8327L21.2928 24.853L20.8832 24.8992L20.4736 24.8922L20.3285 24.8327L20.064 24.6513L19.8105 24.4231L19.6544 24.2807L19.4789 24.0135L19.4104 23.6039L19.4871 23.1943L19.6544 22.9433L19.7743 22.7847L20.0061 22.3752L20.064 22.2977L20.3751 21.9656L20.4736 21.8683L20.8112 21.556L20.8832 21.4941L21.2819 21.1464L21.2928 21.1379L21.7024 20.8966L21.9754 20.7368L22.112 20.6699L22.5215 20.4571L22.6906 20.3273L22.9311 20.2009L23.3407 20.1602L23.7503 20.0542L24.0129 19.9177L24.1599 19.8546L24.5695 19.6564L24.862 19.5081L24.9791 19.4736L25.3887 19.4247L25.7982 19.4174L26.2078 19.4083L26.6174 19.429L27.027 19.4427L27.4366 19.4226L27.8462 19.403L28.2558 19.4297L28.6654 19.5044L28.6869 19.5081L29.0749 19.5979L29.4845 19.733L29.8941 19.8027L30.3037 19.8965L30.3795 19.9177L30.7133 20.0317L31.1229 20.1747L31.4414 20.3273L31.5325 20.3892L31.942 20.6131L32.3516 20.7083L32.4091 20.7368L32.7612 20.9526L33.1146 21.1464L33.1708 21.1927L33.5804 21.4208L33.8354 21.556L33.99 21.6859L34.3422 21.9656L34.3996 22.0118L34.8092 22.2696L34.9554 22.3752L35.2187 22.6209L35.498 22.7847L35.6283 22.8633L35.9381 23.1943L36.0379 23.3333L36.2298 23.6039L36.4475 23.8462L36.6899 24.0135L36.8571 24.1396L37.2667 24.2336L37.5676 24.0135L37.6763 23.8613L37.7918 23.6039L37.8485 23.1943L37.9274 22.7847L38.0091 22.3752L38.0859 22.0167L38.1074 21.9656L38.2203 21.556L38.3316 21.1464L38.4202 20.7368L38.4694 20.3273L38.4881 19.9177L38.4954 19.8745L38.5871 19.5081L38.7054 19.0985L38.8231 18.6888L38.8728 18.2793L38.8789 17.8696L38.905 17.5966L38.9242 17.4601L39.0185 17.0505L39.0753 16.641L39.1168 16.2313L39.0636 15.8218L38.905 15.5585L38.7662 15.4121L38.4954 15.2197L38.0859 15.1185L37.6763 15.0322L37.3486 15.0026L37.2667 14.9884L36.8571 14.9723L36.4475 14.9294L36.0379 14.9956L35.8331 15.0026L35.6283 15.0064L35.5259 15.0026L35.2187 14.9807L34.8092 14.8891L34.3996 14.8107L33.99 14.8056L33.5804 14.8681L33.1708 14.9451L32.7612 14.966L32.3516 14.8627L31.942 14.7373L31.5325 14.7106L31.1229 14.7324L30.7133 14.7172L30.3037 14.7081L29.8941 14.6405L29.7439 14.593L29.4845 14.4802L29.1252 14.1834L29.0749 14.1322L28.8 13.7738L28.6654 13.5452L28.5834 13.3642L28.5191 12.9546L28.5133 12.545L28.5145 12.1354L28.5288 11.7258L28.5729 11.3163L28.6477 10.9067L28.6654 10.8205L28.7557 10.4971L28.8143 10.0875L28.8313 9.678L28.9128 9.2684L29.0332 8.8588L29.0749 8.7564L29.2576 8.4492L29.3913 8.0396L29.4845 7.6907L29.5118 7.63L29.743 7.2204L29.8819 6.8108L29.8941 6.7914L30.1556 6.4012L30.3037 6.1112L30.3801 5.9917L30.6099 5.5821L30.7133 5.4456L30.9312 5.1725L31.1229 4.8721L31.2222 4.7629L31.5325 4.4572L31.6319 4.3533L31.942 3.9438L32.3516 3.5485L32.3644 3.5342L32.7612 3.1661L32.806 3.1246L33.1336 2.715L33.1708 2.677L33.5804 2.3613L33.6474 2.3054L33.99 2.0437L34.1705 1.8958L34.3996 1.7718L34.8092 1.5265L34.8638 1.4862L35.2187 1.3107L35.6283 1.0989L35.6591 1.0766L36.0379 0.9323L36.4475 0.848L36.8366 0.6671L36.8571 0.658L37.2667 0.5032L37.6763 0.3903L38.0859 0.2646L38.1022 0.2575L38.4954 0.1704L38.905 0.0895L39.3146 0.0095H39.7242L40.1338 0.019L40.5434 0.027L40.953 0.0084L41.3625 0L41.7721 0.0376L42.1817 0.0795L42.5913 0.174L43.0009 0.1755L43.4105 0.2291L43.48 0.2575L43.8201 0.501L44.0993 0.6671L44.2297 0.7539L44.6392 0.9077L45.0293 1.0766L45.0488 1.0912L45.4584 1.3431L45.7795 1.4862L45.868 1.5317L46.2776 1.7416L46.5248 1.8958L46.6872 2.0181L47.0968 2.2486L47.1787 2.3054L47.5064 2.5885L47.6689 2.715L47.9159 2.9002L48.1606 3.1246L48.3255 3.3169L48.6513 3.5342L48.7351 3.6094L48.9761 3.9438L49.1447 4.1053L49.3448 4.3533L49.5543 4.6369L49.6281 4.7629L49.882 5.1725L49.9639 5.2681L50.1882 5.5821L50.3735 5.86L50.4393 5.9917L50.7086 6.4012L50.7831 6.4832L50.9453 6.8108L51.1292 7.2204L51.1926 7.336L51.3109 7.63L51.4 8.0396L47.6702 9.2684L47.5064 8.9891L47.4612 8.8588L47.3308 8.4492L47.0968 8.1215L47.0358 8.0396L46.7055 7.63L46.6872 7.605L46.3881 7.2204L46.2776 7.1082L46.0794 6.8108L45.868 6.5619L45.6813 6.4012L45.4584 6.2118L45.2172 5.9917L45.0488 5.8186L44.6756 5.5821L44.6392 5.55L44.2297 5.2153L44.1419 5.1725L43.8201 5.0097L43.4105 4.9063L43.0692 4.7629L43.0009 4.7126L42.5913 4.5109L42.1817 4.4464L41.7721 4.4082L41.3625 4.3533L40.953 4.2779L40.5434 4.2471L40.1338 4.2458L39.7242 4.266L39.3146 4.285L39.0074 4.3533L38.905 4.3686L38.4954 4.4236L38.0859 4.524L37.6763 4.7083L37.5943 4.7629L37.2667 4.894L36.8571 5.0214L36.5926 5.1725L36.4475 5.2499L36.0434 5.5821L36.0379 5.5859L35.6321 5.9917L35.6283 5.9967L35.3048 6.4012L35.2187 6.4899L34.9223 6.8108L34.8092 6.9506L34.5328 7.2204L34.3996 7.4608L34.2998 7.63L34.0583 8.0396L33.99 8.1597L33.7947 8.4492L33.5841 8.8588L33.5804 8.8663L33.322 9.2684L33.2878 9.678L33.4524 10.0875L33.5804 10.2182L33.99 10.3551L34.3996 10.3561L34.8092 10.3386L35.2187 10.3395L35.6283 10.3544L36.0379 10.3526H36.4475H36.8571H37.2667H37.6763H38.0859H38.4954H38.905L39.3146 10.3761L39.7242 10.3653L40.1338 10.3542L40.5434 10.3575L40.953 10.3838L41.3625 10.4248L41.7721 10.4603L42.1817 10.4796L42.5913 10.4694H43.0009H43.4105H43.8201H44.2297H44.6392H45.0488H45.4584L45.7315 10.4971L45.868 10.5212L46.2776 10.6288L46.6872 10.6976L47.0968 10.6797L47.5064 10.5128L47.5279 10.4971L47.8704 10.0875L47.7896 9.678L47.6702 9.2684L51.4 8.0396L51.5669 8.4492L51.6022 8.5199L51.7091 8.8588L51.8148 9.2684L51.9018 9.678L52.0118 9.8719L52.0884 10.0875L52.1439 10.4971L52.2366 10.9067L52.2849 11.3163L52.2694 11.7258L52.2481 12.1354L52.2507 12.545L52.272 12.9546L52.2279 13.3642L52.2605 13.7738L52.2632 14.1834L52.1456 14.593L52.0118 14.7655L51.6022 14.9207L51.3804 15.0026L51.1926 15.0468L50.7831 15.0781L50.3735 15.094L49.9639 15.106L49.5543 15.1325L49.1447 15.1703L48.7351 15.1696L48.3255 15.1616L47.9159 15.1752L47.5064 15.2116L47.0968 15.2386L46.6872 15.2483L46.2776 15.271L45.868 15.3036L45.4584 15.2727L45.0488 15.2301L44.6392 15.3384L44.5413 15.4121L44.2297 15.6879L44.1287 15.8218L43.9636 16.2313L43.9386 16.641L43.9295 17.0505L43.9277 17.4601L43.9356 17.8696L43.9179 18.2793L43.8319 18.6888L43.8201 18.7229L43.6445 19.0985L43.5625 19.5081L43.5061 19.9177L43.487 20.3273L43.4574 20.7368L43.422 21.1464L43.4105 21.2342L43.3488 21.556L43.2611 21.9656L43.182 22.3752L43.1361 22.7847L43.043 23.1943L43.0009 23.4196L42.9415 23.6039L42.8066 24.0135L42.7376 24.4231L42.6919 24.8327L42.6319 25.2423L42.5913 25.4388L42.5163 25.6519L42.4394 26.0615L42.2523 26.471L42.1986 26.8806L42.1817 26.9626L42.0881 27.2902L42.0069 27.6998L41.9746 28.1093L41.9351 28.5189L41.839 28.9285L41.7721 29.2264L41.729 29.3381L41.5289 29.7477L41.463 30.1573L41.3799 30.5669L41.3625 30.6427L41.2578 30.9765L41.1395 31.3861L40.9805 31.7956L40.953 31.8566L40.7668 32.2052L40.6849 32.6148L40.5434 32.9607L40.4979 33.0244L40.2939 33.434L40.1449 33.8435L40.1338 33.8809L39.9892 34.2532L39.8467 34.6627L39.7242 34.9525L39.6569 35.0724L39.48 35.4819L39.3835 35.8916L39.3146 36.0258L39.1301 36.3011L38.978 36.7107L38.905 36.8951L38.7895 37.1202L38.6291 37.5299L38.4954 37.7838L38.3944 37.9394L38.2002 38.3491L38.0859 38.5572L37.9242 38.7586L37.7713 39.1682L37.6763 39.3428L37.5035 39.5778L37.3085 39.9874L37.2667 40.071L37.0479 40.397L36.8929 40.8066L36.8571 40.8818L36.6597 41.2162L36.4475 41.6258L36.194 42.0354L36.0379 42.3697L35.9852 42.445L35.6664 42.8545L35.6323 43.2641L35.7622 43.6737L36.0379 43.8423L36.4475 43.8168L36.6899 43.6737L36.8571 43.5926L37.2667 43.4089L37.6763 43.2767L37.7119 43.2641L38.0859 43.1906L38.4954 43.1218L38.905 42.9747L39.3146 42.8828L39.4511 42.8545L39.7242 42.8227L40.1338 42.746L40.5434 42.6602L40.953 42.5702L41.3625 42.469L41.4649 42.445L41.7721 42.4006L42.1817 42.3669L42.5913 42.3337L43.0009 42.3085L43.4105 42.2341L43.8201 42.1092L44.1666 42.0354L44.2297 42.0285L44.4345 42.0354L44.6392 42.0478L45.0488 42.145L45.4584 42.2319L45.868 42.3392L46.2776 42.3654L46.6872 42.4197L46.7934 42.445L47.0968 42.5425L47.5064 42.6812L47.9159 42.8545L48.3255 43.1168L48.7351 43.2536L48.7509 43.2641L49.1447 43.5874L49.3154 43.6737L49.5543 43.8423L49.7917 44.0833L49.9639 44.266L50.1605 44.4928L50.3735 44.7682L50.4436 44.9024L50.5994 45.312L50.7376 45.7216L50.5783 46.1312L50.3735 46.3783L50.0535 46.5408L49.9639 46.5653L49.5543 46.5749L49.1447 46.5668L48.7351 46.5941L48.3255 46.5713L48.1207 46.5408L47.9159 46.4804L47.5064 46.418L47.0968 46.4458L46.6872 46.5072L46.5296 46.5408L46.2776 46.5678L45.868 46.62L45.4584 46.6553L45.0488 46.691L44.6392 46.7224L44.2297 46.748L43.8201 46.8496L43.6328 46.9504L43.4105 47.0267L43.0009 47.115L42.5913 47.1324L42.1817 47.1762L41.7721 47.2633L41.4406 47.36L41.3625 47.3751L40.953 47.4352L40.5434 47.5014L40.1338 47.6195L39.8295 47.7696L39.7242 47.8022L39.3146 47.8945L38.905 48.0009L38.4954 48.0695L38.1571 48.1791L38.0859 48.1962L37.6763 48.2913L37.2667 48.414L36.8571 48.5755L36.8288 48.5887L36.4475 48.7004L36.0379 48.8334L35.8263 48.9983L35.6283 49.1083L35.2187 49.182L34.8092 49.3273L34.6428 49.4079L34.3996 49.5029L33.99 49.7407L33.8364 49.8175L33.5804 49.8913L33.1708 50.0223L32.8496 50.227L32.7612 50.2712L32.3516 50.4645L31.9908 50.6366L31.942 50.6576L31.5325 50.8825L31.3201 51.0462L31.1229 51.173L30.7786 51.4558L30.7133 51.5018L30.3037 51.7137L30.0719 51.8654L29.8941 51.9713L29.4906 52.275L29.4845 52.2791L29.0749 52.5822L28.9384 52.6846L28.6654 52.8996L28.4059 53.0942L28.2558 53.1943L27.9281 53.5037L27.8462 53.5909L27.539 53.9133L27.4366 54.0048L27.1218 54.323L27.027 54.4242L26.684 54.7325L26.6174 54.7952L26.3254 55.1422L26.2078 55.2852L26.0104 55.5517L25.7982 55.8312L25.6546 55.9613L25.3887 56.2205L25.219 56.3708L24.9791 56.7136L24.9279 56.7805L24.628 57.19L24.5695 57.2623L24.2399 57.5997L24.1599 57.6762L23.8115 58.0092L23.7503 58.0758L23.4197 58.4189L23.3407 58.505L22.9506 58.8285L22.9311 58.8428L22.5919 59.238L22.5215 59.3031L22.112 59.5071L21.9534 59.6476L21.7024 59.907L21.5637 60.0572L21.2928 60.4166L21.2556 60.4668L20.9311 60.8763L20.8832 60.93L20.551 61.2859L20.4736 61.3642L20.0856 61.6955L20.064 61.7163L19.6983 62.1051L19.6544 62.139L19.2448 62.4111L19.1183 62.5147L18.8353 62.802L18.6987 62.9243L18.4257 63.1487L18.2004 63.3339L18.0161 63.464L17.6506 63.7435L17.6065 63.77L17.1969 63.9282L16.7873 64L16.3777 63.9928L15.9681 63.9222L15.5586 63.7791L15.4867 63.7435Z" fill="white"/>
</svg>
