<svg width="260" height="260" viewBox="0 0 260 260" fill="none" xmlns="http://www.w3.org/2000/svg">
<path d="M96.9348 4.73673L113.251 1.53836L129.827 0.500958L146.75 1.53842L163.065 4.73673L178.778 10.0102L193.714 17.1855L207.613 26.262L220.217 37.0681L231.355 49.3441L240.851 63.0032L248.535 77.6993L254.233 93.2599L257.945 109.425L259.499 125.937L258.981 142.535L256.305 158.96L251.557 174.867L244.823 190.082L236.189 204.259L225.829 217.227L213.915 228.811L200.62 238.753L186.202 246.878L170.835 253.103L154.777 257.339L138.287 259.5H121.713L105.223 257.339L89.1649 253.103L73.7975 246.878L59.3803 238.753L46.0853 228.811L34.171 217.227L23.8105 204.259L15.1773 190.082L8.44338 174.867L3.69499 158.96L1.01874 142.535L0.500733 125.937L2.05471 109.426L5.76697 93.26L11.4649 77.6993L19.1485 63.0032L28.6454 49.344L39.7826 37.0681L52.3874 26.262L66.286 17.1855L81.2218 10.0102L96.9348 4.73673Z" fill="#0A0A0A" stroke="white"/>
</svg>
