<svg width="304" height="304" viewBox="0 0 304 304" fill="none" xmlns="http://www.w3.org/2000/svg">
<path d="M152.173 152L152.173 282L168.813 280.96L185.193 277.753L200.967 272.467L215.96 265.273L229.913 256.173L242.567 245.34L253.747 233.033L263.28 219.34L270.993 204.607L276.713 189.007L280.44 172.8L282 156.247L281.48 139.607L278.793 123.14L274.027 107.193L267.267 91.94L258.6 77.7267L248.2 64.7267L236.24 53.1133L222.893 43.1467L208.42 35L192.993 28.76L176.873 24.5133L160.32 22.3467L143.68 22.3467L127.127 24.5133L111.007 28.76L95.5801 35L81.1067 43.1467L67.7601 53.1133L55.8 64.7266L45.4 77.7266L36.7334 91.94L29.9734 107.193L25.2067 123.14L22.52 139.607L22 156.247L23.56 172.8L27.2867 189.007L33.0067 204.607L40.72 219.34L50.2533 233.033L61.4334 245.34L74.0867 256.173L88.04 265.273L103.033 272.467L118.807 277.753L135.187 280.96L152.173 282" fill="#0A0A0A"/>
<path d="M59.0062 189.007L60.9996 196.893L63.3396 204.607L66.0262 212.147L69.0596 219.427L72.4396 226.447L76.1662 233.12L80.2396 239.447L84.5729 245.427L89.1662 251.06L94.0195 256.26L99.1329 261.027L104.42 265.36L109.966 269.173L115.686 272.553L121.493 275.413L127.473 277.753L133.54 279.573L139.693 280.873L145.933 281.653L152.173 282L143.853 281.74L135.533 280.96L127.3 279.66L119.153 277.84L111.18 275.5L103.38 272.64L95.7529 269.26L88.3862 265.447L81.2796 261.113L74.4329 256.347L67.9329 251.147L61.7796 245.513L55.9729 239.533L50.5996 233.207L45.5729 226.533L41.0662 219.513L36.9929 212.233L33.3529 204.693L30.2329 196.98L27.6329 189.093L25.5529 181.033L23.9929 172.887L22.9529 164.653L22.4329 156.333L22.4329 148.013L22.9529 139.693L23.9929 131.46L25.5529 123.313L27.6329 115.253L30.2329 107.367L33.3529 99.6533L36.9929 92.1133L41.0662 84.8333L45.5729 77.8133L50.5996 71.1399L55.9729 64.8133L61.7796 58.8333L67.9329 53.1999L74.4329 47.9999L81.2796 43.2333L88.3862 38.8999L95.7529 35.0866L103.38 31.7066L111.18 28.8466L119.153 26.5066L127.3 24.6866L135.533 23.3866L143.853 22.6066L152.173 21.9999L145.933 22.2599L139.693 23.0399L133.54 24.3399L127.473 26.1599L121.493 28.4999L115.686 31.3599L109.966 34.7399L104.42 38.5533L99.1329 42.8866L94.0196 47.6533L89.1662 52.8533L84.5729 58.4866L80.2396 64.4666L76.1662 70.7933L72.4396 77.4666L69.0596 84.4866L66.0262 91.7666L63.3396 99.3066L60.9996 107.02L59.0062 114.907L57.4462 122.967L56.2329 131.113L55.4529 139.347L55.0196 147.667L55.0196 155.987L55.4529 164.307L56.2329 172.54L57.4462 180.687" fill="white"/>
</svg>
