<svg width="304" height="304" viewBox="0 0 304 304" fill="none" xmlns="http://www.w3.org/2000/svg">
<path d="M151.827 152V22L135.187 23.04L118.807 26.2467L103.033 31.5333L88.04 38.7267L74.0867 47.8267L61.4333 58.66L50.2533 70.9667L40.72 84.66L33.0067 99.3933L27.2867 114.993L23.56 131.2L22 147.753L22.52 164.393L25.2067 180.86L29.9733 196.807L36.7333 212.06L45.4 226.273L55.8 239.273L67.76 250.887L81.1067 260.853L95.58 269L111.007 275.24L127.127 279.487L143.68 281.653H160.32L176.873 279.487L192.993 275.24L208.42 269L222.893 260.853L236.24 250.887L248.2 239.273L258.6 226.273L267.267 212.06L274.027 196.807L278.793 180.86L281.48 164.393L282 147.753L280.44 131.2L276.713 114.993L270.993 99.3933L263.28 84.66L253.747 70.9667L242.567 58.66L229.913 47.8267L215.96 38.7267L200.967 31.5333L185.193 26.2467L168.813 23.04L151.827 22" fill="#0A0A0A"/>
<path d="M244.994 114.993L243 107.107L240.66 99.3933L237.974 91.8533L234.94 84.5733L231.56 77.5533L227.834 70.88L223.76 64.5533L219.427 58.5733L214.834 52.94L209.98 47.74L204.867 42.9733L199.58 38.64L194.034 34.8267L188.314 31.4467L182.507 28.5867L176.527 26.2467L170.46 24.4267L164.307 23.1267L158.067 22.3467L151.827 22L160.147 22.26L168.467 23.04L176.7 24.34L184.847 26.16L192.82 28.5L200.62 31.36L208.247 34.74L215.614 38.5533L222.72 42.8867L229.567 47.6533L236.067 52.8533L242.22 58.4867L248.027 64.4667L253.4 70.7933L258.427 77.4667L262.934 84.4867L267.007 91.7667L270.647 99.3067L273.767 107.02L276.367 114.907L278.447 122.967L280.007 131.113L281.047 139.347L281.567 147.667V155.987L281.047 164.307L280.007 172.54L278.447 180.687L276.367 188.747L273.767 196.633L270.647 204.347L267.007 211.887L262.934 219.167L258.427 226.187L253.4 232.86L248.027 239.187L242.22 245.167L236.067 250.8L229.567 256L222.72 260.767L215.614 265.1L208.247 268.913L200.62 272.293L192.82 275.153L184.847 277.493L176.7 279.313L168.467 280.613L160.147 281.393L151.827 282L158.067 281.74L164.307 280.96L170.46 279.66L176.527 277.84L182.507 275.5L188.314 272.64L194.034 269.26L199.58 265.447L204.867 261.113L209.98 256.347L214.834 251.147L219.427 245.513L223.76 239.533L227.834 233.207L231.56 226.533L234.94 219.513L237.974 212.233L240.66 204.693L243 196.98L244.994 189.093L246.554 181.033L247.767 172.887L248.547 164.653L248.98 156.333V148.013L248.547 139.693L247.767 131.46L246.554 123.313" fill="white"/>
</svg>
