<svg xmlns="http://www.w3.org/2000/svg" viewBox="0 0 64 64"><defs><style>.cls-1{fill:none;}.cls-2{fill:#fff;}</style></defs><g id="Layer_1" data-name="Layer 1"><rect width="64" height="64"/><rect x="31" y="32" width="2" height="2"/></g><g id="Layer_2" data-name="Layer 2"><rect class="cls-1" x="5.84" y="5.84" width="52.31" height="52.31"/></g><g id="MONTHS"><g id="_01_GHOST" data-name="01 GHOST"><path class="cls-2" d="M41.45,57.46l-.3.17-.34,0-.3-.19-.23-.27-.21-.27-.19-.3-.17-.3L39.53,56l-.16-.32-.15-.31L39,55l-.17-.3-.19-.28-.25-.26L38.14,54l-.34,0-.26.23-.21.28-.17.3-.16.31-.15.31-.14.32-.14.31-.16.32-.16.31-.17.31-.18.3-.21.28-.22.26-.3.19-.35.06L34.49,58l-.24-.22L34,57.53l-.19-.3-.18-.29-.17-.32-.16-.31L33.16,56,33,55.68l-.16-.31-.16-.32-.17-.3-.21-.27L32,54.27l-.35,0-.29.18-.23.26L31,55l-.18.3-.17.31-.16.32-.16.31-.17.32-.18.29-.19.3-.21.28-.24.24-.3.18h-.35l-.29-.18-.23-.26-.19-.3-.18-.31-.15-.31-.14-.32-.14-.31-.12-.33-.13-.33L27,54.82l-.12-.33-.12-.33-.12-.33-.14-.33-.14-.32-.18-.31-.21-.28-.26-.23-.33,0-.3.17-.24.27-.19.28-.18.29-.15.32-.14.31-.14.31-.14.32-.14.33-.14.33-.14.33-.14.32-.14.31-.16.31-.17.32-.19.29-.23.27-.28.21-.35,0-.31-.16-.25-.24L21,57l-.17-.3-.16-.31-.15-.31-.16-.32-.14-.31-.14-.32-.16-.31-.15-.31-.16-.32-.18-.29-.19-.3L19,53.31l-.27-.21-.34,0-.29.18-.23.28-.17.29-.16.32-.14.31-.14.31-.14.34-.12.33-.14.33-.14.31-.14.32-.16.31L16.3,57l-.18.3-.21.28-.26.24-.31.13L15,57.89l-.28-.19-.23-.26-.21-.28-.19-.29-.18-.3-.17-.32-.16-.31,0,0V24.21l.14-2.3.44-2.27.72-2.2,1-2.09,1.24-1.95,1.48-1.78L20.26,10l1.86-1.36,2-1.12,2.14-.85,2.23-.58,2.31-.3h2.32l2.3.3,2.23.58,2.15.85,2,1.12L43.72,10l1.69,1.59,1.48,1.78,1.24,1.95,1,2.09.71,2.2.2,1-.13-.12-.49-.35-.52-.29-.56-.23-.59-.16-.59-.07h-.61l-.6.07-.59.16-.56.23-.52.29-.49.35-.44.42L43,21.4l-.33.51-.26.54-.19.57-.11.6,0,.61H34l0-.61-.1-.6-.19-.57-.27-.54L33,21.4l-.38-.47-.44-.42-.49-.35-.52-.29-.56-.23-.59-.16-.59-.07h-.61l-.6.07-.59.16-.56.23-.52.29-.49.35-.44.42-.38.47-.33.51-.26.54-.2.57-.1.6,0,.61,0,.61.1.59.2.58.26.54.33.5.38.47.44.42.49.35.52.3.56.23.59.15.6.07h.61l.59-.07.59-.15.56-.23.52-.3.49-.35.44-.42.38-.47.33-.5.27-.54.19-.58.1-.59,0-.61H42l0,.61.11.59.19.58.26.54.33.5.38.47.44.42.49.35.52.3.56.23.59.15.6.07h.61l.59-.07.59-.15.56-.23.52-.3.49-.35.44-.42.07-.08V54.79l0,.09-.16.31L50,55.5l-.15.32-.16.31-.16.32-.17.29-.19.3-.21.28-.25.24-.29.18-.35,0-.28-.19-.23-.26L47.4,57l-.16-.31-.14-.32L47,56l-.12-.33-.12-.33L46.6,55l-.11-.33-.1-.33L46.28,54l-.12-.33L46,53.38l-.12-.33-.13-.34-.14-.31-.15-.31-.18-.3-.22-.28-.28-.21-.35,0-.3.2-.23.27-.17.3-.16.31-.14.34-.12.33-.12.33-.1.33L43,54l-.1.33-.11.33-.1.34-.13.33-.12.33-.12.33-.14.31-.14.32L41.9,57l-.19.3"/></g></g></svg>