<svg xmlns="http://www.w3.org/2000/svg" viewBox="0 0 64 64"><defs><style>.cls-1{fill:none;}.cls-2{fill:#fff;}</style></defs><g id="Layer_1" data-name="Layer 1"><rect width="64" height="64"/><rect x="31" y="32" width="2" height="2"/></g><g id="Layer_2" data-name="Layer 2"><rect class="cls-1" x="5.84" y="5.84" width="52.31" height="52.31"/></g><g id="MONTHS"><g id="_02_SNOW" data-name="02 SNOW"><path class="cls-2" d="M27.45,57.75l-4.58-5.32L19,55.69l-1.23-2.54,1.32-2.94L12,48.79,12.7,46l8.62-.3,2.5-4.22H15.65l3.72-6.21.47-.72,2.67,1.28-1.12,2.31,3.32.32.94.08,2.43-4.13H23.21l-.72,1.42-7.75-1.26-4.37,7.28-2.72-.56,2.14-7-4.29-1L4.94,31.8l4.84-2L7.34,23.47,10,22.11l4.84,7.45,4.94,0-4.11-7,8,.13.17,2.92-2.42.29,1.86,3.8.11,0H28l-2.41-4.18-1.82.07-.17-2.92.13-.13L21,18.24l-8.37-.09L11.72,16,19,13.85,18,12l-.07-2.95,2.7-.24,2.15,2.83,4.38-5.32,2.08.89.3,1.69-4,6.82L28,20.18l4-7.1,3.93,7-2.5,1.59-1.41-2-2.36,3.65,2.31,4h.16l2.32-4.06-1-1.58L36,20.13h.18l2.4-4.38L34.41,8l2.25-1.73,4.59,5.36,3.84-3.3,1.33,2.32-1.33,3.16L52,15.1,52.16,17l-9.42,1.43L40.29,22.6l8.15,0-4.15,6.92-2.65-1.35,1-2.24-4.22-.38L36,29.67l.09.07,4.76-.07.75-1.51,6.46,1.4,1.41-.2,4.25-7.16h1.82l1.12,1.7L54.3,29.83,58.85,31l.23,1.45L54.32,34.2l2.34,6.6-2.59,1.1-4.78-7.43-5,0,4.09,7-8-.11-.23-3,2.48-.22-1.85-3.89H36.09l2.31,4.11,1.75,0,.23,3L43,45.76l8.12-.06,1.19,2.65-7.23,1.81,1.17,4.61-2,.8-3-3.18-4.62,5.36-2.08-1.51,4-8.12-2.43-4.29L32,51l-3.84-7,2.42-1.75,1.35,2,2.49-3.5L32,36.65l-2.38,4.17,1,1.42L28.17,44,28,43.85l-2.46,4.52,4,7.81Z"/></g></g></svg>