<svg xmlns="http://www.w3.org/2000/svg" viewBox="0 0 64 64"><defs><style>.cls-1{fill:none;}.cls-2{fill:#5cccff;}</style></defs><g id="Layer_1" data-name="Layer 1"><rect width="64" height="64"/><rect x="31" y="32" width="2" height="2"/></g><g id="Layer_2" data-name="Layer 2"><rect class="cls-1" x="5.84" y="5.84" width="52.31" height="52.31"/></g><g id="MONTHS"><g id="_04_FISH" data-name="04 FISH"><path class="cls-2" d="M56.9,24.78l1.26-1-.39,1.12-.36,1-.33,1-.32.89-.28.8-.26.73L56,30l-.19.57-.17.51-.14.41-.12.35-.09.27-.07.19,0,.12v.07l0,.12.07.19.09.26.12.35.14.42.17.51.19.57.23.65.26.73.28.8.32.89.33,1,.36,1L58.16,41,56.9,40l-1.41-.83-1.57-.68L52.19,38l-1.86-.36-2-.21-2.18,0-2.31.1-2.48.26-2.63.42-2.78.58L33,39.45l-3.08.89-3.23,1L23.3,42.59l-2-.23-1.88-.3-1.76-.36L16,41.28l-1.52-.49-1.41-.56-1.29-.61-1.17-.68-1-.73-.93-.8-.8-.87-.68-.93-.56-1-.43-1.07L5.84,32.4l.32-1.11.43-1.07.56-1,.68-.92.8-.88.93-.8,1-.73,1.17-.68.47,1.94-.22.13-.18.21-.1.25,0,.26,0,.26.1.25.18.2.22.14.26.07h.27l.26-.07.22-.14.18-.2.1-.25,0-.26,0-.26-.1-.25-.18-.21L13,27.16l-.26-.07H12.5l-.26.07-.47-1.94,1.29-.61,1.42-.56L16,23.56l1.64-.42,1.76-.36,1.89-.3,2-.22,3.38,1.2,3.23,1,3.09.89,2.93.74,2.77.57,2.63.42,2.48.26,2.32.11,2.18-.06,2-.21,1.87-.36,1.72-.52,1.57-.68"/></g></g></svg>