<svg xmlns="http://www.w3.org/2000/svg" viewBox="0 0 64 64"><defs><style>.cls-1{fill:none;}.cls-2{fill:#fff;}</style></defs><g id="Layer_1" data-name="Layer 1"><rect width="64" height="64"/><rect x="31" y="32" width="2" height="2"/></g><g id="Layer_2" data-name="Layer 2"><rect class="cls-1" x="5.84" y="5.84" width="52.31" height="52.31"/></g><g id="MONTHS"><g id="_06_HONEY" data-name="06 HONEY"><path class="cls-2" d="M35.33,38l-5.21-3V29l5.21-3,5.21,3v6"/><path class="cls-2" d="M23.7,38l-5.21-3V29l5.21-3,5.21,3v6"/><path class="cls-2" d="M46.94,38l-5.21-3V29l5.21-3,5.22,3v6"/><path class="cls-2" d="M29.51,28l-5.22-3v-6l5.22-3,5.21,3v6"/><path class="cls-2" d="M29.51,48.09l-5.22-3v-6l5.22-3,5.21,3v6"/><path class="cls-2" d="M41.14,28l-5.22-3v-6l5.22-3,5.21,3v6"/><path class="cls-2" d="M41.14,48.09l-5.22-3v-6l5.22-3,5.21,3v6"/><path class="cls-2" d="M17.89,28l-5.21-3v-6l5.21-3,5.22,3v6"/><path class="cls-2" d="M17.89,48.09l-5.21-3v-6l5.21-3,5.22,3v6"/><path class="cls-2" d="M35.33,17.89l-5.21-3v-6l5.21-3,5.21,3v6"/><path class="cls-2" d="M35.33,58.16l-5.21-3v-6l5.21-3,5.21,3v6"/></g></g></svg>