<svg xmlns="http://www.w3.org/2000/svg" viewBox="0 0 64 64"><defs><style>.cls-1{fill:none;}.cls-2{fill:#fff;}</style></defs><g id="Layer_1" data-name="Layer 1"><rect width="64" height="64"/><rect x="31" y="32" width="2" height="2"/></g><g id="Layer_2" data-name="Layer 2"><rect class="cls-1" x="5.84" y="5.84" width="52.31" height="52.31"/></g><g id="MONTHS"><g id="_08_BUCK" data-name="08 BUCK"><path class="cls-2" d="M45.13,58.09l0-.88.16-.85-.3-.8-.35-.79L44.3,54l-.42-.75-.44-.73L43,51.79l-.45-.73-.49-.71-.51-.7L41,49l-.61-.63-.62-.61-.68-.54-.72-.49-.75-.41-.78-.37-.79-.33-.8-.32-.84-.19-.83-.17-.86-.16-.85-.14-.87,0H29.25l-.87,0-.85.17-.82.28-.82.25-.77.36-.75.42-.73.45.28.74.75.4.82.24.77.16-.42.73-.7.52-.82.23-.85.12-.86-.15-.78-.35-.68-.53L20.57,48l-.5-.72-.39-.76-.34-.79L19,45l-.33-.79-.33-.78-.4-.75-.5-.7-.61-.63-.61-.62-.53-.7-.42-.75L15,38.44l-.14-.85v-.87l.11-.86.24-.82.28-.82.36-.76.41-.75.43-.75.45-.74.51-.69.57-.65.63-.61.66-.57.75-.42.74-.11-.46.74-.47.73-.43.73-.37.77-.35.78-.26.82-.26.82-.18.84-.1.87,0,.87.12.85.16.86.22.84.35.78.44.73.49.72.54.68.68.55.73.46.82.24.85.12.86-.12.83-.17.84-.21.8-.3.82-.26.82-.28.75-.42.56-.64-.07-.86-.4-.75-.46-.73-.48-.71-.44-.74-.4-.74-.42-.75-.37-.77-.34-.79L26.05,33l-.35-.78-.35-.79L25,30.6l-.38-.77-.42-.75-.51-.7-.54-.68L22.63,27l-.52-.7-.49-.72-.49-.71-.5-.72-.49-.71-.47-.73L19.18,22l-.38-.76-.32-.81-.29-.8L18,18.8l-.2-.84-.17-.84-.16-.85-.14-.86,0-.87,0-.87,0-.87.14-.86.21-.83.4-.75.61-.63.75-.42.8-.29.51.12-.53.7-.36.76-.21.84-.16.85,0,.88,0,.87.14.85.17.84.23.83.31.79.35.78.35.77.4.75.4.75.4.77.44.73.4.77.45.73.46.73.5.7.54.68.68.52.68-.31.25-.82.26-.82.21-.84.28-.8.21-.84.19-.83.21-.84.22-.82.18-.84.17-.85.16-.86.12-.85.12-.85.16-.86.05-.87.14-.85.18-.86.17-.83.21-.84.28-.8.28-.81.35-.78.38-.77.42-.75,0,.86-.14.85,0,.87-.14.86,0,.87-.14.85,0,.88-.12.85,0,.87-.14.85,0,.88-.14.85,0,.87-.14.86-.14.85-.09.87-.12.86-.16.85-.15.85-.16.86-.14.85-.12.86-.11.87-.13.85,0,.87v.88l0,.87.13.85.18.84.19.84.19.83.3.8.23.82.31.8.33.79.35.78.36.77.48.73.45.74.52.69.59.65.63.61.7.52.71.47.77.35.82.26.8.28.79.33.75.4.73.47.71.49.67.56.66.57L43,46l.59.65.56.66.55.68.54.68.58.65.54-.44.17-.84.14-.85.11-.85.35-.79.54-.68.62-.61.25,0-.21.83-.14.86.07.87.17.85,0,.87-.19.84-.28.8-.31.8,0,.88.33.8.51.7.66.54.77.36,0,.79-.4.76-.52.68-.63.61-.72.49-.78.35-.82.23"/></g></g></svg>