<svg xmlns="http://www.w3.org/2000/svg" viewBox="0 0 64 64"><defs><style>.cls-1{fill:none;}.cls-2{fill:#fff;}</style></defs><g id="Layer_1" data-name="Layer 1"><rect width="64" height="64"/><rect x="31" y="32" width="2" height="2"/></g><g id="Layer_2" data-name="Layer 2"><rect class="cls-1" x="5.84" y="5.84" width="52.31" height="52.31"/></g><g id="MONTHS"><g id="_09_HARVEST" data-name="09 HARVEST"><path class="cls-2" d="M42,16.46l-.57,2-.49,2-.42,2-.33,2.08L40,26.73l-.06.6.35.08.37.37.14.51-.14.5-.37.37-.49.12v.44l.5.14.37.36.14.51-.14.5-.37.37-.5.14h0v.42h0l.5.14.37.36.14.51-.14.5-.37.37-.5.14v.44l.49.12.37.36.14.51-.14.51-.37.36-.35.09.06.59.24,2.08.33,2.07.4,2.06.49,2,.58,2,.66,2,.75,2,.85,2,.07.35-.12.33-.28.23-.35.07-.33-.12-.23-.28L42,52l-1-2-.85-2L39.48,46l-.66-2.11-.39-1.47.25,1.78.38,2.22.46,2.21L40,50.8l.56,2.3.66,2.18,0,.37-.15.33-.3.21-.37,0-.33-.16-.21-.29-.83-2.15-.79-2.18-.7-2.21L37,47l-.54-2.27L36,42.45l-.08-.55,0,.77L36.08,45l.16,2.37.19,2.38.23,2.37.26,2.37.29,2.37,0,.35-.21.3-.33.15-.35,0-.3-.21-.15-.33-.49-2.36-.44-2.37L34.51,50l-.35-2.39-.31-2.39-.26-2.39,0-.31v.38l0,2.43-.07,2.42-.07,2.42-.09,2.43-.08,2.42-.09,2.43-.11.36-.26.26-.33.06L32,58.05l-.26-.26-.1-.37L31.58,55l-.09-2.42-.08-2.43-.07-2.42-.07-2.43-.06-2.42v-.07l-.26,2.39-.32,2.39L30.27,50l-.4,2.37-.43,2.37L29,57.08l-.16.34-.32.23-.38,0-.35-.16-.22-.32,0-.38.31-2.37.27-2.35.22-2.38.19-2.37L28.65,45l.14-2.37,0-.45,0,.22-.45,2.29-.54,2.26-.61,2.24-.7,2.21-.77,2.18-.83,2.15-.21.31-.35.16-.38,0-.32-.21-.15-.35,0-.38L24.17,53l.59-2.18.53-2.2.45-2.21.38-2.22.21-1.43L26,43.93,25.37,46l-.75,2.05-.85,2-.94,2L21.8,54l-.25.28-.36.12-.37-.07-.28-.24-.12-.37.07-.36.86-2,.75-2,.66-2,.57-2,.49-2,.42-2.06.33-2.08.25-2.07,0-.52-.37-.11-.38-.38L24,35.63l.14-.54.38-.39.53-.14v-.31l-.52-.14-.38-.38L24,33.19l.14-.54.38-.39.54-.14h0v-.29h0l-.54-.14-.38-.39L24,30.76l.14-.54.38-.38L25,29.7l0-.3-.52-.14-.38-.38L24,28.34l.14-.54.38-.39.39-.1,0-.54-.24-2.08-.34-2.07-.4-2.06-.48-2-.58-2-.66-2-.75-2-.86-1.95-.07-.35.13-.33.27-.23.35-.07.33.12.23.28,1,1.92.94,2,.86,2L25.36,18,26,20.07l.38,1.47-.24-1.78-.39-2.22-.45-2.21-.52-2.2L24.21,11l-.67-2.18,0-.36.15-.33.3-.21.37,0,.33.16.21.29.83,2.15.79,2.18.7,2.21.62,2.24.55,2.26.45,2.29.09.54,0-.77L28.72,19l-.16-2.37-.19-2.37-.22-2.38-.27-2.37-.29-2.37,0-.35.21-.29.33-.16.35,0,.3.21.16.33.48,2.36.44,2.37.4,2.37.35,2.39L31,18.8l.26,2.39,0,.49,0-.56.07-2.42.07-2.43.08-2.42.09-2.43L31.67,9l0-2.46.09-.35.26-.26.35-.09.35.09.26.26.09.35L33.19,9l.08,2.42.09,2.42.09,2.43.07,2.42.07,2.42v.41l0-.34.26-2.39.31-2.38L34.56,14l.4-2.37.44-2.38.47-2.35L36,6.54l.31-.23.39,0,.34.16.23.31,0,.38L37,9.51l-.26,2.35-.23,2.37-.19,2.37L36.18,19l-.13,2.38,0,.45,0-.23.46-2.28L37.06,17l.61-2.23.69-2.22.77-2.18L40,8.25l.21-.31.35-.16.38,0,.31.21.16.35,0,.39-.68,2.18-.6,2.18-.52,2.19-.45,2.22-.39,2.21-.21,1.43L38.8,20l.66-2.11.75-2.06.86-2,.94-2,1-1.92.24-.28.37-.12.36.07.28.24.13.37-.07.37-.86,1.95-.75,2"/></g></g></svg>