<svg xmlns="http://www.w3.org/2000/svg" viewBox="0 0 64 64"><defs><style>.cls-1{fill:none;}.cls-2{fill:#fff;}</style></defs><g id="Layer_1" data-name="Layer 1"><rect width="64" height="64"/><rect x="31" y="32" width="2" height="2"/></g><g id="Layer_2" data-name="Layer 2"><rect class="cls-1" x="5.84" y="5.84" width="52.31" height="52.31"/></g><g id="MONTHS"><g id="_10_LEAF" data-name="10 LEAF"><path class="cls-2" d="M32.09,24.9l1.69-2,2-2.1,2.46-2.22,2.91-2.33,3.41-2.47,4-2.6,4.58-2.77,2.49,5,1.62,4.74.82,4.51.09,4.27-.58,4-1.15,3.7L54.76,38l-2.11,3.07-2.47,2.73-2.75,2.4-3,2-3.12,1.62L38.15,51l-3.19.8-3.1.37-3-.09-2.73-.57-2.44-1-2.07-1.55-1.1-1.39L7,56.43l-1.14-2,15.49-9,.26-.28,1.27-1.65,1-1.64.86-1.61.71-1.6.61-1.6.58-1.63.59-1.64.64-1.67.75-1.71.91-1.76,1.11-1.83"/></g></g></svg>