<svg xmlns="http://www.w3.org/2000/svg" viewBox="0 0 64 64"><defs><style>.cls-1{fill:none;}.cls-2{fill:#bc0000;}</style></defs><g id="Layer_1" data-name="Layer 1"><rect width="64" height="64"/><rect x="31" y="32" width="2" height="2"/></g><g id="Layer_2" data-name="Layer 2"><rect class="cls-1" x="5.84" y="5.84" width="52.31" height="52.31"/></g><g id="MONTHS"><g id="_11_BLOOD" data-name="11 BLOOD"><path class="cls-2" d="M25.41,57l-1.17-.56-1-.64-.84-.73-.69-.82-.56-.89-.42-1-.3-1-.17-1.08-.07-1.12,0-1.16.1-1.21.19-1.22.26-1.24.32-1.25.38-1.28.42-1.27.45-1.25.49-1.24.51-1.22.5-1.21.53-1.16.52-1.15.52-1.16L25.92,31l.52-1.13.5-1.14.51-1.15.49-1.17.47-1.18.45-1.2.44-1.24.42-1.28.38-1.3.35-1.36.33-1.4.3-1.46.26-1.52.21-1.59.17-1.65.12-1.73.07-1.81,0-1.89,0,1.9.07,1.82.13,1.72.17,1.66.21,1.59L32.82,16l.3,1.47.33,1.39.35,1.36.38,1.31.42,1.28L35,24.08l.45,1.21L36,26.47l.49,1.17.5,1.15.51,1.13L38,31.06l.53,1.13L39,33.34l.52,1.15.53,1.17.5,1.21.51,1.22.48,1.23L42,40.58l.42,1.27.38,1.28.31,1.25.27,1.24.19,1.22.1,1.2,0,1.17-.07,1.12-.17,1.08-.3,1-.42,1-.56.89-.69.81-.84.74-1,.64L38.49,57l-1.34.45-1.54.35-1.73.23L32,58.16,30,58.05l-1.72-.23-1.54-.34"/></g></g></svg>