<svg xmlns="http://www.w3.org/2000/svg" viewBox="0 0 64 64"><defs><style>.cls-1{fill:none;}.cls-2{fill:#fff;}</style></defs><g id="Layer_1" data-name="Layer 1"><rect width="64" height="64"/><rect x="31" y="32" width="2" height="2"/></g><g id="Layer_2" data-name="Layer 2"><rect class="cls-1" x="5.84" y="5.84" width="52.31" height="52.31"/></g><g id="MONTHS"><g id="_12_OAK" data-name="12 OAK"><path class="cls-2" d="M47.63,42.89,46,44,44.5,45.63,43,47.25l-1.47,1.61-1.5,1.59L38.52,52l-1.65,1.43-1.78,1.26-1.93,1-2,.79L29,56.94l-2.19.12-2.18,0-2.18-.21-2.16-.28-2.17-.25-2.18,0-2.13.46-1.57,1.44-1.55-1,.87-2-.26-2.14-.79-2-1-2-1-1.93-1-2-.81-2L6.22,41l-.35-2.15,0-2.18.37-2.15.56-2.11.75-2,.91-2,1-2,1-1.94,1-1.93,1-1.92.53-2L13,16.53l.77-2,.94-2,1.15-1.82L17.22,9l1.66-1.42,1.87-1.1L22.86,6,25,5.83l2.17.25,2.11.54,2.08.7,2,.82,2,.94,1.92,1,1.89,1.1L41,12.38l1.8,1.24,1.88-.82,2-.86,2.09-.61L51,11l2.18-.15,2.18.07,2.17.28.7,1.74-.95,1.94-2.07-.23L53,14.28l-2.18-.09-2.18.18-2.13.45-.89.91,1.68,1.4,1.62,1.46,1.53,1.56,1.49,1.58,1.38,1.7,1.17,1.83,1,1.95.68,2.06.15,2.19L56,33.62l-.87,2L54,37.51l-1.32,1.75-1.5,1.59L49.69,42.3"/></g></g></svg>