<svg width="32" height="32" viewBox="0 0 32 32" fill="none" xmlns="http://www.w3.org/2000/svg">
<path d="M12.259 23.36C9.64499 23.36 7.49999 25.403 7.37399 28.011C7.36999 28.1 7.33199 28.185 7.26899 28.248L4.25399 31.254L3.74499 30.744L6.66299 27.835C6.87599 24.91 9.30699 22.639 12.258 22.639H20.008C20.758 22.639 21.368 23.249 21.368 23.999C21.368 24.065 21.365 24.131 21.359 24.195L26.358 20.133C27.021 19.467 28.148 19.466 28.838 20.157C29.53 20.849 29.529 21.975 28.839 22.667L22.737 28.769C22.368 29.138 21.88 29.376 21.362 29.441L14.165 30.34L13.248 31.253L12.74 30.743L13.744 29.743C13.801 29.686 13.874 29.65 13.953 29.64L21.273 28.725C21.632 28.681 21.971 28.515 22.227 28.258L28.329 22.156C28.74 21.746 28.74 21.077 28.329 20.665C27.918 20.254 27.248 20.255 26.839 20.666L20.602 25.736C20.182 26.122 19.623 26.357 19.009 26.357H14.008V25.64H19.009C19.402 25.64 19.762 25.501 20.045 25.271L20.042 25.267L20.134 25.192C20.449 24.893 20.647 24.47 20.647 24.003C20.647 23.649 20.36 23.361 20.007 23.361L12.259 23.36ZM17 20.359C16.904 20.359 16.813 20.321 16.746 20.254L12.784 16.291C12.272 15.78 11.989 15.1 11.986 14.377C11.983 13.645 12.266 12.957 12.784 12.439C13.297 11.926 13.979 11.643 14.704 11.641C14.705 11.641 14.707 11.641 14.709 11.641C15.437 11.641 16.121 11.924 16.635 12.439L17 12.803L17.364 12.439C18.394 11.409 20.188 11.411 21.217 12.439C21.744 12.966 22.028 13.668 22.015 14.414C22.001 15.123 21.718 15.79 21.217 16.291L17.255 20.253C17.188 20.321 17.096 20.359 17 20.359ZM14.709 12.361C14.708 12.361 14.707 12.361 14.706 12.361C14.172 12.362 13.67 12.571 13.293 12.948C12.912 13.329 12.704 13.836 12.706 14.374C12.708 14.906 12.917 15.406 13.293 15.783L17 19.49L20.707 15.782C21.076 15.413 21.285 14.923 21.294 14.401C21.304 13.852 21.096 13.336 20.707 12.947C19.951 12.19 18.631 12.189 17.874 12.947L17.255 13.566C17.113 13.707 16.886 13.706 16.746 13.566L16.127 12.947C15.748 12.569 15.245 12.361 14.709 12.361ZM4.42299 12.362C3.96799 12.362 3.50899 12.189 3.15999 11.84C2.46799 11.149 2.46799 10.023 3.15999 9.331L9.26099 3.23C9.62899 2.861 10.117 2.623 10.635 2.558L17.833 1.659L18.751 0.744995L19.259 1.256L18.254 2.256C18.197 2.312 18.124 2.348 18.045 2.358L10.724 3.27299C10.365 3.318 10.026 3.483 9.76999 3.739L3.66799 9.84C3.25699 10.251 3.25699 10.92 3.66799 11.331C4.07899 11.742 4.74799 11.742 5.15899 11.331L11.39 6.266C11.81 5.877 12.372 5.64 12.989 5.64H17.991V6.36H12.989C12.596 6.36 12.236 6.499 11.953 6.73L11.956 6.734L11.858 6.814C11.545 7.112 11.349 7.533 11.349 7.999C11.349 8.354 11.636 8.641 11.989 8.641H19.739C22.353 8.641 24.498 6.59799 24.623 3.99C24.627 3.9 24.665 3.81599 24.728 3.752L27.744 0.745995L28.252 1.256L25.334 4.166C25.121 7.09099 22.69 9.361 19.739 9.361H11.989C11.239 9.361 10.629 8.751 10.629 8.001C10.629 7.935 10.631 7.87 10.637 7.806L5.63899 11.867C5.31199 12.196 4.86999 12.362 4.42299 12.362Z" fill="white"/>
</svg>
