<svg width="32" height="32" viewBox="0 0 32 32" fill="none" xmlns="http://www.w3.org/2000/svg">
<path d="M17.396 29.111C16.714 29.111 16.049 28.85 15.563 28.364C14.852 27.653 14.624 26.566 14.982 25.594L15.04 25.439L15.196 25.381C16.169 25.025 17.254 25.25 17.965 25.961C18.675 26.672 18.903 27.758 18.545 28.73L18.487 28.886L18.331 28.944C18.025 29.057 17.709 29.111 17.396 29.111ZM15.605 26.006C15.422 26.671 15.597 27.381 16.071 27.855C16.545 28.33 17.254 28.503 17.92 28.321C18.103 27.656 17.928 26.946 17.454 26.472C16.981 25.997 16.27 25.825 15.605 26.006ZM12.902 24.378L12.738 24.35C11.717 24.177 10.888 23.439 10.626 22.469C10.364 21.499 10.707 20.444 11.501 19.779L11.628 19.673L11.792 19.701C12.813 19.874 13.642 20.612 13.905 21.583C14.167 22.553 13.824 23.608 13.03 24.272L12.902 24.378ZM11.838 20.445C11.349 20.93 11.147 21.633 11.322 22.281C11.497 22.927 12.026 23.432 12.694 23.604C13.184 23.12 13.386 22.416 13.211 21.769C13.035 21.123 12.506 20.617 11.838 20.445ZM17.716 21.902C17.404 21.902 17.087 21.847 16.781 21.735L16.625 21.677L16.567 21.522C16.209 20.55 16.437 19.463 17.147 18.752C17.859 18.043 18.945 17.814 19.916 18.172L20.072 18.23L20.13 18.385C20.488 19.357 20.261 20.444 19.549 21.155C19.062 21.643 18.398 21.902 17.716 21.902ZM17.191 21.111C17.855 21.294 18.566 21.12 19.04 20.645C19.515 20.171 19.689 19.46 19.506 18.796C18.842 18.611 18.132 18.787 17.656 19.262C17.183 19.736 17.009 20.446 17.191 21.111ZM12.873 12.691C12.19 12.691 11.526 12.43 11.039 11.943C10.329 11.233 10.101 10.146 10.459 9.17498L10.517 9.01898L10.673 8.96098C11.643 8.60398 12.731 8.83098 13.442 9.54098C14.152 10.251 14.38 11.338 14.022 12.31L13.964 12.466L13.808 12.524C13.503 12.636 13.186 12.691 12.873 12.691ZM11.083 9.58498C10.9 10.25 11.075 10.96 11.549 11.434C12.023 11.909 12.732 12.084 13.398 11.9C13.581 11.235 13.406 10.525 12.933 10.05C12.458 9.57798 11.748 9.40198 11.083 9.58498ZM15.999 31.36C11.51 31.36 7.836 27.803 7.646 23.36H1V22.64H7.999C8.198 22.64 8.359 22.801 8.359 23C8.359 27.213 11.786 30.64 15.999 30.64C20.212 30.64 23.639 27.213 23.639 23C23.639 22.801 23.8 22.64 23.999 22.64H31V23.361H24.352C24.162 27.804 20.488 31.36 15.999 31.36ZM23.631 17.36H8.705C5.764 17.36 2.638 15.165 2.638 11.098C2.638 7.63198 4.195 5.31998 8.012 3.11998L11.591 1.08598C12.156 0.767977 12.591 0.638977 13.096 0.638977C14.222 0.638977 14.83 1.53398 14.83 2.37498C14.83 3.14798 14.401 3.60698 13.758 4.05898L12.207 5.09498H24.77C25.764 5.09498 26.573 5.90398 26.573 6.89698C26.573 7.30498 26.436 7.68198 26.206 7.98498H26.557C26.561 7.98498 26.565 7.98498 26.568 7.98498C27.042 7.98498 27.49 8.16998 27.83 8.50798C28.173 8.84898 28.362 9.30098 28.362 9.78198C28.362 10.776 27.552 11.585 26.557 11.585H26.21C26.438 11.887 26.572 12.262 26.572 12.668C26.572 13.565 25.913 14.312 25.053 14.448C25.291 14.754 25.433 15.137 25.433 15.553C25.434 16.55 24.625 17.36 23.631 17.36ZM13.095 1.35998C12.719 1.35998 12.396 1.45898 11.944 1.71398L8.368 3.74598C4.81 5.79698 3.357 7.92798 3.357 11.099C3.357 14.698 6.112 16.641 8.705 16.641H23.631C24.228 16.641 24.713 16.154 24.713 15.556C24.713 14.959 24.228 14.473 23.631 14.473H16V13.753H24.77C25.367 13.753 25.852 13.267 25.852 12.67C25.852 12.073 25.367 11.587 24.77 11.587H16V10.867H26.556C27.154 10.867 27.64 10.381 27.64 9.78398C27.64 9.49598 27.527 9.22498 27.321 9.01998C27.118 8.81698 26.849 8.70598 26.565 8.70598C26.563 8.70598 26.561 8.70598 26.558 8.70598H16V7.98598H24.77C25.366 7.98198 25.852 7.49398 25.852 6.89798C25.852 6.30098 25.367 5.81498 24.77 5.81498H11.019C10.86 5.81498 10.721 5.71098 10.674 5.55998C10.628 5.40798 10.687 5.24398 10.819 5.15598L13.35 3.46598C13.988 3.01798 14.11 2.73698 14.11 2.37598C14.109 1.88698 13.792 1.35998 13.095 1.35998Z" fill="white"/>
</svg>
