<svg width="32" height="32" viewBox="0 0 32 32" fill="none" xmlns="http://www.w3.org/2000/svg">
<path d="M16 31.36C15.908 31.36 15.816 31.325 15.746 31.255L12.632 28.141C12.216 27.725 11.985 27.172 11.982 26.582C11.98 25.986 12.21 25.426 12.631 25.004C13.049 24.586 13.605 24.356 14.195 24.354C14.197 24.354 14.198 24.354 14.2 24.354C14.792 24.354 15.348 24.584 15.768 25.003L16 25.235L16.232 25.003C17.069 24.166 18.528 24.163 19.368 25.003C19.799 25.433 20.029 26.004 20.018 26.612C20.006 27.189 19.776 27.732 19.369 28.14L16.254 31.254C16.184 31.325 16.092 31.36 16 31.36ZM14.2 25.074H14.197C13.798 25.074 13.422 25.23 13.14 25.512C12.855 25.797 12.7 26.175 12.701 26.577C12.703 26.975 12.859 27.349 13.14 27.63L16 30.49L18.859 27.63C19.134 27.355 19.291 26.988 19.297 26.598C19.305 26.188 19.15 25.802 18.859 25.512C18.292 24.944 17.307 24.946 16.74 25.512L16.254 25.998C16.113 26.139 15.886 26.139 15.745 25.998L15.259 25.512C14.976 25.229 14.6 25.074 14.2 25.074ZM26.36 31H25.64C25.64 26.65 22.703 22.826 18.498 21.699C18.354 21.661 18.25 21.54 18.233 21.392C18.215 21.246 18.291 21.103 18.421 21.034C20.098 20.137 21.14 18.399 21.14 16.5C21.14 13.666 18.834 11.36 16 11.36C13.166 11.36 10.86 13.666 10.86 16.5C10.86 18.399 11.902 20.137 13.579 21.034C13.71 21.104 13.785 21.248 13.767 21.395C13.749 21.542 13.642 21.664 13.497 21.7C9.29501 22.761 6.36001 26.585 6.36001 31H5.64001C5.64001 26.531 8.44101 22.626 12.544 21.232C11.044 20.137 10.14 18.388 10.14 16.5C10.14 13.269 12.768 10.64 16 10.64C19.232 10.64 21.86 13.268 21.86 16.5C21.86 18.394 20.952 20.146 19.446 21.239C23.555 22.687 26.36 26.593 26.36 31ZM28 23.36C26.147 23.36 24.64 21.852 24.64 20C24.64 18.148 26.148 16.64 28 16.64C29.852 16.64 31.36 18.147 31.36 20C31.36 21.853 29.853 23.36 28 23.36ZM28 17.36C26.544 17.36 25.36 18.544 25.36 20C25.36 21.456 26.544 22.64 28 22.64C29.456 22.64 30.64 21.456 30.64 20C30.64 18.544 29.456 17.36 28 17.36ZM8.00001 22.36H1.00001C0.871012 22.36 0.752012 22.291 0.688012 22.179C0.624012 22.067 0.624012 21.929 0.689012 21.818L4.18901 15.818C4.31801 15.596 4.68201 15.596 4.81101 15.818L8.31101 21.818C8.37601 21.929 8.37601 22.067 8.31201 22.179C8.24801 22.291 8.12901 22.36 8.00001 22.36ZM1.62701 21.64H7.37301L4.50001 16.714L1.62701 21.64ZM27.5 12.36C27.438 12.36 27.377 12.344 27.321 12.313L23.821 10.313C23.709 10.249 23.64 10.129 23.64 10V6.00001C23.64 5.87101 23.709 5.75102 23.822 5.68801L27.322 3.68801C27.433 3.62501 27.568 3.62501 27.679 3.68801L31.179 5.68801C31.291 5.75102 31.36 5.87101 31.36 6.00001V10C31.36 10.129 31.291 10.249 31.178 10.312L27.678 12.312C27.623 12.344 27.562 12.36 27.5 12.36ZM24.36 9.79101L27.5 11.585L30.64 9.79101V6.20901L27.5 4.41501L24.36 6.20901V9.79101ZM8.00001 11.36H2.00001C1.80101 11.36 1.64001 11.199 1.64001 11V5.00001C1.64001 4.80101 1.80101 4.64001 2.00001 4.64001H8.00001C8.19901 4.64001 8.36001 4.80101 8.36001 5.00001V11C8.36001 11.199 8.19901 11.36 8.00001 11.36ZM2.36001 10.64H7.64001V5.36001H2.36001V10.64ZM16 7.36001C14.147 7.36001 12.64 5.85301 12.64 4.00001C12.64 2.14701 14.147 0.640015 16 0.640015C17.853 0.640015 19.36 2.14701 19.36 4.00001C19.36 5.85301 17.853 7.36001 16 7.36001ZM16 1.36001C14.544 1.36001 13.36 2.54501 13.36 4.00001C13.36 5.45501 14.544 6.64001 16 6.64001C17.456 6.64001 18.64 5.45501 18.64 4.00001C18.64 2.54501 17.456 1.36001 16 1.36001Z" fill="white"/>
</svg>
