<svg width="32" height="32" viewBox="0 0 32 32" fill="none" xmlns="http://www.w3.org/2000/svg">
<path d="M9.00214 31.3606C6.59814 31.3606 4.64214 29.4046 4.64214 27.0006C4.64214 24.5966 6.59814 22.6406 9.00214 22.6406C9.73314 22.6406 10.4221 22.8226 11.0281 23.1406L13.1531 19.8026L13.7601 20.1896L11.6351 23.5286C12.6831 24.3256 13.3621 25.5856 13.3621 27.0016C13.3621 29.4046 11.4071 31.3606 9.00214 31.3606ZM9.00214 23.3606C6.99514 23.3606 5.36214 24.9936 5.36214 27.0006C5.36214 29.0076 6.99514 30.6406 9.00214 30.6406C11.0091 30.6406 12.6421 29.0076 12.6421 27.0006C12.6421 24.9936 11.0101 23.3606 9.00214 23.3606ZM16.0021 31.3556C15.1411 31.3556 14.2801 31.2846 13.4451 31.1436L13.5641 30.4326C14.3601 30.5676 15.1811 30.6346 16.0021 30.6346C20.6501 30.6346 24.9191 28.5006 27.7141 24.7806L28.2901 25.2126C25.3581 29.1166 20.8791 31.3556 16.0021 31.3556ZM31.0001 24.8606C30.9381 24.8606 30.8741 24.8436 30.8181 24.8106L24.8231 21.3056C24.7131 21.2416 24.6441 21.1226 24.6441 20.9946C24.6441 20.8666 24.7121 20.7486 24.8231 20.6836L30.8181 17.1886C30.9311 17.1236 31.0671 17.1236 31.1791 17.1866C31.2901 17.2506 31.3601 17.3706 31.3601 17.4986V24.4986C31.3601 24.6276 31.2911 24.7466 31.1781 24.8106C31.1241 24.8446 31.0621 24.8606 31.0001 24.8606ZM25.7191 20.9956L30.6401 23.8726V18.1276L25.7191 20.9956ZM3.34514 24.6996C2.79114 23.8966 2.31114 23.0346 1.92014 22.1396L2.58014 21.8506C2.95314 22.7046 3.40914 23.5256 3.93714 24.2906L3.34514 24.6996ZM3.12614 20.4776C3.03414 20.4776 2.94214 20.4426 2.87214 20.3726L0.746137 18.2566C0.678137 18.1886 0.640137 18.0966 0.640137 18.0006C0.640137 17.9056 0.678137 17.8136 0.745137 17.7456L2.87114 15.6206C3.01214 15.4796 3.23914 15.4796 3.38014 15.6206L5.50214 17.7416C5.57014 17.8086 5.60714 17.9006 5.60714 17.9966C5.60714 18.0926 5.57014 18.1836 5.50214 18.2506L3.38014 20.3716C3.31014 20.4416 3.21814 20.4776 3.12614 20.4776ZM1.51014 17.9996L3.12614 19.6076L4.73914 17.9956L3.12714 16.3836L1.51014 17.9996ZM8.76114 20.1766C8.02914 18.9106 7.64214 17.4656 7.64214 15.9956C7.64214 12.1766 10.2221 8.84662 13.9161 7.89762L14.0951 8.59462C10.7201 9.46162 8.36214 12.5046 8.36214 15.9946C8.36214 17.3376 8.71614 18.6586 9.38414 19.8136L8.76114 20.1766ZM16.0021 19.3556C14.1491 19.3556 12.6421 17.8476 12.6421 15.9956C12.6421 14.2636 13.9591 12.8336 15.6441 12.6546V6.99563H16.3641V12.6546C18.0471 12.8366 19.3621 14.2646 19.3621 15.9956C19.3621 17.8486 17.8541 19.3556 16.0021 19.3556ZM16.0021 13.3556C14.5461 13.3556 13.3621 14.5406 13.3621 15.9956C13.3621 17.4516 14.5471 18.6356 16.0021 18.6356C17.4571 18.6356 18.6411 17.4516 18.6411 15.9956C18.6421 14.5406 17.4581 13.3556 16.0021 13.3556ZM30.6411 15.0196C30.2091 8.45962 25.3951 2.96263 18.9341 1.64963L19.0771 0.943625C25.8561 2.32063 30.9071 8.08962 31.3601 14.9726L30.6411 15.0196ZM24.0051 14.3556C23.9431 14.3556 23.8811 14.3396 23.8251 14.3076L21.2261 12.8076C21.1151 12.7436 21.0451 12.6236 21.0451 12.4956V9.49562C21.0451 9.36762 21.1141 9.24762 21.2261 9.18362L23.8251 7.68363C23.9361 7.62063 24.0731 7.61963 24.1841 7.68363L26.7821 9.18362C26.8931 9.24762 26.9631 9.36662 26.9631 9.49562V12.4956C26.9631 12.6236 26.8941 12.7436 26.7821 12.8076L24.1841 14.3076C24.1291 14.3396 24.0671 14.3556 24.0051 14.3556ZM21.7671 12.2876L24.0051 13.5796L26.2421 12.2876V9.70362L24.0051 8.41163L21.7671 9.70362C21.7671 9.70362 21.7671 12.2876 21.7671 12.2876ZM15.9981 4.36063C14.9741 4.36063 14.1411 3.52462 14.1411 2.49562C14.1411 1.47262 14.9741 0.640625 15.9981 0.640625C17.0251 0.640625 17.8611 1.47262 17.8611 2.49562C17.8601 3.52362 17.0241 4.36063 15.9981 4.36063ZM15.9981 1.36063C15.3711 1.36063 14.8601 1.86962 14.8601 2.49562C14.8601 3.12662 15.3701 3.64062 15.9981 3.64062C16.6281 3.64062 17.1401 3.12662 17.1401 2.49562C17.1401 1.86962 16.6271 1.36063 15.9981 1.36063ZM1.03514 15.3486C1.02714 15.3486 1.01814 15.3486 1.01014 15.3476C0.812137 15.3326 0.663137 15.1706 0.677137 14.9726C0.677137 14.9726 0.678137 14.9516 0.678137 14.9506C0.694137 14.7526 0.863137 14.5976 1.06514 14.6196C1.26314 14.6346 1.41114 14.8076 1.39614 15.0066C1.38114 15.1946 1.22214 15.3486 1.03514 15.3486ZM1.30214 12.9976H1.31114H1.30214ZM1.83614 11.0506H1.84514H1.83614ZM2.62714 9.54262C2.57314 9.54262 2.51914 9.53062 2.46814 9.50362C2.29314 9.41362 2.21914 9.20862 2.30814 9.03262C2.30914 9.02962 2.32014 9.00862 2.32214 9.00462C2.41614 8.82962 2.63314 8.76462 2.81014 8.85862C2.98514 8.95262 3.05014 9.17062 2.95614 9.34662C2.89014 9.46962 2.76014 9.54262 2.62714 9.54262ZM4.92614 6.23163C4.83814 6.23163 4.75014 6.20063 4.68214 6.13663C4.54014 6.00263 4.52514 5.78662 4.65514 5.64162C4.66014 5.63762 4.67814 5.61863 4.68314 5.61363C4.82414 5.47263 5.05114 5.47263 5.19214 5.61363C5.33314 5.75463 5.33314 5.98163 5.19214 6.12263C5.12014 6.19463 5.02214 6.23163 4.92614 6.23163ZM3.66714 7.80363C3.57914 7.80363 3.49114 7.77263 3.42314 7.70863C3.28114 7.57463 3.26614 7.35862 3.39614 7.21362C3.40014 7.20862 3.41814 7.18963 3.42314 7.18563C3.56414 7.04463 3.79114 7.04463 3.93214 7.18563C4.07314 7.32663 4.07314 7.55362 3.93214 7.69462C3.86114 7.76662 3.76314 7.80363 3.66714 7.80363ZM1.83114 11.4016C1.74314 11.4016 1.65514 11.3706 1.58714 11.3066C1.44514 11.1726 1.43014 10.9566 1.56014 10.8116C1.56414 10.8066 1.58214 10.7876 1.58714 10.7836C1.72814 10.6426 1.95514 10.6426 2.09614 10.7836C2.23714 10.9246 2.23714 11.1516 2.09614 11.2926C2.02414 11.3636 1.92714 11.4016 1.83114 11.4016ZM1.29614 13.3486C1.20814 13.3486 1.12014 13.3176 1.05214 13.2536C0.910137 13.1196 0.895137 12.9036 1.02514 12.7586C1.02914 12.7536 1.04714 12.7346 1.05214 12.7306C1.19314 12.5896 1.42014 12.5896 1.56114 12.7306C1.70214 12.8716 1.70214 13.0986 1.56114 13.2396C1.49014 13.3116 1.39214 13.3486 1.29614 13.3486ZM16.4101 24.3506C16.3221 24.3506 16.2341 24.3196 16.1661 24.2556C16.0241 24.1216 16.0091 23.9056 16.1391 23.7606C16.1431 23.7556 16.1611 23.7366 16.1661 23.7326C16.3071 23.5916 16.5341 23.5916 16.6751 23.7326C16.8161 23.8736 16.8161 24.1006 16.6751 24.2416C16.6031 24.3136 16.5061 24.3506 16.4101 24.3506ZM18.4171 23.9836C18.3291 23.9836 18.2411 23.9526 18.1731 23.8886C18.0311 23.7546 18.0161 23.5386 18.1461 23.3936C18.1501 23.3886 18.1681 23.3696 18.1731 23.3656C18.3141 23.2246 18.5411 23.2246 18.6821 23.3656C18.8231 23.5066 18.8231 23.7336 18.6821 23.8746C18.6101 23.9466 18.5131 23.9836 18.4171 23.9836ZM21.7971 21.8836C21.7091 21.8836 21.6211 21.8526 21.5531 21.7886C21.4111 21.6546 21.3961 21.4386 21.5261 21.2936C21.5301 21.2886 21.5481 21.2696 21.5531 21.2656C21.6941 21.1246 21.9211 21.1246 22.0621 21.2656C22.2031 21.4066 22.2031 21.6336 22.0621 21.7746C21.9901 21.8466 21.8931 21.8836 21.7971 21.8836ZM23.7421 18.3866C23.6541 18.3866 23.5661 18.3556 23.4981 18.2916C23.3561 18.1576 23.3411 17.9416 23.4711 17.7966C23.4751 17.7916 23.4931 17.7726 23.4981 17.7686C23.6391 17.6276 23.8661 17.6276 24.0071 17.7686C24.1481 17.9096 24.1481 18.1366 24.0071 18.2776C23.9361 18.3496 23.8391 18.3866 23.7421 18.3866ZM6.37514 4.85563C6.27614 4.85563 6.17814 4.81363 6.10614 4.73263C5.97314 4.58563 5.99214 4.35262 6.14014 4.21962C6.14914 4.21162 6.17414 4.19063 6.18414 4.18363C6.34514 4.06663 6.57014 4.10263 6.68714 4.26263C6.80414 4.42363 6.76914 4.64863 6.60814 4.76562C6.54114 4.82663 6.45814 4.85563 6.37514 4.85563ZM9.80014 2.69263C9.66014 2.69263 9.52514 2.61462 9.46614 2.48162C9.38914 2.30562 9.45414 2.10362 9.62514 2.01862C9.63514 2.01362 9.66414 1.99963 9.67514 1.99663C9.86114 1.92563 10.0691 2.01763 10.1401 2.20363C10.2111 2.38963 10.1191 2.59762 9.93314 2.66862C9.89114 2.68462 9.84514 2.69263 9.80014 2.69263ZM8.02814 3.64362C7.88814 3.64362 7.75314 3.56562 7.69414 3.43262C7.61614 3.25662 7.68114 3.05462 7.85314 2.96962C7.86314 2.96462 7.89214 2.95063 7.90314 2.94763C8.08914 2.87663 8.29714 2.96862 8.36814 3.15462C8.43914 3.34062 8.34714 3.54863 8.16114 3.61963C8.11814 3.63563 8.07314 3.64362 8.02814 3.64362ZM11.6901 1.98363C11.5351 1.98363 11.3871 1.88663 11.3391 1.73263C11.2801 1.54263 11.3781 1.34362 11.5681 1.28562L11.5871 1.27963C11.7741 1.22163 11.9781 1.32762 12.0371 1.51762C12.0951 1.70762 11.9891 1.90963 11.7991 1.96763C11.7631 1.97863 11.7271 1.98363 11.6901 1.98363ZM14.4441 24.2046C14.4251 24.2046 14.4071 24.2026 14.3881 24.1996C14.3731 24.1976 14.3391 24.1906 14.3241 24.1856C14.1331 24.1316 14.0221 23.9316 14.0771 23.7416C14.1311 23.5506 14.3291 23.4376 14.5221 23.4946C14.7181 23.5236 14.8411 23.7056 14.8111 23.9016C14.7831 24.0796 14.6201 24.2046 14.4441 24.2046ZM20.2431 23.1416C20.1211 23.1416 20.0021 23.0796 19.9341 22.9666C19.8311 22.7956 19.8871 22.5746 20.0571 22.4726C20.2231 22.3706 20.4501 22.4176 20.5551 22.5826C20.6591 22.7486 20.6211 22.9616 20.4581 23.0696C20.4541 23.0726 20.4331 23.0866 20.4281 23.0896C20.3701 23.1246 20.3071 23.1416 20.2431 23.1416ZM22.9951 20.2436C22.9261 20.2436 22.8561 20.2236 22.7961 20.1826C22.6301 20.0726 22.5851 19.8486 22.6951 19.6836C22.7841 19.5036 22.9981 19.4466 23.1721 19.5326C23.3501 19.6226 23.4161 19.8486 23.3271 20.0266C23.3201 20.0406 23.3031 20.0706 23.2951 20.0826C23.2261 20.1876 23.1111 20.2436 22.9951 20.2436ZM24.0021 16.3756C23.8031 16.3756 23.6421 16.2146 23.6421 16.0156C23.6421 15.8166 23.8031 15.6456 24.0021 15.6456C24.2011 15.6456 24.3621 15.7966 24.3621 15.9956V16.0156C24.3621 16.2146 24.2011 16.3756 24.0021 16.3756Z" fill="white"/>
</svg>
