<svg width="32" height="32" viewBox="0 0 32 32" fill="none" xmlns="http://www.w3.org/2000/svg">
<path d="M15.9999 31.36C15.9079 31.36 15.8159 31.325 15.7459 31.255L12.6319 28.141C12.2159 27.725 11.9849 27.172 11.9819 26.582C11.9799 25.986 12.2099 25.426 12.6309 25.004C13.0489 24.586 13.6049 24.356 14.1949 24.354C14.1969 24.354 14.1979 24.354 14.1999 24.354C14.7919 24.354 15.3479 24.584 15.7679 25.003L15.9999 25.235L16.2319 25.003C17.0689 24.166 18.5279 24.163 19.3679 25.003C19.7989 25.433 20.0289 26.004 20.0179 26.612C20.0059 27.189 19.7759 27.732 19.3689 28.14L16.2539 31.254C16.1839 31.325 16.0919 31.36 15.9999 31.36ZM14.1999 25.074H14.1969C13.7979 25.074 13.4219 25.23 13.1399 25.512C12.8549 25.797 12.6999 26.175 12.7009 26.577C12.7029 26.975 12.8589 27.349 13.1399 27.63L15.9999 30.49L18.8589 27.63C19.1339 27.355 19.2909 26.988 19.2969 26.598C19.3049 26.188 19.1499 25.802 18.8589 25.512C18.2919 24.944 17.3069 24.946 16.7399 25.512L16.2539 25.998C16.1129 26.139 15.8859 26.139 15.7449 25.998L15.2589 25.512C14.9759 25.229 14.5999 25.074 14.1999 25.074Z" fill="white"/>
<path d="M24.36 31H23.64V23.5C23.64 19.948 21.226 16.896 17.768 16.076C17.618 16.04 17.507 15.913 17.493 15.76C17.478 15.606 17.564 15.46 17.705 15.397C19.222 14.722 20.201 13.216 20.201 11.561C20.201 9.24501 18.317 7.36001 16.001 7.36001C13.685 7.36001 11.801 9.24401 11.801 11.561C11.801 13.217 12.781 14.723 14.297 15.397C14.438 15.46 14.523 15.606 14.509 15.76C14.495 15.913 14.384 16.041 14.234 16.076C10.776 16.896 8.36101 19.948 8.36101 23.5V31H7.64001V23.5C7.64001 19.908 9.89701 16.782 13.226 15.621C11.9 14.714 11.08 13.2 11.08 11.561C11.08 9.59701 12.237 7.89802 13.904 7.10901C14.093 6.62602 14.2 6.04801 14.2 5.50001C14.2 3.17901 12.355 1.36001 10 1.36001C7.64501 1.36001 5.79901 3.17901 5.79901 5.50001C5.79901 7.16601 6.80201 8.73201 8.29501 9.39701C8.43702 9.46001 8.52201 9.60601 8.50701 9.76001C8.49301 9.91301 8.38202 10.041 8.23202 10.076C4.77402 10.896 2.36001 13.948 2.36001 17.5V25H1.64001V17.5C1.64001 13.906 3.89901 10.779 7.23101 9.61901C5.91701 8.70502 5.08001 7.14401 5.08001 5.50001C5.08001 2.82001 7.28701 0.640015 10 0.640015C12.713 0.640015 14.92 2.82001 14.92 5.50001C14.92 5.93701 14.864 6.38101 14.758 6.79901C15.552 6.59201 16.447 6.59201 17.242 6.79901C17.136 6.38001 17.079 5.93701 17.079 5.50001C17.079 2.82001 19.287 0.640015 22 0.640015C24.713 0.640015 26.921 2.82001 26.921 5.50001C26.921 7.14401 26.082 8.70502 24.769 9.61901C28.101 10.779 30.361 13.906 30.361 17.5V25H29.64V17.5C29.64 13.948 27.226 10.896 23.768 10.076C23.618 10.04 23.507 9.91301 23.493 9.76001C23.478 9.60601 23.564 9.46001 23.705 9.39701C25.197 8.73201 26.2 7.16601 26.2 5.50001C26.2 3.17901 24.355 1.36001 22 1.36001C19.645 1.36001 17.8 3.17901 17.8 5.50001C17.8 6.04701 17.906 6.62501 18.096 7.10901C19.764 7.89802 20.921 9.59601 20.921 11.561C20.921 13.201 20.101 14.715 18.775 15.622C22.104 16.783 24.361 19.909 24.361 23.501L24.36 31Z" fill="white"/>
</svg>
