<svg width="32" height="32" viewBox="0 0 32 32" fill="none" xmlns="http://www.w3.org/2000/svg">
<path d="M16.0001 29.3606C8.91709 29.3606 3.10309 23.8186 2.66709 16.8426L1.25509 18.2546L0.746094 17.7446L3.00009 15.4916L5.25409 17.7456L4.74509 18.2556L3.39109 16.9016C3.85509 23.4526 9.33309 28.6406 16.0001 28.6406C21.8911 28.6406 26.9491 24.6426 28.3021 18.9176L29.0031 19.0836C27.5731 25.1346 22.2271 29.3606 16.0001 29.3606ZM29.0001 16.5096L26.7451 14.2546L27.2551 13.7456L28.6091 15.0996C28.1451 8.54862 22.6671 3.36062 16.0001 3.36062C10.1111 3.36062 5.05409 7.35862 3.70209 13.0836L3.00009 12.9176C4.43009 6.86662 9.77609 2.64062 16.0001 2.64062C23.0831 2.64062 28.8971 8.18262 29.3341 15.1576L30.7451 13.7456L31.2551 14.2546L29.0001 16.5096ZM17.0001 24.3606H15.0001V23.6406H17.0001V24.3606ZM18.0001 22.3606H14.0001V21.6406H18.0001V22.3606ZM18.0001 20.3606H14.0001C13.8011 20.3606 13.6401 20.1996 13.6401 20.0006V19.7316C13.6401 18.6496 13.1521 17.6236 12.1481 16.5946C10.8531 15.2666 10.1401 13.7776 10.1401 12.4006C10.1401 9.27762 12.8241 6.64062 16.0001 6.64062C19.1771 6.64062 21.8601 9.27862 21.8601 12.4006C21.8601 13.7776 21.1461 15.2666 19.8511 16.5946C18.8471 17.6236 18.3601 18.6496 18.3601 19.7316V20.0006C18.3601 20.1996 18.1991 20.3606 18.0001 20.3606ZM14.3591 19.6406H17.6411C17.6671 18.3966 18.2221 17.2346 19.3361 16.0926C20.0101 15.4026 21.1401 14.0046 21.1401 12.4016C21.1401 9.66962 18.7861 7.36063 16.0001 7.36063C13.2141 7.36063 10.8601 9.66962 10.8601 12.4016C10.8601 14.0036 11.9901 15.4016 12.6641 16.0926C13.7781 17.2336 14.3331 18.3966 14.3591 19.6406Z" fill="white"/>
</svg>
