<svg xmlns="http://www.w3.org/2000/svg" viewBox="0 0 64 64"><defs><style>.cls-1{fill:none;}.cls-2{fill:#0a0a0a;}.cls-3{fill:#fff;}</style></defs><g id="Layer_1" data-name="Layer 1"><rect width="64" height="64"/><rect x="31" y="32" width="2" height="2"/></g><g id="Layer_2" data-name="Layer 2"><rect class="cls-1" x="5.84" y="5.84" width="52.31" height="52.31"/></g><g id="_01" data-name="01"><circle class="cls-2" cx="32.02" cy="31.98" r="26.16"/><path class="cls-3" d="M50.71,24.55,50.31,23l-.47-1.55L49.3,19.9l-.61-1.47L48,17l-.75-1.34-.82-1.27-.87-1.21-.93-1.13-1-1.05-1-1-1.07-.87-1.11-.77-1.15-.68-1.17-.57L36.93,6.7l-1.22-.37-1.23-.26-1.26-.16L32,5.84l1.68.06,1.67.15L37,6.31l1.64.37,1.6.47,1.57.58,1.54.68,1.48.76,1.43.88,1.38,1,1.3,1,1.24,1.13,1.17,1.21,1.08,1.27,1,1.34.91,1.42.82,1.46.73,1.52L56.5,23,57,24.54l.42,1.62.31,1.64L58,29.45l.11,1.68V32.8L58,34.48l-.21,1.65-.31,1.64L57,39.39,56.5,41l-.63,1.55-.73,1.52-.82,1.46-.91,1.42-1,1.34-1.08,1.27-1.17,1.21-1.24,1.13-1.3,1-1.38,1-1.43.88-1.48.76-1.54.68-1.57.58-1.6.47L37,57.62l-1.66.26L33.64,58,32,58.16l1.26-.06L34.48,58l1.23-.26,1.22-.37,1.21-.47,1.17-.58,1.15-.68,1.11-.76L42.64,54l1-1,1-1,.93-1.13.87-1.21.82-1.27L48,47l.68-1.42.61-1.46.54-1.52.47-1.55.4-1.59L51,37.84l.25-1.64.16-1.65.08-1.68V31.2l-.08-1.68-.16-1.65L51,26.23"/></g></svg>