<svg xmlns="http://www.w3.org/2000/svg" viewBox="0 0 64 64"><defs><style>.cls-1{fill:none;}.cls-2{fill:#0a0a0a;}.cls-3{fill:#fff;}</style></defs><g id="Layer_1" data-name="Layer 1"><rect width="64" height="64"/><rect x="31" y="32" width="2" height="2"/></g><g id="Layer_2" data-name="Layer 2"><rect class="cls-1" x="5.84" y="5.84" width="52.31" height="52.31"/></g><g id="_03" data-name="03"><circle class="cls-2" cx="32.02" cy="31.98" r="26.16"/><path class="cls-3" d="M46.23,53.92l-1.43.87-1.48.77-1.54.68-1.57.57-1.6.47L37,57.65l-1.66.26-1.67.16L32,58.16l-.75-.06L30.48,58l-.73-.26L29,57.32l-.72-.47-.69-.58-.68-.68-.67-.77L25.64,54,25,53l-.58-1.05-.56-1.13-.52-1.2-.49-1.28L22.43,47,22,45.58l-.37-1.47-.33-1.52L21.05,41l-.23-1.59-.19-1.62-.14-1.64-.09-1.66,0-1.67V31.18l0-1.67.09-1.66.14-1.64.19-1.62L21.05,23l.28-1.55.33-1.52L22,18.46l.4-1.41.45-1.34.49-1.28.52-1.2.56-1.14.58-1,.61-1,.62-.88.67-.76.68-.68.69-.58L29,6.72l.73-.37.73-.26.74-.16.75,0,1.67,0,1.67.16L37,6.35l1.64.37,1.6.47,1.57.58,1.54.68,1.48.76,1.43.88,1.38,1,1.31,1,1.23,1.14,1.17,1.2,1.08,1.28,1,1.34.91,1.41.82,1.47.73,1.52L56.5,23,57,24.59l.42,1.62.32,1.64L58,29.51l.1,1.67v1.68L58,34.53l-.21,1.66-.32,1.64L57,39.45,56.5,41l-.63,1.55-.73,1.52-.82,1.47L53.41,47l-1,1.34-1.08,1.28-1.17,1.2-1.23,1.13L47.61,53"/></g></svg>