<svg xmlns="http://www.w3.org/2000/svg" viewBox="0 0 64 64"><defs><style>.cls-1{fill:none;}.cls-2{fill:#0a0a0a;}.cls-3{fill:#fff;}</style></defs><g id="Layer_1" data-name="Layer 1"><rect width="64" height="64"/><rect x="31" y="32" width="2" height="2"/></g><g id="Layer_2" data-name="Layer 2"><rect class="cls-1" x="5.84" y="5.84" width="52.31" height="52.31"/></g><g id="_05" data-name="05"><circle class="cls-2" cx="32.02" cy="32" r="26.16"/><path class="cls-3" d="M17.8,10.07l1.43-.87,1.48-.77,1.54-.68,1.57-.58,1.6-.47,1.64-.37,1.66-.26,1.67-.15,1.68-.09.75,0,.73.16.73.26.73.37.72.47.7.57.68.68.66.77.63.87L39,11l.57,1,.56,1.13.52,1.21.49,1.27L41.6,17,42,18.41l.36,1.46.33,1.52L43,22.94l.23,1.59.19,1.63.14,1.64.09,1.65,0,1.68V32.8l0,1.68-.09,1.66-.14,1.64-.19,1.62L43,41l-.28,1.55-.33,1.52L42,45.52l-.41,1.42-.45,1.34-.49,1.27-.52,1.21-.56,1.13-.57,1-.61,1-.63.87-.66.77-.68.68-.7.57-.72.47-.73.37-.73.26-.73.16-.75.05-1.68-.05-1.67-.16-1.66-.26-1.64-.37-1.6-.47-1.57-.57-1.54-.68-1.48-.77L17.8,53.9l-1.38-1-1.3-1-1.24-1.13-1.17-1.21-1.08-1.27-1-1.34-.91-1.42-.82-1.46-.73-1.52L7.53,41,7,39.4l-.42-1.62-.31-1.64-.21-1.66L6,32.8V31.13l.11-1.68.21-1.65.31-1.64L7,24.53l.52-1.59.63-1.55.73-1.52.82-1.46L10.62,17l1-1.34,1.08-1.27,1.17-1.21L15.12,12l1.3-1"/></g></svg>