<svg xmlns="http://www.w3.org/2000/svg" viewBox="0 0 64 64"><defs><style>.cls-1{fill:none;}.cls-2{fill:#0a0a0a;}.cls-3{fill:#fff;}</style></defs><g id="Layer_1" data-name="Layer 1"><rect width="64" height="64"/><rect x="31" y="32" width="2" height="2"/></g><g id="Layer_2" data-name="Layer 2"><rect class="cls-1" x="5.84" y="5.84" width="52.31" height="52.31"/></g><g id="_07" data-name="07"><circle class="cls-2" cx="32.02" cy="32" r="26.16"/><path class="cls-3" d="M13.32,39.43l.4,1.59.47,1.55.54,1.52.61,1.46L16,47l.75,1.35.82,1.27.88,1.2.92,1.14,1,1,1,1,1.07.87,1.11.77,1.16.68,1.16.58,1.21.47,1.22.36,1.24.26,1.25.16,1.26.07-1.68,0-1.67-.16-1.66-.26-1.64-.37-1.6-.47-1.57-.57-1.54-.68-1.48-.77-1.43-.87-1.38-1-1.3-1L13.88,50.8l-1.17-1.2-1.08-1.28-1-1.34-.91-1.41L8.89,44.1l-.73-1.51L7.53,41,7,39.45l-.42-1.62-.31-1.64-.21-1.66L6,32.86V31.18l.11-1.67.21-1.66.31-1.64L7,24.59,7.53,23l.63-1.55.73-1.51.82-1.47.91-1.41,1-1.34,1.08-1.28,1.17-1.2,1.24-1.13,1.3-1,1.38-1,1.43-.87,1.48-.77,1.54-.68,1.57-.57,1.6-.48,1.64-.36,1.66-.26L30.39,6l1.68-.12-1.26,0L29.56,6l-1.24.26-1.22.37-1.21.47-1.16.57-1.16.68-1.11.77L21.39,10l-1,1-1,1-.92,1.13-.88,1.2-.82,1.28L16,17l-.68,1.41-.61,1.47-.54,1.51-.47,1.55-.4,1.59L13,26.14l-.25,1.64-.15,1.66-.09,1.67v1.68l.09,1.67.15,1.66L13,37.76"/></g></svg>