<svg width="178" height="252" viewBox="0 0 178 252" fill="none" xmlns="http://www.w3.org/2000/svg">
<path d="M134.79 248.579L133.363 249.419L131.684 249.251L130.257 248.327L129.165 247.068L128.158 245.725L127.234 244.297L126.395 242.87L125.555 241.359L124.799 239.848L124.044 238.336L123.204 236.825L122.365 235.398L121.441 234.054L120.266 232.795L118.838 232.039L117.243 232.291L115.984 233.383L114.976 234.726L114.137 236.153L113.381 237.665L112.625 239.176L111.954 240.687L111.282 242.198L110.526 243.71L109.771 245.221L108.931 246.732L108.092 248.159L107.084 249.503L105.993 250.762L104.565 251.686L102.886 251.938L101.291 251.35L100.116 250.258L99.0242 248.915L98.1006 247.488L97.261 246.06L96.4215 244.549L95.6658 243.038L94.9102 241.527L94.1546 240.015L93.399 238.504L92.6433 236.993L91.8038 235.566L90.7962 234.222L89.4529 233.215L87.7738 233.047L86.3465 233.886L85.255 235.146L84.3315 236.573L83.4919 238L82.6523 239.512L81.8967 241.023L81.141 242.534L80.3015 244.045L79.4619 245.473L78.5383 246.9L77.5308 248.243L76.3554 249.419L74.9281 250.258H73.249L71.8217 249.419L70.7302 248.159L69.8067 246.732L68.9671 245.221L68.2115 243.71L67.5398 242.198L66.8681 240.687L66.2804 239.092L65.6927 237.497L65.105 235.901L64.5173 234.306L63.9296 232.711L63.3419 231.116L62.6702 229.521L61.9985 228.009L61.159 226.498L60.1515 225.155L58.8921 224.063L57.2969 223.895L55.8696 224.735L54.6942 225.994L53.7706 227.338L52.931 228.765L52.1754 230.276L51.5038 231.788L50.8321 233.299L50.1604 234.81L49.4887 236.405L48.8171 238L48.1454 239.596L47.4738 241.107L46.8021 242.618L46.0465 244.129L45.2069 245.641L44.2833 247.068L43.1919 248.327L41.8485 249.335L40.1694 249.503L38.6581 248.747L37.4827 247.572L36.4752 246.228L35.6356 244.801L34.88 243.29L34.1244 241.779L33.3688 240.267L32.6971 238.756L32.0254 237.245L31.2698 235.734L30.5142 234.222L29.7585 232.711L28.919 231.284L27.9954 229.856L26.904 228.597L25.5606 227.59L23.9654 227.422L22.5381 228.261L21.4467 229.605L20.6071 231.032L19.8515 232.543L19.1798 234.054L18.5081 235.566L17.8365 237.161L17.2488 238.756L16.5771 240.351L15.9054 241.863L15.2337 243.374L14.4781 244.885L13.7225 246.396L12.8829 247.824L11.8754 249.167L10.616 250.342L9.1048 250.93L7.50958 250.678L6.16626 249.755L5.07479 248.495L4.0673 247.152L3.14375 245.725L2.30417 244.297L1.46458 242.786L0.708963 241.275L0.625 241.023V88.7225V88.5546L1.29667 77.4721L3.39563 66.5575L6.83791 55.9788L11.5396 45.9038L17.5006 36.5004L24.6371 27.9367L32.781 20.2965L41.7646 13.7477L51.5038 8.37438L61.8306 4.26042L72.5773 1.48979L83.6598 0.0625H94.8263L105.909 1.48979L116.655 4.26042L126.982 8.37438L136.721 13.7477L145.705 20.2965L153.849 27.9367L160.985 36.5004L166.946 45.9038L171.648 55.9788L175.09 66.5575L176.014 71.3431L175.426 70.7554L173.075 69.0762L170.557 67.649L167.87 66.5575L165.015 65.8019L162.161 65.466H159.222L156.368 65.8019L153.513 66.5575L150.826 67.649L148.308 69.0762L145.957 70.7554L143.858 72.7704L142.011 75.0373L140.416 77.4721L139.156 80.0748L138.233 82.8454L137.729 85.7L137.561 88.6385H98.7723L98.6044 85.7L98.1006 82.8454L97.1771 80.0748L95.9177 77.4721L94.3225 75.0373L92.4754 72.7704L90.3765 70.7554L88.0256 69.0762L85.5069 67.649L82.8202 66.5575L79.9656 65.8019L77.111 65.466H74.1725L71.3179 65.8019L68.4633 66.5575L65.7767 67.649L63.2579 69.0762L60.9071 70.7554L58.8081 72.7704L56.961 75.0373L55.3658 77.4721L54.1065 80.0748L53.1829 82.8454L52.6792 85.7L52.5113 88.6385L52.6792 91.5771L53.1829 94.4317L54.1065 97.2023L55.3658 99.805L56.961 102.24L58.8081 104.507L60.9071 106.522L63.2579 108.201L65.7767 109.628L68.4633 110.72L71.3179 111.475L74.1725 111.811H77.111L79.9656 111.475L82.8202 110.72L85.5069 109.628L88.0256 108.201L90.3765 106.522L92.4754 104.507L94.3225 102.24L95.9177 99.805L97.1771 97.2023L98.1006 94.4317L98.6044 91.5771L98.7723 88.6385H137.561L137.729 91.5771L138.233 94.4317L139.156 97.2023L140.416 99.805L142.011 102.24L143.858 104.507L145.957 106.522L148.308 108.201L150.826 109.628L153.513 110.72L156.368 111.475L159.222 111.811H162.161L165.015 111.475L167.87 110.72L170.557 109.628L173.075 108.201L175.426 106.522L177.525 104.507L177.861 104.087V235.734L177.609 236.153L176.854 237.665L176.098 239.176L175.342 240.687L174.587 242.198L173.831 243.71L172.991 245.137L172.068 246.564L171.06 247.908L169.885 249.083L168.458 249.923L166.779 249.839L165.435 248.915L164.344 247.656L163.42 246.228L162.665 244.717L161.993 243.206L161.321 241.695L160.734 240.099L160.146 238.504L159.558 236.909L159.054 235.314L158.551 233.719L158.047 232.123L157.459 230.528L156.871 228.933L156.284 227.338L155.696 225.742L155.024 224.231L154.269 222.72L153.429 221.293L152.338 219.949L150.994 218.942L149.315 218.858L147.888 219.781L146.796 221.125L145.957 222.552L145.201 224.063L144.53 225.659L143.942 227.254L143.354 228.849L142.85 230.444L142.347 232.039L141.843 233.635L141.339 235.23L140.835 236.825L140.248 238.42L139.66 240.015L139.072 241.611L138.401 243.122L137.729 244.633L136.973 246.144L136.05 247.572" fill="white"/>
</svg>
