<svg width="252" height="240" viewBox="0 0 252 240" fill="none" xmlns="http://www.w3.org/2000/svg">
<path d="M104.773 239.645L83.4615 214.894L65.2547 230.08L59.5493 218.25L65.6742 204.574L32.7844 197.945L36.1405 184.941L76.2459 183.514L87.9083 163.881H49.9005L67.1844 135.019L69.3659 131.663L81.7834 137.62L76.5815 148.359L92.0195 149.869L96.3824 150.205L107.709 130.991H85.0556L81.6995 137.62L45.6215 131.746L25.3171 165.643L12.6479 163.042L22.6322 130.488L2.66347 126.041L0.0625 118.909L22.5483 109.764L11.2215 80.1465L23.4713 73.8538L45.9571 108.505L68.9464 108.589L49.8166 76.1192L87.0693 76.7065L87.8244 90.2987L76.5815 91.6411L85.2234 109.345L85.7268 109.428H107.541L96.2986 89.9631L87.8244 90.2987L87.0693 76.7065L87.6566 76.1192L74.8195 55.8148L35.8888 55.3953L31.6098 45.4109L65.3386 35.4265L60.7239 26.9524L60.3883 13.1924L72.9737 12.1016L82.9581 25.2743L103.346 0.523104L112.995 4.63432L114.421 12.5211L95.7951 44.2363L107.458 64.8762L126 31.8187L144.291 64.5406L132.628 71.924L126.084 62.7787L115.093 79.727L125.832 98.2694H126.587L137.411 79.3914L132.712 72.0079L144.375 64.6245H145.214L156.373 44.2363L137.159 8.24213L147.647 0.1875L168.958 25.1065L186.829 9.75237L193.038 20.5758L186.829 35.2587L219.048 41.2158L219.719 50.1094L175.922 56.7377L164.511 76.1192L202.435 75.9514L183.138 108.17L170.804 101.877L175.67 91.4733L156.037 89.7114L144.626 109.009L145.046 109.345L167.196 109.009L170.72 101.961L200.757 108.505L207.301 107.583L227.102 74.2733H235.577L240.778 82.1601L229.703 109.764L250.847 115.302L251.937 122.014L229.787 130.068L240.695 160.777L228.613 165.895L206.378 131.327L183.305 131.159L202.351 163.881L164.931 163.378L163.84 149.534L175.419 148.527L166.777 130.404H144.962L155.701 149.534L163.84 149.45L164.931 163.294L177.18 183.85L214.937 183.598L220.474 195.932L186.829 204.322L192.283 225.801L182.97 229.493L168.958 214.726L147.479 239.645L137.83 232.597L156.205 194.841L144.878 174.872L126 208.014L108.129 175.543L119.372 167.405L125.664 176.634L137.243 160.357L126 141.479L114.925 160.861L119.372 167.489L108.129 175.627L107.458 174.956L96.0468 196.016L114.841 232.345L104.773 239.645Z" fill="white"/>
</svg>
