<svg width="252" height="134" viewBox="0 0 252 134" fill="none" xmlns="http://www.w3.org/2000/svg">
<path d="M127.931 99.0749L0.0625 97.6305L125.916 38.4914L129.694 30.1643L142.036 15.7194L161.179 36.1972L157.988 39.9359L155.973 44.3543L155.301 49.1976L155.973 54.0409L157.988 58.4593L161.179 62.198L165.209 64.8321L169.826 66.1916H174.696L179.314 64.8321L183.344 62.198L186.534 58.4593L188.549 54.0409L189.221 49.1976L188.549 44.3543L186.534 39.9359L183.344 36.1972L179.314 33.5631L174.696 32.2036H169.826L165.209 33.5631L161.179 36.1972L142.036 15.7194L157.904 5.35311L176.039 0H194.93L213.065 5.35311L228.933 15.7194L241.275 30.1643L249.167 47.5832L251.938 66.5315L249.251 85.4798L241.359 102.899L229.017 117.343L213.149 127.71L195.014 133.063H176.123L157.904 127.71L142.036 117.343L129.694 102.899" fill="white"/>
</svg>
