<svg width="252" height="99" viewBox="0 0 252 99" fill="none" xmlns="http://www.w3.org/2000/svg">
<path d="M245.892 12.4239L251.938 7.55436L250.09 12.9277L248.327 17.8812L246.732 22.4989L245.221 26.7808L243.877 30.6429L242.618 34.1691L241.527 37.2756L240.603 40.0462L239.764 42.481L239.092 44.496L238.504 46.1751L238.084 47.4345L237.749 48.3581L237.581 48.9458L237.497 49.1137L237.581 49.2816L237.749 49.8693L238.084 50.7928L238.504 52.0522L239.092 53.7314L239.764 55.7464L240.603 58.1812L241.527 60.9518L242.618 64.0582L243.877 67.5845L245.221 71.4466L246.732 75.7284L248.327 80.3462L250.09 85.2997L251.938 90.673L245.892 85.8034L239.092 81.7734L231.536 78.4991L223.224 75.9803L214.24 74.2172L204.501 73.2097L194.006 72.9578L182.84 73.4616L170.918 74.7209L158.24 76.7359L144.891 79.5066L130.786 83.0328L115.925 87.3147L100.393 92.3522L84.1048 98.1453L74.4496 97.0538L65.3821 95.6265L56.9023 93.8634L49.0102 91.8484L41.7058 89.4976L34.9052 86.8109L28.6923 83.8724L23.0671 80.598L18.0296 77.0718L13.5798 73.2097L9.71771 69.0118L6.44333 64.562L3.75667 59.7764L1.65771 54.6549L0.0625 49.1137L1.57375 43.7404L3.67271 38.6189L6.35938 33.8333L9.63375 29.3835L13.4958 25.1856L17.9456 21.3235L22.9831 17.7973L28.6083 14.5229L30.8752 23.8423L29.7837 24.5139L28.9442 25.5214L28.4404 26.6968L28.2725 27.9562L28.4404 29.2156L28.9442 30.391L29.7837 31.3985L30.8752 32.0702L32.1346 32.406H33.394L34.6533 32.0702L35.7448 31.3985L36.5844 30.391L37.0881 29.2156L37.256 27.9562L37.0881 26.6968L36.5844 25.5214L35.7448 24.5139L34.6533 23.8423L33.394 23.5064H32.1346L30.8752 23.8423L28.6083 14.5229L34.8212 11.5844L41.6219 8.8977L48.9262 6.54687L56.8183 4.53186L65.2981 2.76875L74.3656 1.34146L84.0208 0.25L100.309 6.04311L115.841 11.0806L130.702 15.3625L144.807 18.8887L158.156 21.6593L170.834 23.6743L182.756 24.9337L193.922 25.4375L204.417 25.1856L214.156 24.1781L223.14 22.415L231.452 19.8962L239.008 16.6219" fill="#5CCCFF"/>
</svg>
