<svg width="114" height="252" viewBox="0 0 114 252" fill="none" xmlns="http://www.w3.org/2000/svg">
<path d="M25.3125 246.48L19.6873 243.794L14.8177 240.687L10.7877 237.161L7.42937 233.215L4.74271 228.933L2.72771 224.315L1.30041 219.362L0.460828 214.156L0.125 208.783L0.208963 203.158L0.712706 197.365L1.63625 191.488L2.89563 185.526L4.40688 179.481L6.25396 173.352L8.26896 167.224L10.4519 161.179L12.8027 155.217L15.2375 149.34L17.6723 143.547L20.191 137.922L22.7098 132.381L25.2285 126.84L27.7473 121.382L30.266 115.925L32.7008 110.468L35.1356 104.926L37.4865 99.3012L39.7533 93.5921L41.9363 87.799L44.0352 81.8379L46.0502 75.709L47.8973 69.4121L49.5765 62.8633L51.1717 56.1467L52.599 49.0942L53.8583 41.7898L54.8658 34.1496L55.7054 26.1735L56.2931 17.8617L56.629 9.13L56.7969 0.0625L56.9648 9.21396L57.3006 17.9456L57.8883 26.2575L58.7279 34.2335L59.7354 41.8738L60.9948 49.1781L62.4221 56.2306L64.0173 62.9473L65.6965 69.496L67.5435 75.7929L69.5586 81.9219L71.6575 87.8829L73.8404 93.676L76.1073 99.3852L78.4581 105.01L80.8929 110.552L83.3277 116.009L85.8465 121.466L88.3652 126.924L90.884 132.465L93.4027 138.006L95.9215 143.631L98.3563 149.424L100.791 155.301L103.142 161.263L105.325 167.308L107.34 173.436L109.187 179.565L110.698 185.61L111.958 191.571L112.881 197.449L113.385 203.242L113.469 208.867L113.133 214.24L112.293 219.446L110.866 224.399L108.851 229.017L106.164 233.299L102.806 237.245L98.776 240.771L93.9065 243.877L88.2813 246.564L81.8164 248.747L74.4281 250.426L66.1163 251.518L56.7969 251.938L47.4775 251.434L39.1656 250.342L31.7773 248.663" fill="white"/>
</svg>
