<svg width="191" height="252" viewBox="0 0 191 252" fill="none" xmlns="http://www.w3.org/2000/svg">
<path d="M109.625 154.965L84.5215 140.44V111.475L109.625 96.9498L134.729 111.475V140.44" fill="white"/>
<path d="M53.624 154.965L28.5205 140.44V111.475L53.624 96.9498L78.7275 111.475V140.44" fill="white"/>
<path d="M165.54 154.965L140.437 140.44V111.475L165.54 96.9498L190.644 111.475V140.44" fill="white"/>
<path d="M81.5811 106.518L56.4775 91.9935V63.0279L81.5811 48.5032L106.685 63.0279V91.9935" fill="white"/>
<path d="M81.5811 203.491L56.4775 188.966V160L81.5811 145.476L106.685 160V188.966" fill="white"/>
<path d="M137.583 106.518L112.479 91.9935V63.0279L137.583 48.5032L162.687 63.0279V91.9935" fill="white"/>
<path d="M137.583 203.491L112.479 188.966V160L137.583 145.476L162.687 160V188.966" fill="white"/>
<path d="M25.666 106.518L0.5625 91.9935V63.0279L25.666 48.5032L50.7695 63.0279V91.9935" fill="white"/>
<path d="M25.666 203.491L0.5625 188.966V160L25.666 145.476L50.7695 160V188.966" fill="white"/>
<path d="M109.625 58.0776L84.5215 43.5529V14.5873L109.625 0.0625L134.729 14.5873V43.5529" fill="white"/>
<path d="M109.625 251.937L84.5215 237.413V208.447L109.625 193.922L134.729 208.447V237.413" fill="white"/>
</svg>
