<svg width="170" height="252" viewBox="0 0 170 252" fill="none" xmlns="http://www.w3.org/2000/svg">
<path d="M146.307 251.602L146.39 247.405L147.146 243.293L145.719 239.432L144.04 235.655L142.278 231.962L140.264 228.353L138.165 224.828L135.983 221.303L133.801 217.778L131.451 214.337L129.017 210.979L126.415 207.706L123.478 204.685L120.456 201.747L117.183 199.145L113.742 196.795L110.133 194.781L106.356 193.018L102.579 191.424L98.7181 189.913L94.6895 188.99L90.6608 188.15L86.5482 187.395L82.4356 186.724L78.2391 186.64L74.0426 186.556L69.8461 186.64L65.6496 186.808L61.537 187.647L57.5922 188.99L53.6475 190.165L49.9546 191.927L46.3456 193.942L42.8205 196.124L44.1634 199.649L47.7724 201.579L51.7171 202.754L55.4101 203.51L53.3957 207.035L50.0385 209.553L46.0938 210.644L41.9812 211.231L37.8686 210.476L34.0918 208.797L30.8185 206.279L28.0488 203.174L25.6148 199.733L23.7683 196.04L22.0897 192.263L20.4951 188.486L18.9004 184.709L17.3057 180.932L15.3753 177.323L12.9413 173.966L10.0038 170.945L7.06621 167.923L4.5483 164.566L2.53396 160.957L1.35894 157.012L0.6875 152.9V148.703L1.19109 144.591L2.36611 140.646L3.709 136.701L5.47152 133.008L7.40192 129.399L9.50018 125.79L11.6824 122.265L14.1163 118.908L16.8861 115.802L19.9075 112.865L23.0969 110.095L26.7059 108.081L30.231 107.577L28.0488 111.102L25.7827 114.627L23.6844 118.153L21.9219 121.845L20.2433 125.622L18.9843 129.567L17.7254 133.512L16.8861 137.54L16.3825 141.737L16.1307 145.933L16.7182 150.046L17.4736 154.159L18.5647 158.187L20.2433 161.964L22.3415 165.489L24.6916 168.93L27.2934 172.204L30.5667 174.889L34.0918 177.072L38.0365 178.247L42.1491 178.834L46.2617 178.247L50.2903 177.407L54.319 176.4L58.1798 174.973L62.1245 173.714L66.0692 172.372L69.6782 170.357L72.364 167.252L72.0283 163.139L70.0979 159.53L67.9157 156.005L65.5656 152.564L63.4674 149.039L61.537 145.43L59.5226 141.821L57.7601 138.128L56.0815 134.351L54.4029 130.574L52.7243 126.797L51.0457 123.02L49.3671 119.244L47.5206 115.551L45.5063 111.942L43.0723 108.584L40.4705 105.311L37.9526 101.954L35.4347 98.5967L33.0846 95.1556L30.7346 91.7145L28.3006 88.2733L25.9505 84.8322L23.6844 81.3071L21.3344 77.8659L19.4879 74.173L17.9771 70.3122L16.5503 66.4514L15.5432 62.4228L14.6199 58.3941L13.7806 54.3654L13.0253 50.2528L12.3538 46.1403L12.1859 41.9437L12.102 37.7472L12.1859 33.5507L12.8574 29.4381L13.8646 25.4095L15.795 21.8005L18.7325 18.779L22.3415 16.7646L26.2023 15.3378L28.6363 15.9253L26.1184 19.2826L24.3558 22.9755L23.3487 27.0041L22.5933 31.1167L22.5094 35.3133L22.5933 39.5098L23.2648 43.6224L24.1041 47.651L25.1951 51.6797L26.7059 55.4565L28.3845 59.2334L30.0631 62.9263L31.9935 66.5353L33.9239 70.1444L35.8543 73.8373L37.9526 77.3624L39.8829 81.0553L42.0651 84.5804L44.2473 88.1054L46.6813 91.4627L49.2832 94.7359L52.5564 97.2538L55.8297 95.7431L57.0047 91.7984L58.2637 87.8537L59.2709 83.825L60.6137 79.9642L61.6209 75.9355L62.5441 71.9069L63.5513 67.8782L64.6424 63.9335L65.4817 59.9048L66.321 55.7923L67.0764 51.6797L67.6639 47.5671L68.2514 43.4545L69.0068 39.3419L69.2586 35.1454L69.93 31.0328L70.7693 26.9202L71.6086 22.8916L72.6158 18.8629L73.9587 15.0021L75.3015 11.1413L76.9802 7.36444L78.8266 3.67151L80.8409 0.0625L80.9249 4.17509L80.2534 8.28768L80.0856 12.4842L79.4141 16.5968L79.2463 20.7933L78.5748 24.9059L78.407 29.1024L77.8195 33.215L77.6516 37.4115L76.9802 41.5241L76.8123 45.7206L76.1408 49.8332L75.8891 54.0297L75.2176 58.1423L74.5462 62.2549L74.1265 66.4514L73.539 70.564L72.7836 74.6766L72.0283 78.7892L71.2729 82.9018L70.6014 87.0143L70.0139 91.1269L69.5103 95.3235L68.8389 99.436L68.755 103.633V107.829L68.8389 112.026L69.5103 116.138L70.3497 120.167L71.2729 124.195L72.1961 128.224L73.6229 132.085L74.714 136.03L76.2248 139.89L77.8195 143.667L79.4981 147.444L81.2606 151.137L83.5267 154.662L85.7089 158.187L88.2268 161.544L91.0804 164.65L94.1019 167.587L97.4591 170.105L100.9 172.372L104.593 174.05L108.538 175.309L112.399 176.652L116.176 178.247L119.785 180.177L123.31 182.443L126.751 184.793L129.94 187.479L133.13 190.249L136.151 193.186L139.005 196.292L141.69 199.481L144.376 202.754L146.978 206.028L149.748 209.133L152.35 207.035L153.189 203.006L153.86 198.894L154.364 194.781L156.042 191.004L158.644 187.731L161.666 184.793L162.841 184.961L161.834 188.99L161.162 193.102L161.498 197.299L162.337 201.411L162.421 205.608L161.498 209.637L160.155 213.497L158.644 217.358L158.56 221.555L160.155 225.416L162.589 228.773L165.778 231.375L169.471 233.137L169.303 236.914L167.373 240.607L164.855 243.88L161.834 246.818L158.393 249.168L154.616 250.846L150.671 251.938" fill="white"/>
</svg>
