<svg width="116" height="252" viewBox="0 0 116 252" fill="none" xmlns="http://www.w3.org/2000/svg">
<path d="M104.233 51.1931L101.463 60.9323L99.1119 70.7554L97.0969 80.6625L95.5017 90.6535L94.3262 100.645L94.0744 103.499L95.7535 103.919L97.5167 105.682L98.1883 108.117L97.5167 110.552L95.7535 112.315L93.4027 112.902L93.3187 115.001L95.7535 115.673L97.5167 117.436L98.1883 119.871L97.5167 122.306L95.7535 124.069L93.3187 124.741H93.1508V126.756H93.3187L95.7535 127.427L97.5167 129.19L98.1883 131.625L97.5167 134.06L95.7535 135.823L93.3187 136.495L93.4027 138.594L95.7535 139.181L97.5167 140.945L98.1883 143.379L97.5167 145.814L95.7535 147.577L94.0744 147.997L94.3262 150.852L95.5017 160.843L97.0969 170.834L99.0279 180.741L101.379 190.564L104.149 200.303L107.34 209.958L110.95 219.446L115.064 228.849L115.4 230.528L114.812 232.123L113.469 233.215L111.79 233.551L110.194 232.963L109.103 231.62L104.149 222.384L99.6156 212.897L95.5017 203.158L91.8915 193.251L88.701 183.092L86.854 176.039L88.0294 184.603L89.8765 195.266L92.0594 205.928L94.5781 216.507L97.2648 227.59L100.455 238.084L100.623 239.848L99.8675 241.443L98.4402 242.45L96.6771 242.618L95.0819 241.863L94.0744 240.435L90.0444 230.108L86.2662 219.614L82.9079 208.951L79.8854 198.204L77.2827 187.29L75.0998 176.291L74.68 173.688L74.8479 177.383L75.5196 188.801L76.2752 200.219L77.1988 211.638L78.2902 223.056L79.5496 234.474L80.9769 245.892L80.809 247.572L79.8015 248.999L78.2062 249.755L76.5271 249.587L75.0998 248.579L74.3442 246.984L71.9933 235.65L69.8944 224.231L67.9633 212.813L66.2842 201.311L64.7729 189.808L63.5135 178.306L63.3456 176.795V178.642L63.0937 190.312L62.7579 201.982L62.4221 213.652L62.0023 225.323L61.5825 236.993L61.1627 248.663L60.659 250.426L59.3996 251.686L57.8044 251.938L56.0412 251.434L54.7819 250.174L54.2781 248.411L53.8583 236.741L53.4385 225.071L53.0188 213.401L52.6829 201.73L52.3471 190.06L52.0952 178.39V177.383L52.0113 178.054L50.7519 189.556L49.2406 201.059L47.5615 212.561L45.6304 223.979L43.5315 235.398L41.2646 246.732L40.509 248.411L38.9977 249.503L37.1506 249.671L35.4715 248.915L34.38 247.404L34.2121 245.557L35.7233 234.138L36.9827 222.804L38.0742 211.386L38.9977 199.967L39.7533 188.549L40.425 177.131L40.509 174.948L40.341 176.039L38.1581 187.038L35.5554 197.952L32.6169 208.699L29.2585 219.362L25.5644 229.856L21.5344 240.183L20.5269 241.695L18.8477 242.45L17.0006 242.282L15.4894 241.275L14.7337 239.596L14.9017 237.749L18.176 227.254L21.0306 216.759L23.5494 206.18L25.7323 195.517L27.5794 184.855L28.5869 177.97L27.1596 183.427L23.9692 193.586L20.359 203.494L16.245 213.233L11.7113 222.804L6.7577 232.039L5.58229 233.383L3.81916 233.97L2.05604 233.635L0.712706 232.459L0.125 230.696L0.460828 228.933L4.57479 219.53L8.18499 210.042L11.3754 200.387L14.146 190.648L16.4969 180.825L18.5119 170.918L20.1071 160.927L21.2825 150.936L21.4504 148.417L19.6873 147.913L17.8402 146.066L17.1685 143.463L17.8402 140.861L19.6873 139.014L22.206 138.342L22.29 136.831L19.7712 136.159L17.9242 134.312L17.2525 131.709L17.9242 129.106L19.7712 127.259L22.374 126.588H22.5419V125.16H22.374L19.7712 124.489L17.9242 122.642L17.2525 120.039L17.9242 117.436L19.7712 115.589L22.374 114.918L22.29 113.49L19.7712 112.819L17.9242 110.971L17.2525 108.369L17.9242 105.766L19.7712 103.919L21.6183 103.415L21.4504 100.813L20.275 90.8215L18.6798 80.8304L16.7488 70.9233L14.3979 61.1002L11.6273 51.361L8.43687 41.7058L4.82666 32.2185L0.712706 22.8152L0.376878 21.136L0.964583 19.5408L2.30791 18.4494L3.98708 18.1135L5.58229 18.7012L6.67375 20.0446L11.6273 29.28L16.161 38.7673L20.275 48.5065L23.8852 58.4135L27.0756 68.5725L28.9227 75.625L27.7473 67.0613L25.9002 56.3985L23.7173 45.7358L21.1985 35.1571L18.344 24.6623L15.1535 14.1675L14.9856 12.4044L15.7412 10.8092L17.1685 9.80167L18.9317 9.63375L20.5269 10.3894L21.5344 11.8167L25.5644 22.1435L29.3425 32.6383L32.7008 43.301L35.7233 54.0477L38.326 64.9623L40.509 75.9608L40.9287 78.5635L40.7608 74.8694L40.0892 63.451L39.3335 52.0327L38.41 40.6144L37.3185 29.196L36.0592 17.7777L34.6319 6.35938L34.7998 4.68021L35.8073 3.25292L37.4025 2.49729L39.0817 2.66521L40.509 3.67271L41.2646 5.26791L43.6154 16.6023L45.7144 28.0206L47.6454 39.439L49.3246 50.9413L50.8358 62.4435L52.0952 73.9458L52.2631 76.2967L52.3471 73.61L52.6829 61.9398L53.0188 50.2696L53.4385 38.5994L53.8583 26.9292L54.2781 15.259L54.446 3.42083L54.8658 1.74167L56.1252 0.482292L57.8044 0.0625L59.4835 0.482292L60.7429 1.74167L61.1627 3.42083L61.5825 15.091L62.0023 26.7613L62.4221 38.4315L62.8419 50.1017L63.1777 61.7719L63.5135 73.4421L63.5975 75.3731L63.7654 73.7779L65.0248 62.2756L66.536 50.7733L68.2152 39.271L70.1463 27.8527L72.2452 16.4344L74.5121 5.1L75.2677 3.42083L76.779 2.32937L78.626 2.16146L80.3052 2.91708L81.3967 4.42833L81.5646 6.27542L80.0533 17.6938L78.794 29.0281L77.7025 40.4465L76.779 51.8648L76.0233 63.2831L75.3517 74.7015L75.2677 76.8844L75.4356 75.7929L77.6185 64.7944L80.2213 53.8798L83.1598 43.1331L86.5181 32.4704L90.2123 21.9756L94.2423 11.6488L95.2498 10.1375L96.929 9.38187L98.776 9.54979L100.287 10.5573L101.043 12.2365L100.875 14.0835L97.6006 24.5783L94.746 35.0731L92.2273 45.6519L90.0444 56.3146L88.1973 66.9773L87.1898 73.8619L88.6171 68.4046L91.8075 58.2456L95.4177 48.3385L99.5317 38.5994L104.065 29.0281L109.019 19.7927L110.194 18.4494L111.957 17.8617L113.721 18.1975L115.064 19.3729L115.652 21.136L115.316 22.8992L111.202 32.3025L107.592 41.7898" fill="white"/>
</svg>
