<svg width="276" height="252" viewBox="0 0 276 252" fill="none" xmlns="http://www.w3.org/2000/svg">
<path d="M138.511 86.5781L147.37 76.0409L158.055 65.0416L170.933 53.3953L186.185 41.1944L204.086 28.254L224.91 14.5742L248.93 0.0625L261.99 26.1281L270.484 50.9921L274.776 74.6545L275.233 97.0228L272.219 117.912L266.191 137.323L257.423 155.162L246.372 171.245L233.403 185.572L218.973 198.143L203.355 208.68L187.007 217.183L170.294 223.561L153.58 227.721L137.323 229.662L121.797 229.199L107.458 226.242L94.6718 220.788L83.8034 212.654L78.0495 205.352L6.8115 251.938L0.875 241.493L82.0681 194.353L83.4381 192.874L90.1052 184.185L95.4937 175.589L99.9689 167.178L103.714 158.767L106.91 150.356L109.924 141.852L113.029 133.256L116.408 124.475L120.336 115.509L125.085 106.266L130.93 96.6531" fill="white"/>
</svg>
