<svg width="260" height="260" viewBox="0 0 260 260" fill="none" xmlns="http://www.w3.org/2000/svg">
<path d="M98.3125 250.48L92.6873 247.794L87.8177 244.687L83.7877 241.161L80.4294 237.215L77.7427 232.933L75.7277 228.315L74.3004 223.362L73.4608 218.156L73.125 212.783L73.209 207.158L73.7127 201.365L74.6363 195.488L75.8956 189.526L77.4069 183.481L79.254 177.352L81.269 171.224L83.4519 165.179L85.8027 159.217L88.2375 153.34L90.6723 147.547L93.191 141.922L95.7098 136.381L98.2285 130.84L100.747 125.382L103.266 119.925L105.701 114.468L108.136 108.926L110.486 103.301L112.753 97.5921L114.936 91.799L117.035 85.8379L119.05 79.709L120.897 73.4121L122.576 66.8633L124.172 60.1467L125.599 53.0942L126.858 45.7898L127.866 38.1496L128.705 30.1735L129.293 21.8617L129.629 13.13L129.797 4.0625L129.965 13.214L130.301 21.9456L130.888 30.2575L131.728 38.2335L132.735 45.8738L133.995 53.1781L135.422 60.2306L137.017 66.9473L138.696 73.496L140.544 79.7929L142.559 85.9219L144.658 91.8829L146.84 97.676L149.107 103.385L151.458 109.01L153.893 114.552L156.328 120.009L158.846 125.466L161.365 130.924L163.884 136.465L166.403 142.006L168.921 147.631L171.356 153.424L173.791 159.301L176.142 165.263L178.325 171.308L180.34 177.436L182.187 183.565L183.698 189.61L184.958 195.571L185.881 201.449L186.385 207.242L186.469 212.867L186.133 218.24L185.293 223.446L183.866 228.399L181.851 233.017L179.164 237.299L175.806 241.245L171.776 244.771L166.906 247.877L161.281 250.564L154.816 252.747L147.428 254.426L139.116 255.518L129.797 255.938L120.477 255.434L112.166 254.342L104.777 252.663" fill="#AE0000"/>
</svg>
