<svg width="252" height="252" viewBox="0 0 252 252" fill="none" xmlns="http://www.w3.org/2000/svg">
<path d="M201.092 178.484L193.024 183.779L186.048 191.679L178.989 199.495L171.929 207.227L164.701 214.875L157.222 222.271L149.322 229.162L140.749 235.213L131.421 240.088L121.588 243.869L111.335 246.139L100.829 246.727L90.324 246.559L79.8187 245.55L69.3975 244.206L58.9762 243.029L48.4709 242.777L38.2177 244.962L30.6539 251.938L23.1742 247.147L27.3763 237.734L26.1156 227.397L22.3337 217.564L17.7114 208.067L12.921 198.739L8.29865 189.242L4.4327 179.493L1.74335 169.324L0.0625 158.987L0.146541 148.481L1.91143 138.144L4.60079 127.975L8.21461 118.142L12.5848 108.561L17.2912 99.1485L22.1656 89.8198L27.1241 80.4911L32.1667 71.2464L34.688 61.8337L34.1837 51.5805L37.8816 41.7475L42.4198 32.2507L47.9667 23.5103L54.69 15.4423L62.6741 8.63483L71.6666 3.34015L81.8357 0.902924L92.257 0.0625L102.678 1.23909L112.847 3.84441L122.848 7.2061L132.597 11.1561L142.094 15.6944L151.339 20.6529L160.415 25.9475L169.324 31.5784L177.98 37.5454L187.057 33.5954L196.722 29.4773L206.807 26.5359L217.144 24.771L227.649 24.0146L238.155 24.3507L248.576 25.6954L251.937 34.0997L247.399 43.4284L237.398 42.3358L226.977 40.739L216.472 40.3188L205.966 41.1592L195.713 43.3443L191.427 47.7145L199.495 54.4379L207.311 61.4975L214.707 68.9773L221.85 76.6251L228.49 84.7772L234.121 93.6017L238.743 103.014L242.02 112.931L242.777 123.437L241.516 133.858L237.314 143.523L231.935 152.599L225.548 161.004L218.321 168.652L211.009 175.627" fill="white"/>
</svg>
