<svg width="260" height="260" viewBox="0 0 260 260" fill="none" xmlns="http://www.w3.org/2000/svg">
<path d="M129.827 130V0L113.187 1.04L96.8067 4.24667L81.0333 9.53333L66.04 16.7267L52.0867 25.8267L39.4333 36.66L28.2533 48.9667L18.72 62.66L11.0067 77.3933L5.28667 92.9933L1.56 109.2L0 125.753L0.520005 142.393L3.20667 158.86L7.97334 174.807L14.7333 190.06L23.4 204.273L33.8 217.273L45.76 228.887L59.1067 238.853L73.58 247L89.0067 253.24L105.127 257.487L121.68 259.653H138.32L154.873 257.487L170.993 253.24L186.42 247L200.893 238.853L214.24 228.887L226.2 217.273L236.6 204.273L245.267 190.06L252.027 174.807L256.793 158.86L259.48 142.393L260 125.753L258.44 109.2L254.713 92.9933L248.993 77.3933L241.28 62.66L231.747 48.9667L220.567 36.66L207.913 25.8267L193.96 16.7267L178.967 9.53333L163.193 4.24667L146.813 1.04L129.827 0" fill="#0A0A0A"/>
<path d="M130.694 31.0267L130.607 25.8267L130.52 21.06L130.434 16.7267L130.347 12.9133L130.26 9.53333L130.174 6.67333L130.087 4.33333L130 2.51333L129.914 1.21333L129.827 0.433333V0L138.147 0.260003L146.467 1.04L154.7 2.34L162.847 4.16L170.82 6.5L178.62 9.36L186.247 12.74L193.614 16.5533L200.72 20.8867L207.567 25.6533L214.067 30.8533L220.22 36.4867L226.027 42.4667L231.4 48.7933L236.427 55.4667L240.934 62.4867L245.007 69.7667L248.647 77.3067L251.767 85.02L254.367 92.9067L256.447 100.967L258.007 109.113L259.047 117.347L259.567 125.667V133.987L259.047 142.307L258.007 150.54L256.447 158.687L254.367 166.747L251.767 174.633L248.647 182.347L245.007 189.887L240.934 197.167L236.427 204.187L231.4 210.86L226.027 217.187L220.22 223.167L214.067 228.8L207.567 234L200.72 238.767L193.614 243.1L186.247 246.913L178.62 250.293L170.82 253.153L162.847 255.493L154.7 257.313L146.467 258.613L138.147 259.393L129.827 260L129.914 259.74L130 258.96L130.087 257.66L130.174 255.84L130.26 253.5L130.347 250.64L130.434 247.26L130.52 243.447L130.607 239.113L130.694 234.347L130.78 229.147L130.867 223.513L130.954 217.533L131.04 211.207L131.127 204.533L131.214 197.513L131.3 190.233V182.693V174.98V167.093V159.033V150.887V142.653V134.333V126.013V117.693V109.46V101.313V93.2533V85.3667V77.6533V70.1133L131.214 62.8333L131.127 55.8133L131.04 49.14L130.954 42.8133L130.867 36.8333" fill="white"/>
</svg>
