<svg width="260" height="260" viewBox="0 0 260 260" fill="none" xmlns="http://www.w3.org/2000/svg">
<path d="M130.173 130L130.173 260L146.813 258.96L163.193 255.753L178.967 250.467L193.96 243.273L207.913 234.173L220.567 223.34L231.747 211.033L241.28 197.34L248.993 182.607L254.713 167.007L258.44 150.8L260 134.247L259.48 117.607L256.793 101.14L252.027 85.1934L245.267 69.9401L236.6 55.7267L226.2 42.7267L214.24 31.1134L200.893 21.1467L186.42 13.0001L170.993 6.76007L154.873 2.51341L138.32 0.346738L121.68 0.346736L105.127 2.5134L89.0067 6.76006L73.5801 13.0001L59.1067 21.1467L45.7601 31.1134L33.8 42.7267L23.4 55.7267L14.7334 69.9401L7.97339 85.1934L3.20672 101.14L0.520025 117.607L4.43723e-05 134.247L1.56003 150.8L5.28669 167.007L11.0067 182.607L18.72 197.34L28.2533 211.033L39.4334 223.34L52.0867 234.173L66.04 243.273L81.0333 250.467L96.8067 255.753L113.187 258.96L130.173 260" fill="#0A0A0A"/>
<path d="M37.0072 167.007L39.0005 174.893L41.3405 182.607L44.0272 190.147L47.0605 197.427L50.4405 204.447L54.1672 211.12L58.2405 217.447L62.5739 223.427L67.1672 229.06L72.0205 234.26L77.1338 239.027L82.4205 243.36L87.9672 247.173L93.6872 250.553L99.4938 253.413L105.474 255.753L111.541 257.573L117.694 258.873L123.934 259.653L130.174 260L121.854 259.74L113.534 258.96L105.3 257.66L97.1538 255.84L89.1805 253.5L81.3805 250.64L73.7538 247.26L66.3872 243.447L59.2805 239.113L52.4339 234.347L45.9339 229.147L39.7805 223.513L33.9739 217.533L28.6005 211.207L23.5739 204.533L19.0672 197.513L14.9939 190.233L11.3539 182.693L8.23387 174.98L5.63388 167.093L3.55388 159.033L1.99389 150.887L0.953885 142.653L0.433881 134.333L0.433882 126.013L0.953887 117.693L1.9939 109.46L3.55389 101.313L5.63388 93.2533L8.23388 85.3667L11.3539 77.6533L14.9939 70.1133L19.0672 62.8333L23.5739 55.8133L28.6005 49.14L33.9739 42.8133L39.7806 36.8333L45.9339 31.2L52.4339 26L59.2806 21.2333L66.3872 16.9L73.7539 13.0867L81.3805 9.70667L89.1805 6.84666L97.1539 4.50667L105.301 2.68667L113.534 1.38667L121.854 0.606674L130.174 -2.38419e-06L123.934 0.259986L117.694 1.04001L111.541 2.34001L105.474 4.15998L99.4939 6.49999L93.6872 9.35998L87.9672 12.74L82.4205 16.5533L77.1339 20.8867L72.0205 25.6533L67.1672 30.8533L62.5739 36.4867L58.2405 42.4667L54.1672 48.7933L50.4405 55.4667L47.0606 62.4867L44.0272 69.7667L41.3405 77.3067L39.0005 85.02L37.0072 92.9067L35.4472 100.967L34.2339 109.113L33.4539 117.347L33.0205 125.667L33.0205 133.987L33.4539 142.307L34.2339 150.54L35.4472 158.687" fill="white"/>
</svg>
