<svg width="65" height="64" viewBox="0 0 65 64" fill="none" xmlns="http://www.w3.org/2000/svg">
<g clip-path="url(#clip0)">
<path d="M32.2356 61.8523L31.7916 61.5527L31.3554 61.3999L31.3393 61.3928L30.8869 61.2179L30.4345 60.9924L30.3422 60.9476L29.9821 60.74L29.5297 60.5396L29.4489 60.4952L29.0774 60.2761L28.7363 60.0427L28.625 59.9379L28.1726 59.658L28.0898 59.5904L27.7202 59.2817L27.5263 59.138L27.2678 58.9119L26.9354 58.6857L26.8154 58.5923L26.3631 58.2935L26.2977 58.2333L25.9337 57.7808L25.9107 57.7543L25.4583 57.3953L25.3857 57.3285L25.0059 57.0178L24.8447 56.8761L24.5535 56.5709L24.3314 56.4238L24.1012 56.2126L23.9082 55.9714L23.6488 55.6854L23.4603 55.519L23.1964 55.2862L22.98 55.0666L22.744 54.8465L22.5264 54.6142L22.2916 54.3198L22.1921 54.1618L21.8393 53.7315L21.8225 53.7094L21.53 53.257L21.3869 53.0831L21.2077 52.8047L20.9426 52.3523L20.9345 52.3427L20.6285 51.9L20.4821 51.7444L20.2637 51.4475L20.0297 51.0484L20.0026 50.9951L19.5773 50.594L19.2916 50.5428L19.125 50.4941L18.9139 50.5428L18.6726 50.6356L18.495 50.9951L18.3513 51.4475L18.2491 51.9L18.2202 51.9583L17.9259 52.3523L17.7678 52.6724L17.6891 52.8047L17.4121 53.257L17.3154 53.3847L17.0276 53.7094L16.8631 54.0625L16.8065 54.1618L16.5212 54.6142L16.4107 54.7627L16.1654 55.0666L15.9583 55.3849L15.8396 55.519L15.5059 55.864L15.41 55.9714L15.1247 56.4238L15.0535 56.503L14.6765 56.8761L14.6012 56.9508L14.2114 57.3285L14.1488 57.3879L13.6964 57.626L13.483 57.7808L13.244 57.9299L12.7916 58.2098L12.7593 58.2333L12.3393 58.4029L11.8869 58.5494L11.5542 58.6857L11.4345 58.7277L10.9821 58.8686L10.5297 59.0234L10.2166 59.138L10.0774 59.1687L9.62501 59.2465L9.17261 59.2511L8.72021 59.2541L8.26781 59.3128L7.81551 59.3931L7.36311 59.4331L6.91071 59.3883L6.45831 59.3181L6.00591 59.2786L5.55351 59.2206L5.30351 59.138L5.10121 59.0296L4.64881 58.8035L4.42701 58.6857L4.19641 58.5349L3.74401 58.3418L3.62471 58.2333L3.29161 57.9074L3.14281 57.7808L2.83931 57.4612L2.72221 57.3285L2.38691 56.89L2.37851 56.8761L2.13091 56.4238L1.93451 56.0202L1.91801 55.9714L1.76711 55.519L1.59191 55.0666L1.48211 54.8695L1.38451 54.6142L1.29111 54.1618L1.22281 53.7094L1.14011 53.257L1.13741 52.8047L1.08551 52.3523L1.02971 51.9822L1.02201 51.9L0.999905 51.4475L0.995605 50.9951L1.02971 50.7366L1.07031 50.5428L1.27451 50.0904L1.43131 49.6381L1.48211 49.5625L1.75251 49.1856L1.93451 48.837L2.01101 48.7333L2.32291 48.2809L2.38691 48.1904L2.68141 47.8285L2.83931 47.6928L3.29161 47.6208L3.49321 47.8285L3.61921 48.2809L3.74401 48.7333L3.84561 49.1856L3.93541 49.6381L4.06531 50.0904L4.19641 50.3111L4.29041 50.5428L4.60501 50.9951L4.64881 51.0454L5.05091 51.4475L5.10121 51.4943L5.55351 51.8894L5.56501 51.9L6.00591 52.2958L6.12171 52.3523L6.45831 52.5079L6.91071 52.6335L7.28321 52.8047L7.36311 52.8693L7.81551 53.021L8.26781 53.0869L8.72021 53.0868L9.17261 53.0547L9.62501 53.0045L10.0774 52.8047L10.5297 52.6452L10.9821 52.5152L11.2953 52.3523L11.4345 52.2672L11.8198 51.9L11.8869 51.8397L12.279 51.4475L12.3393 51.3711L12.6496 50.9951L12.7916 50.8129L13.015 50.5428L13.2179 50.0904L13.244 50.0028L13.4056 49.6381L13.5503 49.1856L13.6565 48.7333L13.6964 48.5825L13.7995 48.2809L13.8555 47.8285V47.3761L13.8387 46.9237L13.839 46.4714L13.8519 46.019L13.8281 45.5666L13.7904 45.1142L13.7292 44.6618L13.6964 44.4733L13.6654 44.2095L13.586 43.7571L13.4569 43.3047L13.244 42.8523L13.1647 42.3999L13.0108 41.9475L12.9123 41.4951L12.7916 41.3306L12.6444 41.0427L12.3991 40.5904L12.3393 40.4804L12.1809 40.138L11.8869 39.8019L11.8135 39.6857L11.5662 39.2333L11.4345 39.0165L11.3088 38.7808L11.0027 38.3286L10.9821 38.28L10.8272 37.8761L10.5297 37.5314L10.4663 37.4238L10.2877 36.9714L10.0774 36.6646L9.97251 36.5189L9.65321 36.0666L9.62501 36.0149L9.48331 35.6142L9.23521 35.1618L9.17261 35.0928L8.94181 34.7094L8.76621 34.2571L8.72021 34.2038L8.48071 33.8047L8.26781 33.4428L8.22711 33.3523L8.03871 32.8999L7.81551 32.5874L7.74431 32.4476L7.55031 31.9952L7.37001 31.5428L7.36311 31.535L7.08091 31.0904L6.91071 30.7134L6.88341 30.6381L6.74541 30.1856L6.58471 29.7332L6.45831 29.5647L6.30261 29.2808L6.05621 28.8284L6.00591 28.7307L5.86171 28.3761L5.62651 27.9238L5.55351 27.8185L5.40271 27.4714L5.26361 27.019L5.10121 26.7707L4.99501 26.5667L4.79961 26.1143L4.64881 25.7523L4.61951 25.6619L4.48791 25.2094L4.29921 24.757L4.19641 24.5149L4.13641 24.3047L3.95201 23.8523L3.89281 23.3999L3.75201 22.9475L3.74401 22.9295L3.63431 22.495L3.51281 22.0428L3.37331 21.5904L3.29161 21.3944L3.22861 21.1379L3.16441 20.6857L3.11401 20.2334L3.06301 19.781L2.96671 19.3285L4.50741 18.8761L4.64881 19.1372L5.10121 19.2973L5.39201 18.8761L5.36601 18.4237L8.50461 17.9713L8.59281 18.4237L8.66651 18.8761L8.72021 19.228L8.72971 19.3285L8.83461 19.781L8.96421 20.2334L9.15111 20.6857L9.17261 20.8364L9.19451 21.1379L9.25971 21.5904L9.36281 22.0428L9.53601 22.495L9.62501 22.6548L9.71801 22.9475L9.82751 23.3999L9.89111 23.8523L10.0774 24.3047L10.2298 24.757L10.451 25.2094L10.5297 25.4266L10.5796 25.6619L10.6839 26.1143L10.9417 26.5667L10.9821 26.6169L11.2028 27.019L11.4345 27.4609L11.4384 27.4714L11.6268 27.9238L11.8869 28.3761L12.0592 28.8284L12.1864 29.2808L12.3393 29.5951L12.3901 29.7332L12.5556 30.1856L12.7846 30.6381L12.7916 30.6499L12.9756 31.0904L13.244 31.4497L13.2991 31.5428L13.3901 31.9952L13.6174 32.4476L13.6964 32.5557L13.8784 32.8999L14.1488 33.32L14.1642 33.3523L14.342 33.8047L14.6012 34.2126L14.6273 34.2571L14.7862 34.7094L15.0212 35.1618L15.0535 35.2039L15.2563 35.6142L15.5059 36.0163L15.5345 36.0666L15.8253 36.5189L15.9583 36.6649L16.1742 36.9714L16.4107 37.3302L16.4639 37.4238L16.6701 37.8761L16.8631 38.1346L16.9716 38.3286L17.3154 38.7693L17.3245 38.7808L17.5509 39.2333L17.7678 39.5062L17.8709 39.6857L18.1022 40.138L18.2202 40.3231L18.3672 40.5904L18.6726 40.9551L18.7308 41.0427L19.0088 41.4951L19.125 41.6544L19.2971 41.9475L19.5773 42.3007L19.6569 42.3999L20.0123 42.8523L20.0297 42.8697L20.3439 43.3047L20.4821 43.4856L20.6687 43.7571L20.9345 44.0483L21.0498 44.2095L21.3423 44.6618L21.3869 44.7227L21.6819 45.1142L21.8393 45.2671L22.038 45.5666L22.2916 45.8936L22.4201 46.019L22.744 46.3834L22.8194 46.4714L23.1964 46.8881L23.2244 46.9237L23.5539 47.3761L23.6488 47.4709L24.075 47.8285L24.1012 47.8568L24.4349 48.2809L24.5535 48.4036L24.8354 48.7333L25.0059 48.9433L25.1756 49.1856L25.4583 49.4757L25.6006 49.6381L25.9107 49.9589L26.0538 50.0904L26.3631 50.3883L26.5087 50.5428L26.8154 50.8605L26.9586 50.9951L27.2678 51.3084L27.3971 51.4475L27.7202 51.7669L27.8616 51.9L28.1726 52.2713L28.2413 52.3523L28.625 52.7219L28.6915 52.8047L29.0774 53.257L29.4283 53.7094L29.5297 53.8043L29.8931 54.1618L29.9821 54.2539L30.391 54.6142L30.4345 54.6513L30.8869 55.0235L30.9238 55.0666L31.2981 55.519L31.3393 55.5554L31.7916 55.8607L32.244 55.958L32.6964 55.7646L33.0123 55.519L33.1488 55.3846L33.4001 55.0666L33.6012 54.9053L33.9598 54.6142L34.0535 54.5288L34.4716 54.1618L34.5059 54.1307L34.9042 53.7094L34.9583 53.6488L35.3318 53.257L35.4107 53.1878L35.8059 52.8047L35.8631 52.7514L36.3154 52.3523L36.7678 52.0651L36.9231 51.9L37.2202 51.6156L37.4099 51.4475L37.6726 51.1715L37.8191 50.9951L38.125 50.7168L38.3134 50.5428L38.5773 50.2549L38.7419 50.0904L39.0297 49.7684L39.1365 49.6381L39.4705 49.1856L39.4821 49.1709L39.906 48.7333L39.9345 48.7001L40.3252 48.2809L40.3869 48.2034L40.692 47.8285L40.8392 47.6449L41.1081 47.3761L41.2916 47.1539L41.4818 46.9237L41.744 46.6222L41.877 46.4714L42.121 46.019L42.1964 45.9203L42.503 45.5666L42.6488 45.3736L42.8639 45.1142L43.1012 44.8238L43.2657 44.6618L43.5536 44.2741L43.6145 44.2095L44.0059 43.7571L44.4136 43.3047L44.4583 43.2595L44.8604 42.8523L44.9107 42.7783L45.1708 42.3999L45.3631 42.1436L45.5199 41.9475L45.7825 41.4951L45.8155 41.4472L46.1154 41.0427L46.2678 40.8203L46.4476 40.5904L46.7202 40.1652L46.7445 40.138L47.1178 39.6857L47.1726 39.6218L47.5854 39.2333L47.625 39.1629L47.8272 38.7808L48.0774 38.4856L48.217 38.3286L48.5003 37.8761L48.5297 37.8404L48.8562 37.4238L48.9821 37.2387L49.2174 36.9714L49.4345 36.6906L49.5788 36.5189L49.8356 36.0666L49.8869 35.9889L50.169 35.6142L50.3393 35.2925L50.4166 35.1618L50.6815 34.7094L50.7916 34.4873L50.9818 34.2571L51.244 33.8047L51.5912 33.3523L51.6964 33.1878L51.8723 32.8999L52.0808 32.4476L52.1488 32.3235L52.4001 31.9952L52.5359 31.5428L52.6012 31.3855L52.7923 31.0904L53.0078 30.6381L53.0535 30.5627L53.2701 30.1856L53.4932 29.7332L53.5059 29.7131L53.8107 29.2808L53.9583 28.9469L54.0337 28.8284L54.2755 28.3761L54.4061 27.9238L54.4107 27.9134L54.6369 27.4714L54.726 27.019L54.8206 26.5667L54.8631 26.3404L54.9373 26.1143L55.0702 25.6619L55.2071 25.2094L55.3154 24.8379L55.3503 24.757L55.4534 24.3047L55.5733 23.8523L55.6433 23.3999L55.7308 22.9475L55.7678 22.7332L55.842 22.495L55.9367 22.0428L56.0393 21.5904L56.1314 21.1379L56.1819 20.6857L56.2202 20.48L56.2926 20.2334V19.781V19.3285V18.8761V18.4237V17.9713V17.519V17.0666L56.318 16.6142L56.3194 16.1619L56.3042 15.7095L56.2633 15.257L56.2202 15.0103L56.1998 14.8046L56.1307 14.3523L56.0449 13.8999L55.9682 13.4475L55.7678 13.0093L55.7636 12.9952L55.5943 12.5428L55.3154 12.1795L55.2536 12.0904L54.9224 11.638L54.8631 11.5698L54.4107 11.2161L54.386 11.1855L53.9806 10.7333L53.9583 10.713L53.5059 10.3381L53.4284 10.2808L53.0535 9.99258L52.7719 9.82858L52.6012 9.70448L52.1488 9.51388L51.8198 9.37618L51.6964 9.28988L51.244 9.06228L50.7916 8.97148L50.6716 8.92368L50.3393 8.72258L49.8869 8.60338L49.4948 8.47148L49.4345 8.44258L48.9821 8.29458L48.5297 8.21338L48.0774 8.17538L47.625 8.16288L47.1726 8.16158L46.7202 8.16428L46.2678 8.16578L45.8155 8.17238L45.3631 8.18458L44.9107 8.21848L44.4583 8.29028L44.0059 8.41558L43.8049 8.47148L43.5536 8.51798L43.1012 8.74958L42.6973 8.92368L42.6488 8.93578L42.1964 9.12878L41.8478 9.37618L41.744 9.43538L41.2916 9.70878L41.1603 9.82858L40.8392 10.0472L40.5355 10.2808L40.3869 10.3965L40.0173 10.7333L39.9345 10.8096L39.516 11.1855L39.4821 11.2176L39.0297 11.5827L38.9804 11.638L38.5773 11.8987L38.3512 12.0904L38.125 12.3264L37.926 12.5428L37.6726 12.7833L37.466 12.9952L37.2202 13.3779L37.1628 13.4475L36.825 13.8999L36.7678 13.97L36.4821 14.3523L36.3154 14.5528L36.0756 14.8046L35.8631 15.1255L35.7534 15.257L35.4662 15.7095L35.4107 15.7935L35.0475 16.1619L34.9583 16.2463L34.5059 16.5077L34.0535 16.5272L33.6012 16.507L33.1488 16.4497L32.6964 16.2215L32.599 16.1619L32.244 15.9055L32.0149 15.7095L31.7916 15.474L31.5747 15.257L31.3393 15.0182L31.1395 14.8046L30.8869 14.5585L30.6638 14.3523L30.4345 14.1291L30.2053 13.8999L29.9821 13.6736L29.7875 13.4475L29.5297 13.1805L29.3643 12.9952L29.0774 12.6656L28.9242 12.5428L28.625 12.2965L28.4214 12.0904L28.1726 11.8139L27.9916 11.638L27.7202 11.3705L27.4411 11.1855L27.2678 11.0583L26.8432 10.7333L26.8154 10.7044L26.3631 10.3545L26.2536 10.2808L25.9107 9.99348L25.7256 9.82858L25.4583 9.65018L25.0865 9.37618L25.0059 9.29968L24.5535 9.02758L24.3171 8.92368L24.1012 8.79168L23.6488 8.56788L23.4578 8.47148L23.1964 8.32438L22.744 8.22258L22.2916 8.11898L21.9763 8.01898L21.8393 7.94348L21.3869 7.75728L20.9345 7.71568L20.4821 7.67488L20.0297 7.63648L19.5773 7.58418L19.3964 7.56658L19.125 7.52658L18.6726 7.48218L18.2202 7.47138L17.7678 7.49498L17.3154 7.48708L16.8631 7.52008L16.5992 7.56658L16.4107 7.58738L15.9583 7.62428L15.5059 7.64598L15.0535 7.67968L14.6012 7.71898L14.1488 7.91388L13.9706 8.01898L13.6964 8.10598L13.244 8.23128L12.8626 8.47148L12.7916 8.51248L12.3393 8.79168L12.1492 8.92368L11.8869 9.12538L11.6638 9.37618L11.4345 9.53848L11.0613 9.82858L10.9821 9.89168L10.6151 10.2808L10.5297 10.3983L10.1904 10.7333L10.0774 10.9162L9.92101 11.1855L9.75561 11.638L9.62501 11.9898L9.56471 12.0904L9.34581 12.5428L9.24281 12.9952L9.17261 13.2278L9.07271 13.4475L8.94641 13.8999L8.80151 14.3523L8.72021 14.7544L8.70441 14.8046L8.62571 15.257L8.55781 15.7095L8.48911 16.1619L8.45051 16.6142L8.48261 17.0666L8.47041 17.519L8.50461 17.9713L5.36601 18.4237L5.10121 18.0735L4.64881 18.2298L4.53321 18.4237L4.50741 18.8761L2.96671 19.3285L2.89961 18.8761L2.90941 18.4237L2.93821 17.9713L2.93621 17.519L2.91571 17.0666L2.91341 16.6142L2.96571 16.1619L3.05411 15.7095L3.12621 15.257L3.14361 14.8046L3.15631 14.3523L3.21011 13.8999L3.26981 13.4475L3.29161 13.3431L3.41391 12.9952L3.53111 12.5428L3.67611 12.0904L3.74401 11.8481L3.83181 11.638L3.94261 11.1855L4.06711 10.7333L4.19641 10.3973L4.26001 10.2808L4.42261 9.82858L4.60051 9.37618L4.64881 9.27238L4.86071 8.92368L5.06201 8.47148L5.10121 8.39988L5.33981 8.01898L5.55351 7.71508L5.69971 7.56658L6.00591 7.27808L6.18831 7.11418L6.45831 6.80428L6.56661 6.66178L6.91071 6.34868L7.04151 6.20948L7.36311 5.92838L7.61751 5.75708L7.81551 5.59868L8.17191 5.30458L8.26781 5.24588L8.72021 4.99688L8.88281 4.85218L9.17261 4.63658L9.53611 4.39978L9.62501 4.35368L10.0774 4.13338L10.3287 3.94748L10.5297 3.84698L10.9821 3.69818L11.3419 3.49508L11.4345 3.45508L11.8869 3.25578L12.3393 3.11378L12.5762 3.04278L12.7916 3.00238L13.244 2.91478L13.6964 2.76298L14.0417 2.59038L14.1488 2.55358L14.6012 2.41388L15.0535 2.37858L15.5059 2.30838L15.9583 2.20378L16.2976 2.13808L16.4107 2.12588L16.8631 2.11658L17.3154 2.13808L17.7678 2.16448L18.1298 2.13808L18.2202 2.13368L18.6726 2.12118L19.125 2.11328L19.5773 2.12578L19.6904 2.13808L20.0297 2.19888L20.4821 2.28328L20.9345 2.34568L21.3869 2.37478L21.8393 2.55488L21.9901 2.59038L22.2916 2.69998L22.744 2.85328L23.1964 2.96808L23.4445 3.04278L23.6488 3.12948L24.1012 3.35078L24.3673 3.49508L24.5535 3.63088L25.0059 3.78328L25.3407 3.94748L25.4583 4.04078L25.9107 4.28078L26.2434 4.39978L26.3631 4.46158L26.8154 4.70308L27.0816 4.85218L27.2678 4.98238L27.7202 5.15688L28.0378 5.30458L28.1726 5.39788L28.625 5.66278L28.76 5.75708L29.0774 6.01948L29.2971 6.20948L29.5297 6.40568L29.9163 6.66178L29.9821 6.72308L30.3731 7.11418L30.4345 7.16518L30.8869 7.55208L30.901 7.56658L31.3393 8.00938L31.3501 8.01898L31.7916 8.45008L31.8101 8.47148L32.096 8.92368L32.244 9.05708L32.4293 9.37618L32.6964 9.82118L32.7065 9.82858L33.1488 10.0805L33.6012 10.1185L34.0051 9.82858L34.0535 9.79178L34.3384 9.37618L34.5059 9.08428L34.6614 8.92368L34.9583 8.51948L34.9926 8.47148L35.4107 8.02618L35.4197 8.01898L35.8631 7.64338L35.936 7.56658L36.3154 7.16788L36.3828 7.11418L36.7678 6.87618L37.0348 6.66178L37.2202 6.47938L37.5139 6.20948L37.6726 6.10298L38.125 5.79088L38.1764 5.75708L38.5773 5.53078L38.8488 5.30458L39.0297 5.17538L39.4753 4.85218L39.4821 4.84828L39.9345 4.58408L40.3736 4.39978L40.3869 4.39568L40.8392 4.18188L41.1746 3.94748L41.2916 3.88648L41.744 3.72368L42.1964 3.56178L42.3524 3.49508L42.6488 3.40168L43.1012 3.29748L43.5536 3.04278L44.0059 2.94778L44.4583 2.85118L44.9107 2.81978L45.3631 2.74638L45.6646 2.59038L45.8155 2.54848L46.2678 2.43968L46.7202 2.38168L47.1726 2.32488L47.625 2.32278H48.0774L48.5297 2.32608L48.9821 2.35388L49.4345 2.41048L49.8869 2.46858L50.3393 2.49838L50.6749 2.59038L50.7916 2.64978L51.244 2.78328L51.6964 2.80748L52.1488 2.85468L52.6012 2.98778L52.8274 3.04278L53.0535 3.12678L53.5059 3.30988L53.9332 3.49508L53.9583 3.51048L54.4107 3.73018L54.8631 3.94748L55.3154 4.26888L55.5492 4.39978L55.7678 4.57018L56.2202 4.82608L56.2647 4.85218L56.6726 5.13188L56.9378 5.30458L57.125 5.46428L57.5773 5.71078L57.6226 5.75708L58.0297 6.16828L58.0657 6.20948L58.3857 6.66178L58.4821 6.76508L58.6985 7.11418L58.9345 7.40758L59.0638 7.56658L59.3869 7.98068L59.4099 8.01898L59.6417 8.47148L59.8393 8.69738L59.9728 8.92368L60.1445 9.37618L60.2917 9.61558L60.4136 9.82858L60.5784 10.2808L60.744 10.5749L60.8011 10.7333L60.8935 11.1855L60.9988 11.638L61.1964 12.0287L61.2236 12.0904L61.3718 12.5428L61.4431 12.9952L61.5343 13.4475L61.6029 13.8999L61.6488 14.2957L61.6532 14.3523L61.6581 14.8046L61.7134 15.257L61.8224 15.7095L61.8805 16.1619L61.8576 16.6142L61.775 17.0666L61.7516 17.519L61.7141 17.9713L61.6832 18.4237L61.6676 18.8761L61.6578 19.3285L61.6488 19.781L61.6346 20.2334L61.5161 20.6857L61.4833 21.1379L61.4275 21.5904L61.3638 22.0428L61.2825 22.495L61.1964 22.8722L61.1658 22.9475L61.0275 23.3999L60.9622 23.8523L60.8388 24.3047L60.7758 24.757L60.744 24.9079L60.6376 25.2094L60.4946 25.6619L60.3739 26.1143L60.2917 26.4289L60.2422 26.5667L60.0816 27.019L59.9855 27.4714L59.8479 27.9238L59.8393 27.9495L59.6503 28.3761L59.4978 28.8284L59.3869 29.2635L59.3791 29.2808L59.1964 29.7332L59.0308 30.1856L58.9345 30.4176L58.8184 30.6381L58.6969 31.0904L58.499 31.5428L58.4821 31.583L58.2665 31.9952L58.0705 32.4476L58.0297 32.5418L57.8201 32.8999L57.6527 33.3523L57.5773 33.5312L57.4184 33.8047L57.2392 34.2571L57.1527 34.7094L57.125 34.7597L56.8338 35.1618L56.6941 35.6142L56.6726 35.6613L56.4515 36.0666L56.2202 36.5091L56.2113 36.5189L55.945 36.9714L55.7985 37.4238L55.7678 37.4873L55.5101 37.8761L55.345 38.3286L55.3154 38.3883L55.0816 38.7808L54.8631 39.1282L54.7682 39.2333L54.5141 39.6857L54.4107 39.9504L54.2846 40.138L54.0329 40.5904L53.9583 40.7481L53.7824 41.0427L53.5248 41.4951L53.5059 41.5403L53.2554 41.9475L53.0535 42.3576L53.0333 42.3999L52.7853 42.8523L52.6012 43.2802L52.587 43.3047L52.4223 43.7571L52.298 44.2095L52.1488 44.6485L52.141 44.6618L51.8858 45.1142L51.7496 45.5666L51.6964 45.8682L51.6577 46.019L51.5475 46.4714L51.4514 46.9237L51.4164 47.3761V47.8285L51.4514 48.2809L51.5475 48.7333L51.6577 49.1856L51.6964 49.3149L51.771 49.6381L51.9505 50.0904L52.1488 50.3635L52.2428 50.5428L52.4737 50.9951L52.6012 51.1692L52.7968 51.4475L53.0535 51.7078L53.2405 51.9L53.5059 52.1654L53.7285 52.3523L53.9583 52.5592L54.4107 52.7972L54.4219 52.8047L54.8631 53.145L55.1991 53.257L55.3154 53.3161L55.7678 53.5134L56.2202 53.6356L56.6726 53.6813L57.125 53.6433L57.5773 53.5748L58.0297 53.4171L58.4821 53.3058L58.5876 53.257L58.9345 53.1599L59.3869 52.9857L59.5678 52.8047L59.8393 52.5737L60.1644 52.3523L60.2917 52.2342L60.5452 51.9L60.744 51.5648L60.8462 51.4475L61.1343 50.9951L61.1964 50.8659L61.3968 50.5428L61.5583 50.0904L61.5799 49.6381L61.5726 49.1856L61.6165 48.7333L61.6488 48.6311L61.8133 48.2809L62.1012 48.0463L62.5536 48.084L63.0059 48.2136L63.2405 48.2809L63.4583 48.3687L63.8588 48.7333L63.9107 48.792L64.2973 49.1856L64.3631 49.2515L64.6543 49.6381L64.8155 49.9647L64.8541 50.0904L64.9257 50.5428L64.9507 50.9951L64.9872 51.4475L64.9956 51.9L64.9703 52.3523L64.9556 52.8047L64.8155 53.1729L64.7459 53.257L64.6088 53.7094L64.5016 54.1618L64.3631 54.5563L64.326 54.6142L63.9621 55.0666L63.9107 55.1261L63.5752 55.519L63.4583 55.6615L63.179 55.9714L63.0059 56.3404L62.9531 56.4238L62.5942 56.8761L62.5536 56.9155L62.1012 57.2617L62.0271 57.3285L61.6488 57.606L61.4264 57.7808L61.1964 57.9505L60.8537 58.2333L60.744 58.3064L60.2917 58.5879L60.1193 58.6857L59.8393 58.8134L59.3869 59.0763L59.2596 59.138L58.9345 59.2269L58.4821 59.3028L58.0297 59.375L57.5773 59.474L57.125 59.4891L56.6726 59.4808L56.2202 59.4396L55.7678 59.4032L55.3154 59.353L54.8631 59.2683L54.4107 59.193L54.2064 59.138L53.9583 59.0368L53.5059 58.8397L53.0802 58.6857L53.0535 58.6717L52.6012 58.4667L52.1488 58.2662L52.0885 58.2333L51.6964 57.9392L51.5298 57.7808L51.244 57.4706L51.0126 57.3285L50.7916 57.1965L50.4134 56.8761L50.3393 56.7924L50.0422 56.4238L49.8869 56.238L49.6879 55.9714L49.4345 55.7278L49.2406 55.519L48.9821 55.2294L48.8612 55.0666L48.5377 54.6142L48.5297 54.6055L48.1802 54.1618L48.0774 54.0313L47.8934 53.7094L47.625 53.257L47.4157 52.8047L47.1815 52.3523L47.1726 52.3397L47.0286 51.9L46.971 51.4475L46.9065 50.9951L46.7458 50.5428L46.7202 50.5029L46.2678 50.1968L45.8155 50.2374L45.3943 50.5428L45.3631 50.5669L44.9939 50.9951L44.9107 51.0892L44.5971 51.4475L44.4583 51.6002L44.1729 51.9L44.0059 52.0631L43.6742 52.3523L43.5536 52.4797L43.3228 52.8047L43.1012 53.0566L42.8527 53.257L42.6488 53.4699L42.4502 53.7094L42.1964 54.0682L42.1011 54.1618L41.744 54.4956L41.6309 54.6142L41.2916 54.9886L41.2123 55.0666L40.8392 55.4532L40.7758 55.519L40.3869 55.9079L40.3276 55.9714L39.9345 56.3644L39.8828 56.4238L39.4821 56.8079L39.4056 56.8761L39.0297 57.2833L38.9837 57.3285L38.5773 57.6863L38.4752 57.7808L38.125 58.0784L37.9483 58.2333L37.6726 58.4484L37.4464 58.6857L37.2202 58.9288L36.9704 59.138L36.7678 59.2941L36.4571 59.5904L36.3154 59.7155L35.9619 60.0427L35.8631 60.1363L35.4107 60.4129L35.3327 60.4952L34.9583 60.76L34.718 60.9476L34.5059 61.1L34.0535 61.3496L33.9471 61.3999L33.6012 61.5292L33.1488 61.7468L32.8734 61.8523L32.6964 61.8865L32.244 61.8563L32.2356 61.8523Z" fill="white"/>
</g>
<defs>
<clipPath id="clip0">
<rect width="64" height="64" fill="white" transform="translate(0.995605)"/>
</clipPath>
</defs>
</svg>
