<svg width="46" height="64" viewBox="0 0 46 64" fill="none" xmlns="http://www.w3.org/2000/svg">
<path d="M44.5436 63.9925L44.1836 63.8389L43.8159 63.6085L43.7995 63.5953L43.5341 63.2245L43.4155 63.0245L43.3174 62.8405L43.0315 62.5063L42.9967 62.4565L42.7128 62.0725L42.6475 62.0085L42.3547 61.6885L42.2636 61.6031L41.8796 61.3551L41.8197 61.3045L41.4955 61.0498L41.3243 60.9205L41.1115 60.716L40.7379 60.5364L40.7275 60.5303L40.3436 60.3062L40.0827 60.1525L39.9596 60.0643L39.5756 59.8788L39.3572 59.7685L39.1915 59.6511L38.8075 59.4892L38.5026 59.3845L38.4236 59.345L38.0396 59.2493L37.6556 59.1205L37.2715 59.0088L37.2367 59.0005L36.8875 58.902L36.5036 58.8307L36.1196 58.7723L35.7356 58.7366L35.3515 58.6353L35.2316 58.6165L34.9675 58.5473L34.5836 58.483L34.1996 58.4619L33.8156 58.4027L33.4315 58.3295L33.0475 58.3072L32.6636 58.3198L32.2796 58.3171L31.8956 58.3347L31.5115 58.3372L31.1275 58.2965L30.7436 58.2358L30.714 58.2325L30.3596 58.1694L29.9756 58.1651L29.5915 58.1838L29.2075 58.1685H28.8236H28.4396L28.0556 58.173L27.6715 58.1784L27.2875 58.1838L26.9036 58.1941L26.5196 58.1991L26.1356 58.2099L25.7516 58.1754L25.3675 58.1599L24.9836 58.2025L24.8825 58.2325L24.5996 58.2793L24.2156 58.3311L23.8316 58.3509L23.4475 58.3449L23.0636 58.3523L22.6796 58.3321L22.2956 58.3182L21.9116 58.3376L21.5276 58.3925L21.1435 58.4556L20.7596 58.4885L20.3756 58.4943L19.9916 58.4902L19.6076 58.4816L19.2235 58.4996L18.8396 58.59L18.7728 58.6165L18.4556 58.686L18.0716 58.7374L17.6876 58.7422L17.3035 58.7239L16.9196 58.7344L16.5356 58.7484L16.1516 58.7748L15.7676 58.8044L15.3835 58.8365L14.9996 58.8637L14.6156 58.8862L14.2316 58.8941L13.8476 58.871L13.4635 58.883L13.0796 58.8908L12.6955 58.8769L12.3116 58.8289L11.9276 58.7715L11.5436 58.7209L11.1596 58.6933L10.7755 58.6615L10.3916 58.6199L10.366 58.6165L10.0076 58.5298L9.62364 58.4922L9.23964 58.4725L8.85554 58.4341L8.47164 58.3844L8.08764 58.35L7.70364 58.3178L7.31964 58.2841L6.95824 58.2325L6.93554 58.2263L6.55164 58.1213L6.16764 58.0057L5.78364 57.8605L5.75684 57.8485L5.39964 57.6657L5.01554 57.5838L4.81744 57.4645L4.63164 57.3149L4.26324 57.0805L4.24764 57.0651L3.86364 56.756L3.78044 56.6965L3.47964 56.4764L3.32334 56.3125L3.09554 56.0874L2.89524 55.9285L2.71164 55.7099L2.57044 55.5445L2.32764 55.33L2.12674 55.1604L1.94364 54.9685L1.83124 54.7765L1.55964 54.3976L1.55594 54.3925L1.33014 54.0085L1.17554 53.7845L1.06134 53.6245L0.851939 53.2405L0.791639 53.0569L0.74364 52.8565L0.623039 52.4725L0.42684 52.0885L0.40764 52.0336L0.348539 51.7045L0.32944 51.3205L0.29204 50.9365L0.194739 50.5525L0.0483398 50.1684L0.102639 49.7845L0.16634 49.4005L0.23154 49.0165L0.30814 48.6325L0.40764 48.4005L0.50894 48.2485L0.791639 47.8976L0.82594 47.8646L1.17554 47.5886L1.43154 47.4805L1.55964 47.4413L1.73414 47.4805L1.94364 47.5514L2.32764 47.7942L2.38764 47.8646L2.67254 48.2485L2.71164 48.2896L2.95164 48.6325L3.09554 48.9068L3.13604 49.0165L3.28764 49.4005L3.47964 49.646L3.55054 49.7845L3.69004 50.1684L3.86364 50.4121L3.95714 50.5525L4.24764 50.8586L4.32054 50.9365L4.63164 51.2732L4.67224 51.3205L5.01554 51.6378L5.10464 51.7045L5.39964 51.9257L5.77404 52.0885L5.78364 52.0952L6.16764 52.3325L6.51774 52.4725L6.55164 52.4897L6.93554 52.6145L7.31964 52.7115L7.70364 52.7805L7.95954 52.8565L8.08764 52.9185L8.47164 53.0138L8.85554 53.0569L9.23964 53.0772L9.62364 53.1241L10.0076 53.1662L10.3916 53.1849L10.7755 53.1889L11.1596 53.2373L11.2235 53.2405L11.5436 53.2705L11.9276 53.315L12.3116 53.3393L12.6955 53.3472L13.0796 53.3685L13.4635 53.4029L13.8476 53.4301L14.2316 53.4226L14.6156 53.4072L14.9996 53.3791L15.3835 53.3336L15.7676 53.2782L15.998 53.2405L16.1516 53.2275L16.5356 53.2027L16.9196 53.1906L17.3035 53.2099L17.6876 53.2036L18.0716 53.1877L18.4556 53.1666L18.8396 53.1216L19.2235 53.0348L19.5888 52.8565L19.6076 52.842L19.8493 52.4725L19.952 52.0885L19.975 51.7045L19.9582 51.3205L19.9344 50.9365L19.9328 50.5525L19.957 50.1684L19.9431 49.7845V49.4005V49.0165V48.6325V48.2485V47.8646V47.4805V47.0965L19.939 46.7125V46.3285L19.9431 45.9445L19.9471 45.5605V45.1765L19.939 44.7924L19.9236 44.4085L19.9115 44.0245L19.7912 43.6405L19.6076 43.3156L19.5822 43.2565L19.2235 42.8725L18.8396 42.6783L18.4556 42.6116L18.0716 42.546L17.9462 42.4885L17.6876 42.3281L17.3035 42.1421L17.2362 42.1045L16.9196 41.9125L16.5356 41.7205L16.1516 41.4274L16.0175 41.3365L15.7676 41.1491L15.5174 40.9525L15.3835 40.8002L15.1392 40.5685L14.9996 40.4467L14.6156 40.2375L14.5478 40.1845L14.2316 39.8978L14.1627 39.8004L13.888 39.4165L13.8476 39.3746L13.6235 39.0325L13.4635 38.8157L13.3484 38.6485L13.0796 38.3029L13.0529 38.2645L12.8657 37.8805L12.6955 37.6696L12.5675 37.4966L12.3655 37.1125L12.3116 37.0595L12.0622 36.7285L11.9276 36.54L11.8211 36.3445L11.617 35.9605L11.5436 35.8357L11.4457 35.5765L11.2893 35.1925L11.1596 34.9731L11.101 34.8085L10.9276 34.4244L10.7755 34.077L10.7603 34.0405L10.6311 33.6565L10.6017 33.2725L10.5836 32.8885L10.4788 32.5046L10.3916 32.3187L10.3282 32.1205L10.2609 31.7365L10.1632 31.3525L10.0966 30.9685L10.0076 30.6759L9.99184 30.5845L9.91414 30.2005L9.83564 29.8165L9.75824 29.4324L9.71674 29.0485L9.71964 28.6645L9.74604 28.2805L9.63084 27.8965L9.62364 27.8823L9.52754 27.5126L9.46994 27.1286L9.44724 26.7445L9.41584 26.3605L9.34774 25.9765L9.27054 25.5925L9.30994 25.2085V24.8245V24.4405V24.0564V23.6725V23.2885V22.9045V22.5205L9.25784 22.1366L9.31534 21.7525L9.38414 21.3685L9.43354 20.9845L9.46264 20.6005L9.47364 20.2165L9.47534 19.8325L9.47154 19.4485L9.48904 19.0644L9.55234 18.6805L9.62364 18.3349L9.63754 18.2965L9.71224 17.9125L9.74974 17.5285L9.79644 17.1445L9.84764 16.7606L9.87724 16.3765L9.87484 15.9925L9.90734 15.6085L9.95704 15.2245L10.0076 14.9365L10.039 14.8405L10.1621 14.4565L10.2734 14.0725L10.3615 13.6885L10.3916 13.4837L10.4349 13.3045L10.53 12.9205L10.6026 12.5365L10.7168 12.1526L10.7755 11.9831L10.8728 11.7686L11.0067 11.3845L11.1142 11.0005L11.1596 10.8222L11.2455 10.6165L11.318 10.2325L11.5059 9.8485L11.5436 9.7388L11.6733 9.4645L11.7995 9.0805L11.9017 8.6964L11.9276 8.6354L12.1074 8.3125L12.2528 7.9285L12.3116 7.8005L12.4652 7.5445L12.6702 7.1605L12.6955 7.1193L12.8838 6.7765L13.0648 6.3926L13.0796 6.3731L13.3961 6.0085L13.4635 5.9061L13.6492 5.6245L13.837 5.2405L13.8476 5.2262L14.1471 4.8565L14.2316 4.7358L14.4563 4.4725L14.6122 4.0885L14.6156 4.0844L14.9765 3.7045L14.9996 3.6786L15.3617 3.3205L15.3835 3.298L15.7582 2.9365L15.7676 2.9277L16.1343 2.5525L16.1516 2.534L16.5307 2.1685L16.5356 2.1646L16.9196 1.9599L17.1733 1.7846L17.3035 1.7034L17.6876 1.498L17.8468 1.4006L18.0716 1.2957L18.4556 1.1691L18.703 1.0165L18.8396 0.9591L19.2235 0.8405L20.7596 4.3429L20.5471 4.4725L20.3756 4.5575L19.9916 4.7476L19.8329 4.8565L19.6076 4.9966L19.3701 5.2405L19.2235 5.3833L18.9792 5.6245L18.8396 5.7698L18.616 6.0085L18.4556 6.1649L18.2065 6.3926L18.0716 6.5809L17.9255 6.7765L17.6876 7.1144L17.6537 7.1605L17.3903 7.5445L17.3035 7.686L17.1142 7.9285L16.9196 8.2514L16.8732 8.3125L16.6768 8.6964L16.5394 9.0805L16.5356 9.0881L16.3033 9.4645L16.1516 9.8369L16.1448 9.8485L16.0431 10.2325L15.9468 10.6165L15.8151 11.0005L15.7676 11.1651L15.6798 11.3845L15.5926 11.7686L15.5252 12.1526L15.4611 12.5365L15.4181 12.9205L15.3835 13.0215L15.2402 13.3045L15.1476 13.6885L15.0589 14.0725L15.0207 14.4565L15.0061 14.8405L14.9996 14.9258L14.9606 15.2245L14.881 15.6085L14.8308 15.9925L14.7324 16.3765L14.6687 16.7606L14.6156 17.0725L14.596 17.1445L14.5574 17.5285L14.5525 17.9125L14.5132 18.2965L14.4516 18.6805L14.4123 19.0644L14.4031 19.4485V19.8325V20.2165V20.6005V20.9845V21.3685V21.7525V22.1366L14.4142 22.5205V22.9045V23.2885L14.4105 23.6725V24.0564L14.4068 24.4405V24.8245V25.2085L14.4091 25.5925L14.4721 25.9765L14.5367 26.3605L14.5735 26.7445L14.6156 26.9125L14.6523 27.1286L14.7606 27.5126L14.814 27.8965L14.7948 28.2805L14.822 28.6645L14.87 29.0485L14.9544 29.4324L14.9996 29.6688L15.0175 29.8165L15.0539 30.2005L15.1231 30.5845L15.2434 30.9685L15.3658 31.3525L15.3835 31.3986L15.4604 31.7365L15.5103 32.1205L15.6064 32.5046L15.7543 32.8885L15.7676 32.9205L15.8529 33.2725L15.9547 33.6565L16.1516 34.0405L16.2706 34.4244L16.5356 34.7977L16.5427 34.8085L16.644 35.1925L16.9196 35.5765L17.149 35.9605L17.3035 36.1694L17.4239 36.3445L17.6876 36.6572L17.7443 36.7285L18.0716 37.0931L18.0896 37.1125L18.4556 37.4365L18.5566 37.4966L18.8396 37.6778L19.2235 37.837L19.3237 37.8805L19.6076 38.0501L19.9916 38.1443L20.3756 38.1865L20.6781 38.2645L20.7596 38.3125L21.1435 38.5032L21.5276 38.5514L21.9116 38.5388L22.2956 38.537L22.6796 38.5773L23.0636 38.6219L23.3079 38.6485L23.4475 38.6746L23.8316 38.6485L24.2156 38.5931L24.5996 38.5061L24.9836 38.4494L25.3675 38.4057L25.7231 38.2645L25.7516 38.2577L26.1356 38.1588L26.5196 38.0394L26.8932 37.8805L26.9036 37.8765L27.2875 37.7024L27.6149 37.4966L27.6715 37.4601L28.0556 37.2236L28.2201 37.1125L28.4396 36.9419L28.6471 36.7285L28.8236 36.5307L28.9852 36.3445L29.2075 35.9849L29.2278 35.9605L29.5289 35.5765L29.5915 35.4687L29.7908 35.1925L29.893 34.8085L29.9756 34.6841L30.1874 34.4244L30.2907 34.0405L30.3596 33.78L30.4104 33.6565L30.5603 33.2725L30.6789 32.8885L30.7436 32.6165L30.7843 32.5046L30.911 32.1205L31.0028 31.7365L31.0571 31.3525L31.0612 30.9685L31.0542 30.5845L31.0818 30.2005L31.124 29.8165L31.1275 29.4324L31.1618 29.0485L31.2651 28.6645L31.3196 28.2805L31.3097 27.8965L31.3021 27.5126L31.3149 27.1286L31.315 26.7445L31.2772 26.3605L31.1724 25.9765L31.1275 25.8421L31.0818 25.5925L31.0357 25.2085L31.0541 24.8245L31.0658 24.4405L31.0458 24.0564L30.9971 23.6725L30.9473 23.2885L30.9192 22.9045L30.9128 22.5205L30.9056 22.1366L30.8836 21.7525L30.8273 21.3685L30.7436 21.0059L30.7396 20.9845L30.6667 20.6005L30.5924 20.2165L30.5115 19.8325L30.4544 19.4485L30.3596 19.1705L30.3348 19.0644L30.3148 18.6805L30.28 18.2965L30.2221 17.9125L30.126 17.5285L29.9756 17.1804L29.9637 17.1445L29.8583 16.7606L29.7961 16.3765L29.7196 15.9925L29.6846 15.6085L29.5985 15.2245L29.5915 15.2043L29.5164 14.8405L29.425 14.4565L29.3036 14.0725L29.2075 13.862L29.1635 13.6885L29.1056 13.3045L29.0323 12.9205L28.9754 12.5365L28.8236 12.1526L28.6929 11.7686L28.5595 11.3845L28.4396 11.1251L28.3935 11.0005L28.2567 10.6165L28.145 10.2325L28.0556 9.9994L28.0206 9.8485L27.9686 9.4645L27.8465 9.0805L27.6715 8.7864L27.6321 8.6964L27.4685 8.3125L27.2875 8.0038L27.2449 7.9285L27.0072 7.5445L26.9036 7.3853L26.8 7.1605L26.5196 6.7934L26.5083 6.7765L26.2983 6.3926L26.1356 6.2325L25.935 6.0085L25.7516 5.8379L25.5352 5.6245L25.3675 5.4356L25.1116 5.2405L24.9836 5.1514L24.5996 4.8647L24.5868 4.8565L24.2156 4.6091L23.8922 4.4725L23.8316 4.4314L23.4475 4.2485L23.0636 4.1474L22.6796 4.1011L22.5699 4.0885L22.2956 4.0359L21.9116 4.0314L21.6098 4.0885L21.5276 4.0979L21.1435 4.1827L20.7596 4.3429L19.2235 0.8405L19.6076 0.6766L19.689 0.6325L19.9916 0.524L20.3756 0.3575L20.7596 0.2729L20.8449 0.2485L21.1435 0.1983L21.5276 0.1434L21.9116 0.0735L22.2956 0L22.6796 0.0245L23.0636 0.0866L23.4475 0.1616L23.8316 0.245L23.8432 0.2485L24.2156 0.4003L24.5996 0.5099L24.9836 0.6099L25.0513 0.6325L25.3675 0.7759L25.7516 0.9245L26.1356 1.0028L26.1558 1.0165L26.5196 1.3308L26.7243 1.4006L26.9036 1.4741L27.2875 1.6937L27.3919 1.7846L27.6715 2.0308L27.8863 2.1685L28.0556 2.3016L28.4245 2.5525L28.4396 2.5647L28.8236 2.9319L28.8275 2.9365L29.0814 3.3205L29.2075 3.4504L29.4209 3.7045L29.5915 3.8864L29.7515 4.0885L29.9634 4.4725L29.9756 4.4903L30.1545 4.8565L30.3596 5.1476L30.4183 5.2405L30.6845 5.6245L30.7436 5.697L30.912 6.0085L31.1275 6.3605L31.1462 6.3926L31.3136 6.7765L31.5115 7.1256L31.5326 7.1605L31.6754 7.5445L31.8956 7.8915L31.9153 7.9285L32.1208 8.3125L32.2796 8.5831L32.3205 8.6964L32.4088 9.0805L32.5572 9.4645L32.6636 9.6181L32.7633 9.8485L32.9224 10.2325L32.9942 10.6165L33.0475 10.7445L33.1259 11.0005L33.277 11.3845L33.4315 11.6978L33.4558 11.7686L33.5583 12.1526L33.6544 12.5365L33.7353 12.9205L33.8156 13.0997L33.8764 13.3045L33.9563 13.6885L34.1008 14.0725L34.1996 14.2885L34.2484 14.4565L34.3419 14.8405L34.4845 15.2245L34.5836 15.4165L34.6394 15.6085L34.6991 15.9925L34.7195 16.3765L34.7578 16.7606L34.8195 17.1445L34.8822 17.5285L34.9498 17.9125L34.9675 17.9893L35.0151 18.2965L35.0897 18.6805L35.1499 19.0644L35.2568 19.4485L35.2832 19.8325L35.3456 20.2165L35.3515 20.244L35.3996 20.6005L35.4607 20.9845L35.5253 21.3685L35.5819 21.7525L35.6129 22.1366L35.6395 22.5205L35.6003 22.9045L35.5819 23.2885L35.6146 23.6725L35.7283 24.0564L35.7356 24.0748L35.8101 24.4405L35.8496 24.8245L35.8584 25.2085L35.8406 25.5925V25.9765V26.3605V26.7445V27.1286V27.5126V27.8965V28.2805L35.8507 28.6645L35.8351 29.0485L35.8316 29.4324L35.8518 29.8165L35.867 30.2005L35.8342 30.5845L35.7542 30.9685L35.7356 31.0599L35.6525 31.3525L35.5971 31.7365L35.5981 32.1205L35.576 32.5046L35.5116 32.8885L35.4408 33.2725L35.3824 33.6565L35.3515 33.9706L35.3392 34.0405L35.3057 34.4244L35.1335 34.8085L35.0224 35.1925L34.9675 35.3555L34.8796 35.5765L34.7756 35.9605L34.6637 36.3445L34.5836 36.5121L34.4205 36.7285L34.2303 37.1125L34.1996 37.2306L34.0948 37.4966L33.8556 37.8805L33.8156 37.9589L33.6284 38.2645L33.4315 38.6307L33.4178 38.6485L33.1488 39.0325L33.0475 39.2168L32.9315 39.4165L32.6715 39.8004L32.6636 39.8084L32.2796 40.1469L32.2396 40.1845L31.8956 40.3935L31.6892 40.5685L31.5115 40.6951L31.1275 40.9128L31.074 40.9525L30.7436 41.1237L30.4442 41.3365L30.3596 41.3785L29.9756 41.4951L29.5915 41.6636L29.5184 41.7205L29.2075 41.8498L28.8236 41.9189L28.4396 42.0319L28.2328 42.1045L28.0556 42.1515L27.6715 42.2501L27.2875 42.3605L26.9565 42.4885L26.9036 42.5011L26.5196 42.56L26.1356 42.6549L25.8296 42.8725L25.7516 42.9886L25.6076 43.2565L25.5689 43.6405L25.598 44.0245V44.4085V44.7924V45.1765V45.5605V45.9445V46.3285V46.7125L25.5891 47.0965V47.4805V47.8646V48.2485V48.6325V49.0165V49.4005V49.7845L25.607 50.1684L25.5809 50.5525L25.5672 50.9365L25.6089 51.3205L25.7259 51.7045L25.7516 51.7593L25.86 52.0885L26.1356 52.4184L26.2832 52.4725L26.5196 52.5513L26.9036 52.5533L27.2875 52.5152L27.6715 52.4784H28.0556L28.2475 52.4725L28.4396 52.4688L28.8236 52.4615L29.054 52.4725L29.2075 52.4858L29.5915 52.5199L29.9756 52.512L30.3596 52.5069L30.7436 52.5152L31.1275 52.5331L31.5115 52.5572L31.8956 52.5848L32.2796 52.5948L32.6636 52.642L33.0475 52.655L33.4315 52.6816L33.8156 52.7172L34.1996 52.7614L34.5836 52.8038L34.9675 52.8376L35.2875 52.8565L35.3515 52.8626L35.7356 52.8985L36.1196 52.988L36.5036 53.0698L36.8875 53.1076L37.2715 53.1419L37.6556 53.2169L37.7346 53.2405L38.0396 53.3953L38.4236 53.503L38.7664 53.6245L38.8075 53.6417L39.1915 53.7558L39.5756 53.8933L39.8106 54.0085L39.9596 54.1098L40.3436 54.3503L40.4334 54.3925L40.7275 54.559L41.1115 54.7765L41.4955 55.0613L41.5905 55.1604L41.8796 55.4923L41.9366 55.5445L42.2636 55.8547L42.3329 55.9285L42.6475 56.2186L42.7532 56.3125L43.0315 56.6449L43.0789 56.6965L43.4155 56.9727L43.5106 57.0805L43.7666 57.4645L43.7995 57.5088L44.0939 57.8485L44.1836 57.9462L44.3585 58.2325L44.5675 58.581L44.5871 58.6165L44.7687 59.0005L44.9515 59.2748L45.0041 59.3845L45.1354 59.7685L45.3355 60.1106L45.3593 60.1525L45.5025 60.5364L45.62 60.9205L45.7195 61.1577L45.769 61.3045L45.8928 61.6885L45.9427 62.0725L45.8145 62.4565L45.7195 62.7509L45.6817 62.8405L45.5079 63.2245L45.3355 63.5209L45.2395 63.6085L44.9515 63.8667L44.6041 63.9925L44.5675 64L44.5436 63.9925Z" fill="white"/>
</svg>
