<svg width="16" height="16" viewBox="0 0 16 16" fill="none" xmlns="http://www.w3.org/2000/svg">
<g clip-path="url(#clip0)">
<path d="M3.90959 7.6633C3.90958 7.58515 3.92501 7.50776 3.95499 7.43558C3.98498 7.36341 4.02892 7.29787 4.08431 7.24273C4.1397 7.18759 4.20544 7.14393 4.27775 7.11427C4.35006 7.08461 4.42751 7.06953 4.50567 7.0699L5.4939 7.07314C5.65147 7.07314 5.80259 7.13573 5.91401 7.24715C6.02543 7.35857 6.08802 7.50969 6.08802 7.66726V11.4041C6.19935 11.3711 6.34212 11.336 6.49853 11.2993C6.60713 11.2737 6.70391 11.2122 6.77319 11.1248C6.84246 11.0373 6.88017 10.929 6.8802 10.8175V6.18222C6.88019 6.02463 6.94277 5.87349 7.05419 5.76205C7.16561 5.6506 7.31673 5.58798 7.47432 5.58795H8.46456C8.62214 5.58799 8.77326 5.65062 8.88467 5.76206C8.99609 5.8735 9.05868 6.02463 9.05868 6.18222V10.4844C9.05868 10.4844 9.30649 10.384 9.54805 10.2821C9.63775 10.2441 9.71429 10.1806 9.76813 10.0994C9.82197 10.0183 9.85073 9.92307 9.85081 9.82567V4.69665C9.8508 4.61864 9.86616 4.54139 9.89601 4.46931C9.92586 4.39723 9.96961 4.33173 10.0248 4.27657C10.0799 4.2214 10.1454 4.17763 10.2175 4.14777C10.2896 4.11791 10.3668 4.10254 10.4448 4.10253H11.4351C11.5926 4.10253 11.7438 4.16513 11.8552 4.27654C11.9666 4.38796 12.0292 4.53908 12.0292 4.69665V8.92012C12.8877 8.29798 13.7577 7.54965 14.4482 6.64986C14.5484 6.51925 14.6146 6.36588 14.6411 6.20342C14.6676 6.04097 14.6535 5.87448 14.6 5.71882C14.1328 4.35736 13.2565 3.17342 12.0909 2.32889C10.9254 1.48436 9.52737 1.02047 8.08812 1.00063C4.20711 0.948499 0.999652 4.11659 1.00003 7.99808C0.996223 9.22632 1.31679 10.4338 1.92932 11.4984C2.01379 11.644 2.13806 11.7625 2.28754 11.8399C2.43701 11.9173 2.60548 11.9505 2.77315 11.9355C2.96049 11.919 3.19371 11.8957 3.47097 11.8632C3.59165 11.8495 3.70306 11.7918 3.78399 11.7012C3.86492 11.6107 3.90971 11.4935 3.90983 11.372V7.6633" fill="white"/>
<path d="M3.88774 13.6563C4.93149 14.4156 6.16494 14.8714 7.45163 14.9732C8.73832 15.075 10.0281 14.8189 11.1783 14.2332C12.3284 13.6475 13.2942 12.755 13.9686 11.6545C14.643 10.554 14.9999 9.2884 14.9997 7.99769C14.9997 7.83656 14.9922 7.67725 14.9814 7.5188C12.4251 11.3312 7.70509 13.1138 3.8877 13.6565" fill="white"/>
</g>
<defs>
<clipPath id="clip0">
<rect width="14" height="13.9949" fill="white" transform="translate(1 1)"/>
</clipPath>
</defs>
</svg>
