<svg width="64" height="64" viewBox="0 0 64 64" fill="none" xmlns="http://www.w3.org/2000/svg">
<path d="M52.8669 13.8205C48.9555 12.0315 44.8014 10.7277 40.4655 10C39.9197 10.94 39.3132 12.2134 38.8887 13.2141C34.2769 12.547 29.6984 12.547 25.1502 13.2141C24.7256 12.2134 24.0889 10.94 23.5734 10C19.2072 10.7277 15.0532 12.0315 11.169 13.8205C3.31581 25.4032 1.19332 36.713 2.25456 47.8712C7.46981 51.6613 12.5032 53.9658 17.4486 55.482C18.6615 53.8445 19.753 52.0858 20.693 50.2363C18.904 49.5692 17.206 48.7505 15.5687 47.7802C15.9932 47.4772 16.4177 47.1436 16.8119 46.8101C26.6966 51.328 37.4031 51.328 47.1664 46.8101C47.5909 47.1436 47.9851 47.4772 48.4097 47.7802C46.7722 48.7505 45.0744 49.5692 43.2853 50.2363C44.2253 52.0858 45.3169 53.8445 46.5296 55.482C51.4721 53.9658 56.5358 51.6613 61.7237 47.8712C63.0274 34.9545 59.6588 23.7356 52.8669 13.8205ZM22.0574 40.9883C19.0859 40.9883 16.6602 38.2898 16.6602 34.9848C16.6602 31.6798 19.0253 28.9811 22.0574 28.9811C25.0592 28.9811 27.5151 31.6798 27.4545 34.9848C27.4545 38.2898 25.0592 40.9883 22.0574 40.9883ZM41.9816 40.9883C39.01 40.9883 36.5812 38.2898 36.5812 34.9848C36.5812 31.6798 38.9493 28.9811 41.9816 28.9811C44.9834 28.9811 47.4393 31.6798 47.3787 34.9848C47.3787 38.2898 45.0137 40.9883 41.9816 40.9883Z" fill="white"/>
</svg>
