<svg width="64" height="64" viewBox="0 0 64 64" fill="none" xmlns="http://www.w3.org/2000/svg">
<path fill-rule="evenodd" clip-rule="evenodd" d="M23.84 49.8799C30.6638 49.9229 37.2206 47.2311 42.0459 42.4058C46.8711 37.5805 49.5629 31.0238 49.52 24.1999C49.52 23.7999 49.52 23.4199 49.52 23.0199C51.2712 21.7369 52.7869 20.1603 54 18.3599C52.351 19.0811 50.6062 19.5594 48.82 19.7799C50.7138 18.6515 52.1348 16.8753 52.82 14.7799C51.055 15.8388 49.1196 16.5832 47.1 16.9799C44.3037 14.0004 39.8563 13.2671 36.2515 15.1913C32.6466 17.1154 30.7808 21.2185 31.7 25.1999C24.4436 24.8438 17.681 21.4188 13.1 15.7799C10.7299 19.8935 11.9541 25.1401 15.9 27.7799C14.4972 27.7258 13.1269 27.3422 11.9 26.6599V26.7599C11.8743 31.0288 14.8321 34.7365 19 35.6599C17.6953 36.0109 16.3286 36.0655 15 35.8199C16.1999 39.4402 19.547 41.9145 23.36 41.9999C20.1784 44.561 16.2242 45.9707 12.14 45.9999C11.4239 45.9792 10.7095 45.9191 10 45.8199C14.1339 48.4537 18.9384 49.8423 23.84 49.8199" fill="white"/>
</svg>
