<svg width="64" height="64" viewBox="0 0 64 64" fill="none" xmlns="http://www.w3.org/2000/svg">
<path fill-rule="evenodd" clip-rule="evenodd" d="M31.9997 4.00017C18.2696 4.00202 6.56637 13.9594 4.36556 27.512C2.16475 41.0647 10.1157 54.2137 23.1397 58.5602C24.5397 58.8202 25.1397 57.9602 25.1397 57.2202V52.4602C17.3597 54.1402 15.7197 48.7002 15.7197 48.7002C15.1727 46.9858 14.0212 45.5287 12.4798 44.6002C9.93975 42.8802 12.6797 42.9002 12.6797 42.9002C14.4777 43.1541 16.0574 44.2245 16.9597 45.8002C18.5729 48.6935 22.2257 49.7321 25.1197 48.1202C25.2327 46.7011 25.8583 45.3717 26.8797 44.3802C20.6798 43.6602 14.1397 41.2602 14.1397 30.5402C14.0944 27.756 15.1262 25.0618 17.0197 23.0202C16.1627 20.6086 16.2629 17.9601 17.2997 15.6202C17.2997 15.6202 19.6397 14.8602 24.9997 18.4802C29.5827 17.2301 34.4168 17.2301 38.9997 18.4802C44.3397 14.8602 46.6797 15.6202 46.6797 15.6202C47.7166 17.9601 47.8168 20.6086 46.9597 23.0202C48.8533 25.0618 49.8851 27.756 49.8397 30.5402C49.8397 41.3002 43.2997 43.6602 37.0597 44.3602C38.4122 45.731 39.1051 47.62 38.9597 49.5402V57.2202C38.9597 58.1402 39.4597 58.8402 40.9597 58.5602C54.002 54.2079 61.9545 41.0301 59.7264 27.4625C57.4983 13.895 45.749 3.95267 31.9997 4.00017Z" fill="white"/>
</svg>
