<svg width="16" height="16" viewBox="0 0 16 16" fill="none" xmlns="http://www.w3.org/2000/svg">
<path fill-rule="evenodd" clip-rule="evenodd" d="M15 8C15 11.8658 11.8658 15 8 15C4.13422 15 1 11.8658 1 8C1 4.13422 4.13422 1 8 1C11.8666 1 15 4.13422 15 8ZM4.4532 8.23522L4.4834 8.18775L6.30438 5.33906C6.33099 5.29735 6.39356 5.30166 6.41369 5.34697C6.71791 6.02875 6.98041 6.87668 6.85743 7.40456C6.80493 7.62176 6.6611 7.9159 6.49927 8.18775C6.47842 8.22731 6.45541 8.26615 6.43095 8.30354C6.41944 8.3208 6.40002 8.33087 6.37916 8.33087H4.50641C4.45607 8.33087 4.42658 8.27621 4.4532 8.23522ZM12.5708 9.21592V8.765C12.5708 8.72328 12.5305 8.69308 12.491 8.70459L10.3615 9.32021C10.35 9.32308 10.3399 9.32955 10.332 9.33818C10.1039 9.59013 9.91006 9.75921 9.85872 9.80399L9.85517 9.80709C9.72284 9.91928 9.55886 9.98042 9.38626 9.98042H8.61529V9.19435H9.22804C9.24386 9.19435 9.25897 9.18859 9.27048 9.17853L9.34958 9.10588C9.38339 9.07496 9.42366 9.03756 9.47184 8.98937C9.47594 8.98527 9.4801 8.98113 9.4843 8.97694C9.50961 8.95172 9.53667 8.92476 9.56317 8.89517C9.59483 8.86424 9.62575 8.82972 9.65451 8.79592C9.7027 8.74414 9.74873 8.69019 9.79692 8.63338C9.83144 8.59599 9.86308 8.55355 9.89401 8.51112C9.92853 8.47084 9.96233 8.42554 9.99397 8.38239C10.0057 8.36508 10.0183 8.34759 10.0311 8.32972C10.0433 8.31268 10.0558 8.29529 10.068 8.27739C10.0911 8.24287 10.1141 8.20619 10.1335 8.17166C10.1939 8.07817 10.245 7.9782 10.2881 7.87824C10.3079 7.83541 10.3238 7.79033 10.3392 7.7465C10.3411 7.74101 10.343 7.73553 10.3449 7.73009C10.3622 7.67902 10.3766 7.63084 10.3874 7.57977C10.4133 7.45966 10.419 7.34029 10.4075 7.22089C10.4046 7.1835 10.4017 7.14682 10.3931 7.11231V7.10656C10.3902 7.0821 10.3845 7.05477 10.3766 7.0296C10.3507 6.91309 10.3104 6.79658 10.2594 6.68223C10.2421 6.6398 10.222 6.59665 10.2025 6.5571C10.1565 6.47152 10.1083 6.38592 10.0537 6.30322C10.0427 6.28575 10.0306 6.26805 10.0185 6.25039C10.0092 6.23678 9.99986 6.22319 9.9911 6.20973C9.95648 6.15634 9.91757 6.10487 9.8798 6.05493C9.87127 6.04364 9.86279 6.03244 9.85444 6.0213C9.83215 5.99203 9.80775 5.96277 9.78319 5.93331C9.76973 5.91716 9.75622 5.90095 9.74298 5.88465C9.70558 5.83935 9.6689 5.7962 9.63151 5.75376C9.49774 5.60273 9.3575 5.46609 9.23235 5.34958C9.20934 5.32657 9.18417 5.30355 9.15828 5.28126C9.06119 5.1928 8.97272 5.11584 8.89865 5.05616C8.8764 5.03904 8.85643 5.02217 8.83785 5.00646C8.82521 4.99578 8.81321 4.98564 8.80156 4.97633C8.77911 4.95959 8.75962 4.94475 8.74327 4.93229C8.7329 4.92439 8.72379 4.91745 8.71598 4.91159C8.71022 4.90728 8.70376 4.90441 8.69729 4.90224L8.61529 4.87924V4.20032C8.61529 4.08957 8.5707 3.99032 8.49951 3.91768C8.42831 3.84505 8.32906 3.80046 8.21975 3.80046C8.00111 3.80046 7.82419 3.97953 7.82419 4.20032V4.65772L7.7832 4.64622L7.67172 4.61457L7.57032 4.58653C7.57002 4.58653 7.56972 4.5864 7.56937 4.58626C7.56888 4.58605 7.56828 4.5858 7.56745 4.5858H7.56529L6.79575 4.37724C6.76196 4.36789 6.73319 4.40457 6.75045 4.4355L6.87342 4.66276C6.88041 4.68022 6.88926 4.69769 6.89834 4.71564C6.90423 4.72726 6.91021 4.73907 6.91586 4.75122C6.936 4.79149 6.95614 4.83392 6.97555 4.87636C6.99282 4.91375 7.01008 4.95043 7.03021 4.99071C7.03868 5.00965 7.04731 5.02882 7.05606 5.04826C7.08821 5.11963 7.122 5.19468 7.15534 5.27551C7.18411 5.34383 7.21288 5.41215 7.23805 5.48335C7.3071 5.66243 7.37254 5.85372 7.42936 6.05007C7.4435 6.09402 7.45481 6.13654 7.46626 6.17964C7.47112 6.1979 7.476 6.21627 7.48114 6.2349L7.48905 6.26941C7.51206 6.36076 7.53221 6.45137 7.54659 6.54271C7.55809 6.60527 7.56887 6.66497 7.57463 6.72538C7.58327 6.7937 7.59189 6.86203 7.59477 6.93035C7.60053 6.99292 7.6034 7.05837 7.6034 7.12093C7.6034 7.28059 7.58902 7.43449 7.55521 7.57977C7.55309 7.58758 7.55098 7.59549 7.54884 7.60346C7.53937 7.63881 7.52956 7.67545 7.51782 7.71067C7.5072 7.74838 7.49343 7.78609 7.47913 7.82526C7.47407 7.83912 7.46895 7.85316 7.46387 7.86744C7.46293 7.86999 7.46198 7.87254 7.46103 7.87509C7.45046 7.90357 7.43969 7.93257 7.42648 7.96095C7.35528 8.13211 7.26682 8.30256 7.17549 8.46222C7.04172 8.69883 6.90723 8.90668 6.81301 9.04045C6.80725 9.0491 6.80163 9.05731 6.79621 9.06523C6.78947 9.07509 6.78304 9.08448 6.77706 9.09366C6.74758 9.13537 6.77778 9.19435 6.82883 9.19435H7.82419V9.98042H6.81733C6.54692 9.98042 6.29664 9.82723 6.17582 9.58198C6.11325 9.459 6.08879 9.32379 6.10319 9.19146C6.10677 9.15191 6.07729 9.11452 6.03702 9.11452H4.00316C3.96863 9.11452 3.94059 9.14256 3.94059 9.17709V9.21879C3.94059 10.5162 4.98845 11.5677 6.28153 11.5677H9.92996C10.6139 11.5677 11.0022 10.9444 11.3839 10.3319C11.4903 10.1611 11.5962 9.99122 11.7078 9.83586C11.9084 9.55681 12.391 9.3353 12.532 9.27489C12.555 9.26482 12.5708 9.24181 12.5708 9.21592Z" fill="white"/>
</svg>
