<svg width="65" height="64" viewBox="0 0 65 64" fill="none" xmlns="http://www.w3.org/2000/svg">
<g clip-path="url(#clip0)">
<path d="M24.0751 57.3029L23.8194 56.8996L23.7901 56.8156L23.7142 56.4962L23.6922 56.093L23.7901 55.7052L23.7964 55.6898L24.077 55.2865L24.1934 55.1636L24.557 54.8832L24.5967 54.8546L24.9833 54.4798L25.0001 54.4588L25.3505 54.0765L25.4034 54.018L25.6823 53.6731L25.8067 53.4749L25.9771 53.2698L26.21 52.9456L26.275 52.8665L26.5483 52.4631L26.6133 52.3446L26.7971 52.0598L27.0166 51.6565L27.255 51.2532L27.42 50.8498L27.6532 50.4467L27.815 50.0434L27.8233 50.0258L28.0479 49.64L28.2108 49.2367L28.2266 49.205L28.4862 48.8334L28.6299 48.4716L28.6504 48.4301L28.8316 48.0267L28.9357 47.6233L29.0332 47.3277L29.087 47.22L29.2561 46.8167L29.367 46.4134L29.4365 46.111L29.4719 46.01L29.6124 45.6067L29.6844 45.2034L29.8085 44.8002L29.8399 44.6872L29.9569 44.3969L30.067 43.9936L30.1234 43.5903L30.1617 43.1869L30.2083 42.7836L30.2432 42.4811L30.2621 42.3803L30.3048 41.9769L30.317 41.5736L30.325 41.1702L30.3601 40.767L30.4265 40.3636L30.4899 39.9603L30.5287 39.5572L30.5516 39.1538L30.5597 38.7505L30.6085 38.3471L30.6253 37.9438L30.6465 37.6076L30.6532 37.5405L30.692 37.1371L30.7221 36.7338L30.7428 36.3305L30.7458 35.9272V35.5238L30.7296 35.1205L30.6465 34.7442L30.6426 34.7171L30.4876 34.3139L30.2432 34.0731L29.9407 33.9107L29.8399 33.8458L29.4365 33.7434L29.0332 33.7039L28.6299 33.6676L28.2266 33.579L27.9624 33.5074L27.8233 33.4462L27.42 33.3911L27.0166 33.2977L26.6133 33.2259L26.21 33.1366L26.0987 33.1041L25.8067 32.9895L25.4034 32.882L25.0001 32.8199L24.5967 32.7131L24.5611 32.7007L24.1934 32.5193L23.7901 32.378L23.5885 32.2974L23.3868 32.1821L22.9835 31.9497L22.8846 31.894L22.5802 31.67L22.2729 31.4907L22.1768 31.42L21.7735 31.1408L21.7073 31.0874L21.3702 30.8085L21.1686 30.684L20.9669 30.5312L20.7201 30.2807L20.5636 30.1194L20.3481 29.8774L20.1603 29.6633L19.9741 29.4741L19.7569 29.2782L19.5814 29.0707L19.3536 28.8259L19.1847 28.6676L18.9503 28.4008L18.8271 28.2643L18.547 27.9802L18.4411 27.8609L18.1437 27.4947L18.1145 27.4576L17.7565 27.0543L17.7404 27.0359L17.5114 26.651L17.337 26.4027L17.2266 26.2476L16.9337 25.9137L16.8803 25.8442L16.5304 25.457L16.5188 25.4409L16.3007 25.0376L16.1271 24.8166L15.9988 24.6343L15.7313 24.2309L15.7238 24.2223L15.4645 23.8276L15.3205 23.6261L15.1944 23.4245L14.9171 23.0547L14.8925 23.0211L14.6101 22.6178L14.5138 22.5255L14.287 22.2145L14.1105 21.8687L14.0795 21.8112L13.834 21.4078L13.7072 21.2061L13.6075 21.0045L13.3039 20.6072L13.2997 20.6012L13.0804 20.1978L12.9006 19.9053L12.8417 19.7945L12.5966 19.3911L12.4973 19.2541L12.3388 18.9879L12.0939 18.5999L12.084 18.5845L11.7639 18.1813L11.6906 18.076L11.5102 17.7781L11.2873 17.4908L11.2173 17.3747L10.9318 16.9714L10.884 16.921L10.6205 16.568L10.4807 16.3738L10.3301 16.1647L10.0774 15.912L9.95721 15.7614L9.67401 15.4245L9.60601 15.3581L9.27071 15.0395L9.18811 14.9547L8.86741 14.6261L8.78991 14.5514L8.46411 14.2125L8.40781 14.1481L8.06081 13.8306L7.97011 13.7447L7.65751 13.3834L7.60931 13.3414L7.25411 13.044L7.10291 12.938L6.85081 12.7474L6.53621 12.5349L6.44751 12.4444L6.04421 12.1659L5.97701 12.1316L5.64091 11.9552L5.23761 11.8004L4.92591 11.7283L4.83421 11.6934L4.43091 11.4701L4.02761 11.3289L4.01611 11.325L3.62431 11.1421L3.22101 11.0605L2.81771 10.9938L2.41431 10.9419L2.28831 10.9216L2.01101 10.8616L1.60771 10.7744L1.20441 10.6218L1.06501 10.5183L0.995605 10.1149L1.20441 9.85394L1.39051 9.71174L1.60771 9.60104L2.01101 9.46104L2.34321 9.30834L2.41431 9.28674L2.81771 9.21994L3.22101 9.12104L3.62431 9.04614L4.02761 8.94254L4.09781 8.90494L4.43091 8.82924L4.83421 8.77334L5.23761 8.76044L5.64091 8.75594L6.04421 8.76214H6.44751L6.85081 8.75594L7.25411 8.76044L7.65751 8.77334L8.06081 8.83994L8.46411 8.90084L8.47751 8.90494L8.86741 9.05684L9.27071 9.19734L9.53631 9.30834L9.67401 9.40094L10.0774 9.61074L10.2443 9.71174L10.4807 9.89454L10.8652 10.1149L10.884 10.1307L11.2873 10.4058L11.4666 10.5183L11.6906 10.6775L12.0939 10.8961L12.1301 10.9216L12.4973 11.198L12.7026 11.325L12.9006 11.474L13.2379 11.7283L13.3039 11.7849L13.7072 12.1096L13.7306 12.1316L14.1105 12.4828L14.1759 12.5349L14.5138 12.836L14.6135 12.938L14.9171 13.2454L15.0324 13.3414L15.3205 13.6069L15.4396 13.7447L15.7238 14.0535L15.8259 14.1481L16.1271 14.4618L16.2004 14.5514L16.5304 14.9335L16.5522 14.9547L16.8833 15.3581L16.9337 15.3999L17.2775 15.7614L17.337 15.8156L17.6575 16.1647L17.7404 16.3087L17.9005 16.568L18.1437 16.8043L18.2681 16.9714L18.4731 17.3747L18.547 17.4911L18.7238 17.7781L18.9503 18.0404L19.0535 18.1813L19.3237 18.5845L19.3536 18.6229L19.5084 18.9879L19.7072 19.3911L19.7569 19.4796L19.9183 19.7945L20.1603 20.075L20.2433 20.1978L20.4557 20.6012L20.5636 20.7457L20.735 21.0045L20.9669 21.3614L20.9916 21.4078L21.1711 21.8112L21.3702 22.2145L21.5549 22.6178L21.7735 22.9602L21.8106 23.0211L22.0789 23.4245L22.1768 23.6002L22.2733 23.8276L22.5569 24.2309L22.5802 24.2585L22.7724 24.6343L22.9835 25.0048L23.0008 25.0376L23.2201 25.4409L23.3868 25.6643L23.5027 25.8442L23.7149 26.2476L23.7901 26.3282L24.0176 26.651L24.1934 26.9146L24.275 27.0543L24.5967 27.4576L24.909 27.8609L25.0001 27.9715L25.2447 28.2643L25.4034 28.4024L25.6475 28.6676L25.8067 28.8658L26.034 29.0707L26.21 29.2569L26.3893 29.4741L26.6133 29.673L26.9675 29.8774L27.0166 29.9128L27.42 30.1853L27.6129 30.2807L27.8233 30.4253L28.2266 30.6619L28.2826 30.684L28.6299 30.8487L29.0332 30.9697L29.3328 31.0874L29.4365 31.15L29.8399 31.216L30.2432 31.1322L30.3123 31.0874L30.6216 30.684L30.6465 30.4825L30.6801 30.2807L30.6465 29.8774L30.5883 29.4741L30.5279 29.0707L30.5444 28.6676L30.5457 28.2643L30.5423 27.8609L30.5268 27.4576L30.4861 27.0543L30.4196 26.651L30.3353 26.2476L30.2688 25.8442L30.2432 25.6138L30.2317 25.4409L30.1962 25.0376L30.1513 24.6343L30.1218 24.2309L30.11 23.8276L30.0835 23.4245L30.0319 23.0211L29.9761 22.6178L29.9526 22.2145L29.8543 21.8112L29.8399 21.7801L29.7358 21.4078L29.636 21.0045L29.5678 20.6012L29.5267 20.1978L29.5148 19.7945L29.5093 19.3911L29.4365 19.1301L29.4113 18.9879L29.3438 18.5845L29.2268 18.1813L29.0993 17.7781L29.0332 17.5258L29.0095 17.3747L28.9446 16.9714L28.8504 16.568L28.7478 16.1647L28.6299 15.8315L28.6118 15.7614L28.5168 15.3581L28.3879 14.9547L28.27 14.5514L28.2266 14.4231L28.1546 14.1481L27.9822 13.7447L27.8233 13.5064L27.75 13.3414L27.6238 12.938L27.4336 12.5349L27.42 12.4944L27.3365 12.1316L27.147 11.7283L27.0166 11.5265L26.9226 11.325L26.6208 10.9216L26.6133 10.9122L26.4331 10.5183L26.2241 10.1149L26.21 10.0962L25.9516 9.71174L25.8067 9.53664L25.6722 9.30834L25.4034 8.94714L25.3736 8.90494L25.1277 8.50164L25.0001 8.23634L24.9471 8.09834L24.8312 7.69504L24.8125 7.29184L25.0001 6.95564L25.0687 6.88854L25.4034 6.67004L25.8067 6.63704L26.21 6.62674L26.6133 6.60034L27.0166 6.64834L27.42 6.63574H27.8233H28.2266H28.6299H29.0332H29.4365H29.8399H30.2432L30.6465 6.63034H31.0498H31.4531H31.8564H32.2598H32.6631H33.0664H33.4697L33.873 6.62134L34.2763 6.62494L34.6796 6.62674L35.083 6.63034L35.4863 6.63574L35.8896 6.64104L36.2929 6.64644H36.6962L37.0996 6.64194L37.5029 6.60564L37.9062 6.62544L38.3095 6.63184H38.7128L39.1161 6.60614L39.5195 6.63224L39.9228 6.76324L40.0699 6.88854L40.3261 7.28344L40.3302 7.29184L40.3717 7.69504L40.3261 7.87424L40.2253 8.09834L39.9228 8.44754L39.8639 8.50164L39.5195 8.85364L39.4762 8.90494L39.2605 9.30834L39.1161 9.51724L38.9729 9.71174L38.7257 10.1149L38.7128 10.1391L38.4871 10.5183L38.3265 10.9216L38.3095 10.9526L38.0645 11.325L37.9062 11.7283L37.7021 12.1316L37.5867 12.5349L37.5029 12.8081L37.4435 12.938L37.3214 13.3414L37.1729 13.7447L37.0996 13.9465L37.0124 14.1481L36.9116 14.5514L36.8293 14.9547L36.7565 15.3581L36.7164 15.7614L36.6962 15.8306L36.5423 16.1647L36.4562 16.568L36.3659 16.9714L36.3129 17.3747L36.2929 17.5427L36.2501 17.7781L36.1709 18.1813L36.0845 18.5845L36.031 18.9879L35.9582 19.3911L35.9263 19.7945L35.9059 20.1978L35.9222 20.6012L35.9455 21.0045L35.9138 21.4078L35.8896 21.5179L35.7838 21.8112L35.6906 22.2145L35.6619 22.6178L35.6439 23.0211L35.6148 23.4245L35.5754 23.8276L35.5433 24.2309L35.5215 24.6343L35.517 25.0376L35.5167 25.4409L35.5127 25.8442L35.5311 26.2476L35.5418 26.651L35.5127 27.0543L35.4863 27.2307L35.4278 27.4576L35.3407 27.8609L35.3021 28.2643L35.2962 28.6676L35.3419 29.0707L35.4092 29.4741L35.4863 29.7501L35.51 29.8774L35.5408 30.2807L35.5403 30.684L35.5814 31.0874L35.8146 31.4907L35.8896 31.5552L36.2929 31.6373L36.6962 31.6008L37.0812 31.4907L37.0996 31.4869L37.5029 31.4277L37.9062 31.2944L38.2898 31.0874L38.3095 31.0789L38.7128 30.9453L39.1161 30.805L39.3227 30.684L39.5195 30.5903L39.9228 30.3677L40.0541 30.2807L40.3261 30.1112L40.6194 29.8774L40.7294 29.8063L41.1327 29.4872L41.1495 29.4741L41.536 29.0955L41.5572 29.0707L41.9264 28.6676L41.9393 28.6522L42.3178 28.2643L42.3427 28.2322L42.6115 27.8609L42.746 27.652L42.8931 27.4576L43.0989 27.0543L43.1493 26.9659L43.3838 26.651L43.5526 26.4006L43.6794 26.2476L43.8632 25.8442L43.9559 25.6787L44.1163 25.4409L44.3387 25.0376L44.3593 25.0029L44.5968 24.6343L44.7626 24.3028L44.8182 24.2309L45.0475 23.8276L45.1659 23.5252L45.2284 23.4245L45.4895 23.0211L45.5692 22.8513L45.6941 22.6178L45.8902 22.2145L45.9725 21.9362L46.0283 21.8112L46.2163 21.4078L46.3758 21.0354L46.397 21.0045L46.5909 20.6012L46.715 20.1978L46.7791 20.042L46.9304 19.7945L47.0749 19.3911L47.1825 19.0686L47.2203 18.9879L47.4292 18.5845L47.5858 18.2345L47.6188 18.1813L47.8415 17.7781L47.9891 17.515L48.08 17.3747L48.2783 16.9714L48.3924 16.7822L48.5777 16.568L48.7835 16.1647L48.7957 16.1471L49.073 15.7614L49.1991 15.5144L49.3134 15.3581L49.5892 14.9547L49.6024 14.9382L49.9059 14.5514L50.0057 14.4042L50.2329 14.1481L50.409 13.9326L50.5646 13.7447L50.8123 13.4897L50.9699 13.3414L51.2156 12.9919L51.2604 12.938L51.6189 12.5349L52.0223 12.1455L52.0402 12.1316L52.4256 11.8273L52.5229 11.7283L52.8289 11.4885L53.0179 11.325L53.2322 11.1513L53.5451 10.9216L53.6355 10.8641L54.0389 10.6327L54.2353 10.5183L54.4422 10.4148L54.8455 10.162L54.9161 10.1149L55.2488 9.95074L55.6008 9.71174L55.6521 9.68074L56.0554 9.46524L56.3064 9.30834L56.4587 9.22964L56.8621 9.07074L57.1309 8.90494L57.2654 8.84204L57.6687 8.70344L58.072 8.57504L58.2582 8.50164L58.4753 8.44464L58.8786 8.32304L59.282 8.18944L59.5957 8.09834L59.6853 8.08254L60.0886 8.03514L60.4919 7.99054L60.8952 7.98024L61.2985 7.97774L61.7019 7.97104L62.1052 7.96544L62.5085 7.97274L62.9118 7.98054L63.3151 7.97364L63.7184 7.98954L64.1218 8.05354L64.2604 8.09834L64.5251 8.21614L64.9284 8.48524L64.942 8.50164L64.9956 8.90494L64.9284 9.04584L64.6979 9.30834L64.5251 9.38894L64.1218 9.55824L63.8901 9.71174L63.7184 9.80334L63.3151 9.99894L63.0597 10.1149L62.9118 10.1545L62.5085 10.307L62.1052 10.4967L62.0741 10.5183L61.7019 10.7045L61.3561 10.9216L61.2985 10.9512L60.8952 11.2385L60.8073 11.325L60.4919 11.5242L60.201 11.7283L60.0886 11.807L59.6853 12.1316L59.282 12.446L59.2055 12.5349L58.8786 12.8796L58.821 12.938L58.4834 13.3414L58.4753 13.3532L58.1751 13.7447L58.072 13.8514L57.8032 14.1481L57.6687 14.3378L57.4642 14.5514L57.2654 14.7447L57.0762 14.9547L56.8621 15.3318L56.8429 15.3581L56.5123 15.7614L56.4587 15.8729L56.2894 16.1647L56.0554 16.4915L55.9861 16.568L55.75 16.9714L55.6521 17.1859L55.5113 17.3747L55.2896 17.7781L55.2488 17.8568L55.0599 18.1813L54.8455 18.52L54.7846 18.5845L54.5929 18.9879L54.4422 19.286L54.3601 19.3911L54.1121 19.7945L54.0389 19.9447L53.9192 20.1978L53.7486 20.6012L53.6355 20.7818L53.4466 21.0045L53.24 21.4078L53.2322 21.4204L52.931 21.8112L52.8289 22.0401L52.7393 22.2145L52.4876 22.6178L52.4256 22.7433L52.2543 23.0211L52.0447 23.4245L52.0223 23.4775L51.8374 23.8276L51.6727 24.2309L51.6189 24.3222L51.4123 24.6343L51.2156 24.9427L51.1375 25.0376L50.9262 25.4409L50.8123 25.5947L50.5998 25.8442L50.409 26.1105L50.3038 26.2476L50.0057 26.651L49.6544 27.0543L49.6024 27.1287L49.3283 27.4576L49.1991 27.6201L48.9889 27.8609L48.7957 28.0462L48.5585 28.2643L48.3924 28.4658L48.2187 28.6676L47.9891 28.8748L47.7957 29.0707L47.5858 29.2698L47.351 29.4741L47.1825 29.6332L46.9657 29.8774L46.7791 30.0433L46.4451 30.2807L46.3758 30.3383L45.99 30.684L45.9725 30.701L45.575 31.0874L45.5692 31.092L45.1659 31.3195L44.9204 31.4907L44.7626 31.5706L44.3593 31.7634L44.1619 31.894L43.9559 32.0182L43.5526 32.2503L43.4644 32.2974L43.1493 32.4204L42.746 32.597L42.5325 32.7007L42.3427 32.7694L41.9393 32.8679L41.536 33.039L41.4174 33.1041L41.1327 33.2178L40.7294 33.3787L40.3881 33.5074L40.3261 33.5222L39.9228 33.6231L39.5195 33.6564L39.1161 33.7249L38.7128 33.8434L38.5374 33.9107L38.3095 33.9664L37.9062 34.0324L37.5029 34.0686L37.0996 34.0853L36.6962 34.1535L36.2929 34.2778L36.2275 34.3139L35.8896 34.5332L35.7307 34.7171L35.5825 35.1205L35.6141 35.5238L35.6406 35.9272L35.665 36.3305L35.6673 36.7338L35.6527 37.1371L35.6426 37.5405L35.6527 37.9438L35.6701 38.3471L35.7655 38.7505L35.8618 39.1538L35.8896 39.2689L35.9303 39.5572L35.9568 39.9603L35.9904 40.3636L36.0573 40.767L36.1346 41.1702L36.1921 41.5736L36.2929 41.8275L36.3354 41.9769L36.3787 42.3803L36.4543 42.7836L36.5533 43.1869L36.6832 43.5903L36.6962 43.6238L36.7776 43.9936L36.875 44.3969L36.981 44.8002L37.0996 45.0125L37.168 45.2034L37.2092 45.6067L37.284 46.01L37.4048 46.4134L37.5029 46.6403L37.5611 46.8167L37.7097 47.22L37.9062 47.594L37.9186 47.6233L38.0319 48.0267L38.2192 48.4301L38.3095 48.603L38.4116 48.8334L38.6641 49.2367L38.7128 49.311L38.8565 49.64L39.0956 50.0434L39.1161 50.0743L39.3097 50.4467L39.5195 50.7326L39.5972 50.8498L39.8837 51.2532L39.9228 51.2923L40.1509 51.6565L40.3261 51.9317L40.421 52.0598L40.6838 52.4631L40.7294 52.5194L40.9311 52.8665L41.1327 53.1033L41.2655 53.2698L41.536 53.5796L41.6062 53.6731L41.9393 54.0423L41.9707 54.0765L42.279 54.4798L42.3427 54.5765L42.6619 54.8832L42.746 54.9746L42.9476 55.2865L43.1493 55.6898L43.034 56.093L42.7919 56.4962L42.746 56.5448L42.3427 56.7787L41.9393 56.7691L41.536 56.6929L41.1327 56.6155L40.7294 56.5664L40.3261 56.5657L39.9228 56.5831H39.5195H39.1161H38.7128H38.3095H37.9062H37.5029H37.0996H36.6962H36.2929H35.8896H35.4863H35.083H34.6796H34.2763H33.873L33.4697 56.6448L33.0664 56.7005L32.6631 56.6774L32.2598 56.5809L31.8564 56.5709L31.4531 56.6652L31.0498 56.7828L30.6465 56.843L30.2432 56.8017L29.8399 56.7989L29.4365 56.8019L29.0332 56.8325L28.6666 56.8996L28.6299 56.9035L28.2266 56.9616L27.8233 57.0138L27.42 57.0453L27.0166 57.0149L26.6133 57.0738L26.21 57.1214L25.8067 57.1573L25.4034 57.1417L25.0001 57.2283L24.8656 57.3029L24.5967 57.3967L24.1934 57.3995L24.0751 57.3029Z" fill="white"/>
</g>
<defs>
<clipPath id="clip0">
<rect width="64" height="64" fill="white" transform="translate(0.995605)"/>
</clipPath>
</defs>
</svg>
