<svg width="65" height="64" viewBox="0 0 65 64" fill="none" xmlns="http://www.w3.org/2000/svg">
<g clip-path="url(#clip0)">
<path d="M31.3642 58.6052L31.2661 58.4816L30.8889 58.1601L30.8211 58.1075L30.3762 57.7971L30.2614 57.7152L29.9312 57.4878L29.5618 57.2702L29.4862 57.1918L29.2031 56.8254L29.0413 56.6968L28.6767 56.3803L28.5963 56.2805L28.2733 55.9355L28.1514 55.8113L27.8831 55.4903L27.7064 55.3162L27.403 55.0455L27.2614 54.9017L27.0338 54.6005L26.8165 54.3753L26.6067 54.1556L26.3715 53.8545L26.2674 53.7106L25.9265 53.3934L25.7893 53.2655L25.4816 52.88L25.4362 52.8206L25.0366 52.4042L25.0055 52.3756L24.6427 51.9307L24.5916 51.8672L24.2579 51.4858L24.1467 51.3869L23.8261 51.041L23.7017 50.8951L23.3402 50.5957L23.2568 50.5269L23.0172 50.1509L22.8118 49.876L22.6654 49.7058L22.3668 49.3784L22.2685 49.261L21.9219 48.9018L21.8527 48.8161L21.5318 48.371L21.4769 48.297L21.1375 47.926L21.0319 47.8345L20.7278 47.4811L20.587 47.3073L20.3852 47.0361L20.142 46.7095L20.0679 46.5912L19.7508 46.1461L19.697 46.0896L19.3962 45.7011L19.2521 45.5045L19.0888 45.2564L18.8071 44.9556L18.6982 44.8113L18.3692 44.3665L18.3622 44.3578L18.0785 43.9212L17.9172 43.7421L17.7258 43.4764L17.4722 43.1035L17.4201 43.0315L17.1025 42.5865L17.0273 42.4884L16.7561 42.1416L16.5823 41.8997L16.4807 41.6966L16.1826 41.2515L16.1373 41.1881L15.9489 40.8066L15.6924 40.4813L15.6013 40.3616L15.3204 39.9167L15.2474 39.8178L15.0425 39.4716L14.8025 39.1776L14.7135 39.0266L14.3912 38.5819L14.3575 38.5397L14.0801 38.1368L13.9125 37.9143L13.7822 37.692L13.4949 37.247L13.4676 37.2064L13.2676 36.8021L13.0226 36.3982L13.0016 36.357L12.7591 35.912L12.5776 35.6741L12.4525 35.4671L12.1327 35.0577L12.1051 35.0221L11.9343 34.577L11.6877 34.1757L11.665 34.1321L11.5045 33.6871L11.267 33.2422L11.2427 33.212L11.0027 32.7974L10.7978 32.5334L10.691 32.3521L10.5228 31.9075L10.3528 31.6745L10.2318 31.4624L10.0502 31.0175L9.90791 30.816L9.79561 30.5725L9.64401 30.1276L9.46291 29.8444L9.37481 29.6825L9.16981 29.2375L9.01791 28.9726L8.93741 28.7926L8.71401 28.3476L8.57301 28.1163L8.46931 27.9027L8.32771 27.4576L8.12801 27.1523L8.05061 27.0129L7.86331 26.5677L7.68301 26.161L7.67111 26.1229L7.51991 25.678L7.23811 25.2622L7.22131 25.233L7.04961 24.7879L6.88551 24.343L6.79311 24.1776L6.66531 23.898L6.47231 23.4531L6.34811 23.0849L6.32861 23.0081L6.16491 22.563L5.90321 22.151L5.88871 22.1181L5.75361 21.6731L5.62861 21.2283L5.45821 20.8176L5.44341 20.7832L5.28921 20.3384L5.04801 19.8932L5.01321 19.8077L4.92341 19.4484L4.81551 19.0035L4.60881 18.5585L4.56831 18.4966L4.43431 18.1136L4.32771 17.6685L4.17641 17.2235L4.12331 17.0918L4.03341 16.7786L3.81251 16.3336L3.67841 16.0074L3.64691 15.8887L3.58941 15.4439L3.49931 14.9986L3.29801 14.5538L3.23341 14.4359L3.11991 14.1087L2.94451 13.6639L2.78841 13.219L2.71861 12.7739L2.64011 12.329L2.42511 11.884L2.34351 11.7027L2.27631 11.4391L2.20581 10.9941L2.08081 10.549L1.93441 10.1041L1.89851 10.0511L1.70711 9.65932L1.55661 9.21422L1.47971 8.76942L1.45351 8.66472L1.39451 8.32412L1.29221 7.87932L1.15911 7.43442L1.03551 6.98942L1.00861 6.73522L0.995605 6.54452L1.00861 6.49832L1.17151 6.09962L1.34851 5.65452L1.45351 5.50132L1.89851 5.25472L2.34351 5.44332L2.58501 5.65452L2.78841 5.88812L2.94771 6.09962L3.23341 6.53602L3.23721 6.54452L3.51771 6.98942L3.67841 7.17322L3.90391 7.43442L4.12331 7.64792L4.55711 7.87932L4.56831 7.88622L5.01321 8.24482L5.10781 8.32412L5.45821 8.59132L5.78611 8.76942L5.90321 8.87532L6.34811 9.15452L6.52891 9.21422L6.79311 9.32132L7.23811 9.55862L7.48671 9.65932L7.68301 9.75332L8.12801 9.89082L8.57301 10.018L8.80551 10.1041L9.01791 10.2396L9.46291 10.4367L9.83371 10.549L9.90791 10.5873L10.3528 10.7373L10.7978 10.7962L11.2427 10.9192L11.5542 10.9941L11.6877 11.0408L12.1327 11.1963L12.5776 11.2781L13.0226 11.3268L13.4676 11.38L13.8847 11.4391L13.9125 11.4465L14.3575 11.5253L14.8025 11.5306H15.2474H15.6924H16.1373H16.5823H17.0273H17.4722H17.9172L18.3622 11.4844L18.6291 11.4391L18.8071 11.4241L19.2521 11.3727L19.697 11.3149L20.142 11.2491L20.587 11.1571L21.0319 11.0101L21.0876 10.9941L21.4769 10.9331L21.9219 10.7716L22.3668 10.7094L22.8118 10.549L23.2568 10.4179L23.7017 10.2083L23.8607 10.1041L24.1467 10.0006L24.5916 9.86502L25.0366 9.71392L25.1123 9.65932L25.4816 9.46852L25.9265 9.28942L26.0404 9.21422L26.3715 9.02922L26.7291 8.76942L26.8165 8.72042L27.2614 8.46282L27.4124 8.32412L27.7064 8.14132L28.113 7.87932L28.1514 7.85582L28.582 7.43442L28.5963 7.41932L29.0123 6.98942L29.0413 6.96202L29.4675 6.54452L29.4862 6.52482L29.9312 6.13592L29.9671 6.09962L30.2998 5.65452L30.3762 5.56762L30.8211 5.23222L30.8706 5.20952L31.2661 5.10482L31.5204 5.20952L31.7111 5.35022L31.9105 5.65452L32.156 5.93192L32.3027 6.09962L32.601 6.40492L32.7288 6.54452L33.0459 6.85822L33.2017 6.98942L33.4909 7.32002L33.6037 7.43442L33.9359 7.70862L34.1487 7.87932L34.3808 8.07712L34.7586 8.32412L34.8258 8.37593L35.2708 8.67292L35.4438 8.76942L35.7157 8.97602L36.0833 9.21422L36.1607 9.26382L36.6057 9.54803L36.7762 9.65932L37.0506 9.83432L37.4956 10.0208L37.6624 10.1041L37.9405 10.3091L38.3855 10.4822L38.5536 10.549L38.8305 10.713L39.2754 10.9177L39.3867 10.9941L39.7204 11.2305L40.1654 11.3515L40.5569 11.4391L40.6103 11.4629L41.0553 11.6731L41.5003 11.8404L41.7121 11.884L41.9452 11.9493L42.3902 12.061L42.8351 12.1707L43.2801 12.3151L43.4014 12.329L43.7251 12.3904L44.17 12.5021L44.615 12.5774L44.17 17.202L43.7251 17.1536L43.2801 17.1333L42.8351 17.059L42.3902 17.0575L41.9452 17.0337L41.5003 16.9685L41.0553 16.8478L40.8405 16.7786L40.6103 16.6859L40.1654 16.5685L39.7204 16.5193L39.2754 16.3963L39.0146 16.3336L38.8305 16.2476L38.3855 16.0422L37.9405 15.9047L37.8721 15.8887L37.4956 15.7663L37.0506 15.6226L36.734 15.4439L36.6057 15.3456L36.1607 15.1386L35.7157 15.0021L35.7073 14.9986L35.2708 14.7298L34.9419 14.5538L34.8258 14.4753L34.3808 14.2455L34.1206 14.1087L33.9359 13.967L33.4909 13.7466L33.3325 13.6639L33.0459 13.4442L32.601 13.2314L32.5758 13.219L32.156 12.9744L31.8182 12.7739L31.7111 12.6791L31.2661 12.4335L30.8211 12.329L30.3762 12.3689L29.9312 12.5974L29.7087 12.7739L29.4862 12.9137L29.0695 13.219L29.0413 13.2402L28.5963 13.6139L28.4736 13.6639L28.1514 13.7622L27.7064 14.0587L27.6372 14.1087L27.2614 14.2654L26.8165 14.3799L26.4076 14.5538L26.3715 14.5683L25.9265 14.8363L25.6991 14.9986L25.4816 15.0746L25.0366 15.1186L24.5916 15.2057L24.1467 15.4207L24.1074 15.4439L23.7017 15.5714L23.2568 15.6639L22.8118 15.7422L22.3668 15.8489L22.1888 15.8887L21.9219 15.923L21.4769 15.9668L21.0319 16.0268L20.587 16.1339L20.142 16.2738L19.9418 16.3336L19.697 16.3767L19.2521 16.4122L18.8071 16.4249H18.3622L17.9172 16.4836L17.4722 16.5514L17.0273 16.5857L16.5823 16.5562L16.1373 16.5465L15.6924 16.5685L15.2474 16.561L14.8025 16.525L14.3575 16.4775L13.9125 16.4534L13.4676 16.4763L13.0226 16.456L12.5776 16.3493L12.5117 16.3336L12.1327 16.1935L11.6877 16.075L11.2427 15.9721L10.7978 15.9108L10.3528 16.0185L10.0376 16.3336L9.9166 16.7786L9.93211 17.2235L10.1005 17.6685L10.177 18.1136L10.3528 18.5204L10.3664 18.5585L10.5413 19.0035L10.7554 19.4484L10.7978 19.5245L10.9243 19.8932L11.1431 20.3384L11.2427 20.5051L11.3457 20.7832L11.4988 21.2283L11.6877 21.6637L11.6921 21.6731L11.93 22.1181L12.1327 22.563L12.263 23.0081L12.4913 23.4531L12.5776 23.5817L12.7215 23.898L12.9068 24.343L13.0226 24.5778L13.0975 24.7879L13.2284 25.233L13.4676 25.6081L13.5031 25.678L13.6983 26.1229L13.9125 26.492L13.9478 26.5677L14.161 27.0129L14.3575 27.2981L14.4474 27.4576L14.6992 27.9027L14.8025 28.037L14.9469 28.3476L15.1072 28.7926L15.2474 28.9893L15.3908 29.2375L15.6127 29.6825L15.6924 29.7961L15.8756 30.1276L16.1373 30.5179L16.1656 30.5725L16.3545 31.0175L16.5823 31.3654L16.6327 31.4624L16.9146 31.9075L17.0273 32.0834L17.1866 32.3521L17.4722 32.7196L17.5184 32.7974L17.6975 33.2422L17.9172 33.5313L18.0156 33.6871L18.3622 34.1263L18.3663 34.1321L18.5966 34.577L18.8071 35.0122L18.8118 35.0221L19.1275 35.4671L19.2521 35.6795L19.3754 35.912L19.697 36.2729L19.7547 36.357L20.0201 36.8021L20.142 36.9528L20.3511 37.247L20.587 37.603L20.6349 37.692L20.8815 38.1368L21.0319 38.3421L21.1529 38.5819L21.4769 39.0044L21.4984 39.0266L21.9219 39.4716L22.1678 39.9167L22.3668 40.1392L22.5349 40.3616L22.8118 40.7077L22.8859 40.8066L23.2568 41.2206L23.2846 41.2515L23.6486 41.6966L23.7017 41.765L23.9465 42.1416L24.1467 42.413L24.2869 42.5865L24.5916 42.9987L24.6119 43.0315L24.9476 43.4764L25.0366 43.5878L25.2992 43.9212L25.4816 44.0926L25.7069 44.3665L25.9265 44.6008L26.094 44.8113L26.3715 45.1852L26.4247 45.2564L26.8165 45.6439L26.8715 45.7011L27.2614 46.1409L27.266 46.1461L27.5673 46.5912L27.7064 46.7183L27.988 47.0361L28.1514 47.2316L28.4008 47.4811L28.5963 47.6798L28.7805 47.926L29.0413 48.2288L29.1561 48.371L29.4862 48.7804L29.5209 48.8161L29.9312 49.1878L29.9941 49.261L30.3762 49.6468L30.4419 49.7058L30.8211 50.123L30.8483 50.1509L31.2661 50.5687L31.2946 50.5957L31.7111 50.9528L31.9537 51.041L32.156 51.1348L32.601 51.041L33.0459 50.7393L33.1678 50.5957L33.4909 50.2771L33.6493 50.1509L33.9359 49.9223L34.168 49.7058L34.3808 49.5291L34.6661 49.261L34.8258 49.1013L35.1306 48.8161L35.2708 48.6795L35.5069 48.371L35.7157 48.1435L35.9636 47.926L36.1607 47.7638L36.543 47.4811L36.6057 47.4338L37.0506 47.0728L37.096 47.0361L37.4956 46.6596L37.558 46.5912L37.9405 46.2607L38.0588 46.1461L38.3855 45.9187L38.6525 45.7011L38.8305 45.486L38.998 45.2564L39.2754 44.8497L39.3174 44.8113L39.7123 44.3665L39.7204 44.3568L40.1654 43.9761L40.2148 43.9212L40.5529 43.4764L40.6103 43.4023L40.9616 43.0315L41.0553 42.9088L41.3012 42.5865L41.5003 42.402L41.7515 42.1416L41.9452 41.9191L42.1771 41.6966L42.3902 41.3677L42.4749 41.2515L42.8351 40.8534L42.8812 40.8066L43.2245 40.3616L43.2801 40.2786L43.5174 39.9167L43.7251 39.6291L43.8778 39.4716L44.1654 39.0266L44.17 39.0218L44.5783 38.5819L44.615 38.5252L44.9248 38.1368L45.06 37.9189L45.2063 37.692L45.4958 37.247L45.5049 37.2348L45.8286 36.8021L45.9499 36.5663L46.1025 36.357L46.3949 35.9557L46.432 35.912L46.6292 35.4671L46.8398 35.1567L46.9781 35.0221L47.2848 34.577L47.5735 34.1321L47.7298 33.8326L47.83 33.6871L48.0799 33.2422L48.1747 33.0527L48.3516 32.7974L48.6197 32.4304L48.6903 32.3521L48.9445 31.9075L49.0646 31.7001L49.2485 31.4624L49.4287 31.0175L49.5096 30.8574L49.6922 30.5725L49.9546 30.1788L50.0006 30.1276L50.2699 29.6825L50.3995 29.4208L50.5411 29.2375L50.8445 28.8023L50.8532 28.7926L51.1102 28.3476L51.2895 28.1041L51.4181 27.9027L51.6287 27.4576L51.7344 27.2255L51.8923 27.0129L52.1194 26.5677L52.1794 26.4343L52.3478 26.1229L52.5286 25.678L52.6243 25.4999L52.8047 25.233L52.977 24.7879L53.0693 24.6162L53.2798 24.343L53.4768 23.898L53.5143 23.8112L53.6891 23.4531L53.8731 23.0081L53.9593 22.8261L54.1222 22.563L54.2953 22.1181L54.4042 21.8338L54.4905 21.6731L54.6514 21.2283L54.8492 20.8278L54.8793 20.7832L55.1132 20.3384L55.2782 19.8932L55.2941 19.8605L55.5622 19.4484L55.7313 19.0035L55.7391 18.9748L55.8891 18.5585L56.0739 18.1136L56.1841 17.8662L56.2996 17.6685L56.423 17.2235L56.4539 16.7786L56.3546 16.3336L56.1841 16.151L55.7391 15.9529L55.2941 15.9999L54.8492 16.2407L54.6808 16.3336L54.4042 16.4175L53.9593 16.4694L53.5143 16.5709L53.0693 16.6321L52.6243 16.7711L52.605 16.7786L52.1794 16.8805L51.7344 16.9759L51.2895 17.0752L50.8445 17.1843L50.6391 17.2235L50.3995 17.2502L49.9546 17.2548L49.5096 17.2821L49.0646 17.3375L48.6197 17.3956L48.1747 17.4152L47.7298 17.4149H47.2848L46.8398 17.4165L46.3949 17.4303L45.9499 17.4339L45.5049 17.3718L45.06 17.2961L44.615 17.2511L44.3036 17.2235L44.17 17.202L44.615 12.5774L45.06 12.6138L45.5049 12.6283L45.9499 12.6256L46.3949 12.6207L46.8398 12.6126L47.2848 12.6218L47.7298 12.6349L48.1747 12.6312L48.6197 12.6064L49.0646 12.5398L49.5096 12.4287L49.8953 12.329L49.9546 12.3196L50.3995 12.169L50.8445 12.0801L51.2895 11.9753L51.7344 11.884L52.1794 11.8057L52.6243 11.6524L53.0237 11.4391L53.0693 11.423L53.5143 11.3258L53.9593 11.2224L54.4042 11.073L54.533 10.9941L54.8492 10.8606L55.2941 10.6488L55.4849 10.549L55.7391 10.471L56.1841 10.303L56.475 10.1041L56.629 10.0272L57.074 9.86742L57.3662 9.65932L57.519 9.54422L57.9639 9.35872L58.2111 9.21422L58.4089 9.11852L58.8538 8.76942L59.2988 8.52982L59.6386 8.32412L59.7438 8.26582L60.1887 7.99552L60.3179 7.87932L60.6337 7.67332L60.9363 7.43442L61.0787 7.31172L61.5099 6.98942L61.5236 6.98062L61.9686 6.56782L61.9909 6.54452L62.4135 6.13542L62.4548 6.09962L62.8585 5.83042L63.0679 5.65452L63.3035 5.44372L63.5905 5.20952L63.7484 5.12362L64.1934 5.04272L64.4956 5.20952L64.6384 5.32242L64.8726 5.65452L64.99 6.09962L64.9956 6.54452L64.8532 6.98942L64.7459 7.43442L64.6384 7.81102L64.6087 7.87932L64.5054 8.32412L64.4506 8.76942L64.3348 9.21422L64.1934 9.60222L64.1529 9.65932L63.9709 10.1041L63.8649 10.549L63.7868 10.9941L63.7484 11.1375L63.611 11.4391L63.4425 11.884L63.3035 12.329L63.1231 12.7739L62.9883 13.219L62.9066 13.6639L62.8585 13.7909L62.6756 14.1087L62.5551 14.5538L62.4421 14.9986L62.4135 15.1286L62.3099 15.4439L62.1709 15.8887L62.001 16.3336L61.9686 16.4116L61.7827 16.7786L61.6954 17.2235L61.6002 17.6685L61.5236 17.9353L61.4263 18.1136L61.1793 18.5585L61.0787 18.7811L60.9768 19.0035L60.8664 19.4484L60.7357 19.8932L60.6337 20.1073L60.4713 20.3384L60.3414 20.7832L60.1887 21.1725L60.154 21.2283L59.9717 21.6731L59.7961 22.1181L59.7438 22.2626L59.6065 22.563L59.4835 23.0081L59.3421 23.4531L59.2988 23.542L59.0445 23.898L58.8726 24.343L58.8538 24.3865L58.6506 24.7879L58.5213 25.233L58.4089 25.5888L58.3684 25.678L58.2012 26.1229L58.0275 26.5677L57.9639 26.6892L57.757 27.0129L57.5321 27.4576L57.519 27.4919L57.3555 27.9027L57.1054 28.3476L57.074 28.4155L56.8674 28.7926L56.6492 29.2375L56.629 29.2735L56.312 29.6825L56.1841 29.9323L56.08 30.1276L55.855 30.5725L55.7391 30.7547L55.5363 31.0175L55.4073 31.4624L55.2941 31.7059L55.1323 31.9075L54.8492 32.3419L54.8412 32.3521L54.5541 32.7974L54.4042 33.1068L54.3126 33.2422L54.109 33.6871L53.9593 34.0877L53.9314 34.1321L53.6314 34.577L53.5143 34.8421L53.4121 35.0221L53.0878 35.4671L53.0693 35.4973L52.7912 35.912L52.6243 36.2244L52.5378 36.357L52.2374 36.8021L52.1794 36.8771L51.9142 37.247L51.7457 37.692L51.7344 37.713L51.4275 38.1368L51.2895 38.4097L51.1798 38.5819L50.8445 39.0266L50.5281 39.4716L50.3995 39.7232L50.2626 39.9167L49.9591 40.3616L49.9546 40.3685L49.6183 40.8066L49.5096 40.9735L49.3197 41.2515L49.0646 41.5592L48.9272 41.6966L48.6334 42.1416L48.6197 42.159L48.3031 42.5865L48.1747 42.7622L47.8981 43.0315L47.7298 43.2231L47.5338 43.4764L47.2848 43.8309L47.1958 43.9212L46.8795 44.3665L46.8398 44.4157L46.5026 44.8113L46.3949 44.9478L46.0904 45.2564L45.9499 45.5301L45.8348 45.7011L45.5133 46.1461L45.5049 46.1571L45.1186 46.5912L45.06 46.6675L44.8019 47.0361L44.615 47.292L44.4234 47.4811L44.17 47.7008L43.9208 47.926L43.7251 48.1389L43.5223 48.371L43.2801 48.6524L43.0947 48.8161L42.8351 49.2152L42.8016 49.261L42.4269 49.7058L42.3902 49.7443L41.9962 50.1509L41.9452 50.2181L41.6608 50.5957L41.5003 50.7689L41.2283 51.041L41.0553 51.2331L40.7962 51.4858L40.6103 51.6789L40.3852 51.9307L40.1654 52.1799L39.9429 52.3756L39.7204 52.6427L39.6025 52.8206L39.2754 53.2655L38.8534 53.7106L38.8305 53.7344L38.3855 54.1287L38.3559 54.1556L37.9535 54.6005L37.9405 54.6149L37.4956 54.9785L37.4179 55.0455L37.0506 55.3624L36.8838 55.4903L36.6057 55.6735L36.3376 55.9355L36.1607 56.1421L35.9846 56.3803L35.7157 56.624L35.4702 56.8254L35.2708 57.0732L35.0765 57.2702L34.8258 57.4986L34.6145 57.7152L34.3808 57.9678L34.131 58.1601L33.9359 58.2797L33.5377 58.6052L33.4909 58.6397L33.0459 58.8101L32.601 58.9073L32.156 58.9571L31.7111 58.8701L31.3642 58.6052Z" fill="white"/>
</g>
<defs>
<clipPath id="clip0">
<rect width="64" height="64" fill="white" transform="translate(0.995605)"/>
</clipPath>
</defs>
</svg>
