<svg width="65" height="46" viewBox="0 0 65 46" fill="none" xmlns="http://www.w3.org/2000/svg">
<path d="M30.5299 45.7204L30.3489 45.3514L30.2909 45.2284L30.2105 44.9824L30.1295 44.6134L30.0753 44.2444L30.0704 43.8754L30.0547 43.5064L30.0449 43.1374L30.0625 42.7683V42.3993V42.0303V41.6612V41.2923V40.9232V40.5543V40.1852L30.0738 39.8162L30.0669 39.4472L30.0553 39.0781L30.0565 38.7092L30.0836 38.3402L30.1317 37.9712L30.1813 37.6022L30.2108 37.2331L30.2186 36.8641L30.2282 36.4951L30.2596 36.126L30.2909 35.9513L30.3477 35.757L30.4311 35.388L30.4139 35.0191L30.2909 34.7826L30.2076 34.65L29.9219 34.4107L29.6554 34.281L29.5529 34.2305L29.1839 34.1368L28.8148 34.0908L28.4458 34.0361L28.0768 33.9858L27.7078 33.918L27.6889 33.9121L27.3388 33.7224L26.9698 33.5852L26.7443 33.543L26.6008 33.5032L26.2317 33.3854L25.8627 33.2816L25.6167 33.174L25.4937 33.0945L25.1247 32.9331L24.8203 32.805L24.7557 32.7633L24.3867 32.5179L24.2525 32.4359L24.0177 32.2724L23.6487 32.16L23.4273 32.0669L23.2796 31.9721L22.9106 31.7622L22.7808 31.6979L22.5416 31.5324L22.1726 31.3358L21.9881 31.3289L21.8036 31.3174L21.7468 31.3289L21.4346 31.4041L21.2543 31.6979L21.0997 32.0669L21.0656 32.1498L20.8986 32.4359L20.6965 32.7971L20.6903 32.805L20.467 33.174L20.3275 33.3981L20.2148 33.543L20.0572 33.9121L19.9585 34.063L19.774 34.281L19.5895 34.5131L19.4764 34.65L19.2727 35.0191L19.2205 35.0929L18.9922 35.388L18.8515 35.6083L18.7215 35.757L18.4825 36.0774L18.4445 36.126L18.1902 36.4951L18.1135 36.5884L17.8847 36.8641L17.7444 37.0674L17.6066 37.2331L17.3754 37.4823L17.2335 37.6022L17.0321 37.9712L17.0064 38.0146L16.7397 38.3402L16.6374 38.4548L16.4186 38.7092L16.2684 38.9782L16.1857 39.0781L15.9076 39.4472L15.8994 39.4574L15.5503 39.8162L15.5304 39.828L15.3195 39.8162L15.1613 39.7997L14.7923 39.5931L14.6412 39.4472L14.4233 39.232L14.2639 39.0781L14.076 38.7092L14.0889 38.3402L14.2298 37.9712L14.3666 37.6022L14.4233 37.375L14.4792 37.2331L14.6991 36.8641L14.7923 36.5812L14.8321 36.4951L15.0112 36.126L15.1613 35.757L15.3669 35.388L15.5045 35.0191L15.5304 34.9545L15.6789 34.65L15.7681 34.281L15.8994 34.0456L15.9962 33.9121L16.1665 33.543L16.2684 33.282L16.3398 33.174L16.539 32.805L16.6374 32.5942L16.7237 32.4359L16.8685 32.0669L17.0064 31.8187L17.0987 31.6979L17.2714 31.3289L17.3754 31.1209L17.4821 30.9599L17.7035 30.5909L17.7444 30.522L17.9234 30.2219L18.1064 29.8528L18.1135 29.8417L18.3647 29.4838L18.3894 29.1148L18.244 28.7459L18.1135 28.6326L17.8506 28.3769L17.7444 28.2845L17.3754 28.0476L17.3227 28.0078L17.0064 27.7402L16.8966 27.6388L16.6374 27.356L16.5425 27.2698L16.2684 27.0635L16.0283 26.9007L15.8994 26.7584L15.6358 26.5317L15.5304 26.4484L15.1613 26.1671L15.1568 26.1627L14.7923 25.8645L14.7144 25.7937L14.4233 25.4817L14.3712 25.4247L14.0543 25.121L13.9869 25.0557L13.6853 24.7296L13.6414 24.6867L13.3163 24.3992L13.232 24.3176L12.9473 23.9981L12.9058 23.9487L12.5783 23.6339L12.5124 23.5796L12.2277 23.2106L12.2092 23.1829L11.8762 22.8416L11.8402 22.8095L11.6279 22.4725L11.4712 22.291L11.3323 22.1036L11.1022 21.7881L11.0459 21.7346L10.7332 21.5039L10.3642 21.4715L9.99521 21.6077L9.84481 21.7346L9.62611 21.9382L9.48301 22.1036L9.25711 22.3438L9.12181 22.4725L8.88811 22.685L8.75221 22.8416L8.51911 23.0499L8.29151 23.2106L8.15011 23.3412L7.96781 23.5796L7.78111 23.783L7.61551 23.9487L7.41211 24.1331L7.16411 24.3176L7.04311 24.3975L6.71701 24.6867L6.67401 24.7365L6.39941 25.0557L6.30501 25.1394L6.01371 25.4247L5.93601 25.5169L5.64851 25.7937L5.56701 25.8833L5.31631 26.1627L5.19801 26.3068L5.03061 26.5317L4.82901 26.776L4.69481 26.9007L4.46001 27.1392L4.33331 27.2698L4.09091 27.5158L3.96211 27.6388L3.72191 27.8352L3.37231 28.0078L3.35291 28.0148L3.22991 28.0078L2.98391 27.9819L2.61491 27.7756L2.40491 27.6388L2.24591 27.4969L1.99991 27.2698L1.87691 27.1447L1.70351 26.9007L1.50791 26.6842L1.38481 26.5317L1.18041 26.1627L1.13881 26.0073L1.10351 25.7937L1.07241 25.4247L0.995605 25.0557L1.03071 24.6867L1.13211 24.3176L1.13881 24.3012L1.33001 23.9487L1.50791 23.6701L1.58161 23.5796L1.86101 23.2106L1.87691 23.1914L2.17291 22.8416L2.24591 22.7186L2.40991 22.4725L2.61491 22.2247L2.73091 22.1036L2.98391 21.8391L3.11141 21.7346L3.35291 21.5055L3.46261 21.3655L3.72191 21.1027L3.85331 20.9965L4.09091 20.7505L4.18571 20.6275L4.46001 20.2585L4.79541 19.8895L4.82901 19.856L5.19801 19.6043L5.27281 19.5204L5.56701 19.2378L5.67591 19.1515L5.93601 18.9481L6.11291 18.7825L6.30501 18.6364L6.59821 18.4135L6.67401 18.3586L7.04311 18.0623L7.06351 18.0444L7.41211 17.8092L7.56721 17.6754L7.78111 17.515L8.08571 17.3064L8.15011 17.2665L8.51911 16.9649L8.56011 16.9373L8.88811 16.7406L9.08681 16.5683L9.25711 16.4677L9.62611 16.2703L9.73261 16.1993L9.99521 16.0459L10.326 15.8304L10.3642 15.81L10.7332 15.6269L10.9521 15.4614L11.1022 15.3753L11.4712 15.24L11.6938 15.0923L11.8402 14.9942L12.2092 14.7899L12.3182 14.7233L12.5783 14.5963L12.9473 14.4019L13.0143 14.3543L13.3163 14.2188L13.6853 14.0739L13.8363 13.9854L14.0543 13.8711L14.4233 13.6714L14.5133 13.6163L14.7923 13.5254L15.1613 13.4295L15.4551 13.2473L15.5304 13.2145L15.8994 13.1243L16.2684 12.9829L16.4234 12.8783L16.6374 12.7136L16.8299 12.5092L16.9204 12.1402L16.9306 11.7712L16.8821 11.4021L16.753 11.0332L16.6821 10.6641L16.6374 10.3958L16.626 10.2951L16.5746 9.92608L16.4898 9.55698L16.3796 9.18818L16.2684 8.86348L16.2588 8.81908L16.1986 8.45008L16.1503 8.08108L16.1176 7.71208L15.994 7.34308L15.9224 6.97398L15.8994 6.91498L15.8151 6.60498L15.7229 6.23598L15.6575 5.86688L15.6078 5.49788L15.562 5.12888L15.5304 4.81268L15.5269 4.75978L15.4445 4.39098L15.3792 4.02198L15.271 3.65298L15.1613 3.34068L15.1486 3.28388L15.0778 2.91488L15.0009 2.54588L14.9302 2.17678L14.8892 1.80778L15.1562 1.43878L15.1613 1.43518L15.5304 1.34838L15.8994 1.28918L16.2684 1.16648L16.6374 1.17768L16.9251 1.43878L17.0064 1.56178L17.0913 1.80778L17.1734 2.17678L17.3754 2.49118L17.402 2.54588L17.5356 2.91488L17.6546 3.28388L17.7444 3.49008L17.7993 3.65298L17.9098 4.02198L17.9921 4.39098L18.1135 4.56838L18.1913 4.75978L18.2596 5.12888L18.4173 5.49788L18.4825 5.62448L18.5673 5.86688L18.671 6.23598L18.7917 6.60498L18.8515 6.75768L18.9149 6.97398L19.0103 7.34308L19.2205 7.66868L19.241 7.71208L19.3259 8.08108L19.4574 8.45008L19.5895 8.77428L19.6047 8.81908L19.7237 9.18818L19.8663 9.55698L19.9585 9.75848L20.0088 9.92608L20.0974 10.2951L20.2835 10.6641L20.3275 10.7736L20.3991 11.0332L20.5964 11.4021L20.6965 11.5152L21.0656 11.7266L21.4346 11.735L21.8036 11.7024L22.1726 11.6317L22.5416 11.499L22.7603 11.4021L22.9106 11.3667L23.2796 11.2972L23.6487 11.2886L24.0177 11.2779L24.3867 11.2718L24.7557 11.2792L25.1247 11.2862V15.6417L24.7557 15.6789L24.3867 15.7438L24.0407 15.8304L24.0177 15.8342L23.6487 15.874L23.2796 15.9074L22.9106 15.9702L22.5416 16.0644L22.1726 16.1388L21.8036 16.1934L21.7626 16.1993L21.4346 16.2308L21.0656 16.2905L20.6965 16.3431L20.3275 16.5256L20.2045 16.5683L19.9585 16.6201L19.5895 16.6937L19.2205 16.7767L18.9102 16.9373L18.8515 16.9634L18.4825 17.1092L18.1135 17.2204L17.7649 17.3064L17.7444 17.3097L17.3754 17.4062L17.0064 17.4815L16.7262 17.6754L16.6374 17.7239L16.2684 17.8599L15.8994 18.0185L15.8666 18.0444L15.5429 18.4135L15.5304 18.4451L15.3708 18.7825L15.5065 19.1515L15.5304 19.1779L15.7672 19.5204L15.8994 19.715L16.0084 19.8895L16.2684 20.1988L16.3176 20.2585L16.6374 20.5856L16.6841 20.6275L17.0064 20.9812L17.019 20.9965L17.3754 21.3413L17.3976 21.3655L17.7041 21.7346L17.7444 21.7709L18.0867 22.1036L18.1135 22.132L18.4825 22.4246L18.541 22.4725L18.8515 22.7653L18.9335 22.8416L19.2205 23.1217L19.3775 23.2106L19.5895 23.3238L19.9585 23.5405L20.0093 23.5796L20.3275 23.8657L20.4124 23.9487L20.6965 24.2204L20.8073 24.3176L21.0656 24.5728L21.2219 24.6867L21.4346 24.8397L21.703 25.0557L21.8036 25.1579L22.1079 25.4247L22.1726 25.497L22.5416 25.7299L22.6515 25.7937L22.9106 25.9519L23.2796 26.1548L23.2924 26.1627L23.6487 26.378L23.9272 26.5317L24.0177 26.613L24.3867 26.8105L24.6043 26.9007L24.7557 26.993L25.1247 27.1927L25.3045 27.2698L25.4937 27.3737L25.8627 27.5436L26.119 27.6388L26.2317 27.7076L26.6008 27.9277L26.866 28.0078L26.9698 28.0546L27.3388 28.209L27.64 28.3769L27.7078 28.4331L28.0768 28.6084L28.4458 28.6894L28.6482 28.7459L28.8148 28.8207L29.1839 28.9519L29.5529 29.0931L29.7251 29.1148L29.9219 29.1596L30.2909 29.2378L30.6599 29.3362L31.0289 29.4695L31.0711 29.4838L31.3979 29.6343L31.7669 29.7176L32.136 29.7694L32.505 29.818L32.7264 29.8528L32.874 29.8969L33.243 30.0043L33.612 30.0598L33.981 30.09L34.35 30.1379L34.7191 30.1958L34.9539 30.2219L35.0881 30.2436L35.2989 30.2219L35.4571 30.2119L35.5801 30.2219L35.8261 30.254L36.1951 30.3199L36.5641 30.3711L36.9331 30.4025L37.3022 30.4137H37.6712L38.0402 30.4101L38.4092 30.4137L38.7782 30.4261L39.1472 30.4244L39.5162 30.3925L39.8853 30.3259L40.2543 30.2647L40.6233 30.2535L40.9923 30.2717L41.3613 30.276L41.7303 30.233L41.783 30.2219L42.0993 30.1753L42.4683 30.0931L42.8374 29.9944L43.2064 29.8713L43.2679 29.8528L43.5754 29.8052L43.9444 29.7771L44.3134 29.7052L44.6824 29.6616L45.0514 29.586L45.2805 29.4838L45.4205 29.4432L45.7895 29.3189L46.1585 29.2176L46.5115 29.1148L46.5275 29.1117L46.8965 29.05L47.2655 28.9049L47.6345 28.7834L47.696 28.7459L48.0036 28.6553L48.3726 28.5207L48.6537 28.3769L48.7416 28.3391L49.1106 28.1745L49.3542 28.0078L49.4796 27.851L49.5975 27.6388L49.5339 27.2698L49.4796 27.1912L49.3296 26.9007L49.1106 26.6077L49.0584 26.5317L48.7751 26.1627L48.7416 26.1266L48.4883 25.7937L48.3726 25.6554L48.229 25.4247L48.0036 25.1577L47.9016 25.0557L47.6345 24.7336L47.5957 24.6867L47.2655 24.3565L47.2341 24.3176L46.8965 23.957L46.8885 23.9487L46.5275 23.5953L46.5064 23.5796L46.1585 23.312L46.0537 23.2106L45.7895 22.9163L45.7039 22.8416L45.4205 22.6001L45.2564 22.4725L45.0514 22.3048L44.8166 22.1036L44.6824 21.9694L44.3134 21.7346L43.9444 21.3861L43.9102 21.3655L43.5754 21.1601L43.3273 20.9965L43.2064 20.8778L42.8374 20.6542L42.7882 20.6275L42.4683 20.4143L42.2526 20.2585L42.0993 20.1274L41.7303 19.9101L41.6996 19.8895L41.3613 19.6359L41.1354 19.5204L40.9923 19.4159L40.6233 19.1773L40.5736 19.1515L40.2543 18.9803L39.8853 18.8235L39.8171 18.7825L39.5162 18.5627L39.1472 18.4418L39.0642 18.4135L38.7782 18.2649L38.4092 18.1536L38.1952 18.0444L38.0402 17.9382L37.6712 17.7943L37.3469 17.6754L37.3022 17.649L36.9331 17.4719L36.5641 17.3734L36.1951 17.313L36.1734 17.3064L35.8261 17.1607L35.4571 17.0364L35.1978 16.9373L35.0881 16.8777L34.7191 16.757L34.35 16.7068L33.981 16.6351L33.7873 16.5683L33.612 16.4652L33.243 16.3654L32.874 16.2927L32.505 16.2463L32.1606 16.1993L32.136 16.1935L31.7669 16.1266L31.3979 16.0656L31.0289 16.032L30.6599 15.9999L30.2909 15.9449L29.9219 15.868L29.6847 15.8304L29.5529 15.8024L29.1839 15.8304L28.8148 15.7759L28.4458 15.7022L28.0768 15.6503L27.7078 15.6236L27.3388 15.6173L26.9698 15.6237L26.6008 15.6311L26.2317 15.6335L25.8627 15.6297L25.4937 15.6307L25.1247 15.6417V11.2862L25.4937 11.272L25.8627 11.2294L26.2317 11.1858L26.6008 11.1491H26.9698H27.3388H27.7078H28.0768H28.4458H28.8148H29.1839L29.5529 11.222L29.9219 11.2742L30.2909 11.2889L30.6599 11.2129L30.9017 11.0332L31.0289 10.8794L31.1705 10.6641L31.2973 10.2951L31.3296 9.92608L31.3875 9.55698L31.3979 9.50898L31.5049 9.18818L31.5976 8.81908L31.6642 8.45008L31.7072 8.08108L31.7331 7.71208L31.7669 7.61498L31.8945 7.34308L31.9682 6.97398L32.0606 6.60498L32.136 6.23598L32.2052 5.86688L32.2806 5.49788L32.3611 5.12888L32.4025 4.75978L32.5019 4.39098L32.505 4.36258L32.5692 4.02198L32.6872 3.65298L32.7883 3.28388L32.8352 2.91488L32.8709 2.54588L32.874 2.52908L32.9721 2.17678L33.0459 1.80778L33.1618 1.43878L33.243 1.06978L33.3836 0.700779L33.5321 0.331679L33.612 0.212479L33.981 0.0789795L34.35 0.153679L34.7191 0.248479L35.0222 0.331679L35.0881 0.363079L35.3198 0.700779L35.3661 1.06978L35.345 1.43878L35.33 1.80778L35.3279 2.17678L35.3406 2.54588L35.3581 2.91488L35.3455 3.28388L35.2951 3.65298L35.2265 4.02198L35.1916 4.39098L35.158 4.75978L35.1548 5.12888L35.1476 5.49788L35.1402 5.86688L35.1291 6.23598L35.125 6.60498L35.1175 6.97398L35.1171 7.34308L35.0881 7.46608L35.0173 7.71208L34.9635 8.08108L34.9245 8.45008L34.9311 8.81908L34.9592 9.18818L34.9458 9.55698L34.8813 9.92608L34.8298 10.2951L34.8097 10.6641L34.7975 11.0332L34.824 11.4021L34.9548 11.7712L35.0881 11.9558L35.3062 12.1402L35.4571 12.2325L35.8261 12.3555L36.1951 12.441L36.5074 12.5092L36.5641 12.5319L36.9331 12.6748L37.3022 12.785L37.6712 12.8783L38.0402 12.9776L38.4092 13.1281L38.7667 13.2473L38.7782 13.254L39.1472 13.4379L39.5162 13.5194L39.8853 13.6041L39.9142 13.6163L40.2543 13.8278L40.5291 13.9854L40.6233 14.0567L40.9923 14.2005L41.3322 14.3543L41.3613 14.373L41.5458 14.3543L41.7303 14.3428L42.0993 14.1499L42.2501 13.9854L42.454 13.6163L42.4683 13.6015L42.8262 13.2473L42.8374 13.2348L43.2064 12.8783L43.5119 12.5092L43.5754 12.4183L43.8043 12.1402L43.9444 11.9646L44.1112 11.7712L44.3134 11.4818L44.3822 11.4021L44.6824 11.0332L44.9556 10.6641L45.0514 10.5505L45.2339 10.2951L45.4205 10.0626L45.5628 9.92608L45.7895 9.55698L46.0441 9.18818L46.1585 9.04508L46.3738 8.81908L46.5275 8.64208L46.7073 8.45008L46.8965 8.19548L47.0218 8.08108L47.2655 7.74978L47.2889 7.71208L47.5645 7.34308L47.6345 7.25278L47.9134 6.97398L48.0036 6.83638L48.157 6.60498L48.3726 6.30968L48.4441 6.23598L48.6748 5.86688L48.7416 5.77478L49.0183 5.49788L49.1106 5.43328L49.4796 5.39408L49.6418 5.49788L49.8486 5.67528L50.0265 5.86688L50.2176 6.07848L50.3863 6.23598L50.5867 6.56978L50.5972 6.60498L50.5867 6.65758L50.4701 6.97398L50.3371 7.34308L50.2385 7.71208L50.2176 7.76238L50.0424 8.08108L49.9355 8.45008L49.8486 8.76318L49.8162 8.81908L49.5826 9.18818L49.4796 9.50438L49.4579 9.55698L49.3304 9.92608L49.222 10.2951L49.1106 10.4953L48.986 10.6641L48.8199 11.0332L48.7416 11.2222L48.6432 11.4021L48.4648 11.7712L48.3726 11.9383L48.228 12.1402L48.0976 12.5092L48.0036 12.7618L47.9344 12.8783L47.7499 13.2473L47.6345 13.4247L47.5173 13.6163L47.3438 13.9854L47.2655 14.1287L47.1152 14.3543L46.9812 14.7233L46.8965 14.9539L46.81 15.0923L46.6054 15.4614L46.5275 15.6283L46.4062 15.8304L46.3011 16.1993L46.1585 16.4845L46.1017 16.5683L46.0949 16.9373L46.1585 17.0692L46.2436 17.3064L46.5275 17.5867L46.6736 17.6754L46.8965 17.8182L47.1259 18.0444L47.2655 18.1618L47.5423 18.4135L47.6345 18.5236L48.0036 18.7462L48.0563 18.7825L48.3726 19.0724L48.4717 19.1515L48.7416 19.3668L48.9681 19.5204L49.1106 19.6581L49.3002 19.8895L49.4796 20.0852L49.6996 20.2585L49.8486 20.3796L50.0753 20.6275L50.2176 20.7784L50.4793 20.9965L50.5867 21.0888L50.8197 21.3655L50.9557 21.5407L51.1082 21.7346L51.3247 21.9375L51.4536 22.1036L51.6937 22.3877L51.7848 22.4725L52.0627 22.8137L52.0841 22.8416L52.4317 23.1974L52.4415 23.2106L52.6876 23.5796L52.8007 23.7166L52.9432 23.9487L53.1697 24.2383L53.2387 24.3176L53.5388 24.6677L53.557 24.6867L53.9078 25.0419L53.9287 25.0557L54.2768 25.2348L54.6458 25.1875L54.8334 25.0557L55.0148 24.922L55.2957 24.6867L55.3838 24.6146L55.7317 24.3176L55.7528 24.3028L56.1219 24.0307L56.2175 23.9487L56.4909 23.7106L56.6177 23.5796L56.8599 23.3859L57.0574 23.2106L57.2289 23.0289L57.4219 22.8416L57.5979 22.7294L57.8796 22.4725L57.9669 22.3952L58.286 22.1036L58.3359 22.0464L58.6676 21.7346L58.705 21.6982L59.0218 21.3655L59.074 21.3158L59.3762 20.9965L59.443 20.9191L59.7621 20.6275L59.812 20.5866L60.1364 20.2585L60.181 20.2058L60.478 19.8895L60.55 19.8246L60.861 19.5204L60.919 19.4661L61.2272 19.1515L61.288 19.0803L61.605 18.7825L61.6571 18.7341L61.9703 18.4135L62.0261 18.3694L62.3951 18.3537L62.5231 18.4135L62.7641 18.5846L62.9843 18.7825L63.1331 18.8978L63.4316 19.1515L63.5021 19.2314L63.7689 19.5204L63.8711 19.6435L64.0482 19.8895L64.2402 20.1376L64.3147 20.2585L64.6092 20.5841L64.6433 20.6275L64.8823 20.9965L64.9782 21.2804L64.9956 21.3655L64.9782 21.4107L64.7915 21.7346L64.6092 22.0113L64.5272 22.1036L64.2402 22.4323L64.2032 22.4725L63.8711 22.8161L63.8484 22.8416L63.5907 23.2106L63.5021 23.3135L63.2507 23.5796L63.1331 23.7283L62.9372 23.9487L62.7641 24.1461L62.6119 24.3176L62.3951 24.5886L62.2922 24.6867L62.0261 25.0115L61.9935 25.0557L61.6571 25.3607L61.5729 25.4247L61.288 25.6908L61.1817 25.7937L60.919 25.9976L60.7495 26.1627L60.55 26.3473L60.3392 26.5317L60.181 26.6483L59.9084 26.9007L59.812 26.992L59.4629 27.2698L59.443 27.284L59.074 27.579L58.9817 27.6388L58.705 27.8233L58.5334 28.0078L58.3359 28.148L58.0463 28.3769L57.9669 28.4415L57.5979 28.7459L57.2289 29.008L57.0979 29.1148L56.8599 29.267L56.555 29.4838L56.4909 29.5241L56.1219 29.7431L55.9769 29.8528L55.7528 29.9864L55.3838 30.2155L55.3766 30.2219L55.0148 30.4646L54.7967 30.5909L54.6458 30.656L54.2768 30.8545L54.1375 30.9599L53.9078 31.0805L53.5388 31.2541L53.41 31.3289L53.1697 31.4365L52.8113 31.6979L52.8007 31.7039L52.4317 31.7845L52.0627 32.0054L51.9889 32.0669L51.6937 32.1942L51.3247 32.2869L50.9557 32.3985L50.8858 32.4359L50.5867 32.5633L50.2176 32.7066L50.0068 32.805L49.8486 32.8531L49.4796 32.916L49.1106 33.0399L48.881 33.174L48.7416 33.243L48.3726 33.3823L48.0036 33.472L47.7986 33.543L47.6345 33.5983L47.2655 33.8691L47.238 33.9121L47.1455 34.281L47.1846 34.65L47.2655 34.8771L47.3056 35.0191L47.4477 35.388L47.622 35.757L47.6345 35.7826L47.744 36.126L47.8981 36.4951L48.0036 36.7411L48.0401 36.8641L48.19 37.2331L48.2632 37.6022L48.3726 37.8878L48.3965 37.9712L48.4906 38.3402L48.5592 38.7092L48.6235 39.0781L48.7012 39.4472L48.7416 39.6624L48.7569 39.8162L48.8251 40.1852L48.8867 40.5543L48.9825 40.9232L49.0587 41.2923L49.1106 41.5295L49.1287 41.6612L49.2119 42.0303L49.322 42.3993L49.4341 42.7683L49.4796 42.896L49.5405 43.1374L49.5698 43.5064L49.5949 43.8754L49.669 44.2444L49.7445 44.6134L49.5718 44.9824L49.4796 45.0498L49.1106 45.2152L48.8173 45.3514L48.7416 45.3853L48.4136 45.3514L48.3726 45.3455L48.0036 44.9876L48.0001 44.9824L47.8405 44.6134L47.6345 44.3408L47.5775 44.2444L47.4196 43.8754L47.2655 43.6057L47.2081 43.5064L46.903 43.1374L46.8965 43.1295L46.7215 42.7683L46.5275 42.4198L46.5158 42.3993L46.3017 42.0303L46.1585 41.7333L46.1316 41.6612L45.9803 41.2923L45.7895 40.9667L45.7704 40.9232L45.6396 40.5543L45.47 40.1852L45.4205 40.0814L45.3251 39.8162L45.2001 39.4472L45.0514 39.204L44.9987 39.0781L44.8601 38.7092L44.6824 38.382L44.6643 38.3402L44.534 37.9712L44.4032 37.6022L44.3134 37.3134L44.2953 37.2331L44.0863 36.8641L43.9444 36.4951L43.8164 36.126L43.7048 35.757L43.5754 35.464L43.5435 35.388L43.231 35.0191L43.2064 34.9989L42.8374 34.773L42.4683 34.7299L42.0993 34.7532L41.7303 34.7837L41.3613 34.8827L40.9923 34.9915L40.7873 35.0191L40.6233 35.032L40.2543 35.0751L39.8853 35.1212L39.5162 35.1553L39.1472 35.1686L38.7782 35.1681L38.4092 35.1647L38.0402 35.1653H37.6712H37.3022H36.9331H36.5641H36.1951H35.8261H35.4571L35.0881 35.1544L34.7191 35.1766L34.35 35.3345L34.2836 35.388L34.0168 35.757L33.981 35.9416L33.9315 36.126L33.8535 36.4951L33.8077 36.8641L33.7794 37.2331L33.7456 37.6022L33.6994 37.9712L33.6554 38.3402L33.612 38.5985L33.5774 38.7092L33.4443 39.0781L33.3332 39.4472L33.2728 39.8162L33.243 39.9802L33.1932 40.1852L33.1274 40.5543L33.0224 40.9232L32.9187 41.2923L32.874 41.4935L32.8197 41.6612L32.7413 42.0303L32.6561 42.3993L32.5874 42.7683L32.505 43.0319L32.4537 43.1374L32.3302 43.5064L32.1921 43.8754L32.136 44.1792L32.1194 44.2444L31.985 44.6134L31.8466 44.9824L31.7669 45.1854L31.6647 45.3514L31.4727 45.7204L31.3979 45.7952L31.0289 45.921L30.6599 45.8408L30.5299 45.7204Z" fill="white"/>
</svg>
