<svg width="65" height="64" viewBox="0 0 65 64" fill="none" xmlns="http://www.w3.org/2000/svg">
<g clip-path="url(#clip0)">
<path d="M7.81131 25.5172L10.2964 24.6357L11.9675 24.2776L11.9027 22.3749L12.3071 20.6742L13.1694 18.8386L14.3181 17.4545L15.5794 16.207L17.773 15.225L20.3093 14.5792L22.6939 14.4846L25.1655 14.7105L26.94 15.4258L28.553 16.27L30.125 17.3585L31.7094 15.7907L32.4147 15.1844L33.8901 14.1814L35.4593 13.5562L36.9642 12.8456L39.0865 12.3532L41.4873 12.1444L43.8136 12.1767L46.1559 12.4467L48.1685 12.9343L49.828 13.8939L50.5713 14.3437L51.9133 15.3689L53.1175 16.5481L54.1878 18.5774L55.289 21.0392L56.0487 23.3324L58.3029 23.9149L59.8205 24.6382L61.5007 25.7953L62.616 27.0986L63.5164 28.4767L64.3486 30.1836L64.8144 32.2186L64.9956 34.626L64.8255 37.0162L64.3684 39.1316L63.591 40.7314L62.6635 42.2497L61.6089 43.4599L60.1342 44.7833L58.8602 45.6443L57.4187 46.4878L55.0245 47.3384L52.7856 47.8702L50.3496 48.0144L47.9841 47.8233L46.1087 47.386L44.2592 46.5665L42.9987 45.8596L42.053 45.4129L40.9534 47.1306L39.8681 48.4764L38.5725 49.5957L37.1704 50.6216L35.2203 51.3277L32.7268 51.8556L30.2596 51.6935L27.8881 51.2688L26.6023 49.88L27.5722 46.9394L28.9327 47.4694L30.5564 47.8741L32.5335 47.862L34.3346 47.3712L36.2297 46.346L37.6817 44.8491L38.7217 42.9421L39.0857 41.4908L40.1974 39.6159L42.2956 39.6557L43.8371 41.2764L44.8006 42.2229L46.3925 43.1085L48.6727 43.8239L50.4136 44.2124L52.2165 43.9083L54.4568 43.4999L55.758 42.8719L57.3854 41.951L58.8996 40.5329L60.093 38.602L60.6939 36.565L61.0607 35.4304L61.063 33.6683L60.7651 32.3914L60.1253 30.6216L58.8237 28.8435L57.6394 28.034L56.2479 26.9375L55.6738 28.4347L55.0058 29.8582L53.9359 31.5561L51.866 33.4677L50.5465 34.1809L48.4563 34.9393L46.1984 35.3187L44.1141 35.5071L43.4613 34.3606L41.7518 34.7347L40.1703 34.1571L38.7081 33.0068L37.5452 31.56L36.7898 29.4442L36.3478 27.8107L36.3914 25.869L36.9635 24.6204L37.8075 23.2148L39.4584 22.0657L41.2723 21.392L43.8315 21.2696L46.1742 21.8643L47.5923 23.2447L48.2658 24.96L48.3788 26.55L47.1812 28.5768L45.4465 28.4256L44.4502 26.1229L43.0936 25.1938L41.0584 25.9163L40.3666 27.048L40.635 28.8013L41.5945 30.105L42.977 30.9852L44.86 31.3846L46.9037 31.2365L48.7779 30.7749L51.1389 28.6613L51.7698 26.6293L52.0422 25.1219L51.5891 22.6783L50.938 20.8846L49.8108 18.9352L48.5457 17.7875L47.4249 17.0492L45.7793 16.5279L44.523 16.0456L42.6212 15.9652L40.6003 16.0198L38.7966 16.5696L36.5191 17.3901L34.6892 18.5684L33.5614 19.8424L32.7806 20.9753L31.6738 22.6696L29.5592 23.6393L28.2366 22.0028L27.2848 20.6127L25.6945 19.2096L23.6337 18.4792L21.6955 18.3577L19.9741 18.8032L17.9264 19.6613L16.7542 20.9346L16.1609 21.8808L15.993 23.4824L16.3188 24.9463L16.9998 25.9536L16.9367 27.934L15.8948 29.0632L13.6241 28.4877L11.7499 28.2927L10.053 28.7829L8.46441 29.5936L7.40271 30.4815L5.48931 33.0276L4.96271 34.7899L4.99081 36.6235L5.59671 38.2742L6.60111 39.6768L7.87881 40.9861L9.72311 42.1118L12.0025 42.92L13.8136 43.2898L15.7432 42.9694L17.5506 42.0185L18.8211 40.9489L19.7201 39.7693L21.0308 38.9501L22.4182 39.8812L23.2507 42.1857L24.0949 44.031L25.7155 45.825L27.5722 46.9394L26.6023 49.88L24.3874 49.8185L22.9894 48.7203L22.3076 48.1908L21.1982 46.9672L20.0863 45.3962L18.2205 46.3279L16.2415 46.9102L13.7995 47.0968L11.368 46.8814L8.98611 46.1876L6.82141 45.2207L5.47271 44.1889L4.19351 43.0842L3.12551 41.7965L2.10601 40.3561L1.38561 38.269L0.995605 35.7307L1.41721 33.1975L2.04411 31.149L2.87581 29.8539L4.40261 27.7554L5.93621 26.6515" fill="white"/>
</g>
<defs>
<clipPath id="clip0">
<rect width="64" height="64" fill="white" transform="translate(0.995605)"/>
</clipPath>
</defs>
</svg>
