<svg width="65" height="64" viewBox="0 0 65 64" fill="none" xmlns="http://www.w3.org/2000/svg">
<path fill-rule="evenodd" clip-rule="evenodd" d="M36.9961 24H28.9961V16H24.9961V24H16.9961V28H24.9961V36H28.9961V28H36.9961V24V24ZM48.9961 26C48.9995 31.1227 47.1916 36.0816 43.8919 40L58.9961 55.1718L56.1679 58L40.9961 42.8958C37.0777 46.1955 32.1188 48.0034 26.9961 48C14.8458 48 4.99609 38.1503 4.99609 26C4.99609 13.8497 14.8458 4 26.9961 4C39.1464 4 48.9961 13.8497 48.9961 26ZM8.99609 26C8.99609 35.9411 17.055 44 26.9961 44C36.9327 43.989 44.9851 35.9366 44.9961 26C44.9961 16.0589 36.9372 8 26.9961 8C17.055 8 8.99609 16.0589 8.99609 26Z" fill="white"/>
</svg>
