<svg width="64" height="64" viewBox="0 0 64 64" fill="none" xmlns="http://www.w3.org/2000/svg">
<path fill-rule="evenodd" clip-rule="evenodd" d="M8 8V56H56V8H8ZM47.877 19.373L45.3028 21.84C45.0809 22.0092 44.9708 22.2873 45.0166 22.5626V40.6974C44.9707 40.9727 45.0809 41.2508 45.3028 41.42L47.8168 43.8878V44.4298H35.1708V43.8878L37.7754 41.36C38.0312 41.104 38.0312 41.0288 38.0312 40.6382V25.98L30.7912 44.3716H29.812L21.3814 25.98V38.3062C21.3114 38.8243 21.4835 39.3458 21.8482 39.7204L25.2354 43.8298V44.3716H15.6308V43.8298L19.018 39.72C19.3801 39.3448 19.5421 38.8198 19.4546 38.3058V24.0528C19.4948 23.6571 19.3437 23.2659 19.0478 23L16.0372 19.373V18.831H25.3858L32.6118 34.6788L38.9648 18.831H47.877V19.373Z" fill="white"/>
<path opacity="0.01" fill-rule="evenodd" clip-rule="evenodd" d="M19.4547 24.0535C19.4945 23.6577 19.3435 23.2666 19.0481 23.0003L16.0373 19.3729V18.8311H25.3861L32.6121 34.6787L38.9649 18.8311H47.8771V19.3729L45.3027 21.8403C45.0808 22.0094 44.9707 22.2875 45.0167 22.5627V40.6979C44.9707 40.9731 45.0808 41.2511 45.3027 41.4203L47.8169 43.8885V44.4303H35.1713V43.8885L37.7757 41.3603C38.0315 41.1045 38.0315 41.0291 38.0315 40.6379V25.9803L30.7915 44.3713H29.8129L21.3815 25.9803V38.3061C21.3113 38.8243 21.4835 39.3461 21.8483 39.7209L25.2355 43.8295V44.3713H15.6309V43.8295L19.0181 39.7203C19.3803 39.3449 19.5424 38.8197 19.4547 38.3055V24.0535Z" fill="white"/>
</svg>
