<svg width="64" height="64" viewBox="0 0 64 64" fill="none" xmlns="http://www.w3.org/2000/svg">
<path fill-rule="evenodd" clip-rule="evenodd" d="M32 8C25.482 8 24.6646 8.0276 22.1048 8.1444C20.1141 8.18437 18.1446 8.56158 16.28 9.26C13.0557 10.5069 10.5069 13.0557 9.26 16.28C8.56147 18.1449 8.18425 20.1148 8.1444 22.1058C8.0276 24.6646 8 25.482 8 32C8 38.518 8.0276 39.3354 8.1444 41.8952C8.18428 43.8862 8.56149 45.8561 9.26 47.721C10.5069 50.9453 13.0557 53.4941 16.28 54.741C18.1449 55.4395 20.1148 55.8167 22.1058 55.8566C24.6646 55.9724 25.482 56 32 56C38.518 56 39.3354 55.9724 41.8952 55.8556C43.8862 55.8157 45.8561 55.4385 47.721 54.74C50.9453 53.4931 53.4941 50.9443 54.741 47.72C55.4395 45.8551 55.8167 43.8852 55.8566 41.8942C55.9724 39.3354 56 38.518 56 32C56 25.482 55.9724 24.6646 55.8556 22.1048C55.8156 20.1141 55.4384 18.1446 54.74 16.28C53.4929 13.0561 50.9441 10.5076 47.72 9.261C45.8551 8.56249 43.8852 8.18528 41.8942 8.1454C39.3354 8.0276 38.518 8 32 8ZM32 12.3244C38.4082 12.3244 39.1674 12.3488 41.698 12.4644C43.2199 12.4825 44.7274 12.7621 46.1546 13.2908C48.2475 14.0984 49.9018 15.7527 50.7094 17.8456C51.2381 19.2728 51.5177 20.7803 51.5358 22.3022C51.6512 24.8328 51.6758 25.592 51.6758 32.0002C51.6758 38.4084 51.6514 39.1676 51.5358 41.6982C51.5177 43.2201 51.2381 44.7276 50.7094 46.1548C49.9018 48.2477 48.2475 49.902 46.1546 50.7096C44.7274 51.2383 43.2199 51.5179 41.698 51.536C39.1676 51.6514 38.4088 51.676 32 51.676C25.5912 51.676 24.8324 51.6516 22.302 51.536C20.7801 51.5179 19.2726 51.2383 17.8454 50.7096C15.7525 49.902 14.0982 48.2477 13.2906 46.1548C12.7619 44.7276 12.4823 43.2201 12.4642 41.6982C12.3488 39.1676 12.3242 38.4084 12.3242 32.0002C12.3242 25.592 12.3486 24.8328 12.4642 22.3022C12.4823 20.7803 12.7619 19.2728 13.2906 17.8456C14.0981 15.7526 15.7524 14.0982 17.8454 13.2906C19.2726 12.7619 20.7801 12.4823 22.302 12.4642C24.8326 12.3488 25.5918 12.3242 32 12.3242V12.3244ZM47.6912 19.1888C47.6912 20.7794 46.4018 22.0688 44.8112 22.0688C43.2206 22.0688 41.9312 20.7794 41.9312 19.1888C41.9312 17.5982 43.2206 16.3088 44.8112 16.3088C46.4018 16.3088 47.6912 17.5982 47.6912 19.1888ZM19.6756 32C19.6756 25.1934 25.1934 19.6756 32 19.6756C38.8066 19.6756 44.3244 25.1934 44.3244 32C44.3244 38.8066 38.8066 44.3244 32 44.3244C25.1934 44.3244 19.6756 38.8066 19.6756 32ZM24 32C24 36.4183 27.5817 40 32 40C34.1217 40 36.1566 39.1571 37.6569 37.6569C39.1571 36.1566 40 34.1217 40 32C40 27.5817 36.4183 24 32 24C27.5817 24 24 27.5817 24 32Z" fill="white"/>
</svg>
