<svg width="65" height="64" viewBox="0 0 65 64" fill="none" xmlns="http://www.w3.org/2000/svg">
<path fill-rule="evenodd" clip-rule="evenodd" d="M52.9961 28H48.9961V32H52.9961C56.3083 32.0036 58.9925 34.6878 58.9961 38V46H62.9961V38C62.9897 32.4798 58.5163 28.0064 52.9961 28ZM38.9961 14C38.9961 8.47715 43.4732 4 48.9961 4C51.6483 4 54.1918 5.05357 56.0672 6.92893C57.9425 8.8043 58.9961 11.3478 58.9961 14C58.9961 19.5228 54.5189 24 48.9961 24C43.4732 24 38.9961 19.5228 38.9961 14ZM54.9961 14C54.9961 10.6863 52.3098 8 48.9961 8C45.6824 8 42.9961 10.6863 42.9961 14C42.9961 17.3137 45.6824 20 48.9961 20C52.3098 20 54.9961 17.3137 54.9961 14ZM46.9961 60H42.9961V56C42.9925 52.6878 40.3083 50.0036 36.9961 50H28.9961C25.6839 50.0036 22.9997 52.6878 22.9961 56V60H18.9961V56C19.0026 50.4798 23.4759 46.0065 28.9961 46H36.9961C42.5162 46.0065 46.9896 50.4798 46.9961 56V60ZM22.9961 32C22.9961 26.4772 27.4732 22 32.9961 22C35.6483 22 38.1918 23.0536 40.0672 24.9289C41.9425 26.8043 42.9961 29.3478 42.9961 32C42.9961 37.5228 38.5189 42 32.9961 42C27.4732 42 22.9961 37.5228 22.9961 32ZM38.9961 32C38.9961 28.6863 36.3098 26 32.9961 26C29.6824 26 26.9961 28.6863 26.9961 32C26.9961 35.3137 29.6824 38 32.9961 38C36.3098 38 38.9961 35.3137 38.9961 32ZM16.9961 28H12.9961C7.47594 28.0065 3.0026 32.4798 2.99609 38V46H6.99609V38C6.99973 34.6878 9.68389 32.0036 12.9961 32H16.9961V28ZM6.99609 14C6.99609 8.47715 11.4732 4 16.9961 4C19.6483 4 22.1918 5.05357 24.0672 6.92893C25.9425 8.8043 26.9961 11.3478 26.9961 14C26.9961 19.5228 22.5189 24 16.9961 24C11.4732 24 6.99609 19.5228 6.99609 14ZM22.9961 14C22.9961 10.6863 20.3098 8 16.9961 8C13.6824 8 10.9961 10.6863 10.9961 14C10.9961 17.3137 13.6824 20 16.9961 20C20.3098 20 22.9961 17.3137 22.9961 14Z" fill="white"/>
</svg>
