<svg width="65" height="64" viewBox="0 0 65 64" fill="none" xmlns="http://www.w3.org/2000/svg">
<path fill-rule="evenodd" clip-rule="evenodd" d="M32.9961 38C28.3038 38.0039 23.9224 35.6538 21.3301 31.7426L24.6621 29.5278C26.5152 32.3209 29.6442 34 32.9961 34C36.348 34 39.477 32.3209 41.3301 29.5278L44.6621 31.7426C42.0698 35.6538 37.6884 38.0039 32.9961 38ZM40.9961 16C38.787 16 36.9961 17.7909 36.9961 20C36.9961 22.2091 38.787 24 40.9961 24C43.2052 24 44.9961 22.2091 44.9961 20C45.0066 18.936 44.5885 17.9124 43.8361 17.16C43.0836 16.4076 42.0601 15.9895 40.9961 16V16ZM24.9961 16C22.787 16 20.9961 17.7909 20.9961 20C20.9961 22.2091 22.787 24 24.9961 24C27.2052 24 28.9961 22.2091 28.9961 20C29.0066 18.936 28.5885 17.9124 27.8361 17.16C27.0836 16.4076 26.0601 15.9895 24.9961 16V16ZM36.4677 60L32.9961 58L40.9961 44H52.9961C54.0575 44.0018 55.076 43.581 55.8265 42.8304C56.5771 42.0799 56.9979 41.0614 56.9961 40V12C56.9979 10.9386 56.5771 9.92011 55.8265 9.16958C55.076 8.41904 54.0575 7.99819 52.9961 8H12.9961C11.9347 7.99819 10.9162 8.41904 10.1657 9.16958C9.41513 9.92011 8.99429 10.9386 8.99609 12V40C8.99429 41.0614 9.41513 42.0799 10.1657 42.8304C10.9162 43.581 11.9347 44.0018 12.9961 44H30.9961V48H12.9961C10.8742 48.0004 8.8392 47.1576 7.33883 45.6573C5.83846 44.1569 4.99572 42.1218 4.99609 40V12C4.99546 9.87807 5.83811 7.84287 7.33854 6.34244C8.83897 4.84201 10.8742 3.99936 12.9961 4H52.9961C55.118 3.99936 57.1532 4.84201 58.6537 6.34244C60.1541 7.84287 60.9967 9.87807 60.9961 12V40C60.9965 42.1218 60.1537 44.1569 58.6534 45.6573C57.153 47.1576 55.1179 48.0004 52.9961 48H43.3253L36.4677 60Z" fill="white"/>
</svg>
