<svg width="65" height="64" viewBox="0 0 65 64" fill="none" xmlns="http://www.w3.org/2000/svg">
<path fill-rule="evenodd" clip-rule="evenodd" d="M4.99561 32C4.99561 16.536 17.5316 4 32.9956 4C40.4217 4 47.5436 6.94999 52.7946 12.201C58.0456 17.452 60.9956 24.5739 60.9956 32C60.9956 47.464 48.4596 60 32.9956 60C17.5316 60 4.99561 47.464 4.99561 32ZM56.9956 32C56.9956 18.7452 46.2504 8 32.9956 8C19.7408 8 8.99561 18.7452 8.99561 32C8.99561 45.2548 19.7408 56 32.9956 56C46.2504 56 56.9956 45.2548 56.9956 32Z" fill="white"/>
<path d="M51.5761 38.3856C50.1887 39.978 48.3169 41.1213 46.2186 41.6579C44.1203 42.1945 41.8989 42.098 39.8606 41.3817C37.8224 40.6653 36.0676 39.3645 34.8382 37.6584C33.6089 35.9524 32.9655 33.9252 32.9967 31.8562C33.0279 29.7873 33.7323 27.7785 35.0126 26.1068C36.293 24.4352 38.0863 23.1829 40.1454 22.5227C42.2044 21.8625 44.4278 21.8268 46.509 22.4207C48.5902 23.0145 50.4268 24.2086 51.7655 25.8383L48.1464 28.5348C47.3935 27.6183 46.3607 26.9468 45.1903 26.6128C44.0199 26.2789 42.7695 26.2989 41.6115 26.6702C40.4535 27.0415 39.445 27.7457 38.725 28.6858C38.0049 29.6259 37.6088 30.7556 37.5913 31.9191C37.5737 33.0827 37.9355 34.2227 38.6269 35.1822C39.3183 36.1416 40.3051 36.8732 41.4514 37.276C42.5977 37.6789 43.8469 37.7331 45.0269 37.4314C46.207 37.1296 47.2597 36.4866 48.0399 35.5911L51.5761 38.3856Z" fill="white"/>
<path d="M30.6913 38.3856C29.37 39.978 27.5873 41.1213 25.5889 41.6579C23.5906 42.1945 21.4749 42.098 19.5337 41.3817C17.5925 40.6653 15.9213 39.3645 14.7505 37.6584C13.5797 35.9524 12.9669 33.9252 12.9966 31.8562C13.0264 29.7873 13.6972 27.7785 14.9166 26.1068C16.136 24.4352 17.8439 23.1829 19.8049 22.5227C21.7659 21.8625 23.8834 21.8268 25.8655 22.4207C27.8476 23.0145 29.5967 24.2086 30.8717 25.8383L27.4249 28.5348C26.7079 27.6183 25.7243 26.9468 24.6096 26.6128C23.4949 26.2789 22.304 26.2989 21.2012 26.6702C20.0984 27.0415 19.1379 27.7457 18.4522 28.6858C17.7664 29.6259 17.3892 30.7556 17.3724 31.9191C17.3557 33.0827 17.7003 34.2227 18.3587 35.1822C19.0172 36.1416 19.957 36.8732 21.0487 37.276C22.1404 37.6789 23.3302 37.7331 24.454 37.4314C25.5779 37.1296 26.5804 36.4866 27.3235 35.5911L30.6913 38.3856Z" fill="white"/>
</svg>
