<?xml version="1.0" encoding="utf-8"?>
<!-- Generator: Adobe Illustrator 25.4.1, SVG Export Plug-In . SVG Version: 6.00 Build 0)  -->
<svg version="1.1" xmlns="http://www.w3.org/2000/svg" xmlns:xlink="http://www.w3.org/1999/xlink" x="0px" y="0px"
	 viewBox="0 0 864 864" style="enable-background:new 0 0 864 864;" xml:space="preserve">
<style type="text/css">
	.st0{fill:#FFFFFF;}
</style>
<g id="Layer_2">
	<rect x="0" width="864" height="864"/>
</g>
<g id="Layer_1">
	<g>
		<path class="st0" d="M746.3,307.2c0-28.1-3.7-73.7-12-112.5C723.2,142.4,707.8,118,686,118c-23.7,0-35.9,26.4-49.9,56.9
			c-11,24-23.1,50.1-41.1,67.2c-41.2-39.7-97.3-64.2-159-64.2c-77.8,0-146.5,38.7-188,98l-16.5-4.9c-4.9-1.5-10.2,0.2-13.4,4.2
			c-3.2,4-3.6,9.5-1.1,14c3.1,5.4,6.9,13,10.7,21.9c-13.5,29.2-21.1,61.8-21.1,96.1c0,1.5,0,3,0.1,4.5
			c-18.1-10.5-39.4-31.4-51.7-45.9c-4-4.8-11-5.9-16.3-2.5c-5.3,3.3-7.3,10.1-4.8,15.8c0.1,0.3,14.8,32.9,28.1,68.2
			c22.3,59.3,22.1,76.1,21.6,79.8c-9.8,7.6-35.4,8.2-51.2,6.2c-4.8-0.6-9.6,1.6-12.2,5.6c-2.6,4.1-2.7,9.3-0.1,13.4l117.5,187.8
			c2.1,3.3,5.6,5.5,9.5,5.8c0.4,0,0.7,0,1.1,0c3.5,0,6.9-1.5,9.3-4.1l105.9-117c22.7,7.6,47.1,11.7,72.4,11.7
			c83.8,0,157.1-45,197.1-112.2C725.2,496.3,746.3,361.2,746.3,307.2z M616.4,502.6c-3.3,0.6-6.7,1.1-10.1,1.4
			c-33.4,2.8-62,9.7-85,15.3c-28.2,6.8-50.4,12.2-60.2,4.6c-7.9-6.1-12.4-23.8-13.1-52.4v-6.1c0.8-31.1,16.2-71.5,41.8-109.4
			c26-38.5,57.5-66.3,82.2-72.7c7.1-1.8,13.7-4.5,19.8-7.8c30.1,35.6,48.3,81.6,48.3,131.7C640.1,441.7,631.5,474.1,616.4,502.6z
			 M255.2,312.4c1.3-2.4,2.5-4.7,3.9-7.1l163.7,48.5v112.9c0,0.1,0,0.2,0,0.3V522l-66.3,73.3c-62.9-26.7-109.7-84-121.7-153.1
			c6-1.6,11.3-4.7,15.7-9.4C280.9,400.7,268.7,347.6,255.2,312.4z M565.7,259c-42.1,10.9-89.5,62.5-117.8,118.7V203.5
			c48.2,2.8,91.9,22.4,125.4,53C570.9,257.4,568.4,258.3,565.7,259z M422.8,203.5v124.1l-149.1-44.1
			C308.5,238,362.1,207.4,422.8,203.5z M232.3,415.5c-0.1,0.1-0.2,0.2-0.3,0.3c-0.1-2.8-0.2-5.7-0.2-8.5c0-20.4,3-40,8.6-58.6
			C246.5,373.8,247.1,399.9,232.3,415.5z M250.2,712.7l-96.1-153.5c16.1-0.5,36.1-3.7,48-15c8.1-7.8,14.3-22.5-14.4-100.3
			c-2.5-6.8-5.1-13.6-7.7-20.1c10.5,7.8,20.2,13.3,29.1,16.4c11.2,77.5,61.2,142.5,129.7,174.6L250.2,712.7z M422.8,559.4v51.5
			c-13.9-0.9-27.5-3.2-40.5-6.7L422.8,559.4z M448,611v-65.7c7.9,5.3,16.9,7.4,27.1,7.4c14.6,0,31.7-4.1,52.1-9.1
			c21-5.1,44.4-10.7,71.8-13.7C563.9,576.4,509.6,607.4,448,611z M650.6,487.9c9.4-25.1,14.6-52.3,14.6-80.6
			c0-55.8-20-107-53.1-146.7c21.6-20.5,35.1-49.8,46.7-75.1c8.2-17.9,19.5-42.3,27.1-42.3c0.1,0,12.4,3.3,23.8,56.8
			c7.9,37,11.4,80.6,11.4,107.3C721.2,346.9,707.1,448,650.6,487.9z"/>
		<path class="st0" d="M333.7,407.4c-23.7,0-43,19.2-43,43c0,23.7,19.2,43,43,43c23.7,0,43-19.2,43-43
			C376.7,426.6,357.5,407.4,333.7,407.4z M339,477.7c-16.5,0-29.9-13.4-29.9-29.9c0-16.5,13.4-29.9,29.9-29.9
			c16.5,0,29.9,13.4,29.9,29.9C368.9,464.3,355.5,477.7,339,477.7z"/>
		<path class="st0" d="M537,407.4c-23.7,0-43,19.2-43,43c0,23.7,19.2,43,43,43c23.7,0,43-19.2,43-43
			C580,426.6,560.7,407.4,537,407.4z M542.2,477.7c-16.5,0-29.9-13.4-29.9-29.9c0-16.5,13.4-29.9,29.9-29.9
			c16.5,0,29.9,13.4,29.9,29.9C572.2,464.3,558.8,477.7,542.2,477.7z"/>
	</g>
</g>
</svg>
