<?xml version="1.0" encoding="utf-8"?>
<!-- Generator: Adobe Illustrator 25.4.1, SVG Export Plug-In . SVG Version: 6.00 Build 0)  -->
<svg version="1.1" id="Layer_1" xmlns="http://www.w3.org/2000/svg" xmlns:xlink="http://www.w3.org/1999/xlink" x="0px" y="0px"
	 viewBox="0 0 64 64" style="enable-background:new 0 0 64 64;" xml:space="preserve">
<style type="text/css">
	.st0{fill:#FFFFFF;}
</style>
<g>
	<polygon class="st0" points="26.6,34 26.4,33.6 26.3,33.1 26,32.7 25.7,32.3 25.4,32 25,31.7 24.6,31.4 24.1,31.2 23.7,31.1 
		23.2,31 22.7,31 22.2,31.1 21.8,31.2 21.3,31.4 20.9,31.6 20.5,31.9 20.1,32.2 19.8,32.6 19.6,33 19.4,33.4 19.2,33.9 19.1,34.4 
		19.1,34.8 19.1,35.3 19.2,35.8 19.4,36.3 19.6,36.7 19.9,37.1 20.2,37.5 20.5,37.8 20.9,38 21.4,38.3 21.8,38.4 22.3,38.5 
		22.8,38.6 23.3,38.5 23.7,38.5 24.2,38.3 24.6,38.1 25.1,37.9 25.4,37.6 25.8,37.2 26,36.8 26.3,36.4 26.5,35.9 26.6,35.5 26.6,35 
		26.6,34.5 	"/>
	<polygon class="st0" points="53.1,34.3 53,33.8 52.9,33.4 52.7,32.9 52.4,32.5 52.1,32.2 51.7,31.8 51.3,31.6 50.9,31.3 50.4,31.2 
		50,31.1 49.5,31 49,31 48.5,31.1 48.1,31.3 47.6,31.4 47.2,31.7 46.8,32 46.5,32.3 46.2,32.7 46,33.2 45.8,33.6 45.7,34.1 
		45.6,34.6 45.6,35 45.7,35.5 45.8,36 46,36.4 46.2,36.9 46.5,37.2 46.9,37.6 47.2,37.9 47.7,38.1 48.1,38.3 48.6,38.5 49,38.6 
		49.5,38.6 50,38.5 50.5,38.4 50.9,38.3 51.4,38 51.8,37.7 52.1,37.4 52.4,37.1 52.7,36.6 52.9,36.2 53,35.8 53.1,35.3 53.2,34.8 	
		"/>
</g>
<path class="st0" d="M63.8,8.7L64,7.5l0-1c0-0.1,0-0.2-0.1-0.2c-0.1-0.3-0.3-0.8-0.5-0.9c-0.1-0.1-0.3-0.1-0.5-0.1
	c-0.2,0-0.3,0-0.5-0.1c-0.1,0-0.2,0-0.3,0c-0.1,0-0.2,0-0.2,0.1c-0.6,0.2-1.2,0.5-1.7,0.8l-1.9,1.2l-2.6,2L51,13.3l-0.2,0.2
	l-0.3-0.2l-2.1-1.4l-2.2-1.2L44,9.7L41.6,9l-2.4-0.4l-2.4-0.1c0,0,0,0,0,0c0,0,0,0,0,0l-0.6,0l-0.7,0l-1.6,0l0,0c0,0,0,0,0,0l0,0
	l-2.4,0.3L29,9.4l-2.3,0.8l-2.2,1.1l-2.1,1.3l-2,1.6l-1.8,1.8l0,0l-0.4,0.4l-2.2-0.7c-0.2-0.1-0.3,0-0.5,0.1s-0.2,0.2-0.3,0.4
	l-1,6.5l-0.3,0.6l-0.9,2.5l-0.7,2.6L12.1,31L12,33.7c0,0.5,0,1,0.1,1.5c0,0.8-0.3,1.6-0.9,2.2c-0.2,0.2-0.4,0.5-0.7,0.5
	c-0.2,0-0.4-0.1-0.5-0.2c-1-0.6-1.6-1.6-2.2-2.5l-1.2-2.1L2,24.1c-0.1-0.3-0.4-0.4-0.7-0.3c-0.3,0.1-0.4,0.4-0.4,0.6
	c0,0,3.1,18.1,3.1,18.1L4.4,45l0.2,1.8l0,1.1l0,0.2l-0.7-0.9L3,45.6l-1.9-3.8c-0.1-0.3-0.4-0.4-0.7-0.3C0.1,41.6,0,41.9,0,42.2
	l2.1,15c0,0.2,0.1,0.3,0.3,0.4c0.1,0,0.2,0.1,0.3,0.1c0.1,0,0.2,0,0.2-0.1l11.5-5.3c0,0,3.4-1.7,3.4-1.6l1.7,1.9l1.9,1.7l2,1.5
	l2.2,1.2l2.3,1l2.3,0.7l2.4,0.4l2.4,0.2l1.1,0l1.2,0l2.4-0.2l2.4-0.4l2.3-0.7l2.3-1l2.2-1.2l2-1.5l1.9-1.7l1.7-1.9l1.5-2.1l1.3-2.2
	l1.1-2.4l0.8-2.5l0.6-2.6l0.2-1.7l0.1-0.2l1.2-2.2l0.9-2.3l0.4-1.6l0.2-1.7l0-1.7l-0.7-9.3l0.1-1.5L63.8,8.7z M16.4,17.1l1.1,0.4
	l-1,1.3L16,19.7L16.4,17.1z M13.9,51.3L3.1,56.2L1.6,45.5l1.3,2.3l0.7,1c0,0,0.1,0.1,0.1,0.1l0.5,0.4c0.2,0.1,0.4,0.2,0.6,0.1
	l0.4-0.1c0.2-0.1,0.3-0.2,0.4-0.4L5.8,48l0-1.3l-0.2-1.9l-0.4-2.4l-0.6,0.1l0.6-0.1L2.7,28.1l2.8,5.5C6.3,35,7,36.5,8.1,37.7
	c0.5,0.5,1,1,1.7,1.2c1,0.3,1.7-0.2,2.4-0.9c0,0,0.1-0.1,0.1-0.1l0.1,1.1l0.6,2.6l0.8,2.5l1.1,2.4l1.3,2.2l0.8,1.1L13.9,51.3z
	 M35.5,58.1l-0.6,0L32.7,58l-2.3-0.4l-2.2-0.7L26,55.9l-2-1.2l-1.9-1.4l-1.8-1.6l-1.5-1.6l16.7-8.3c0,0,0,0,0.1-0.1V58.1z
	 M35.5,40.8c-0.1-0.1-0.3-0.2-0.5-0.1l-1.5,0.5l-0.6,0.1l1-1.2L35,39l0.5-0.5V40.8z M35.5,37l-2.5,2.4l-0.9,1l-0.5,0.7
	c-0.1,0.1-0.1,0.2-0.1,0.3l0,0.5c0,0.2,0.1,0.4,0.3,0.5l-13.8,6.9L17.2,48L16,45.8l-1-2.3l-0.8-2.4l-0.6-2.5l-0.3-2.5l0-0.4l0.4-1.3
	l0.5-2.5l1.4-9l1.1-2.2l1.3-2.1l0.7-0.9l16.9,5.4V37z M35.5,22.1l-16.1-5.2l0,0l1.7-1.7l1.9-1.5l2-1.3l2.1-1l2.2-0.8l2.3-0.5
	l2.3-0.3l1.5,0l0.1,0V22.1z M36.7,24.7L36.7,24.7l0-1.8c0,0,0,0,0,0V9.7l0.1,0l1.5,0l2.3,0.3l2.3,0.5l2.2,0.8l2.1,1l2,1.3l0.8,0.7
	l-2.1,2.3l-9.1,12.9l-1.8,3L36.7,33v-5.5h0V24.7z M58.1,41.2l-0.8,2.4l-1,2.3L55,48l-1.4,2L52,51.8l-1.8,1.6l-1.9,1.4l-2,1.2
	l-2.1,0.9l-2.2,0.7L39.6,58l-2.3,0.2l-0.6,0V45.2l0,0.1l0.5,1l0.5,0.9l0.6,0.9l0.7,0.7l0.7,0.6l0.7,0.3c0,0,0.1,0,0.1,0.1l0.8,0.2
	l0.9,0l0.9-0.1l0.9-0.2l1.8-0.6l2.6-1.3l3.2-2l2.6-2l2.2-2.1c0,0,0.1-0.1,0.1-0.1l0,0l1.9-2.3L58.1,41.2z M59,36.2l-0.1,0.6
	l-1.1,1.7l-2.1,2.5l-1.6,1.6l-2.4,1.9l-2.9,1.9l-2.5,1.3l-1.7,0.7L43,48.8l-0.8,0.1l-0.7,0l-0.7-0.1l-0.5-0.2L39.8,48l-0.6-0.6
	l-0.5-0.8l-0.5-0.9l-0.4-0.9l-0.7-1.9l-0.4-1.7v-3.9c0,0,0,0,0,0v-1l0.5-1.6l0.7-1.5l1.3-2.2l8.1-11.8l3.4-4l0.1-0.1l0.2,0.1
	l1.7,1.7l0,0l0.5,0.6l1.5,2l1.3,2.1l1.1,2.3l0.9,2.4l0.6,2.4l0.4,2.5l0.1,2.5L59,36.2z M61.8,27.6l0,1.6l-0.2,1.5l-0.4,1.4l-0.9,2.1
	l-0.1,0.1l0-0.8l0-0.9L60,30.1l-0.5-2.6L58.8,25l-1-2.4l-1.2-2.3l-1.4-2.2l-1.6-2l-0.4,0.4l0.4-0.4l-1.2-1.2l-0.7-0.6l3.2-3L59,8
	c0,0,1.8-1.2,1.8-1.2c0.5-0.3,1-0.5,1.5-0.7c0.1,0,0.2,0,0.3,0c0.1,0,0.2,0.2,0.2,0.3c0,0.1,0,0.3,0,0.5c0,0.5-0.1,1-0.1,1.6
	l-1.1,5.3l-0.4,2.8l-0.1,1.6L61.8,27.6z"/>
<g>
	<circle cx="23.5" cy="34.5" r="2.6"/>
</g>
<g>
	<circle cx="49.9" cy="34.5" r="2.6"/>
</g>
</svg>
