<svg width="65" height="64" viewBox="0 0 65 64" fill="none" xmlns="http://www.w3.org/2000/svg">
<g clip-path="url(#clip0)">
<path d="M42.3488 60.4477L42.0405 60.4138L41.6088 60.3636L41.1771 60.2925L40.7454 60.1927L40.3137 60.0862L39.9108 60.016L39.882 60.0087L39.4503 59.9212L39.0187 59.8221L38.5869 59.8073L38.1553 59.7761L37.7236 59.6644L37.367 59.5842L37.2919 59.5521L36.8602 59.3918L36.4285 59.295L36.0872 59.1525L35.9968 59.0985L35.5651 58.9442L35.1334 58.759L35.0525 58.7208L34.7017 58.5203L34.27 58.3026L34.2436 58.2892L33.8384 58.0409L33.5614 57.8573L33.4067 57.7272L33.011 57.4257L32.975 57.3944L32.608 56.994L32.5433 56.9095L32.3697 56.5623L32.143 56.1307L32.1116 56.0875L31.9243 55.6988L31.7374 55.2672L31.6799 55.1657L31.5565 54.8355L31.4349 54.404L31.2645 53.9723L31.2482 53.9311L31.1662 53.5405L31.1073 53.1088L31.0445 52.6771L30.939 52.2455L30.9181 51.8138L30.8669 51.382L30.8165 51.1302L30.7938 50.9503L30.7446 50.5186L30.7123 50.087L30.7011 49.6551L30.7048 49.2235L30.6726 48.7919L30.6322 48.3603L30.5622 47.9286L30.4829 47.4969L30.4336 47.0651L30.4266 46.6334L30.4379 46.2018L30.4483 45.7701L30.4202 45.3383L30.4273 44.9066L30.4208 44.4749L30.3997 44.0433L30.3848 43.92L30.363 43.6114L30.318 43.1801L30.27 42.7482L30.2409 42.3166L30.2827 41.8849L30.271 41.4532L30.2216 41.0214L30.0784 40.5897L29.9531 40.3905L29.8272 40.1581L29.5214 39.785L29.4843 39.7264L29.1716 39.2946L29.0898 39.2099L28.8374 38.8629L28.6581 38.6503L28.4656 38.4312L28.2264 38.1314L28.1138 37.9996L27.7947 37.7099L27.6706 37.5679L27.363 37.1498L27.3532 37.1364L26.972 36.7045L26.9313 36.6604L26.6199 36.2729L26.4996 36.123L26.2694 35.8412L26.0679 35.6253L25.9223 35.4095L25.6362 35.0653L25.5683 34.9777L25.2699 34.546L25.2045 34.4703L24.8144 34.1144L24.7728 34.0751L24.407 33.6827L24.3411 33.6108L24.0376 33.251L23.9095 33.1097L23.6908 32.8192L23.4778 32.563L23.324 32.3875L23.0461 32.1206L22.862 31.9558L22.6144 31.7668L22.3941 31.5243L22.1827 31.2404L22.0627 31.0927L21.751 30.6973L21.7219 30.6608L21.3501 30.2292L21.3193 30.1993L20.9863 29.7975L20.8876 29.6741L20.7059 29.3658L20.4559 29.0405L20.3588 28.9342L20.0242 28.5518L19.9886 28.5023L19.6072 28.0707L19.5925 28.0502L19.2251 27.639L19.1608 27.5886L18.7731 27.2073L18.7292 27.1611L18.3919 26.7755L18.2975 26.6696L18.0323 26.3438L17.8658 26.1618L17.6863 25.9121L17.4341 25.5823L17.3499 25.4806L17.0024 25.0554L16.9976 25.049L16.5887 24.6173L16.5707 24.5971L16.2368 24.1855L16.139 24.0962L15.7571 23.7538L15.7073 23.701L15.4173 23.3221L15.2756 23.1477L15.0697 22.8905L14.8439 22.6536L14.6737 22.4586L14.4122 22.1731L14.292 22.027L13.9806 21.6704L13.9288 21.5953L13.5489 21.1912L13.5201 21.1636L13.1172 20.7371L13.1116 20.7318L12.6855 20.3113L12.6752 20.3001L12.2846 19.8686L12.2538 19.832L11.9848 19.4369L11.8221 19.256L11.6302 19.0053L11.3904 18.7315L11.2345 18.5736L10.9587 18.3052L10.8301 18.1418L10.527 17.7766L10.473 17.7101L10.2096 17.2784L10.0953 17.151L9.82631 16.8467L9.66361 16.6498L9.48281 16.4149L9.23191 16.138L9.04011 15.9833L8.80031 15.7777L8.62221 15.5516L8.36861 15.2533L8.25661 15.1199L7.93691 14.7392L7.90241 14.6882L7.62851 14.2567L7.50521 14.0838L7.29961 13.8249L7.07351 13.6323L6.81321 13.3932L6.64181 13.2219L6.38151 12.9616L6.21011 12.7794L5.97521 12.5299L5.77841 12.299L5.58421 12.0981L5.34671 11.8719L5.19611 11.6664L4.91501 11.3055L4.86561 11.2347L4.48331 10.8224L4.46001 10.803L4.05161 10.4205L4.01031 10.3714L3.68161 9.93958L3.62001 9.86248L3.31911 9.50788L3.18831 9.37728L2.92701 9.07618L2.75661 8.89128L2.50631 8.64468L2.32491 8.41258L2.20631 8.21298L1.89321 7.83308L1.85231 7.78118L1.59521 7.34948L1.46151 7.10578L1.37621 6.91788L1.13921 6.48618L1.02981 6.18728L0.995605 6.05448L1.02131 5.62268L1.02981 5.60268L1.29401 5.19098L1.46151 5.06498L1.89321 4.87968L2.32491 4.76758L2.34761 4.75928L2.75661 4.67998L3.18831 4.63968L3.62001 4.63408L4.05161 4.62188L4.48331 4.57118L4.91501 4.49898L5.34671 4.45778H5.77841H6.21011H6.64181H7.07351H7.50521H7.93691H8.36861H8.80031H9.23191H9.66361H10.0953H10.527H10.9587H11.3904H11.8221L12.2538 4.41678L12.6855 4.37068L12.9209 4.32768L13.1172 4.30488L13.5489 4.27668L13.9806 4.28218L14.4122 4.32768L14.8439 4.41818L15.2756 4.46708L15.6533 4.32768L15.7073 4.31518L16.139 4.30618L16.5707 4.29038L17.0024 4.27298L17.4341 4.25988L17.8658 4.25398L18.2975 4.25468L18.7292 4.25578L19.1608 4.23438H19.5925L20.0242 4.23548H20.4559L20.8876 4.23438L21.3193 4.23228L21.751 4.22998L22.1827 4.22878L22.6144 4.10378L23.0461 4.09248L23.4778 4.07768L23.9095 4.05928L24.3411 4.03968L24.7728 4.02368L25.2045 4.01588L25.6362 4.00978L26.0679 3.99788H26.4996H26.9313H27.363H27.7947H28.2264H28.6581H29.0898H29.5214H29.9531H30.3848H30.8165H31.2482H31.6799H32.1116H32.5433L32.975 4.00078H33.4067L33.8384 3.99058L34.27 3.95858L34.7017 3.89588L35.1334 3.84488L35.5651 3.80088L35.9968 3.77148L36.4285 3.78918L36.8602 3.79008H37.2919L37.7236 3.79318L38.1553 3.79418L38.5869 3.79738L39.0187 3.79818H39.4503L39.882 3.80538L40.3137 3.76858L40.7454 3.72238L41.1771 3.71428L41.6088 3.74048L42.0405 3.76068L42.4722 3.75808L42.9039 3.74588L43.3356 3.73548L43.7672 3.69718L44.199 3.64848L44.6306 3.62968L45.0623 3.63828L45.494 3.65108L45.9257 3.64358L46.3574 3.63708L46.7891 3.63578H47.2208H47.6525H48.0842H48.5159H48.9476H49.3792H49.8109H50.2426H50.6743H51.106H51.5377H51.9694H52.4011H52.8328H53.2645L53.6961 3.62238L54.1279 3.55468L54.4579 3.46418L54.5595 3.44688L54.9912 3.39228L55.4229 3.38818L55.8546 3.43408L56.0435 3.46418L56.2863 3.52598L56.718 3.59198L57.1497 3.61218L57.5814 3.61798H58.0131L58.4448 3.62388L58.8764 3.62968L59.3082 3.63578L59.7398 3.64158H60.1715L60.5893 3.46418L60.6032 3.45978L61.0349 3.39988L61.4666 3.39608L61.8475 3.46418L61.8983 3.47938L62.33 3.55768L62.7617 3.52378L63.1934 3.49968L63.6251 3.52778L64.0567 3.65168L64.3824 3.89588L64.4884 4.00018L64.7351 4.32768L64.9201 4.72328L64.9339 4.75928L64.9956 5.19098L64.9201 5.41958L64.8215 5.62268L64.5387 6.05448L64.4884 6.12898L64.2502 6.48618L64.0567 6.72648L63.8709 6.91788L63.6251 7.19878L63.4789 7.34948L63.1934 7.75298L63.1702 7.78118L62.7617 8.19718L62.747 8.21298L62.3974 8.64468L62.33 8.72168L62.0097 9.07618L61.8983 9.21828L61.6004 9.50788L61.4666 9.64348L61.2076 9.93958L61.0349 10.1263L60.7223 10.3714L60.6032 10.4925L60.4169 10.803L60.1715 11.1563L60.0893 11.2347L59.7509 11.6664L59.7398 11.6801L59.4226 12.0981L59.3082 12.2807L59.1177 12.5299L58.8764 12.9114L58.8372 12.9616L58.5592 13.3932L58.4448 13.5371L58.1846 13.8249L58.0131 14.0805L57.876 14.2567L57.5814 14.5466L57.4519 14.6882L57.1497 14.9948L57.0227 15.1199L56.718 15.4388L56.5996 15.5516L56.2863 15.87L56.1801 15.9833L55.8639 16.4149L55.8546 16.4274L55.5221 16.8467L55.4229 16.9575L55.0977 17.2784L54.9912 17.4425L54.7973 17.7101L54.5595 18.0084L54.4412 18.1418L54.1279 18.4709L54.0334 18.5736L53.7226 19.0053L53.6961 19.0408L53.3391 19.4369L53.2645 19.5175L52.9225 19.8686L52.8328 19.98L52.5906 20.3001L52.4011 20.5508L52.2257 20.7318L51.9694 21.0473L51.8652 21.1636L51.5377 21.4514L51.4058 21.5953L51.106 21.9128L50.9786 22.027L50.6789 22.4586L50.6743 22.4653L50.3002 22.8905L50.2426 22.9558L49.9478 23.3221L49.8109 23.5338L49.6316 23.7538L49.3792 24.1104L49.3197 24.1855L48.998 24.6173L48.9476 24.664L48.5845 25.049L48.5159 25.134L48.2083 25.4806L48.0842 25.6488L47.8923 25.9121L47.6525 26.272L47.5855 26.3438L47.2555 26.7755L47.2208 26.8229L46.9093 27.2073L46.7891 27.3291L46.5144 27.639L46.3574 27.8732L46.1884 28.0707L45.9257 28.4129L45.8569 28.5023L45.4989 28.9342L45.494 28.9401L45.1115 29.3658L45.0623 29.4189L44.7294 29.7975L44.6306 29.9237L44.3824 30.2292L44.199 30.4698L44.0196 30.6608L43.7672 31.0026L43.7028 31.0927L43.3461 31.5243L43.3356 31.5376L42.9681 31.9558L42.9039 32.0337L42.6161 32.3875L42.4722 32.5537L42.242 32.8192L42.0405 33.1155L41.9326 33.251L41.6136 33.6827L41.6088 33.6886L41.2251 34.1144L41.1771 34.1606L40.762 34.546L37.7236 31.5187L38.1389 31.0927L38.1553 31.0719L38.4251 30.6608L38.5869 30.4252L38.7774 30.2292L39.0187 29.9254L39.1133 29.7975L39.4264 29.3658L39.4503 29.3416L39.8578 28.9342L39.882 28.8975L40.1848 28.5023L40.3137 28.3519L40.5296 28.0707L40.7454 27.7977L40.9089 27.639L41.1771 27.2703L41.2301 27.2073L41.5404 26.7755L41.6088 26.6736L41.8506 26.3438L42.0405 26.0591L42.157 25.9121L42.4431 25.4806L42.4722 25.4413L42.8 25.049L42.9039 24.9186L43.1443 24.6173L43.3356 24.3319L43.4719 24.1855L43.7672 23.8272L43.8268 23.7538L44.1227 23.3221L44.199 23.2345L44.5214 22.8905L44.6306 22.7672L44.9039 22.4586L45.0623 22.308L45.3907 22.027L45.494 21.9142L45.7349 21.5953L45.9257 21.3707L46.1447 21.1636L46.3574 20.906L46.5013 20.7318L46.7891 20.3573L46.8378 20.3001L47.157 19.8686L47.2208 19.781L47.4861 19.4369L47.6525 19.181L47.7921 19.0053L48.0842 18.6899L48.2176 18.5736L48.5066 18.1418L48.5159 18.1318L48.9021 17.7101L48.9476 17.6555L49.3153 17.2784L49.3792 17.2053L49.672 16.8467L49.8109 16.7108L50.1003 16.4149L50.2426 16.2027L50.4365 15.9833L50.6743 15.6955L50.7967 15.5516L51.106 15.1678L51.1499 15.1199L51.389 14.6882L51.5377 14.5024L51.7706 14.2567L51.9694 13.9868L52.111 13.8249L52.4011 13.4933L52.4978 13.3932L52.8328 12.9616L53.1476 12.5299L53.2645 12.386L53.4927 12.0981L53.6961 11.8171L53.8599 11.6664L54.1279 11.3493L54.2214 11.2347L54.5595 10.8658L54.6171 10.803L54.9539 10.3714L54.9912 10.3201L55.2718 9.93958L55.4229 9.72758L55.607 9.50788L55.793 9.07618L55.7508 8.64468L55.4229 8.26918L55.2735 8.21298L54.9912 8.11628L54.5595 8.11768L54.2358 8.21298L54.1279 8.23408L53.6961 8.30008L53.2645 8.28108L52.8328 8.26668L52.4011 8.25278H51.9694L51.5377 8.27788L51.106 8.33198L50.6743 8.39718L50.2426 8.44538L49.8109 8.47668H49.3792H48.9476H48.5159H48.0842H47.6525H47.2208H46.7891L46.3574 8.47178L45.9257 8.46518L45.494 8.47588L45.0623 8.50538L44.6306 8.57648L44.3531 8.64468L44.199 8.66498L43.7672 8.71518L43.3356 8.74478L42.9039 8.72998L42.4722 8.72938L42.0405 8.73778L41.6088 8.75868L41.1771 8.78258L40.7454 8.78228L40.3137 8.75558L39.882 8.73088L39.4503 8.71788L39.0187 8.76038L38.5869 8.82338L38.1553 8.86288H37.7236L37.2919 8.85798L36.8602 8.86808L36.4285 8.88638L35.9968 8.91388L35.5651 8.89858L35.1334 8.90358L34.7017 8.96088L34.27 9.06918L34.2368 9.07618L33.8384 9.13018L33.4067 9.14438L32.975 9.13138L32.5433 9.11888H32.1116H31.6799H31.2482H30.8165H30.3848H29.9531H29.5214H29.0898H28.6581H28.2264H27.7947H27.363H26.9313H26.4996H26.0679H25.6362H25.2045H24.7728H24.3411H23.9095H23.4778H23.0461H22.6144H22.1827H21.751H21.3193H20.8876H20.4559H20.0242H19.5925H19.1608L18.7292 9.15968L18.2975 9.20528L17.8658 9.22348L17.4341 9.21508L17.0024 9.24478L16.5707 9.31118L16.139 9.33298L15.7073 9.30878L15.2756 9.26338L14.8439 9.26588L14.4122 9.26338L13.9806 9.27378L13.5489 9.31318L13.1172 9.35528H12.6855L12.2538 9.32368L11.8221 9.30248L11.3904 9.30688L10.9587 9.43018L10.8591 9.50788L10.6812 9.93958L10.8238 10.3714L10.9587 10.5313L11.1518 10.803L11.3904 11.0296L11.6214 11.2347L11.8221 11.4505L11.9958 11.6664L12.2538 11.9307L12.4298 12.0981L12.6855 12.3924L12.8188 12.5299L13.1172 12.8196L13.2354 12.9616L13.5489 13.3793L13.5584 13.3932L13.9006 13.8249L13.9806 13.898L14.306 14.2567L14.4122 14.3663L14.6482 14.6882L14.8439 15.0464L14.8882 15.1199L15.2756 15.484L15.3329 15.5516L15.6415 15.9833L15.7073 16.0539L15.9619 16.4149L16.139 16.6415L16.3845 16.8467L16.5707 17.005L16.8487 17.2784L17.0024 17.4295L17.3531 17.7101L17.4341 17.782L17.7474 18.1418L17.8658 18.2948L18.0655 18.5736L18.2975 18.7987L18.4825 19.0053L18.7292 19.3272L18.8319 19.4369L19.1608 19.7329L19.3005 19.8686L19.5925 20.1741L19.6879 20.3001L20.0242 20.7075L20.0461 20.7318L20.4559 21.1523L20.4641 21.1636L20.7721 21.5953L20.8876 21.7595L21.0637 22.027L21.3193 22.3005L21.4498 22.4586L21.6725 22.8905L21.751 23.0305L21.9052 23.3221L22.1827 23.6165L22.2975 23.7538L22.6144 24.0968L22.6943 24.1855L23.0461 24.5553L23.0994 24.6173L23.4778 25.0381L23.4887 25.049L23.8749 25.4806L23.9095 25.5104L24.3257 25.9121L24.3411 25.9298L24.7469 26.3438L24.7728 26.3659L25.2045 26.7392L25.2405 26.7755L25.6282 27.2073L25.6362 27.2171L25.9175 27.639L26.0679 27.8018L26.2958 28.0707L26.4996 28.2805L26.7248 28.5023L26.9313 28.7286L27.119 28.9342L27.363 29.1713L27.5401 29.3658L27.7947 29.6454L27.9349 29.7975L28.2264 30.0967L28.3418 30.2292L28.6418 30.6608L28.6581 30.6788L29.0898 31.0553L29.1233 31.0927L29.5134 31.5243L29.5214 31.5313L29.9531 31.9235L29.9856 31.9558L30.2985 32.3875L30.3848 32.4713L30.6888 32.8192L30.8165 32.968L31.0632 33.251L31.2482 33.4503L31.458 33.6827L31.6799 33.9045L31.8927 34.1144L32.1116 34.3535L32.3168 34.546L32.5433 34.7406L32.7537 34.9777L32.975 35.2307L33.3543 35.4095L33.4067 35.4408L33.8384 35.479L33.938 35.4095L34.27 35.2516L34.531 34.9777L34.7017 34.7918L34.9874 34.546L35.1334 34.4021L35.4018 34.1144L35.5651 33.9418L35.817 33.6827L35.9968 33.4772L36.2033 33.251L36.4285 32.9338L36.5364 32.8192L36.8602 32.4367L36.9025 32.3875L37.2602 31.9558L37.2919 31.9285L37.7178 31.5243L37.7236 31.5187L40.762 34.546L40.7454 34.5688L40.4026 34.9777L40.3137 35.0496L40.0116 35.4095L39.882 35.6056L39.672 35.8412L39.4503 36.069L39.2572 36.2729L39.0187 36.5654L38.8898 36.7045L38.5869 37.0544L38.5116 37.1364L38.2012 37.5679L38.1553 37.6254L37.7655 37.9996L37.7236 38.0374L37.2919 38.4147L37.2739 38.4312L36.8824 38.8629L36.8602 38.9009L36.5761 39.2946L36.4285 39.6184L36.3669 39.7264L36.2179 40.1581L36.0893 40.5897L35.9968 40.8822L35.9237 41.0214L35.7422 41.4532L35.6562 41.8849L35.5651 42.1333L35.4812 42.3166L35.4174 42.7482L35.3415 43.1801L35.3071 43.6114L35.3081 44.0433L35.317 44.4749L35.3191 44.9066L35.3141 45.3383L35.3039 45.7701L35.3301 46.2018L35.3726 46.6334L35.4255 47.0651L35.4829 47.4969L35.5212 47.9286L35.5494 48.3603L35.5571 48.7919L35.5563 49.2235L35.5651 49.31L35.5852 49.6551L35.6346 50.087L35.7009 50.5186L35.7784 50.9503L35.903 51.382L35.9968 51.598L36.0597 51.8138L36.2096 52.2455L36.4285 52.518L36.5747 52.6771L36.8602 52.9536L37.002 53.1088L37.2919 53.383L37.4516 53.5405L37.7236 53.795L38.0448 53.9723L38.1553 54.0411L38.5869 54.1998L39.0187 54.3371L39.2677 54.404L39.4503 54.4873L39.882 54.6382L40.3137 54.7482L40.7454 54.8196L40.8893 54.8355L41.1771 54.8886L41.6088 54.9853L42.0405 55.0946L42.4722 55.1568L42.9039 55.173L43.3356 55.1808L43.7672 55.1697L44.199 55.1851L44.6306 55.2525L44.7026 55.2672L45.0623 55.3717L45.494 55.4338L45.9257 55.4327L46.3574 55.411H46.7891H47.2208H47.6525H48.0842H48.5159H48.9476H49.3792H49.8109L50.2426 55.3993L50.6743 55.421L51.106 55.4216L51.5377 55.3647L51.8735 55.2672L51.9694 55.2479L52.4011 55.1808L52.8328 55.1697L53.2645 55.1819L53.6961 55.0654L54.1279 54.9736L54.5595 54.913L54.9912 54.9064L55.4229 54.9255L55.8546 54.9495L56.2863 54.9206L56.718 54.8355L57.1497 54.765L57.5814 54.7502L58.0131 54.7323L58.4448 54.7288L58.8764 54.7387L59.3082 54.7343L59.7398 54.7157L60.1715 54.6898L60.6032 54.6544L61.0349 54.6473L61.4666 54.6364L61.8983 54.6699L62.33 54.8126L62.3653 54.8355L62.7617 55.202L62.8062 55.2672L62.9207 55.6988L62.9529 56.1307L63.0269 56.5623L63.1045 56.994L63.0885 57.4257L63.0125 57.8573L62.914 58.2892L62.7617 58.6128L62.6909 58.7208L62.43 59.1525L62.33 59.2416L61.8983 59.5157L61.8002 59.5842L61.4666 59.7355L61.0349 59.8213L60.6032 59.8411L60.1715 59.8941L59.7398 59.9495L59.4078 60.016L59.3082 60.0302L58.8764 60.0461L58.4448 60.0511L58.0131 60.0931L57.5814 60.1994L57.1497 60.2981L56.718 60.2714L56.2863 60.2658L55.8546 60.2626L55.4229 60.2772L54.9912 60.3174L54.5595 60.3879L54.2607 60.4477L54.1279 60.4645L53.6961 60.502L53.2645 60.4776H52.8328H52.4011H51.9694H51.5377H51.106H50.6743H50.2426L49.8109 60.4849L49.3792 60.4954L48.9476 60.497L48.5159 60.496L48.0842 60.5055L47.6525 60.5414L47.2208 60.5865L46.7891 60.612L46.3574 60.5279L45.9257 60.5055L45.494 60.4931L45.0623 60.4994L44.6306 60.5044L44.199 60.4954L43.7672 60.4832L43.3356 60.477L42.9039 60.4699L42.4722 60.4561L42.3488 60.4477Z" fill="white"/>
</g>
<defs>
<clipPath id="clip0">
<rect width="64" height="64" fill="white" transform="translate(0.995605)"/>
</clipPath>
</defs>
</svg>
