<svg width="65" height="64" viewBox="0 0 65 64" fill="none" xmlns="http://www.w3.org/2000/svg">
<g clip-path="url(#clip0)">
<path d="M15.9456 63.5179L15.8187 63.4467L15.311 63.2994L14.8035 63.2605L14.2958 63.2916L13.7882 63.2529L13.2806 63.1274L12.9761 63.0104L12.773 62.8909L12.2654 62.6682L11.8176 62.5028L11.7578 62.4699L11.2502 62.2328L10.756 61.9951L10.7426 61.9861L10.235 61.613L9.96171 61.4874L9.72741 61.3448L9.21981 61.0967L9.00381 60.9799L8.71221 60.8086L8.20461 60.4782L8.19871 60.4723L7.69701 60.0321L7.61351 59.9646L7.18941 59.5657L7.04201 59.4569L6.68181 59.1913L6.25881 58.9494L6.17421 58.8757L5.69711 58.4419L5.66661 58.4108L5.30741 57.9344L5.15901 57.768L4.90191 57.4268L4.65141 57.1471L4.40161 56.9191L4.14381 56.6803L3.92101 56.4114L3.63621 56.1267L3.43971 55.9039L3.17471 55.3963L3.12861 55.3475L2.77771 54.8886L2.62101 54.6835L2.47111 54.381L2.29911 53.8735L2.11341 53.4927L2.05821 53.3658L1.87111 52.8581L1.75741 52.3505L1.60581 51.9251L1.58131 51.8431L1.57091 51.3355L1.53841 50.8279L1.47461 50.3203L1.36841 49.8126L1.21461 49.3051L1.09821 48.9819L1.05671 48.7975L0.995605 48.2898L1.09821 47.8836L1.14121 47.7821L1.29341 47.2746L1.43871 46.767L1.50531 46.2593L1.55411 45.7517L1.60581 45.5193L1.70581 45.2443L1.93601 44.7366L2.07021 44.2291L2.11341 44.1322L2.33181 43.7215L2.50221 43.2138L2.62101 42.9762L2.79721 42.7062L3.01361 42.1986L3.12861 41.8939L3.26621 41.691L3.53981 41.1833L3.63621 41.0498L3.92821 40.6757L4.14381 40.3479L4.28081 40.1682L4.65141 39.7011L4.68421 39.6605L5.07821 39.1528L5.15901 39.0569L5.51731 38.6452L5.66661 38.4866L6.04391 38.1378L6.17421 38.0039L6.52821 37.6302L6.68181 37.4944L7.10821 37.1227L7.18941 37.0532L7.69701 36.7165L7.83451 36.615L8.20461 36.3716L8.63331 36.1073L8.71221 36.0715L9.21981 35.8806L9.72741 35.7506L10.235 35.6273L10.4042 35.5997L10.7426 35.5698L11.2502 35.5124L11.7578 35.4027L12.2654 35.3526L12.773 35.4648L13.2806 35.5521L13.7882 35.5861L13.8728 35.5997L14.2958 35.7069L14.8035 35.8157L15.311 36.0011L15.5798 36.1073L15.8187 36.2363L16.3263 36.4458L16.6378 36.615L16.8339 36.7542L17.3415 37.0978L17.3675 37.1227L17.7506 37.6302L17.8491 37.8134L17.9524 38.1378L17.9961 38.6452L17.9613 39.1528L17.9405 39.6605L17.8491 39.9075L17.717 40.1682L17.4099 40.6757L17.3415 40.764L16.9798 41.1833L16.8339 41.3132L16.3263 41.5543L15.9824 41.691L15.8187 41.7455L15.311 41.9103L14.8035 41.9446L14.2958 41.929L13.7882 41.8149L13.2806 41.7627L12.773 41.8002L12.2654 41.7792L11.7578 41.7766L11.2502 41.8814L10.7426 42.1629L10.6943 42.1986L10.235 42.4397L9.91681 42.7062L9.72741 42.8848L9.43181 43.2138L9.21981 43.5701L9.10141 43.7215L8.81061 44.2291L8.71221 44.4481L8.51991 44.7366L8.35291 45.2443L8.28351 45.7517L8.20461 46.1578L8.17431 46.2593L7.99521 46.767L7.86621 47.2746L7.80981 47.7821L7.77341 48.2898L7.77591 48.7975L7.81051 49.3051L7.89371 49.8126L8.02581 50.3203L8.20461 50.8083L8.20981 50.8279L8.34041 51.3355L8.44801 51.8431L8.71221 52.3375L8.71691 52.3505L8.84641 52.8581L9.20921 53.3658L9.21981 53.3769L9.58241 53.8735L9.72741 54.0311L10.0658 54.381L10.235 54.5448L10.5964 54.8886L10.7426 55.0302L11.1806 55.3963L11.2502 55.4463L11.7578 55.8095L11.8847 55.9039L12.2654 56.2084L12.7577 56.4114L12.773 56.4204L13.2806 56.7119L13.7575 56.9191L13.7882 56.9373L14.2958 57.1564L14.8035 57.2385L15.311 57.3036L15.8187 57.328L16.3263 57.372L16.8339 57.4268L17.3415 57.5139L17.8491 57.5789L18.3567 57.6163L18.8643 57.6349L19.3719 57.5555L19.7344 57.4268L19.8795 57.3988L20.3871 57.3047L20.8947 57.2363L21.4023 57.1462L21.9099 57.0036L22.1426 56.9191L22.4175 56.8495L22.9251 56.7334L23.4327 56.5347L23.7923 56.4114L23.9403 56.3738L24.4479 56.1472L24.8517 55.9039L24.9555 55.8586L25.4631 55.6233L25.7887 55.3963L25.9707 55.2892L26.4783 54.9979L26.6295 54.8886L26.9859 54.6494L27.3042 54.381L27.4935 54.2496L28.0011 53.9635L28.1407 53.8735L28.5087 53.6772L28.9758 53.3658L29.0163 53.3426L29.524 52.9981L29.6961 52.8581L30.0316 52.4315L30.095 52.3505L30.5392 52.0317L30.7622 51.8431L31.0468 51.5926L31.3223 51.3355L31.5544 51.1099L31.8927 50.8279L32.062 50.6868L32.3961 50.3203L32.5696 50.1511L32.9503 49.8126L33.0772 49.6922L33.4452 49.3051L33.5848 49.1618L34.0155 48.7975L34.0924 48.7128L34.4498 48.2898L34.6 48.1688L34.9821 47.7821L35.1076 47.6373L35.4849 47.2746L35.6152 47.1388L36.0551 46.767L36.1228 46.7066L36.5068 46.2593L36.6304 46.129L37.0182 45.7517L37.138 45.6351L37.5043 45.2443L37.6456 45.0517L37.8994 44.7366L38.0815 44.2291L38.0667 43.7215L37.7596 43.2138L37.6456 43.1206L37.2015 42.7062L37.138 42.6366L36.6304 42.2696L36.5289 42.1986L36.1228 41.8512L35.9487 41.691L35.6152 41.3956L35.3493 41.1833L35.1076 40.9747L34.7718 40.6757L34.6 40.509L34.2193 40.1682L34.0924 40.0189L33.734 39.6605L33.5848 39.5316L33.1468 39.1528L33.0772 39.0872L32.5696 38.671L32.5442 38.6452L32.062 38.169L32.0247 38.1378L31.5544 37.7702L31.4001 37.6302L31.0468 37.33L30.8225 37.1227L30.5392 36.7589L30.4033 36.615L30.0316 36.2969L29.8001 36.1073L29.524 35.8754L29.1637 35.5997L29.0163 35.4475L28.5722 35.0922L28.5087 35.0414L28.0011 34.5909L27.993 34.5845L27.4935 34.2159L27.3399 34.0769L26.9859 33.7529L26.7321 33.5692L26.4783 33.3313L26.1031 33.0617L25.9707 32.9529L25.4631 32.6396L25.3419 32.554L24.9555 32.179L24.825 32.0464L24.4479 31.736L24.2216 31.539L23.9403 31.1862L23.7828 31.0313L23.4327 30.757L23.1588 30.5238L22.9251 30.3301L22.4382 30.0162L22.4175 29.9959L21.9099 29.59L21.7899 29.5085L21.4023 29.2317L21.1111 29.0009L20.8947 28.8039L20.4866 28.4934L20.3871 28.4085L20.0138 27.9857L19.8795 27.8359L19.3719 27.4835L19.3651 27.478L18.8643 27.0561L18.7691 26.9704L18.3567 26.5912L18.2016 26.4629L17.8491 26.1289L17.6938 25.9552L17.3415 25.5762L17.1985 25.4475L16.8339 25.083L16.702 24.9399L16.3263 24.5784L16.157 24.4325L15.8187 24.1168L15.5344 23.9249L15.311 23.7853L14.8844 23.4174L14.8035 23.3118L14.4294 22.9097L14.2958 22.7976L13.7882 22.4922L13.6828 22.402L13.2806 22.029L13.1374 21.8944L12.773 21.5204L12.6477 21.3869L12.2654 21.0268L12.1027 20.8792L11.7578 20.5057L11.6326 20.3716L11.2502 20.0481L11.0039 19.8639L10.7426 19.6065L10.4042 19.3564L10.235 19.2023L9.74011 18.8487L9.72741 18.8397L9.21981 18.4818L9.07391 18.3411L8.71221 17.9555L8.58701 17.8337L8.20461 17.4847L8.01521 17.3261L7.69701 17.0339L7.35491 16.8184L7.18941 16.7047L6.71801 16.3109L6.68181 16.2769L6.17421 15.8633L6.11251 15.8032L5.66661 15.4282L5.51881 15.2956L5.15901 14.9312L4.96651 14.7879L4.65141 14.5377L4.39051 14.2804L4.14381 14.037L3.85151 13.7727L3.63621 13.5606L3.39771 13.2651L3.12861 12.9633L2.94291 12.7574L2.81911 12.2499L2.93901 11.7423L3.08151 11.2349L3.12861 11.1206L3.35661 10.7272L3.63621 10.2786L3.68411 10.2196L4.03371 9.7121L4.14381 9.5902L4.51471 9.2044L4.65141 9.0677L5.03211 8.6968L5.15901 8.5681L5.52821 8.1891L5.66661 7.9955L5.92811 7.6816L6.17421 7.4559L6.52431 7.1739L6.68181 7.0908L7.18941 7.1143L7.29631 7.1739L7.69701 7.4826L7.87431 7.6816L8.20461 8.0846L8.30761 8.1891L8.71221 8.5214L8.92251 8.6968L9.21981 9.0028L9.42141 9.2044L9.72741 9.4678L10.0153 9.7121L10.235 9.9384L10.6157 10.2196L10.7426 10.3325L11.2164 10.7272L11.2502 10.7506L11.7578 11.2141L11.7782 11.2349L12.2654 11.6499L12.3798 11.7423L12.773 12.1411L12.8939 12.2499L13.2806 12.579L13.5043 12.7574L13.7882 13.0115L14.0459 13.2651L14.2958 13.5112L14.5934 13.7727L14.8035 13.9546L15.2232 14.2804L15.311 14.3552L15.8187 14.7879L16.3263 15.1997L16.4369 15.2956L16.8339 15.6397L17.0675 15.8032L17.3415 16.0533L17.6235 16.3109L17.8491 16.5109L18.1798 16.8184L18.3567 16.9952L18.8021 17.3261L18.8643 17.3825L19.3719 17.7928L19.4158 17.8337L19.8795 18.3345L19.8862 18.3411L20.3871 18.8228L20.4204 18.8487L20.8947 19.2247L21.0559 19.3564L21.4023 19.6401L21.7342 19.8639L21.9099 20.043L22.1563 20.3716L22.4175 20.6255L22.8037 20.8792L22.9251 20.9738L23.4327 21.3271L23.5004 21.3869L23.9403 21.8317L24.0128 21.8944L24.4479 22.3134L24.5346 22.402L24.9555 22.8178L25.0613 22.9097L25.4631 23.2384L25.7392 23.4174L25.9707 23.6084L26.4783 23.9249L26.9859 24.3773L27.0416 24.4325L27.4935 24.8633L27.592 24.9399L28.0011 25.2626L28.2396 25.4475L28.5087 25.7253L28.6975 25.9552L29.0163 26.2662L29.2478 26.4629L29.524 26.7311L29.7599 26.9704L30.0316 27.2311L30.4045 27.478L30.5392 27.5958L31.0468 27.9857L31.5544 28.4692L31.5762 28.4934L32.062 28.9844L32.084 29.0009L32.5696 29.3651L32.7305 29.5085L33.0772 29.8352L33.302 30.0162L33.5848 30.2635L33.8779 30.5238L34.0924 30.7166L34.5212 31.0313L34.6 31.1015L35.1076 31.5239L35.1257 31.539L35.5845 32.0464L35.6152 32.0821L36.1228 32.5134L36.1696 32.554L36.6304 32.9063L36.8541 33.0617L37.138 33.3009L37.4459 33.5692L37.6456 33.7628L38.0955 34.0769L38.1532 34.1238L38.6225 34.5845L38.6608 34.6251L39.1684 35.0098L39.2588 35.0922L39.676 35.4503L39.8475 35.5997L40.1836 35.8995L40.4338 36.1073L40.6912 36.4191L40.8531 36.615L41.1988 36.9168L41.4309 37.1227L41.7064 37.3981L41.9772 37.6302L42.214 37.8304L42.5778 38.1378L42.7216 38.284L43.2292 38.6031L43.7369 38.6452L44.2445 38.3995L44.4983 38.1378L44.7521 37.8333L44.9163 37.6302L45.2597 37.1632L45.2959 37.1227L45.7673 36.6245L45.7771 36.615L46.1307 36.1073L46.2749 35.9526L46.6607 35.5997L46.7825 35.4523L47.0617 35.0922L47.2901 34.7408L47.417 34.5845L47.7524 34.0769L47.7977 34.0007L48.1134 33.5692L48.3053 33.2272L48.414 33.0617L48.8129 32.5804L48.8406 32.554L49.1907 32.0464L49.3205 31.8486L49.5518 31.539L49.8281 31.1348L49.9334 31.0313L50.2376 30.5238L50.3357 30.3439L50.5542 30.0162L50.8433 29.6234L50.9385 29.5085L51.2321 29.0009L51.3509 28.8265L51.6691 28.4934L51.8585 28.04L51.8812 27.9857L52.2113 27.478L52.3661 27.1686L52.4856 26.9704L52.7622 26.4629L52.8737 26.2268L53.0382 25.9552L53.2066 25.4475L53.3233 24.9399L53.3813 24.7659L53.5481 24.4325L53.6903 23.9249L53.8781 23.4174L53.8889 23.3159L53.9534 22.9097L54.0627 22.402L54.1488 21.8944L54.2021 21.3869L54.2308 20.8792L54.2391 20.3716V19.8639L54.2238 19.3564L54.2308 18.8487L54.2324 18.3411L54.2149 17.8337L54.169 17.3261L54.0852 16.8184L53.9695 16.3109L53.8889 15.8878L53.8781 15.8032L53.7453 15.2956L53.6491 14.7879L53.5116 14.2804L53.3813 13.8419L53.3664 13.7727L53.2459 13.2651L53.055 12.7574L52.8737 12.4625L52.7733 12.2499L52.5717 11.7423L52.3661 11.4926L52.2019 11.2349L52.0024 10.7272L51.8585 10.5519L51.6212 10.2196L51.3509 9.9181L51.1639 9.7121L50.8433 9.3736L50.6809 9.2044L50.3357 8.8591L50.1733 8.6968L49.8281 8.356L49.6201 8.1891L49.3205 7.9715L48.8129 7.6816L48.3053 7.319L47.9246 7.1739L47.7977 7.1158L47.2901 6.7879L46.8912 6.6663L46.7825 6.6119L46.2749 6.4725L45.7673 6.4548L45.2597 6.4214L44.7521 6.3564L44.2445 6.3377L43.7369 6.36L43.2292 6.3925L42.7216 6.462L42.214 6.6396L42.1616 6.6663L41.7064 6.8334L41.1988 7.0793L41.0393 7.1739L40.6912 7.2945L40.1836 7.5322L39.9921 7.6816L39.676 7.8677L39.2094 8.1891L39.1684 8.2187L38.6608 8.6562L38.621 8.6968L38.1711 9.2044L38.1532 9.2305L37.8498 9.7121L37.6456 10.2062L37.6341 10.2196L37.316 10.7272L37.225 11.2349L37.2053 11.7423L37.3495 12.2499L37.6362 12.7574L37.6456 12.7741L37.801 13.2651L37.9434 13.7727L38.1532 14.2355L38.1701 14.2804L38.3327 14.7879L38.4423 15.2956L38.4828 15.8032L38.4372 16.3109L38.3436 16.8184L38.1532 17.2971L38.1354 17.3261L37.7889 17.8337L37.6456 17.9982L37.249 18.3411L37.138 18.43L36.6304 18.8126L36.5707 18.8487L36.1228 19.0198L35.6152 19.0448L35.1076 18.9797L34.7146 18.8487L34.6 18.7906L34.0924 18.5634L33.5848 18.3873L33.5111 18.3411L33.0772 17.9727L32.9668 17.8337L32.604 17.3261L32.5696 17.2862L32.2472 16.8184L32.062 16.5268L31.9653 16.3109L31.8194 15.8032L31.5544 15.3529L31.5245 15.2956L31.4304 14.7879L31.247 14.2804L31.0706 13.7727L31.0468 13.6639L30.9925 13.2651L30.9699 12.7574L31.0153 12.2499L31.0468 12.0157L31.1041 11.7423L31.1918 11.2349L31.2371 10.7272L31.2815 10.2196L31.3185 9.7121L31.3885 9.2044L31.5492 8.6968L31.5544 8.6855L31.8235 8.1891L31.9452 7.6816L32.062 7.4481L32.2472 7.1739L32.5504 6.6663L32.5696 6.6335L32.8794 6.1586L33.0772 5.9238L33.3224 5.6511L33.5848 5.2972L33.7459 5.1434L34.0924 4.7969L34.2334 4.6361L34.5843 4.1284L34.6 4.1124L35.1076 3.7288L35.2061 3.6208L35.6152 3.3409L36.0071 3.1131L36.1228 3.024L36.5919 2.6056L36.6304 2.5755L37.138 2.2205L37.2696 2.0979L37.6456 1.8234L38.0378 1.5903L38.1532 1.5346L38.6608 1.322L39.0597 1.0826L39.1684 1.0284L39.676 0.7661L40.1836 0.6688L40.4374 0.5751L40.6912 0.508L41.1988 0.3565L41.7064 0.222L42.214 0.1675L42.7216 0.1852L43.2292 0.2185L43.7369 0.2104L44.2445 0.1796L44.7521 0.1521L45.2597 0.1888L45.7673 0.3006L46.2749 0.4393L46.7825 0.5446L47.087 0.5751L47.2901 0.6058L47.7977 0.7698L48.3053 0.95L48.6296 1.0826L48.8129 1.1827L49.3205 1.3861L49.8281 1.5401L49.9583 1.5903L50.3357 1.7867L50.8433 2.0862L50.8644 2.0979L51.3509 2.4011L51.693 2.6056L51.8585 2.721L52.3661 3.0797L52.4014 3.1131L52.8737 3.504L53.0583 3.6208L53.3813 3.8782L53.6468 4.1284L53.8889 4.3781L54.135 4.6361L54.3965 4.8897L54.6842 5.1434L54.9041 5.3404L55.2243 5.6511L55.4117 5.851L55.6921 6.1586L55.9193 6.4084L56.1211 6.6663L56.4269 7.1339L56.4527 7.1739L56.8485 7.6816L56.9345 7.8354L57.0643 8.1891L57.3134 8.6968L57.4421 8.9252L57.5818 9.2044L57.8499 9.7121L57.9498 9.9022L58.0638 10.2196L58.2933 10.7272L58.4573 10.9937L58.5578 11.2349L58.7211 11.7423L58.8984 12.2499L58.965 12.3769L59.1066 12.7574L59.2315 13.2651L59.3224 13.7727L59.4726 14.2804L59.5596 14.7879L59.6056 15.2956L59.7022 15.8032L59.7231 16.3109L59.7332 16.8184L59.7199 17.3261V17.8337L59.7332 18.3411L59.7231 18.8487L59.7022 19.3564L59.5217 19.8639L59.5314 20.3716L59.5335 20.8792L59.5157 21.3869L59.4726 21.8022L59.4548 21.8944L59.311 22.402L59.192 22.9097L59.1259 23.4174L59.053 23.9249L59.0019 24.4325L58.965 24.6195L58.8617 24.9399L58.7079 25.4475L58.5777 25.9552L58.4573 26.32L58.3824 26.4629L58.1385 26.9704L58.0022 27.478L57.9498 27.6412L57.789 27.9857L57.5661 28.4934L57.4421 28.7534L57.2929 29.0009L57.0394 29.5085L56.9345 29.7438L56.7816 30.0162L56.5712 30.5238L56.4269 30.8283L56.2945 31.0313L56.1104 31.539L55.9193 32.0325L55.9108 32.0464L55.5885 32.554L55.4117 32.8627L55.2727 33.0617L55.0188 33.5692L54.9041 33.7961L54.7258 34.0769L54.4727 34.5845L54.3965 34.6903L54.0601 35.0922L53.8889 35.3375L53.6819 35.5997L53.3905 36.1073L53.3813 36.1203L52.9527 36.615L52.8737 36.7397L52.6257 37.1227L52.3661 37.6085L52.3473 37.6302L51.9918 38.1378L51.8585 38.3693L51.6593 38.6452L51.3509 39.0884L51.2886 39.1528L50.9631 39.6605L50.8433 39.774L50.3858 40.1682L50.3357 40.2306L49.9694 40.6757L49.8281 40.862L49.5602 41.1833L49.3205 41.4488L49.0746 41.691L48.8129 42.0195L48.6745 42.1986L48.4763 42.7062L48.4705 43.2138L48.7214 43.7215L48.8129 43.8229L49.2596 44.2291L49.3205 44.29L49.8168 44.7366L49.8281 44.7469L50.3357 45.1453L50.447 45.2443L50.8433 45.6058L51.0411 45.7517L51.3509 45.9921L51.7269 46.2593L51.8585 46.3655L52.3224 46.767L52.3661 46.8158L52.8737 47.2437L52.914 47.2746L53.3813 47.6473L53.5216 47.7821L53.8889 48.1448L54.0634 48.2898L54.3965 48.6128L54.5731 48.7975L54.9041 49.1145L55.1729 49.3051L55.4117 49.4841L55.7839 49.8126L55.9193 49.9503L56.3235 50.3203L56.4269 50.4166L56.8857 50.8279L56.9345 50.8765L57.3763 51.3355L57.4421 51.3927L57.9498 51.7555L58.0538 51.8431L58.4573 52.1889L58.6537 52.3505L58.965 52.7531L59.0665 52.8581L59.4726 53.1746L59.6521 53.3658L59.9802 53.7198L60.1208 53.8735L60.4878 54.2966L60.5829 54.381L60.9954 54.659L61.3653 54.8886L61.503 55.0156L61.8722 55.3963L62.0106 55.5267L62.4994 55.9039L62.5182 55.9197L63.0258 56.2831L63.2 56.4114L63.5334 56.7775L63.6748 56.9191L64.041 57.1983L64.3924 57.4268L64.5486 57.5717L64.8306 57.9344L64.9956 58.4419L64.7681 58.9494L64.5486 59.1603L64.2127 59.4569L64.041 59.6657L63.791 59.9646L63.5334 60.303L63.3765 60.4723L63.0258 60.9107L62.9803 60.9799L62.6518 61.4874L62.5182 61.6501L62.1979 61.9951L62.0106 62.22L61.7151 62.5028L61.503 62.6897L61.1865 63.0104L60.9954 63.19L60.4878 63.3748L59.9802 63.2608L59.5106 63.0104L59.4726 62.9799L58.965 62.5559L58.9064 62.5028L58.4573 62.0537L58.406 61.9951L57.9498 61.539L57.8953 61.4874L57.4421 61.0396L57.3696 60.9799L56.9345 60.6377L56.718 60.4723L56.4269 60.2049L56.1657 59.9646L55.9193 59.722L55.6655 59.4569L55.4117 59.142L55.2903 58.9494L54.9041 58.5364L54.7811 58.4419L54.3965 58.1323L54.1883 57.9344L53.8889 57.646L53.6198 57.4268L53.3813 57.1846L53.1512 56.9191L52.8737 56.6452L52.6199 56.4114L52.3661 56.1682L52.0824 55.9039L51.8585 55.6731L51.5137 55.3963L51.3509 55.2634L50.8732 54.8886L50.8433 54.8615L50.3357 54.4414L50.276 54.381L49.8281 53.9111L49.7886 53.8735L49.3205 53.3862L49.3015 53.3658L48.8129 52.9363L48.6983 52.8581L48.3053 52.515L48.1408 52.3505L47.7977 52.1047L47.5001 51.8431L47.2901 51.5703L47.0621 51.3355L46.7825 51.0712L46.5092 50.8279L46.2749 50.6073L45.8349 50.3203L45.7673 50.2702L45.2859 49.8126L45.2597 49.7839L44.7521 49.3692L44.6708 49.3051L44.2445 48.8896L44.1368 48.7975L43.7369 48.4868L43.2292 48.3571L42.7216 48.4607L42.2493 48.7975L42.214 48.8304L41.8079 49.3051L41.7064 49.4023L41.2916 49.8126L41.1988 49.9234L40.7914 50.3203L40.6912 50.4154L40.3247 50.8279L40.1836 50.9972L39.7931 51.3355L39.676 51.4427L39.3671 51.8431L39.1684 52.0258L38.7294 52.3505L38.6608 52.4301L38.2577 52.8581L38.1532 52.9346L37.6456 53.3188L37.5949 53.3658L37.138 53.7228L36.9371 53.8735L36.6304 54.146L36.4153 54.381L36.1228 54.6175L35.8035 54.8886L35.6152 55.0423L35.1513 55.3963L35.1076 55.424L34.6 55.816L34.5275 55.9039L34.0924 56.2694L33.8912 56.4114L33.5848 56.6777L33.3583 56.9191L33.0772 57.1245L32.6696 57.4268L32.5696 57.4999L32.062 57.8481L31.9774 57.9344L31.5544 58.2968L31.382 58.4419L31.0468 58.7195L30.7267 58.9494L30.5392 59.0575L30.0316 59.422L29.9854 59.4569L29.524 59.8073L29.3608 59.9646L29.0163 60.2089L28.6912 60.4723L28.5087 60.5914L28.0011 60.8415L27.7643 60.9799L27.4935 61.12L26.9859 61.4594L26.9448 61.4874L26.4783 61.6837L25.9974 61.9951L25.9707 62.0105L25.4631 62.2188L24.9555 62.4773L24.9011 62.5028L24.4479 62.6486L23.9403 62.8874L23.759 63.0104L23.4327 63.1447L22.9251 63.2739L22.4175 63.3205L21.9099 63.4068L21.4023 63.5179L20.8947 63.5808L20.3871 63.6073L19.8795 63.6136L19.3719 63.6086L18.8643 63.5985L18.3567 63.6638L17.8491 63.7717L17.3415 63.8477L16.8339 63.8098L16.3263 63.6578L15.9456 63.5179Z" fill="white"/>
</g>
<defs>
<clipPath id="clip0">
<rect width="64" height="64" fill="white" transform="translate(0.995605)"/>
</clipPath>
</defs>
</svg>
