<svg width="65" height="64" viewBox="0 0 65 64" fill="none" xmlns="http://www.w3.org/2000/svg">
<g clip-path="url(#clip0)">
<path d="M31.6759 59.2551L31.4386 59.1796L31.0233 59.0734L30.6079 58.9722L30.1926 58.8482L30.1674 58.8397L29.7772 58.6847L31.0233 55.7708L31.4386 55.878L31.7806 55.9325L31.8539 55.952L32.1031 55.9325L32.2693 55.9259L32.3385 55.9325L32.6846 55.9964L33.1 55.9568L33.2846 55.9325L33.5153 55.9157L33.9306 55.8828L34.346 55.8402L34.7613 55.761L35.1766 55.5523L35.2238 55.5171L35.592 55.3391L35.946 55.1018L36.0073 55.0616L36.4227 54.855L36.6073 54.6864L36.838 54.4269L36.981 54.2711L37.2533 54.0194L37.4121 53.8557L37.6687 53.5914L37.8152 53.4403L38.0026 53.025L38.084 52.874L38.2778 52.6096L38.4758 52.1945L38.4993 52.1252L38.6724 51.7792L38.8432 51.3638L38.9034 50.9484L38.9147 50.8919L39.0291 50.5331L39.0906 50.1177L39.1348 49.7024L39.152 49.287L39.157 48.8717L39.1476 48.4563L39.118 48.041L39.0768 47.6256L38.9756 47.2102L38.9147 47.0471L38.8404 46.7951L38.732 46.3798L38.4993 46.0308L38.468 45.9644L38.2412 45.5491L38.084 45.3376L37.9521 45.1337L37.6687 44.7741L37.6252 44.7183L37.3324 44.303L37.2533 44.209L36.9546 43.8876L36.838 43.777L36.4227 43.5179L36.3361 43.4723L36.0073 43.2591L35.6138 43.0569L35.592 43.0444L35.1766 42.8345L34.7613 42.6416L34.346 42.4726L33.9306 42.4104L33.5153 42.3915L33.1 42.4017L32.6846 42.4147L32.2693 42.4282L31.8539 42.4477L31.4386 42.5223L31.0233 42.6416L30.6079 42.7528L30.1926 42.9392L30.0133 43.0569L29.7772 43.1558L29.3619 43.3684L29.2235 43.4723L28.9466 43.7202L28.7389 43.8876L28.5312 44.0211L28.239 44.303L28.1159 44.4175L27.8252 44.7183L27.7006 44.8908L27.517 45.1337L27.2852 45.5491L27.037 45.9644L26.911 46.3798L26.8699 46.4834L26.6768 46.7951L26.5181 47.2102L26.4668 47.6256L26.4545 47.7088L26.3823 48.041L26.3492 48.4563L26.3752 48.8717V49.287L26.3492 49.7024L26.3823 50.1177L26.4545 50.45L26.4668 50.5331L26.6029 50.9484L26.7275 51.3638L26.8699 51.6658L26.9033 51.7792L26.9801 52.1945L27.1032 52.6096L27.2852 52.8472L27.4068 53.025L27.7006 53.3262L27.8162 53.4403L28.1159 53.7937L28.1558 53.8557L28.5312 54.2711L28.9466 54.6408L28.9985 54.6864L29.3619 54.9648L29.5918 55.1018L29.7772 55.2421L30.1926 55.3991L30.473 55.5171L30.6079 55.6029L31.0233 55.7708L29.7772 58.6847L29.3619 58.6043L28.9466 58.4817L28.8291 58.4244L28.5312 58.2272L28.1159 58.0944L27.8349 58.009L27.7006 57.9447L27.2852 57.6794L27.1574 57.5939L26.8699 57.395L26.4545 57.1785L26.0392 56.8088L25.9789 56.7632L25.6239 56.5239L25.4586 56.3478L25.2085 56.0296L25.1088 55.9325L24.7932 55.599L24.73 55.5171L24.4098 55.1018L24.3779 55.0685L24.101 54.6864L23.9625 54.435L23.9014 54.2711L23.6425 53.8557L23.5472 53.6796L23.472 53.4403L23.295 53.025L23.1318 52.6907L23.0961 52.6096L22.9657 52.1945L22.855 51.7792L22.7421 51.3638L22.7165 51.253L22.6726 50.9484L22.5613 50.5331L22.5484 50.1177L22.5422 49.7024L22.5484 49.287L22.5464 48.8717L22.5355 48.4563L22.5377 48.041L22.5523 47.6256L22.6709 47.2102L22.705 46.7951L22.7165 46.7327L22.8132 46.3798L22.9405 45.9644L23.0414 45.5491L23.1318 45.2542L23.1845 45.1337L23.366 44.7183L23.4717 44.303L23.5472 44.1842L23.7887 43.8876L23.9625 43.5627L24.0227 43.4723L24.2587 43.0569L24.3779 42.8526L24.5504 42.6416L24.7932 42.3496L24.9146 42.2262L25.2085 41.9715L25.4275 41.8109L25.6239 41.6973L26.0392 41.4531L26.1376 41.3957L26.4545 41.2391L26.7435 40.9804L26.8699 40.8987L27.2852 40.6432L27.3891 40.565L27.7006 40.387L28.1159 40.1693L28.1487 40.1497L28.5312 39.9998L28.9466 39.7476L28.9774 39.7343L29.3619 39.6271L29.7772 39.5213L30.0718 39.319L30.1926 39.2425L30.5756 38.9036L30.6079 38.8733L30.9707 38.4882L31.0233 38.3577L31.1637 38.0729L31.1617 37.6576L31.1826 37.2422L31.1778 36.8268L31.1698 36.4115L31.1617 35.9963L31.1534 35.581L31.1434 35.1656L31.1384 34.7503L31.1347 34.3349L31.1752 33.9196V33.5042V33.0889V32.6735V32.2582V31.8428V31.4275V31.0121V30.5967V30.1816V29.7662V29.3509V28.9356V28.5202V28.1048V27.6895V27.2741V26.8588V26.4434V26.0281V25.6127V25.1974V24.782V24.3669L31.1701 23.9515V23.5362V23.1208L31.1734 22.7055L31.1752 22.2901L31.1784 21.8747V21.4594L31.1803 21.0441L31.0444 20.6287L31.0233 20.5932L30.8188 20.2133L30.6079 20.0025L30.1926 19.8749L29.7772 19.8447L29.3619 19.798L28.9466 19.8148L28.8563 19.798L28.5312 19.6956L28.1159 19.586L27.7006 19.5118L27.2852 19.433L27.1133 19.3826L26.8699 19.265L26.4545 19.1475L26.0392 19.1059L25.6239 19.0022L25.5085 18.9675L25.2085 18.8153L24.7932 18.6582L24.3779 18.5521L23.9625 18.3926L23.5472 18.2248L23.3993 18.1368L23.1318 17.9443L22.7165 17.7496L22.6646 17.7214L22.3012 17.4536L22.0276 17.3061L21.8858 17.2242L21.4705 17.0066L21.2663 16.8907L21.0552 16.72L20.6398 16.4794L20.6328 16.4754L20.2245 16.2245L20.0168 16.06L19.8092 15.8495L19.3938 15.6557L19.3778 15.6447L18.9785 15.3363L18.7821 15.2293L18.5631 15.0598L18.246 14.814L18.1478 14.7429L17.7325 14.4751L17.6156 14.3986L17.3171 14.1599L16.955 13.9833L16.9018 13.9487L16.4865 13.7243L16.2403 13.5681L16.0711 13.4131L15.7137 13.1527L15.6558 13.1066L15.2404 12.8187L15.1321 12.7374L14.8251 12.4657L14.6715 12.3221L14.4098 12.0998L14.1329 11.9067L13.9944 11.7844L13.6507 11.4913L13.5791 11.4336L13.1637 11.2019L12.9998 11.076L12.7484 10.8974L12.3586 10.6606L12.3331 10.6359L11.9177 10.3959L11.6905 10.2453L11.5024 10.1159L11.0871 9.94709L10.7876 9.82999L10.6717 9.75209L10.2564 9.50129L10.0685 9.41459L9.84101 9.29219L9.42571 9.19449L9.01041 9.02449L8.91811 8.99919L8.59501 8.86309L8.17971 8.74219L7.76441 8.70209L7.34901 8.68239L6.93371 8.64909L6.51831 8.62709L6.10301 8.61999L5.68771 8.61709L5.27231 8.62579L4.85701 8.66399L4.44171 8.71419L4.02631 8.72809L3.61101 8.75009L3.19561 8.92509L3.09911 8.99919L2.78031 9.14499L2.36501 9.34059L1.94961 9.38409L1.53431 9.35379L1.11901 9.11489L1.02481 8.99919L0.995605 8.58389L1.11901 8.30719L1.21341 8.16869L1.44941 7.75339L1.53431 7.65339L1.81751 7.33799L1.94961 7.11439L2.08621 6.92269L2.36501 6.62339L2.51111 6.50729L2.78031 6.34569L3.19561 6.17629L3.31831 6.09199L3.61101 5.95349L4.02631 5.81679L4.44171 5.70209L4.52911 5.67659L4.85701 5.60319L5.27231 5.43579L5.63731 5.26119L5.68771 5.24579L6.10301 5.10749L6.51831 5.02799L6.93371 4.94549L7.34901 4.92259L7.76441 4.86099L7.80211 4.84589L8.17971 4.76039L8.59501 4.67789L9.01041 4.65179L9.42571 4.65629L9.84101 4.70149L10.2564 4.78279L10.5092 4.84589L10.6717 4.90439L11.0871 5.01889L11.5024 5.08609L11.9177 5.12389L12.3331 5.13959L12.6729 5.26119L12.7484 5.30799L13.1637 5.49589L13.5791 5.65629L13.6483 5.67659L13.9944 5.80019L14.4098 5.91339L14.8251 6.06799L14.8721 6.09199L15.2404 6.32709L15.6558 6.45789L15.7554 6.50729L16.0711 6.72339L16.4749 6.92269L16.4865 6.92959L16.9018 7.10859L17.3171 7.32989L17.3273 7.33799L17.7325 7.66689L18.0813 7.75339L18.1478 7.78199L18.5631 7.99359L18.9359 8.16869L18.9785 8.20249L19.3938 8.45199L19.6181 8.58389L19.8092 8.71479L20.2245 8.95099L20.2947 8.99919L20.6398 9.26009L20.8821 9.41459L21.0552 9.56729L21.3741 9.82999L21.4705 9.91179L21.8858 10.2121L21.9378 10.2453L22.3012 10.4689L22.578 10.6606L22.7165 10.7991L23.1318 11.0134L23.2626 11.076L23.5472 11.2865L23.9625 11.4792L23.9929 11.4913L24.3779 11.6815L24.7932 11.88L24.8293 11.9067L25.2085 12.2145L25.4696 12.3221L25.6239 12.4039L26.0392 12.7297L26.0543 12.7374L26.4545 12.9714L26.8699 13.0933L27.0713 13.1527L27.2852 13.2536L27.7006 13.4462L28.0891 13.5681L28.1159 13.5806L28.5312 13.7133L28.9466 13.7782L29.3619 13.9105L29.6335 13.9833L29.7772 14.0383L30.1926 14.1675L30.6079 14.2229L31.0233 14.2476L31.4386 14.2679L31.8539 14.291L32.2693 14.3071L32.6846 14.3088L33.1 14.3119L33.5153 14.3104L33.9306 14.2976L34.346 14.2839L34.7613 14.2499L35.1766 14.1524L35.507 13.9833L35.592 13.9473L36.0073 13.8137L36.4227 13.643L36.6226 13.5681L36.838 13.5162L37.2533 13.3999L37.6687 13.1597L37.6802 13.1527L38.084 13.0168L38.4993 12.8936L38.8685 12.7374L38.9147 12.7227L39.33 12.5464L39.7453 12.397L39.9141 12.3221L40.1607 12.255L40.576 12.1515L40.9914 11.9137L41.0018 11.9067L41.4067 11.7397L41.822 11.5669L41.9498 11.4913L42.2374 11.3264L42.5077 11.076L42.6527 11.0005L43.068 10.8891L43.3408 10.6606L43.4834 10.565L43.8987 10.3619L44.1797 10.2453L44.3141 10.2046L44.7294 10.0696L45.0693 9.82999L45.1447 9.79069L45.5601 9.65999L45.9754 9.54939L46.2377 9.41459L46.3907 9.35069L46.8061 9.10469L46.9919 8.99919L47.2214 8.91849L47.6368 8.76749L47.9589 8.58389L48.0521 8.54079L48.4674 8.38069L48.8828 8.22129L48.9677 8.16869L49.2981 8.01559L49.7135 7.85419L49.8739 7.75339L50.1288 7.63889L50.5441 7.38899L50.6106 7.33799L50.9595 7.15249L51.3669 6.92269L51.3748 6.91839L51.7901 6.72469L52.2055 6.56139L52.3154 6.50729L52.6208 6.42289L53.0362 6.38909L53.4515 6.31399L53.8668 6.15429L53.9836 6.09199L54.2822 5.99929L54.6975 5.89309L55.1128 5.80329L55.5282 5.74859L55.7853 5.67659L55.9435 5.64229L56.3588 5.57269L56.7742 5.51789L57.1895 5.51689L57.6049 5.50469L58.0202 5.47649L58.4355 5.51359L58.8509 5.58639L59.2662 5.64589L59.6815 5.65029L59.9723 5.67659L60.0969 5.69609L60.5122 5.82759L60.9276 5.99039L61.156 6.09199L61.3429 6.19869L61.7582 6.34879L62.1736 6.41249L62.4436 6.50729L62.5889 6.58799L63.0042 6.84329L63.1129 6.92269L63.4196 7.14409L63.6724 7.33799L63.8349 7.50039L64.1769 7.75339L64.2503 7.81879L64.535 8.16869L64.6656 8.31609L64.8786 8.58389L64.9956 8.99919L64.9127 9.41459L64.7937 9.82999L64.6656 10.0862L64.5646 10.2453L64.2503 10.5097L63.8349 10.5776L63.4196 10.5915L63.0042 10.4662L62.5889 10.2654L62.5565 10.2453L62.1736 9.99519L61.8943 9.82999L61.7582 9.69839L61.3429 9.41459L60.9276 9.21159L60.5122 9.07989L60.1661 8.99919L60.0969 8.97199L59.6815 8.95169L59.3908 8.99919L59.2662 9.01059L58.8509 9.03229L58.4355 9.09289L58.0202 9.16859L57.6049 9.22919L57.1895 9.28229L56.7742 9.40819L56.7623 9.41459L56.3588 9.61349L56.0575 9.82999L55.9435 9.87529L55.5282 9.99999L55.1128 10.2244L55.0825 10.2453L54.6975 10.4587L54.3328 10.6606L54.2822 10.6799L53.8668 10.9352L53.7101 11.076L53.4515 11.2005L53.0362 11.3905L52.9216 11.4913L52.6208 11.6941L52.3212 11.9067L52.2055 11.9691L51.7901 12.1546L51.6048 12.3221L51.3748 12.4846L50.9935 12.7374L50.9595 12.7569L50.5441 13.0184L50.3684 13.1527L50.1288 13.268L49.7135 13.4978L49.636 13.5681L49.2981 13.8411L49.1667 13.9833L48.8828 14.1785L48.5156 14.3986L48.4674 14.4252L48.0521 14.6002L47.7479 14.814L47.6368 14.8937L47.2214 15.1293L47.0806 15.2293L46.8061 15.4371L46.5679 15.6447L46.3907 15.7433L45.9754 15.9055L45.7677 16.06L45.5601 16.1915L45.1447 16.3912L45.0236 16.4754L44.7294 16.6074L44.3141 16.8264L44.2078 16.8907L43.8987 17.0174L43.4834 17.1889L43.336 17.3061L43.068 17.4886L42.6527 17.7027L42.6181 17.7214L42.2374 17.8738L41.822 18.0953L41.7667 18.1368L41.4067 18.3187L40.9914 18.4668L40.8026 18.5521L40.576 18.6276L40.1607 18.8178L39.8937 18.9675L39.7453 19.0241L39.33 19.1189L38.9147 19.2465L38.5916 19.3826L38.4993 19.4087L38.084 19.5514L37.6687 19.6595L37.2533 19.7586L37.0457 19.798L36.838 19.8206L36.4227 19.9114L36.0199 20.2133L36.0073 20.2323L35.8218 20.6287L35.6488 21.0441L35.6642 21.4594L35.6993 21.8747L35.7435 22.2901L35.7921 22.7055L35.8322 23.1208L35.8639 23.5362L35.8754 23.9515L35.8233 24.3669L35.7226 24.782L35.6569 25.1974L35.6902 25.6127L35.7848 26.0281L35.8278 26.4434L35.7507 26.8588L35.664 27.2741L35.6391 27.6895V28.1048V28.5202V28.9356V29.3509V29.7662V30.1816V30.5967V31.0121V31.4275V31.8428V32.2582V32.6735V33.0889V33.5042V33.9196L35.6413 34.3349L35.6335 34.7503L35.6309 35.1656L35.6462 35.581L35.6947 35.9963L35.7679 36.4115L35.8422 36.8268L35.8945 37.2422L35.8412 37.6576L35.8994 38.0729L35.8721 38.4882L35.9231 38.9036L36.0073 39.0817L36.1227 39.319L36.4227 39.559L36.838 39.6525L37.074 39.7343L37.2533 39.8575L37.6687 40.0977L37.8146 40.1497L38.084 40.2742L38.4993 40.4994L38.5923 40.565L38.9147 40.7998L39.3199 40.9804L39.33 40.9867L39.7453 41.2907L39.8656 41.3957L40.1607 41.6987L40.2926 41.8109L40.576 42.0314L40.9914 42.2262L41.2175 42.6416L41.3727 43.0569L41.4067 43.1089L41.5757 43.4723L41.8156 43.8876L41.822 43.8973L42.0057 44.303L42.1965 44.7183L42.2374 44.7682L42.4166 45.1337L42.5616 45.5491L42.6527 45.874L42.6727 45.9644L42.7734 46.3798L42.9296 46.7951L43.068 47.1771L43.075 47.2102L43.1511 47.6256L43.1682 48.041L43.2024 48.4563L43.2422 48.8717L43.2597 49.287L43.2436 49.7024L43.213 50.1177L43.1904 50.5331L43.0962 50.9484L43.068 51.2039L43.0351 51.3638L42.9019 51.7792L42.7815 52.1945L42.6565 52.6096L42.6527 52.6201L42.4874 53.025L42.3432 53.4403L42.2374 53.8408L42.2297 53.8557L41.9796 54.2711L41.8258 54.6864L41.822 54.6961L41.6119 55.1018L41.4067 55.3678L41.274 55.5171L40.9914 55.8564L40.9126 55.9325L40.576 56.2238L40.4521 56.3478L40.1607 56.6013L39.9115 56.7632L39.7453 56.8479L39.3353 57.1785L39.33 57.1822L38.9147 57.4029L38.6423 57.5939L38.4993 57.6929L38.084 57.9689L38.0036 58.009L37.6687 58.11L37.2533 58.3497L37.1518 58.4244L36.838 58.5539L36.4227 58.6779L36.0765 58.8397L36.0073 58.861L35.592 58.8917L35.1766 58.9782L34.7613 59.1527L34.5407 59.2551L34.346 59.3067L33.9306 59.3482L33.5153 59.3441L33.1 59.3244L32.6846 59.3109L32.2693 59.3329L31.8539 59.286L31.6759 59.2551Z" fill="white"/>
</g>
<defs>
<clipPath id="clip0">
<rect width="64" height="64" fill="white" transform="translate(0.995605)"/>
</clipPath>
</defs>
</svg>
