<svg width="65" height="64" viewBox="0 0 65 64" fill="none" xmlns="http://www.w3.org/2000/svg">
<g clip-path="url(#clip0)">
<path d="M46.2028 57.3154L46.0637 57.2937L45.6463 57.161L45.2289 57.1121L44.8115 57.0291L44.3942 56.9252L44.2979 56.8981L43.9768 56.7867L43.5595 56.6703L43.1421 56.5882L42.7247 56.5425L42.5161 56.4807L42.3074 56.3858L41.89 56.2292L41.4726 56.0981L41.4197 56.0633L41.14 55.6459L41.1149 55.2285L41.1925 54.8112L41.3214 54.3938L41.3648 53.9764L41.4117 53.5591L41.3863 53.1417L41.3756 52.7243L41.3767 52.3069L41.4085 51.8897L41.4726 51.5459L41.4939 51.4724L41.7774 51.0549L41.89 50.9703L42.3074 50.9481L42.5555 51.0549L42.7247 51.1499L43.1421 51.3053L43.5595 51.4681L43.5692 51.4724L43.9768 51.6809L44.3942 51.8209L44.6327 51.8897L44.8115 51.9632L45.2289 52.1034L45.6463 52.1924L46.0637 52.2287L46.3903 52.3069L46.481 52.3418L46.8984 52.454L47.3157 52.481L47.7331 52.5017L48.1505 52.5103L48.5678 52.454L48.9852 52.3424L49.0466 52.3069L49.4026 52.1753L49.8199 51.9924L49.9562 51.8897L50.2373 51.706L50.5448 51.4724L50.6546 51.3959L51.0275 51.0549L51.072 51.0028L51.3642 50.6375L51.4894 50.3339L51.553 50.2202L51.6584 49.8028L51.7179 49.3855L51.755 48.9681L51.7312 48.5507L51.6661 48.1333L51.562 47.7159L51.4894 47.5642L51.3886 47.2985L51.1647 46.8812L51.072 46.7644L50.8865 46.464L50.6546 46.0556L50.6494 46.0466L50.2373 45.6292L49.8663 45.2119L49.8199 45.1645L49.4026 44.9177L49.1243 44.7945L48.9852 44.7123L48.5678 44.5095L48.2287 44.3771L48.1505 44.3346L47.7331 44.1559L47.3157 43.9776L47.2651 43.9598L46.8984 43.7818L46.481 43.7052L46.0637 43.672L45.6463 43.6341L45.2471 43.5424L45.2289 43.535L44.8115 43.3906L44.3942 43.3361L43.9768 43.3338L43.5595 43.3392L43.1421 43.3363L42.7247 43.3266L42.3074 43.3258H41.89H41.4726H41.0553H40.6379H40.2206H39.8032H39.3858L38.9685 43.3386H38.5511H38.1337H37.7164H37.299H36.8817H36.4643H36.0469L35.6296 43.3173L35.2122 43.3194L34.7948 43.3489H34.3775L33.9601 43.2341L33.714 43.125L33.5428 43.0099L33.1351 42.7076L33.1254 42.6995L32.708 42.3078L32.695 42.2902L32.4108 41.8728L32.2906 41.7232L32.0654 41.4555L31.8733 41.2503L31.726 41.0383L31.4559 40.6739L31.4152 40.6209L31.0386 40.2249L31.0215 40.2035L30.706 39.7862L30.6212 39.673L30.429 39.3688L30.2038 39.1208L30.071 38.9514L29.7937 38.534L29.7865 38.5249L29.4511 38.1166L29.3691 38.0266L29.1272 37.6992L28.9517 37.4792L28.8178 37.2819L28.5344 36.9394L28.4787 36.8645L28.1899 36.4471L28.117 36.343L27.8984 36.0298L27.6997 35.8483L27.4883 35.6124L27.2823 35.3566L27.1644 35.1952L26.8649 34.8601L26.7847 34.7778L26.4476 34.3967L26.4155 34.3605L26.0548 33.9431L26.0302 33.9139L25.7694 33.5257L25.6128 33.333L25.4358 33.1083L25.1955 32.825L25.1039 32.6909L24.7781 32.33L24.7307 32.2735L24.4405 31.8562L24.3608 31.7269L24.1853 31.4388L23.9434 31.1739L23.8367 31.0214L23.548 30.604L23.526 30.5821L23.2041 30.1866L23.1087 30.0789L22.8801 29.7695L22.6913 29.5095L22.5698 29.3521L22.2739 29.0181L22.1714 28.9347L21.8566 28.6745L21.4392 28.702L21.0693 28.9347L21.0219 28.9653L20.6408 29.3521L20.6045 29.393L20.3064 29.7695L20.1871 29.8828L19.8673 30.1866L19.7697 30.2831L19.4567 30.604L19.3524 30.7325L19.0802 31.0214L18.935 31.1551L18.622 31.4388L18.5177 31.5309L18.2085 31.8562L18.1003 31.9999L17.8777 32.2735L17.6829 32.4949L17.4981 32.6909L17.2656 33.0609L17.2221 33.1083L16.885 33.5257L16.8482 33.5752L16.4987 33.9431L16.4308 34.0195L16.1813 34.3605L16.0135 34.5834L15.8191 34.7778L15.5961 35.036L15.4292 35.1952L15.1788 35.4682L15.0586 35.6124L14.7614 35.9566L14.6869 36.0298L14.4089 36.4471L14.344 36.5113L13.9985 36.8645L13.9267 36.946L13.5866 37.2819L13.5093 37.3677L13.2141 37.6992L13.0919 37.8444L12.8074 38.1166L12.6746 38.2678L12.4475 38.534L12.2572 38.7737L12.0888 38.9514L11.8399 39.1767L11.6507 39.3688L11.4225 39.6344L11.281 39.7862L11.0051 40.0487L10.866 40.2035L10.5878 40.4988L10.4409 40.6209L10.1704 40.8182L9.75301 40.9124L9.33571 40.8691L8.91831 40.7334L8.63211 40.6209L8.50101 40.548L8.08361 40.3605L7.66621 40.2035L7.24881 39.9026L7.10151 39.7862L6.83151 39.5036L6.71771 39.3688L6.41411 38.9725L6.40051 38.9514L6.19371 38.534L6.14081 38.1166L6.22811 37.6992L6.38051 37.2819L6.41411 37.2348L6.70471 36.8645L6.83151 36.7556L7.15401 36.4471L7.24881 36.3359L7.55901 36.0298L7.66621 35.9149L7.91171 35.6124L8.08361 35.3877L8.27331 35.1952L8.50101 34.9773L8.70351 34.7778L8.91831 34.5215L9.05331 34.3605L9.33571 34.0113L9.39931 33.9431L9.63791 33.5257L9.75301 33.3939L10.0349 33.1083L10.1704 32.9923L10.4653 32.6909L10.5878 32.5202L10.7992 32.2735L11.0051 32.0368L11.1623 31.8562L11.4225 31.5331L11.5199 31.4388L11.8399 31.1862L12.0025 31.0214L12.2572 30.6712L12.3371 30.604L12.6746 30.3209L12.792 30.1866L13.0919 29.8558L13.1667 29.7695L13.5093 29.3869L13.5473 29.3521L13.8969 28.9347L13.9267 28.9017L14.3061 28.5173L14.344 28.4783L14.6901 28.0999L14.7614 28.0177L15.0829 27.6826L15.1788 27.5733L15.4459 27.2652L15.5961 27.1041L15.7831 26.8478L16.0135 26.5713L16.1722 26.4305L16.4308 26.1888L16.6534 26.0131L16.8482 25.8613L17.1322 25.5957L17.2656 25.4866L17.6273 25.1783L17.6829 25.1205L17.9804 24.7609L18.1003 24.581L18.2999 24.3437L18.5177 24.1194L18.7079 23.9263L18.935 23.7117L19.0938 23.509L19.3524 23.2222L19.488 23.0916L19.7697 22.7222L19.8346 22.6742L20.1871 22.4476L20.3958 22.2569L20.6045 21.9462L20.6797 21.8395L20.7052 21.4221L20.6045 21.2797L20.2915 21.0047L20.1871 20.9442L19.7697 20.8676L19.3524 20.9158L18.935 20.9471L18.564 21.0047L18.5177 21.0089L18.4759 21.0047L18.1003 20.9399L17.6829 20.7872L17.2656 20.689L16.8482 20.6736L16.4308 20.7055L16.0135 20.7319L15.5961 20.7118L15.1788 20.7162L14.7614 20.7191L14.344 20.7078L13.9267 20.6758L13.5093 20.6355L13.0919 20.599L12.8833 20.5874L12.6746 20.5677L12.2572 20.5743H11.8399H11.4225H11.0051H10.5878H10.1704H9.75301H9.33571L8.91831 20.55L8.50101 20.5178L8.08361 20.4925L7.66621 20.5178L7.24881 20.5563L6.83151 20.5686L6.41411 20.5313L5.99681 20.4863L5.57941 20.4522L5.16201 20.5088L4.74471 20.5178L4.32731 20.4539L3.90991 20.3924L3.49261 20.3813L3.07521 20.3939L2.65791 20.3985L2.24051 20.2546L1.97771 20.1699L1.82311 20.1057L1.40581 19.7967L1.36911 19.7526L1.20971 19.3353L1.08521 18.9178L1.01001 18.5006L0.995605 18.0833L1.04981 17.666L1.16881 17.2485L1.32601 16.8312L1.40581 16.6662L1.54851 16.4138L1.77431 15.9964L1.82311 15.9368L2.24051 15.6803L2.53611 15.579L2.65791 15.5506L2.90131 15.579L3.07521 15.6127L3.49261 15.7162L3.90991 15.8026L4.32731 15.8618L4.74471 15.8984L5.16201 15.9213L5.57941 15.9297L5.99681 15.95L6.41411 15.9542H6.83151L7.24881 15.9585L7.66621 15.9626L8.08361 15.9664L8.50101 15.9707H8.91831L9.33571 15.9706L9.75301 15.9664H10.1704H10.5878L11.0051 15.9707L11.4225 15.975L11.8399 15.9834L12.2572 15.9878L12.2786 15.9964L12.6746 16.197L13.0919 16.1996L13.5093 16.2049L13.9267 16.2106L14.344 16.2214L14.7614 16.2271L15.1788 16.2326H15.5961L16.0135 16.2312H16.4308H16.8482H17.2656H17.6829H18.1003H18.5177H18.935L19.3524 16.2371L19.7697 16.2728L20.1871 16.322L20.6045 16.3594L21.0219 16.3819L21.4392 16.3899L21.8566 16.3856L22.2739 16.381L22.6913 16.389H23.1087L23.526 16.381L23.9434 16.3728L24.3608 16.3769L24.7364 16.4138L24.7781 16.421L25.1955 16.5097L25.6128 16.5592L26.0302 16.6029L26.4476 16.5869L26.8649 16.5655L27.2823 16.5661L27.6997 16.5998L28.117 16.6632L28.5344 16.7192L28.9517 16.7535L29.3691 16.817L29.7865 16.8171H30.2038L30.6212 16.8174H31.0386L31.4559 16.8176H31.8733H32.2906L32.708 16.8171L33.1254 16.8263L33.2089 16.8312L33.5428 16.8598L33.9601 16.9403L34.3775 17.0115L34.7948 17.0503L35.2122 17.06L35.6296 17.0574L36.0469 17.0289L36.4643 17.0372L36.8817 17.055L37.299 17.0825L37.7164 17.1139L38.1337 17.1389L38.5511 17.1592L38.9685 17.1731L39.3858 17.1878H39.8032H40.2206H40.6379H41.0553H41.4726H41.89H42.3074H42.7247H43.1421H43.5595H43.9768H44.3942H44.8115H45.2289H45.6463L46.0637 17.1917H46.481H46.8984H47.3157H47.7331H48.1505H48.5678H48.9852L49.4026 17.1905L49.8199 17.2119L50.2373 17.1608L50.6546 16.9104L50.7366 16.8312L50.8461 16.4138L50.7606 15.9964L50.6546 15.8572L50.4937 15.579L50.3029 15.1617L50.2373 14.9067L50.2102 14.7442L50.1588 14.3269L50.1529 13.9096L50.1465 13.4921L50.1499 13.0749L50.1318 12.6576L50.1268 12.2402L50.1851 11.8228L50.2373 11.6799L50.3885 11.4054L50.5758 10.9881L50.6546 10.819L50.7919 10.5706L50.9578 10.1533L51.072 9.956L51.2252 9.736L51.4616 9.3185L51.4894 9.2852L51.8242 8.9012L51.9067 8.8026L52.2088 8.4838L52.3241 8.3729L52.6468 8.0664L52.7415 7.9869L53.1588 7.741L53.2612 7.6492L53.5762 7.4429L53.9836 7.2319L53.9935 7.2274L54.4109 7.1157L54.8283 7.0513L55.2456 6.9679L55.663 6.8292L55.7027 6.8145L56.0804 6.7318L56.4977 6.6874L56.9151 6.6348L57.3324 6.6082L57.7498 6.5979L58.1672 6.6131L58.5846 6.6555L59.0019 6.697L59.4193 6.8145L59.8366 6.9084L60.254 7.0694L60.6714 7.2227L60.6871 7.2319L61.0887 7.5047L59.0019 10.812L58.5846 10.6761L58.1672 10.6019L57.7498 10.5706L57.3324 10.5748L56.9151 10.6105L56.4977 10.6958L56.0804 10.9606L56.0489 10.9881L55.6676 11.4054L55.663 11.4114L55.2944 11.8228L55.2456 11.9046L55.0425 12.2402L54.8872 12.6576L54.8283 12.9429L54.7866 13.0749L54.7194 13.4921L54.7517 13.9096L54.8283 14.1008L54.8866 14.3269L55.0776 14.7442L55.2456 14.9797L55.3828 15.1617L55.663 15.4307L55.8337 15.579L56.0804 15.8084L56.3232 15.9964L56.4977 16.1335L56.9151 16.3441L57.0542 16.4138L57.3324 16.6004L57.7498 16.7686L58.1115 16.8312L58.1672 16.8475L58.2268 16.8312L58.5846 16.7796L59.0019 16.6546L59.2909 16.4138L59.4193 16.2944L59.7614 15.9964L59.8366 15.9114L60.0609 15.579L60.2452 15.1617L60.254 15.1446L60.5087 14.7442L60.6334 14.3269L60.6714 13.9512L60.6781 13.9096L60.6783 13.4921L60.6714 13.4542L60.6338 13.0749L60.6018 12.6576L60.4536 12.2402L60.254 11.9984L60.1348 11.8228L59.8366 11.4546L59.7903 11.4054L59.4193 11.0874L59.2675 10.9881L59.0019 10.812L61.0887 7.5047L61.3777 7.6492L61.5061 7.7262L61.9235 7.9562L62.0808 8.0664L62.3408 8.3224L62.46 8.4838L62.7582 8.782L62.8774 8.9012L63.1755 9.2141L63.2948 9.3185L63.5929 9.6255L63.672 9.736L64.0103 10.1097L64.049 10.1533L64.2421 10.5706L64.4276 10.9046L64.4668 10.9881L64.5966 11.4054L64.7496 11.8228L64.845 12.1131L64.8694 12.2402L64.8985 12.6576L64.8954 13.0749L64.9472 13.4921L64.9885 13.9096L64.9956 14.3269L64.9513 14.7442L64.9036 15.1617L64.845 15.5131L64.8254 15.579L64.6468 15.9964L64.5239 16.4138L64.4276 16.779L64.4068 16.8312L64.219 17.2485L64.0792 17.666L64.0103 17.8161L63.8322 18.0833L63.5929 18.3979L63.503 18.5006L63.2181 18.9178L63.1755 18.9694L62.7856 19.3353L62.7582 19.3661L62.4167 19.7526L62.3408 19.81L61.9235 19.992L61.7183 20.1699L61.5061 20.3106L61.0887 20.5053L60.9459 20.5874L60.6714 20.7177L60.254 20.9974L60.2417 21.0047L59.8366 21.1528L59.4193 21.2342L59.0019 21.3063L58.6044 21.4221L58.5846 21.4266L58.1672 21.5814L57.7498 21.7747L57.5709 21.8395L57.3324 21.8901L56.9151 21.9256L56.4977 21.9392L56.0804 21.9481L55.663 21.9394H55.2456H54.8283H54.4109H53.9935H53.5762H53.1588H52.7415H52.3241H51.9067H51.4894H51.072H50.6546H50.2373H49.8199H49.4026H48.9852H48.5678H48.1505H47.7331H47.3157H46.8984H46.481H46.0637L45.6463 21.946L45.2289 21.958H44.8115L44.3942 21.9299L43.9768 21.8804L43.629 21.8395L43.5595 21.8245L43.1421 21.7752L42.7247 21.7619L42.3074 21.7762L41.89 21.7772L41.4726 21.7834H41.0553L40.6379 21.771L40.2206 21.7522L39.8032 21.7335L39.3858 21.7211L38.9685 21.5798L38.5511 21.563L38.1337 21.558L37.7164 21.568L37.299 21.5595L36.8817 21.5341L36.4643 21.529L36.0469 21.5444L35.6296 21.4774L35.2678 21.4221L35.2122 21.4072L34.7948 21.3212L34.3775 21.3113L33.9601 21.3322L33.5428 21.3301L33.1254 21.3104L32.708 21.3046L32.2906 21.315H31.8733H31.4559H31.0386H30.6212H30.2038H29.7865H29.3691L28.9517 21.3163L28.5344 21.334L28.117 21.3249L27.6997 21.2669L27.2823 21.1988L26.8649 21.159L26.4476 21.1557L26.0302 21.1663L25.6128 21.1767L25.1955 21.1515L24.7781 21.1186L24.3608 21.119L23.9434 21.2579L23.7645 21.4221L23.6773 21.8395L23.8374 22.2569L23.9434 22.3853L24.1819 22.6742L24.3608 22.8224L24.6196 23.0916L24.7781 23.3277L24.8952 23.509L25.116 23.9263L25.1955 24.0352L25.3953 24.3437L25.6128 24.6295L25.6983 24.7609L26.0302 25.1602L26.0449 25.1783L26.3705 25.5957L26.4476 25.698L26.7093 26.0131L26.8649 26.1373L27.1468 26.4305L27.2823 26.6043L27.4626 26.8478L27.6997 27.1732L27.762 27.2652L28.0962 27.6826L28.117 27.7117L28.3283 28.0999L28.5344 28.3805L28.6299 28.5173L28.9517 28.9221L28.9611 28.9347L29.283 29.3521L29.3691 29.4425L29.6113 29.7695L29.7865 29.9664L29.9688 30.1866L30.2038 30.5165L30.2762 30.604L30.6212 30.9401L30.6786 31.0214L30.856 31.4388L31.0386 31.6823L31.1599 31.8562L31.4559 32.2667L31.4606 32.2735L31.7582 32.6909L31.8733 32.8003L32.0774 33.1083L32.2906 33.4407L32.3476 33.5257L32.6037 33.9431L32.708 34.0381L33.0681 34.3605L33.1254 34.4268L33.3369 34.7778L33.5428 35.0163L33.6836 35.1952L33.9601 35.5764L33.9786 35.6124L34.1418 36.0298L34.3775 36.4007L34.4036 36.4471L34.7867 36.8645L34.7948 36.8748L35.0685 37.2819L35.2122 37.4357L35.4758 37.6992L35.6296 37.8559L35.8771 38.1166L36.0469 38.2577L36.4643 38.4378L36.8295 38.534L36.8817 38.5556L37.299 38.5945L37.7164 38.607L38.1337 38.6302L38.5511 38.6252L38.9685 38.5835L39.3858 38.5681L39.8032 38.5812L40.2206 38.6058L40.6379 38.6289L41.0553 38.6188L41.4726 38.6013L41.89 38.6252L42.3074 38.6691L42.7247 38.755L43.1421 38.7591L43.5595 38.7609L43.9768 38.7694L44.3942 38.8136L44.8115 38.8777L45.2289 38.9314L45.527 38.9514L45.6463 38.9663L46.0637 39.0839L46.481 39.193L46.8984 39.2962L47.3157 39.3606L47.3753 39.3688L47.7331 39.4373L48.1505 39.5448L48.5678 39.6988L48.8461 39.7862L48.9852 39.8389L49.4026 40.0169L49.8199 40.0853L50.1851 40.2035L50.2373 40.2356L50.6546 40.5039L50.9468 40.6209L51.072 40.6795L51.4894 40.8578L51.7815 41.0383L51.9067 41.1345L52.3241 41.3344L52.5002 41.4555L52.7415 41.6561L53.0344 41.8728L53.1588 41.9821L53.5762 42.2306L53.6584 42.2902L53.9935 42.5739L54.1516 42.7076L54.4109 42.9299L54.5987 43.125L54.8283 43.3951L54.9447 43.5424L55.1567 43.9598L55.2456 44.066L55.4789 44.3771L55.663 44.6553L55.7318 44.7945L55.9601 45.2119L56.0804 45.3694L56.2132 45.6292L56.4182 46.0466L56.4977 46.2253L56.5745 46.464L56.72 46.8812L56.7839 47.2985L56.9009 47.7159L56.9151 47.7623L56.9832 48.1333L57.0432 48.5507L57.08 48.9681L57.0983 49.3855L57.0989 49.8028L57.083 50.2202L57.0452 50.6375L56.9854 51.0549L56.9151 51.4491L56.9079 51.4724L56.7436 51.8897L56.5784 52.3069L56.4977 52.5096L56.3856 52.7243L56.2786 53.1417L56.0923 53.5591L56.0804 53.5807L55.7898 53.9764L55.663 54.1896L55.5218 54.3938L55.2456 54.8021L55.2382 54.8112L54.8457 55.2285L54.8283 55.2442L54.4109 55.6213L54.3868 55.6459L53.9935 55.9261L53.8045 56.0633L53.5762 56.2057L53.256 56.4807L53.1588 56.5523L52.7415 56.6978L52.3241 56.8917L52.3111 56.8981L51.9067 57.0434L51.4894 57.1881L51.072 57.2609L50.6964 57.3154L50.6546 57.3195L50.2373 57.3756L49.8199 57.4006L49.4026 57.3888L48.9852 57.3473L48.5678 57.3554L48.1505 57.3727L47.7331 57.3938L47.3157 57.4021L46.8984 57.3809L46.481 57.3395L46.2028 57.3154Z" fill="white"/>
</g>
<defs>
<clipPath id="clip0">
<rect width="64" height="64" fill="white" transform="translate(0.995605)"/>
</clipPath>
</defs>
</svg>
