<svg width="65" height="64" viewBox="0 0 65 64" fill="none" xmlns="http://www.w3.org/2000/svg">
<g clip-path="url(#clip0)">
<path d="M8.57501 59.6681L8.49281 59.6614L8.08141 59.5933L7.67011 59.4762L7.25881 59.3528L6.84751 59.285L6.73231 59.2567L6.43611 59.1494L6.02481 58.9871L5.72131 58.8454L5.61351 58.7713L5.20221 58.5314L5.02121 58.4342L4.79091 58.2901L4.38731 58.0228L4.37951 58.0159L3.96821 57.6792L3.88701 57.6115L3.55691 57.3176L3.42481 57.2001L3.14561 56.9371L2.99901 56.7888L2.73421 56.4112L2.71191 56.3775L2.44391 55.9662L2.32291 55.7983L2.20121 55.5548L1.98911 55.1435L1.91161 55.022L1.79241 54.7322L1.63021 54.3209L1.54531 53.9096L1.50031 53.7988L1.41711 53.4982L1.26821 53.0869L1.10241 52.6756L1.08891 52.6323L1.02971 52.2643L1.00251 51.8529L0.995605 51.4416L0.997905 51.0304L1.01861 50.619L1.08171 50.2077L1.08891 50.1848L1.27791 49.7963L1.40791 49.385L1.50031 48.9916L1.50661 48.9737L1.73081 48.5623L1.91161 48.1884L1.94321 48.151L2.32291 47.8163L2.39711 47.7397L2.73421 47.3725L2.77541 47.3284L3.14561 46.9813L3.21771 46.9171L3.55691 46.6973L3.90821 46.5058L3.96821 46.4758L4.37951 46.2083L4.56011 46.0944L4.79091 46.0114L5.20221 45.9509L5.61351 45.9182L6.02481 45.8262L6.35391 45.6831L6.43611 45.6568L6.84751 45.5833L7.25881 45.5734L7.58791 45.6831L7.67011 45.7296L8.08141 45.8367L8.49281 45.8992L8.90411 46.0868L8.91331 46.0944L9.31541 46.501L9.31931 46.5058L9.50941 46.9171L9.46381 47.3284L9.31541 47.4997L9.00051 47.7397L8.90411 47.8091L8.49281 48.1268L8.44831 48.151L8.08141 48.2895L7.72011 48.5623L7.67011 48.6168L7.38121 48.9737L7.25881 49.1343L7.05571 49.385L6.95831 49.7963L6.93301 50.2077L6.90431 50.619L6.93811 51.0304L6.95721 51.4416L7.03401 51.8529L7.25881 52.1921L7.29871 52.2643L7.56731 52.6756L7.67011 52.7861L8.08141 53.0831L8.08851 53.0869L8.49281 53.3503L8.87991 53.4982L8.90411 53.5119L9.31541 53.6473L9.72671 53.7416L10.1381 53.8422L10.5494 53.8881L10.8236 53.9096L10.9607 53.9308L11.372 53.9245L11.4896 53.9096L11.7833 53.8909L12.1947 53.8535L12.606 53.7815L13.0173 53.7018L13.4286 53.6055L13.6235 53.4982L13.84 53.4088L14.2513 53.1852L14.4118 53.0869L14.6626 52.988L15.0739 52.7213L15.1304 52.6756L15.4853 52.4675L15.7616 52.2643L15.8966 52.1627L16.2622 51.8529L16.3079 51.8222L16.7192 51.5088L16.775 51.4416L17.1306 51.0736L17.1691 51.0304L17.5419 50.6743L17.6057 50.619L17.9532 50.2077L18.2784 49.7963L18.3645 49.655L18.586 49.385L18.7758 49.1297L18.889 48.9737L19.0853 48.5623L19.1872 48.4102L19.4237 48.151L19.5985 47.7731L19.6175 47.7397L19.6652 47.3284L19.5985 47.1582L19.5286 46.9171L19.1872 46.5106L19.1815 46.5058L18.7758 46.1573L18.7114 46.0944L18.3645 45.7848L18.2448 45.6831L17.9532 45.3632L17.872 45.2718L17.5419 44.9645L17.4302 44.8605L17.1306 44.5533L17.0337 44.4491L16.7192 44.1231L16.6416 44.0378L16.3079 43.6624L16.2815 43.6264L16.0115 43.2151L15.8966 43.0849L15.6884 42.8038L15.4853 42.5929L15.3096 42.3925L15.0739 42.12L14.9648 41.9812L14.6626 41.6244L14.6187 41.5699L14.4303 41.1586L14.2513 40.8659L14.1812 40.7472L13.8657 40.3359L13.84 40.2875L13.7073 39.9247L13.4286 39.5378L13.4125 39.5133L13.2249 39.102L13.068 38.6906L13.0173 38.6025L12.8648 38.2793L12.6256 37.8679L12.606 37.8143L12.5319 37.4566L12.3937 37.0452L12.1947 36.6515L12.1867 36.6339L12.0266 36.2226L11.8753 35.8113L11.7833 35.52L11.7564 35.4L11.7039 34.9887L11.5632 34.5774L11.4583 34.1661L11.372 33.9679L11.3211 33.7548L11.253 33.3434L11.2114 32.9321L11.1618 32.5207L11.079 32.1094L10.9933 31.698L11.0712 31.2867L11.027 30.8755L14.694 30.4641L14.7395 30.8755L14.7901 31.2867L14.8759 31.698L14.976 32.1094L15.0739 32.3023L15.1468 32.5207L15.2418 32.9321L15.2839 33.3434L15.3464 33.7548L15.4853 34.0814L15.5146 34.1661L15.6435 34.5774L15.8667 34.9887L15.8966 35.0635L15.9671 35.4L16.1455 35.8113L16.3079 36.0486L16.3966 36.2226L16.5528 36.6339L16.7192 37.0342L16.723 37.0452L16.897 37.4566L17.1306 37.8006L17.1683 37.8679L17.4564 38.2793L17.5419 38.4323L17.6843 38.6906L17.9532 38.9666L18.0419 39.102L18.3645 39.5133L18.6434 39.9247L18.7758 40.1419L18.906 40.3359L19.1872 40.6135L19.2963 40.7472L19.5922 41.1586L19.5985 41.1648L20.0098 41.5378L20.1469 41.5699L20.4211 41.6726L20.5811 41.5699L20.8325 41.3037L20.903 41.1586L20.9696 40.7472L20.9115 40.3359L20.9136 39.9247L20.9214 39.5133L20.9159 39.102L21.0456 38.6906L21.1082 38.2793L21.1452 37.8679L21.1213 37.4566L21.1519 37.0452L21.2396 36.6339L21.2438 36.6111L21.3466 36.2226L21.4147 35.8113L21.4788 35.4L21.5232 34.9887L21.6277 34.5774L21.6551 34.4712L21.7922 34.1661L21.9426 33.7548L22.0305 33.3434L22.0664 33.1671L22.1314 32.9321L22.2453 32.5207L22.3873 32.1094L22.4778 31.8267L22.5441 31.698L22.7664 31.2867L22.867 30.8755L22.8891 30.828L23.1143 30.4641L23.3004 30.0633L23.3079 30.0528L23.5009 29.6414L23.7117 29.24L23.719 29.2301L24.0716 28.8188L24.123 28.7365L24.3241 28.4075L24.5344 28.1209L24.6455 27.9962L24.9457 27.626L24.9906 27.5849L25.3522 27.1735L25.357 27.1685L25.7683 26.818L25.8383 26.7622L26.1797 26.5734L26.4162 26.3509L26.591 26.2067L27.0023 26.0082L27.0986 25.9395L27.4136 25.7768L27.825 25.568L27.8899 25.5283L28.2363 25.382L28.6476 25.1648L28.7234 25.1169L29.0589 24.9736L29.4703 24.8001L29.8383 24.7056L29.8816 24.6978L30.2929 24.672L30.7042 24.6725L31.1155 24.6862L31.5269 24.6463L31.9382 24.5774L32.3495 24.5787L32.7608 24.6335L33.1722 24.685L33.2843 24.7056L33.5835 24.8024L33.9948 24.9346L34.4061 25.0477L34.6317 25.1169L34.8175 25.2041L35.2288 25.2825L35.6401 25.401L35.9648 25.5283L36.0514 25.5954L36.4628 25.9221L36.4817 25.9395L36.8741 26.2647L36.9724 26.3509L37.2729 26.7622L37.2854 26.7787L37.6318 27.1735L37.6967 27.2384L37.8778 27.5849L37.938 27.9962L38.1011 28.4075L38.108 28.4317L38.178 28.8188L38.2843 29.2301L38.3391 29.6414L38.379 30.0528L38.3761 30.4641L38.2225 30.8755L38.108 31.1021L37.975 31.2867L37.7173 31.698L37.6967 31.7301L37.3774 32.1094L37.2854 32.2002L36.9519 32.5207L36.8741 32.582L36.4628 32.8058L36.2103 32.9321L36.0514 33.0153L35.6401 33.2435L35.3712 33.3434L35.2288 33.375L34.8175 33.4308L34.4061 33.4619L33.9948 33.3985L33.5835 33.3434L33.1722 33.3081L32.7608 33.152L32.3495 32.9617L32.3065 32.9321L31.9382 32.6274L31.8366 32.5207L31.5269 32.1157L31.5229 32.1094L31.3325 31.698L31.1155 31.2951L31.1121 31.2867L31.0845 30.8755L31.0038 30.4641L30.8226 30.0528L30.7042 29.9025L30.4214 29.6414L30.2929 29.5465L29.8816 29.4065L29.4703 29.4884L29.0589 29.629L29.034 29.6414L28.6476 29.8049L28.3753 30.0528L28.2363 30.207L28.028 30.4641L27.825 30.7072L27.6728 30.8755L27.4707 31.2867L27.4136 31.3975L27.1838 31.698L27.0549 32.1094L27.0023 32.3756L26.9671 32.5207L26.891 32.9321L26.8179 33.3434L26.8149 33.7548L26.8423 34.1661L26.833 34.5774L26.8395 34.9887L26.8142 35.4L26.7989 35.8113L26.8118 36.2226L26.8266 36.6339L26.7967 37.0452L26.7111 37.4566L26.6207 37.8679L26.5954 38.2793V38.6906L26.591 39.102V39.5133V39.9247L26.5844 40.3359V40.7472V41.1586L26.4676 41.5699L26.3831 41.9812L26.311 42.3925L26.2498 42.8038L26.1797 43.1518L26.1492 43.2151L25.974 43.6264L25.8667 44.0378L25.8167 44.4491L25.7683 44.632L25.6838 44.8605L25.6547 45.2718L25.7683 45.5185L25.8569 45.6831L26.1797 45.9136L26.5623 46.0944L26.591 46.1147L27.0023 46.3323L27.4136 46.4981L27.442 46.5058L27.825 46.6518L28.2363 46.7369L28.6476 46.8365L28.8647 46.9171L29.0589 47.023L29.4703 47.141L29.8816 47.1877L30.2929 47.2504L30.7042 47.3109L30.8511 47.3284L31.1155 47.3821L31.5269 47.4898L31.9382 47.5978L32.3495 47.6203L32.7608 47.5843L33.1722 47.5733L33.5835 47.6381L33.9948 47.6972L34.4061 47.6854L34.8175 47.6303L35.2288 47.5894L35.6401 47.5914L36.0514 47.6178L36.4628 47.5229L36.8741 47.4216L37.2421 47.3284L37.2854 47.3214L37.6967 47.2635L38.108 47.2018L38.5194 47.1451L38.9307 47.0432L39.2569 46.9171L39.342 46.8924L39.7533 46.7517L40.1647 46.6759L40.576 46.5762L40.7405 46.5058L40.9873 46.4225L41.3986 46.1926L41.5674 46.0944L41.81 45.9916L42.2213 45.7708L42.3375 45.6831L42.6326 45.5513L43.0439 45.3205L43.1286 45.2718L43.4553 45.1426L43.807 44.8605L43.8666 44.8223L44.2779 44.6614L44.6727 44.4491L44.6892 44.4403L45.1005 44.1571L45.24 44.0378L45.5119 43.8445L45.7353 43.6264L45.9232 43.4802L46.2195 43.2151L46.3345 43.0936L46.7458 42.8038L47.1572 42.4007L47.1654 42.3925L47.5685 42.0326L47.6249 41.9812L47.9798 41.6461L48.0461 41.5699L48.3911 41.2193L48.4464 41.1586L48.7388 40.7472L48.8025 40.6427L49.0058 40.3359L49.2138 40.1101L49.4479 39.9247L49.6251 39.7031L49.7724 39.5133L50.0276 39.102L50.0364 39.089L50.3296 38.6906L50.4478 38.4457L50.5476 38.2793L50.8112 37.8679L50.8591 37.7857L51.097 37.4566L51.2374 37.0452L51.2704 36.9727L51.4864 36.6339L51.678 36.2226L51.6817 36.2085L51.8111 35.8113L51.9559 35.4L52.093 35.0344L52.1196 34.9887L52.3312 34.5774L52.413 34.1661L52.5044 33.8575L52.5601 33.7548L52.7345 33.3434L52.836 32.9321L52.9117 32.5207L52.9157 32.4914L52.9943 32.1094L53.0363 31.698L53.1451 31.2867L53.1569 30.8755L53.1657 30.4641L53.1954 30.0528L53.273 29.6414L53.327 29.3984L53.3849 29.2301L53.4284 28.8188L53.419 28.4075L53.4438 27.9962L53.4415 27.5849L53.4298 27.1735L53.3884 26.7622L53.327 26.4685L53.311 26.3509L53.2365 25.9395L53.1599 25.5283L53.1059 25.1169L53.0339 24.7056L53.0134 24.2942L52.9686 23.8829L52.9157 23.6361L52.8919 23.4717L52.822 23.0603L52.7266 22.649L52.5583 22.2377L52.5044 22.1202L52.4303 21.8264L52.3031 21.415L52.1075 21.0037L52.093 20.9836L51.9206 20.5923L51.7818 20.181L51.6817 19.996L51.5875 19.7697L51.3747 19.3584L51.2704 19.1778L51.1767 18.9471L50.9865 18.5357L50.8591 18.3681L50.6945 18.1245L50.4478 17.752L50.4261 17.7131L50.1532 17.3018L50.0364 17.1255L49.9084 16.8904L49.655 16.4791L49.6251 16.4441L49.3795 16.0678L49.2138 15.8785L49.014 15.6565L48.8025 15.4591L48.5797 15.2451L48.3911 15.0755L48.1226 14.8338L47.9798 14.668L47.7684 14.4226L47.5685 14.2379L47.3554 14.0112L47.1572 13.7889L46.9964 13.5999L46.7458 13.3307L46.6019 13.1885L46.3345 12.9339L46.1114 12.7772L45.9232 12.6089L45.6205 12.366L45.5119 12.2921L45.1005 12.0237L45.0192 11.9546L44.6892 11.6417L44.5437 11.5433L44.2779 11.2891L44.0503 11.1319L43.8666 11.0152L43.4553 10.8213L43.0896 10.7206L43.0439 10.7003L42.6326 10.3897L42.4384 10.3092L42.2213 10.2078L41.81 10.0592L41.4672 9.8979L41.3986 9.8335L40.9873 9.6209L40.576 9.5658L40.2332 9.4866L40.1647 9.4529L39.7533 9.2718L39.342 9.1301L39.1117 9.0753L38.9307 9.0125L38.5194 8.9099L38.108 8.8368L37.6967 8.7628L37.2854 8.7072L37.0473 8.664L36.8741 8.6134L36.4628 8.5157L36.0514 8.3995L35.6401 8.3773L35.2288 8.3736L34.8175 8.3826L34.4061 8.3811L33.9948 8.3761H33.5835L33.1722 8.3749L32.7608 8.3679L32.3495 8.3841L31.9382 8.4333L31.5269 8.5313L31.1155 8.6062L30.7042 8.6498L30.6651 8.664L30.2929 8.7384L29.8816 8.8285L29.4703 8.861L29.0589 8.9382L28.6887 9.0753L28.6476 9.0877L28.2363 9.2408L27.825 9.4503L27.7453 9.4866L27.4136 9.5784L27.0023 9.6992L26.591 9.8611L26.5373 9.8979L26.1797 10.0641L25.7683 10.2024L25.597 10.3092L25.357 10.4293L24.9457 10.6395L24.8177 10.7206L24.5344 10.8608L24.1298 11.1319L24.123 11.1366L23.7117 11.434L23.5412 11.5433L23.3004 11.6666L22.946 11.9546L22.8891 11.9879L22.4778 12.2325L22.3185 12.366L22.0664 12.5435L21.7768 12.7772L21.6551 12.8852L21.3272 13.1885L21.2438 13.2638L20.9341 13.5999L20.8325 13.7052L20.5191 14.0112L20.4211 14.1026L20.1149 14.4226L20.0098 14.531L19.7135 14.8338L19.5985 14.9488L19.336 15.2451L19.1872 15.4718L19.0076 15.6565L18.7758 15.9451L18.6826 16.0678L18.4476 16.4791L18.3645 16.6333L18.1889 16.8904L17.9695 17.3018L17.9532 17.3229L17.5993 17.7131L17.5419 17.8279L17.397 18.1245L17.1306 18.5286L17.1239 18.5357L16.8798 18.9471L16.7192 19.3342L16.7068 19.3584L16.5627 19.7697L16.3949 20.181L16.3079 20.3225L16.0713 20.5923L15.8966 20.9193L15.8367 21.0037L15.6633 21.415L15.53 21.8264L15.4853 22.0777L15.4429 22.2377L15.3226 22.649L15.2344 23.0603L15.1523 23.4717L15.0739 23.7879L15.0321 23.8829L14.8953 24.2942L14.8281 24.7056L14.8302 25.1169L14.7631 25.5283L14.7101 25.9395L14.6981 26.3509L14.7128 26.7622L14.7094 27.1735L14.6764 27.5849L14.6626 27.7344L14.6209 27.9962L14.5504 28.4075L14.6142 28.8188L14.6626 29.072L14.6792 29.2301L14.6883 29.6414L14.6822 30.0528L14.694 30.4641L11.027 30.8755L10.9607 30.5591L10.948 30.4641L10.8801 30.0528L10.8236 29.6414L10.7918 29.2301L10.7838 28.8188L10.787 28.4075L10.7825 27.9962L10.787 27.5849L10.7916 27.1735L10.7897 26.7622L10.7831 26.3509L10.7691 25.9395L10.755 25.5283L10.7455 25.1169L10.7507 24.7056L10.8295 24.2942L10.948 23.8829L10.9607 23.8431L11.1084 23.4717L11.1951 23.0603L11.2683 22.649L11.3395 22.2377L11.372 21.9732L11.4052 21.8264L11.6024 21.415L11.7105 21.0037L11.7833 20.724L11.8318 20.5923L11.9489 20.181L12.0514 19.7697L12.1947 19.3833L12.2105 19.3584L12.4482 18.9471L12.5351 18.5357L12.606 18.3679L12.7764 18.1245L12.9692 17.7131L13.0173 17.5971L13.1528 17.3018L13.2902 16.8904L13.4286 16.6082L13.52 16.4791L13.7448 16.0678L13.84 15.8808L14.0023 15.6565L14.1622 15.2451L14.2513 15.12L14.457 14.8338L14.6626 14.5518L14.7919 14.4226L15.0328 14.0112L15.0739 13.9304L15.2917 13.5999L15.4853 13.3467L15.6365 13.1885L15.8966 12.8937L16.0058 12.7772L16.3079 12.3744L16.3152 12.366L16.5991 11.9546L16.7192 11.8344L17.0473 11.5433L17.1306 11.462L17.5071 11.1319L17.5419 11.1073L17.9532 10.8028L18.0299 10.7206L18.3645 10.3743L18.4357 10.3092L18.7758 9.9755L18.8506 9.8979L19.1872 9.6723L19.4451 9.4866L19.5985 9.3721L19.8953 9.0753L20.0098 8.99L20.4211 8.6711L20.4286 8.664L20.8325 8.4226L21.0623 8.2527L21.2438 8.1317L21.6551 7.9283L21.781 7.8413L22.0664 7.6416L22.3218 7.43L22.4778 7.3421L22.8891 7.1804L23.0918 7.0188L23.3004 6.8577L23.7117 6.7131L23.8923 6.6074L24.123 6.4948L24.5344 6.269L24.6566 6.1961L24.9457 6.1062L25.357 6.0059L25.7683 5.8L25.7894 5.7847L26.1797 5.6193L26.591 5.433L26.8652 5.3734L27.0023 5.3553L27.4136 5.2482L27.825 5.065L28.0435 4.962L28.2363 4.9102L28.6476 4.8532L29.0589 4.7802L29.4703 4.6765L29.8816 4.5919L30.1558 4.5507L30.2929 4.538L30.7042 4.5031L31.1155 4.4786L31.5269 4.4269L31.9382 4.3451L32.3495 4.3009L32.7608 4.3144H33.1722L33.5835 4.2912L33.9948 4.2577L34.4061 4.2356H34.8175L35.2288 4.2577L35.6401 4.2912L36.0514 4.3144L36.4628 4.3451L36.8741 4.4435L37.2854 4.5375L37.3676 4.5507L37.6967 4.6202L38.108 4.6862L38.5194 4.7365L38.9307 4.7875L39.342 4.843L39.7533 4.9401L39.8832 4.962L40.1647 5.0396L40.576 5.1793L40.9873 5.2997L41.3425 5.3734L41.3986 5.395L41.81 5.5544L42.2213 5.7405L42.3459 5.7847L42.6326 5.9161L43.0439 6.0742L43.35 6.1961L43.4553 6.2657L43.8666 6.4831L44.1724 6.6074L44.2779 6.6629L44.6892 6.8774L44.9689 7.0188L45.1005 7.1141L45.5119 7.3262L45.8436 7.43L45.9232 7.4692L46.3345 7.7703L46.4586 7.8413L46.7458 8.0704L47.0337 8.2527L47.1572 8.3591L47.5685 8.6046L47.6585 8.664L47.9798 8.9088L48.2091 9.0753L48.3911 9.2214L48.7447 9.4866L48.8025 9.5397L49.2138 9.8979L49.6251 10.2949L49.642 10.3092L50.0364 10.6188L50.1866 10.7206L50.4478 10.9461L50.6287 11.1319L50.8591 11.3686L51.0226 11.5433L51.2704 11.8118L51.3693 11.9546L51.6528 12.366L51.6817 12.3919L52.0609 12.7772L52.093 12.8219L52.3013 13.1885L52.5044 13.4236L52.6253 13.5999L52.9157 13.9567L52.9596 14.0112L53.1918 14.4226L53.327 14.6123L53.455 14.8338L53.7383 15.1982L53.7703 15.2451L53.9887 15.6565L54.1497 15.83L54.3018 16.0678L54.4952 16.4791L54.561 16.5888L54.6954 16.8904L54.8821 17.3018L54.9723 17.4548L55.0904 17.7131L55.3292 18.1245L55.3836 18.2273L55.5143 18.5357L55.6703 18.9471L55.795 19.1429L55.8674 19.3584L55.9595 19.7697L56.0639 20.181L56.2063 20.4812L56.2487 20.5923L56.3871 21.0037L56.4773 21.415L56.577 21.8264L56.6176 21.9779L56.669 22.2377L56.7982 22.649L56.8955 23.0603L56.9711 23.4717L57.0289 23.6479L57.0707 23.8829L57.1486 24.2942L57.2023 24.7056L57.226 25.1169L57.2346 25.5283L57.2396 25.9395L57.2296 26.3509L57.2298 26.7622L57.2542 27.1735L57.318 27.5849L57.3888 27.9962L57.4402 28.1607L57.4891 28.4075L57.4402 28.6425L57.3795 28.8188L57.264 29.2301L57.2225 29.6414L57.2275 30.0528L57.2323 30.4641L57.2222 30.8755L57.2079 31.2867L57.1283 31.698L57.1071 32.1094L57.0635 32.5207L57.0289 32.7078L56.9518 32.9321L56.8103 33.3434L56.6912 33.7548L56.6176 34.0726L56.586 34.1661L56.5202 34.5774L56.3571 34.9887L56.2373 35.4L56.2063 35.49L56.071 35.8113L55.9796 36.2226L55.8839 36.6339L55.795 36.8636L55.6728 37.0452L55.4559 37.4566L55.3836 37.7428L55.3379 37.8679L55.1499 38.2793L54.9723 38.6344L54.9298 38.6906L54.7051 39.102L54.561 39.5015L54.5539 39.5133L54.3082 39.9247L54.1497 40.2352L54.0749 40.3359L53.7643 40.7472L53.7383 40.7965L53.535 41.1586L53.327 41.4776L53.246 41.5699L52.9917 41.9812L52.9157 42.0958L52.6923 42.3925L52.5044 42.7549L52.4632 42.8038L52.093 43.1816L52.0647 43.2151L51.7674 43.6264L51.6817 43.7361L51.3989 44.0378L51.2704 44.1714L50.9559 44.4491L50.8591 44.5369L50.5769 44.8605L50.4478 45.2718L50.7397 45.6831L50.8591 45.7492L51.2704 45.754L51.4173 45.6831L51.6817 45.6112L52.093 45.4816L52.5044 45.3983L52.9157 45.362L53.327 45.3835L53.7383 45.3952L54.1497 45.3707L54.561 45.354L54.9723 45.3994L55.3836 45.4906L55.795 45.5597L56.2063 45.6342L56.5354 45.6831L56.6176 45.7036L57.0289 45.8486L57.4402 45.9558L57.8516 46.0537L57.9619 46.0944L58.2629 46.2612L58.6742 46.4527L58.857 46.5058L59.0855 46.5939L59.4969 46.7928L59.7743 46.9171L59.9082 46.9982L60.3195 47.1899L60.7308 47.3207L60.7464 47.3284L61.1422 47.5668L61.38 47.7397L61.5535 47.8735L61.9648 48.1136L62.0127 48.151L62.3761 48.4835L62.479 48.5623L62.7875 48.8119L62.9422 48.9737L63.1988 49.2835L63.2876 49.385L63.6101 49.7685L63.6315 49.7963L63.9338 50.2077L64.0214 50.3105L64.1885 50.619L64.3093 51.0304L64.4328 51.2132L64.5746 51.4416L64.694 51.8529L64.8441 52.2L64.8618 52.2643L64.9279 52.6756L64.9658 53.0869L64.9956 53.4982L64.9928 53.9096L64.9768 54.3209L64.9606 54.7322L64.9063 55.1435L64.871 55.5548L64.8441 55.6864L64.7508 55.9662L64.5303 56.3775L64.4328 56.5706L64.292 56.7888L64.0429 57.2001L64.0214 57.2322L63.7359 57.6115L63.6101 57.7217L63.1988 57.9649L63.0742 58.0228L62.7875 58.144L62.4226 58.4342L62.3761 58.4596L61.9648 58.5635L61.5535 58.8302L61.5344 58.8454L61.1422 59.0288L60.7308 59.1863L60.5252 59.2567L60.3195 59.3024L59.9082 59.3653L59.4969 59.4039L59.0855 59.4117L58.6742 59.3476L58.2629 59.2646L58.1807 59.2567L57.8516 59.2083L57.4402 59.1539L57.0289 59.067L56.6176 58.9286L56.4426 58.8454L56.2063 58.6719L55.9526 58.4342L55.795 58.3045L55.488 58.0228L55.3836 57.9118L55.0833 57.6115L54.9723 57.3318L54.9404 57.2001L54.9723 57.0434L55.0793 56.7888L55.3836 56.6118L55.795 56.4902L56.1377 56.3775L56.2063 56.3649L56.6176 56.3198L57.0289 56.2506L57.4402 56.1234L57.6949 55.9662L57.8516 55.9046L58.2629 55.7862L58.6742 55.5954L58.7236 55.5548L59.0855 55.3286L59.2778 55.1435L59.4969 54.8955L59.6732 54.7322L59.9082 54.3956L59.958 54.3209L60.0559 53.9096L60.0543 53.4982L59.9082 53.198L59.8534 53.0869L59.4969 52.7568L59.4194 52.6756L59.0855 52.3531L58.9434 52.2643L58.6742 52.096L58.2629 51.9683L57.9294 51.8529L57.8516 51.8049L57.4402 51.6233L57.0289 51.5491L56.6176 51.4797L56.2063 51.4621L56.0887 51.4416L55.795 51.3466L55.3836 51.3045L54.9723 51.2667L54.561 51.2514L54.1497 51.2563L53.7383 51.2694L53.327 51.2781L52.9157 51.2811L52.5044 51.2706L52.093 51.2673L51.6817 51.2641L51.2704 51.2762L50.8591 51.3094L50.4478 51.3761L50.1816 51.4416L50.0364 51.4619L49.6251 51.4946L49.2138 51.4813L48.8025 51.5406L48.3911 51.6134L47.9798 51.633L47.5685 51.613L47.1572 51.6339L46.7458 51.7532L46.4826 51.8529L46.3345 51.8852L45.9232 51.9035L45.5119 51.9097L45.1005 51.953L44.6892 52.0262L44.2779 52.0713L43.8666 52.0668L43.4553 52.0732L43.0439 52.1041L42.6326 52.088L42.2213 52.0971L41.81 52.0939L41.3986 52.0846L40.9873 52.1057L40.576 52.1653L40.1647 52.2274L39.7533 52.2447L39.342 52.2263L39.0678 52.2643L38.9307 52.2772L38.5194 52.3217L38.108 52.3313L37.6967 52.3032L37.2854 52.2685L37.2169 52.2643L36.8741 52.23L36.4628 52.2244L36.0514 52.2382H35.6401H35.2288H34.8175H34.4061H33.9948H33.5835H33.1722L32.7608 52.229L32.3495 52.1503L31.9382 52.088L31.5269 52.0548L31.1155 52.0259L30.7042 51.9654L30.2929 51.8796L30.1235 51.8529L29.8816 51.7934L29.4703 51.5919L29.0589 51.526L28.6476 51.4416L28.2363 51.3045L27.825 51.1845L27.4453 51.0304L27.4136 51.0083L27.0023 50.7972L26.591 50.7173L26.3266 50.619L26.1797 50.5378L25.7683 50.2838L25.5627 50.2077L25.357 50.1207L24.9457 49.9677L24.554 49.7963L24.5344 49.7808L24.3698 49.7963L24.123 49.8114L23.7362 50.2077L23.7117 50.2419L23.4658 50.619L23.3004 50.9572L23.2547 51.0304L23.0582 51.4416L22.8891 51.8109L22.8536 51.8529L22.5497 52.2643L22.4778 52.3898L22.2529 52.6756L22.0664 53.0085L22.0158 53.0869L21.8272 53.4982L21.6551 53.8289L21.5918 53.9096L21.3571 54.3209L21.2438 54.4429L20.9696 54.7322L20.8325 54.9202L20.6154 55.1435L20.4211 55.3275L20.2025 55.5548L20.0098 55.7339L19.7466 55.9662L19.5985 56.1123L19.2734 56.3775L19.1872 56.4326L18.7758 56.7078L18.6768 56.7888L18.3645 57.0079L18.0852 57.2001L17.9532 57.273L17.5419 57.5252L17.4497 57.6115L17.1306 57.8043L16.7192 58.0095L16.7001 58.0228L16.3079 58.2822L16.0259 58.4342L15.8966 58.4738L15.4853 58.597L15.0739 58.7083L14.7654 58.8454L14.6626 58.8771L14.2513 58.9935L13.84 59.1246L13.5226 59.2567L13.4286 59.2878L13.0173 59.3972L12.606 59.4764L12.1947 59.6028L11.8782 59.6681L11.7833 59.6788L11.372 59.6852L10.9607 59.6923L10.5494 59.7253L10.1381 59.7644L9.72671 59.7443L9.31541 59.7154L8.90411 59.6821L8.57501 59.6681Z" fill="white"/>
</g>
<defs>
<clipPath id="clip0">
<rect width="64" height="64" fill="white" transform="translate(0.995605)"/>
</clipPath>
</defs>
</svg>
