<svg width="24" height="24" viewBox="0 0 24 24" fill="none" xmlns="http://www.w3.org/2000/svg">
<path d="M22.3855 10.2641C21.9773 9.58516 21.4273 9.08242 20.7398 8.75586C20.9031 8.31328 20.9848 7.82344 20.9848 7.28203C20.9848 6.12187 20.598 5.13359 19.8203 4.31289C19.0426 3.49219 18.1059 3.08398 17.0102 3.08398C16.516 3.08398 16.052 3.17422 15.6094 3.35469C15.2656 2.65 14.7672 2.08281 14.1227 1.64883C13.4781 1.21914 12.7691 1 12 1C11.2309 1 10.5219 1.21914 9.87734 1.65312C9.22852 2.08711 8.73438 2.6543 8.39062 3.35898C7.94805 3.17852 7.47969 3.08828 6.98984 3.08828C5.89414 3.08828 4.95312 3.50078 4.1668 4.31719C3.38047 5.13359 2.98945 6.12617 2.98945 7.28633C2.98945 7.77617 3.07969 8.27031 3.26016 8.76016C2.57266 9.08672 2.02266 9.58945 1.61445 10.2684C1.20625 10.9473 1 11.6992 1 12.5156C1 13.2848 1.18477 13.998 1.55 14.6512C1.91953 15.3043 2.41367 15.8113 3.03672 16.1723C3.00664 16.4043 2.98945 16.5848 2.98945 16.7137C2.98945 17.8738 3.38047 18.8664 4.1668 19.6828C4.95312 20.5035 5.89414 20.9117 6.98984 20.9117C7.48398 20.9117 7.94805 20.8215 8.39062 20.641C8.73438 21.3629 9.22422 21.9344 9.86445 22.3598C10.5004 22.7895 11.2137 23 12 23C12.7691 23 13.4781 22.7852 14.1227 22.3469C14.7715 21.9129 15.2656 21.3457 15.6094 20.641C16.052 20.8215 16.5203 20.9117 17.0102 20.9117C18.1059 20.9117 19.0426 20.5035 19.8203 19.6828C20.5938 18.8664 20.9848 17.8781 20.9848 16.7137C20.9848 16.4688 20.9762 16.2883 20.959 16.1723C21.582 15.8156 22.0762 15.3043 22.4457 14.6512C22.8152 13.998 23 13.2848 23 12.5156C23 11.6992 22.7938 10.9473 22.3855 10.2641Z" fill="#1062FE"/>
<path fill-rule="evenodd" clip-rule="evenodd" d="M10.9272 16L7 12.2232L8.24963 11.0214L10.9272 13.5964L16.7472 8L18 9.19724L10.9272 16Z" fill="white"/>
</svg>
