<svg width="20" height="20" viewBox="0 0 20 20" fill="none" xmlns="http://www.w3.org/2000/svg">
<path d="M18.2612 8.61914C17.9365 8.0791 17.499 7.6792 16.9521 7.41943C17.082 7.06738 17.147 6.67773 17.147 6.24707C17.147 5.32422 16.8394 4.53809 16.2207 3.88525C15.6021 3.23242 14.8569 2.90771 13.9854 2.90771C13.5923 2.90771 13.2231 2.97949 12.8711 3.12305C12.5977 2.5625 12.2012 2.11133 11.6885 1.76611C11.1758 1.42432 10.6118 1.25 10 1.25C9.38818 1.25 8.82422 1.42432 8.31152 1.76953C7.79541 2.11475 7.40234 2.56592 7.12891 3.12646C6.77686 2.98291 6.4043 2.91113 6.01465 2.91113C5.14307 2.91113 4.39453 3.23926 3.76904 3.88867C3.14355 4.53809 2.83252 5.32764 2.83252 6.25049C2.83252 6.64014 2.9043 7.0332 3.04785 7.42285C2.50098 7.68262 2.06348 8.08252 1.73877 8.62256C1.41406 9.1626 1.25 9.76074 1.25 10.4102C1.25 11.022 1.39697 11.5894 1.6875 12.1089C1.98145 12.6284 2.37451 13.0317 2.87012 13.3188C2.84619 13.5034 2.83252 13.647 2.83252 13.7495C2.83252 14.6724 3.14355 15.4619 3.76904 16.1113C4.39453 16.7642 5.14307 17.0889 6.01465 17.0889C6.40771 17.0889 6.77686 17.0171 7.12891 16.8735C7.40234 17.4478 7.79199 17.9023 8.30127 18.2407C8.80713 18.5825 9.37451 18.75 10 18.75C10.6118 18.75 11.1758 18.5791 11.6885 18.2305C12.2046 17.8853 12.5977 17.4341 12.8711 16.8735C13.2231 17.0171 13.5957 17.0889 13.9854 17.0889C14.8569 17.0889 15.6021 16.7642 16.2207 16.1113C16.8359 15.4619 17.147 14.6758 17.147 13.7495C17.147 13.5547 17.1401 13.4111 17.1265 13.3188C17.6221 13.0352 18.0151 12.6284 18.3091 12.1089C18.603 11.5894 18.75 11.022 18.75 10.4102C18.75 9.76074 18.5859 9.1626 18.2612 8.61914Z" fill="#1062FE"/>
<path fill-rule="evenodd" clip-rule="evenodd" d="M8.75 13.4944L5.625 10.3694L6.61937 9.375L8.75 11.5056L13.3812 6.875L14.3781 7.86563L8.75 13.4944Z" fill="white"/>
</svg>
