<svg width="32" height="32" viewBox="0 0 32 32" fill="none" xmlns="http://www.w3.org/2000/svg">
<path d="M29.8471 13.6854C29.3028 12.7802 28.5695 12.1099 27.6528 11.6745C27.8705 11.0844 27.9794 10.4313 27.9794 9.70938C27.9794 8.16251 27.4637 6.8448 26.4268 5.75053C25.3898 4.65626 24.1408 4.11199 22.6799 4.11199C22.021 4.11199 21.4023 4.2323 20.8122 4.47293C20.3538 3.53334 19.6893 2.77709 18.8299 2.19845C17.9705 1.62553 17.0252 1.33334 15.9997 1.33334C14.9742 1.33334 14.0288 1.62553 13.1695 2.20418C12.3044 2.78282 11.6455 3.53907 11.1872 4.47866C10.5971 4.23803 9.97259 4.11772 9.31947 4.11772C7.85853 4.11772 6.60384 4.66772 5.5554 5.75626C4.50697 6.8448 3.98561 8.16824 3.98561 9.71511C3.98561 10.3682 4.10592 11.0271 4.34655 11.6802C3.42988 12.1156 2.69655 12.7859 2.15228 13.6912C1.60801 14.5964 1.33301 15.599 1.33301 16.6875C1.33301 17.713 1.57936 18.6641 2.06634 19.5349C2.55905 20.4057 3.2179 21.0818 4.04863 21.563C4.00853 21.8724 3.98561 22.113 3.98561 22.2849C3.98561 23.8318 4.50697 25.1552 5.5554 26.2438C6.60384 27.338 7.85853 27.8823 9.31947 27.8823C9.97832 27.8823 10.5971 27.762 11.1872 27.5214C11.6455 28.4839 12.2986 29.2458 13.1523 29.813C14.0002 30.3859 14.9512 30.6667 15.9997 30.6667C17.0252 30.6667 17.9705 30.3802 18.8299 29.7958C19.695 29.2172 20.3538 28.4609 20.8122 27.5214C21.4023 27.762 22.0268 27.8823 22.6799 27.8823C24.1408 27.8823 25.3898 27.338 26.4268 26.2438C27.458 25.1552 27.9794 23.8375 27.9794 22.2849C27.9794 21.9583 27.9679 21.7177 27.945 21.563C28.7757 21.0875 29.4346 20.4057 29.9273 19.5349C30.42 18.6641 30.6663 17.713 30.6663 16.6875C30.6663 15.599 30.3913 14.5964 29.8471 13.6854Z" fill="#1062FE"/>
<path fill-rule="evenodd" clip-rule="evenodd" d="M14.5692 21.3333L9.33301 16.2976L10.9992 14.6952L14.5692 18.1286L22.3293 10.6667L23.9997 12.263L14.5692 21.3333Z" fill="white"/>
</svg>
