<svg width="16" height="16" viewBox="0 0 16 16" fill="none" xmlns="http://www.w3.org/2000/svg">
<path d="M14.609 6.89531C14.3492 6.46328 13.9992 6.14336 13.5617 5.93555C13.6656 5.65391 13.7176 5.34219 13.7176 4.99766C13.7176 4.25937 13.4715 3.63047 12.9766 3.1082C12.4816 2.58594 11.8855 2.32617 11.1883 2.32617C10.8738 2.32617 10.5785 2.38359 10.2969 2.49844C10.0781 2.05 9.76094 1.68906 9.35078 1.41289C8.94062 1.13945 8.48945 1 8 1C7.51055 1 7.05938 1.13945 6.64922 1.41563C6.23633 1.6918 5.92188 2.05273 5.70312 2.50117C5.42148 2.38633 5.12344 2.32891 4.81172 2.32891C4.11445 2.32891 3.51562 2.59141 3.01523 3.11094C2.51484 3.63047 2.26602 4.26211 2.26602 5.00039C2.26602 5.31211 2.32344 5.62656 2.43828 5.93828C2.00078 6.14609 1.65078 6.46602 1.39102 6.89805C1.13125 7.33008 1 7.80859 1 8.32812C1 8.81758 1.11758 9.27148 1.35 9.68711C1.58516 10.1027 1.89961 10.4254 2.29609 10.6551C2.27695 10.8027 2.26602 10.9176 2.26602 10.9996C2.26602 11.7379 2.51484 12.3695 3.01523 12.8891C3.51562 13.4113 4.11445 13.6711 4.81172 13.6711C5.12617 13.6711 5.42148 13.6137 5.70312 13.4988C5.92188 13.9582 6.23359 14.3219 6.64102 14.5926C7.0457 14.866 7.49961 15 8 15C8.48945 15 8.94062 14.8633 9.35078 14.5844C9.76367 14.3082 10.0781 13.9473 10.2969 13.4988C10.5785 13.6137 10.8766 13.6711 11.1883 13.6711C11.8855 13.6711 12.4816 13.4113 12.9766 12.8891C13.4688 12.3695 13.7176 11.7406 13.7176 10.9996C13.7176 10.8438 13.7121 10.7289 13.7012 10.6551C14.0977 10.4281 14.4121 10.1027 14.6473 9.68711C14.8824 9.27148 15 8.81758 15 8.32812C15 7.80859 14.8688 7.33008 14.609 6.89531Z" fill="#1062FE"/>
<path fill-rule="evenodd" clip-rule="evenodd" d="M7 10.7955L4.5 8.2955L5.2955 7.5L7 9.2045L10.705 5.5L11.5025 6.2925L7 10.7955Z" fill="white"/>
</svg>
