<svg width="32" height="32" viewBox="0 0 32 32" fill="none" xmlns="http://www.w3.org/2000/svg">
<path fill-rule="evenodd" clip-rule="evenodd" d="M16 2C8.26801 2 2 8.26801 2 16C2 23.732 8.26801 30 16 30C23.732 30 30 23.732 30 16C29.9913 8.27162 23.7284 2.00871 16 2Z" fill="white"/>
<path fill-rule="evenodd" clip-rule="evenodd" d="M15.9997 1.33334C7.8995 1.33334 1.33301 7.89983 1.33301 16C1.33301 24.1002 7.8995 30.6667 15.9997 30.6667C24.0998 30.6667 30.6663 24.1002 30.6663 16C30.6663 12.1102 29.1211 8.37964 26.3706 5.62911C23.62 2.87858 19.8895 1.33334 15.9997 1.33334ZM13.9047 21.857L8.66663 16.619L10.333 14.9524L13.9047 18.5239L21.6676 10.7619L23.3393 12.4233L13.9047 21.857Z" fill="#24A148"/>
<path opacity="0.01" fill-rule="evenodd" clip-rule="evenodd" d="M14 21.591L9 16.591L10.591 15L14 18.409L21.41 11L23.005 12.585L14 21.591Z" fill="black"/>
</svg>
