<svg width="24" height="24" viewBox="0 0 24 24" fill="none" xmlns="http://www.w3.org/2000/svg">
<path fill-rule="evenodd" clip-rule="evenodd" d="M12 1.5C6.20101 1.5 1.5 6.20101 1.5 12C1.5 17.799 6.20101 22.5 12 22.5C17.799 22.5 22.5 17.799 22.5 12C22.4935 6.20372 17.7963 1.50653 12 1.5Z" fill="white"/>
<path fill-rule="evenodd" clip-rule="evenodd" d="M12 1C5.92487 1 1 5.92487 1 12C1 18.0751 5.92487 23 12 23C18.0751 23 23 18.0751 23 12C23 9.08262 21.8411 6.28473 19.7782 4.22183C17.7153 2.15893 14.9174 1 12 1ZM10.4289 16.3928L6.50029 12.4642L7.75004 11.2143L10.4289 13.8929L16.251 8.07143L17.5048 9.3175L10.4289 16.3928Z" fill="#00FF75"/>
<path opacity="0.01" fill-rule="evenodd" clip-rule="evenodd" d="M10.5 16.1932L6.75 12.4432L7.94325 11.25L10.5 13.8067L16.0575 8.25L17.2537 9.43875L10.5 16.1932Z" fill="black"/>
</svg>
