<svg width="20" height="20" viewBox="0 0 20 20" fill="none" xmlns="http://www.w3.org/2000/svg">
<path fill-rule="evenodd" clip-rule="evenodd" d="M10 1.25C5.16751 1.25 1.25 5.16751 1.25 10C1.25 14.8325 5.16751 18.75 10 18.75C14.8325 18.75 18.75 14.8325 18.75 10C18.7446 5.16976 14.8302 1.25544 10 1.25Z" fill="white"/>
<path fill-rule="evenodd" clip-rule="evenodd" d="M10 1.25C5.16751 1.25 1.25 5.16751 1.25 10C1.25 14.8325 5.16751 18.75 10 18.75C14.8325 18.75 18.75 14.8325 18.75 10C18.75 7.67936 17.8281 5.45376 16.1872 3.81282C14.5462 2.17187 12.3206 1.25 10 1.25ZM8.75 13.4943L5.625 10.3693L6.61912 9.375L8.75 11.5057L13.3813 6.875L14.3786 7.86619L8.75 13.4943Z" fill="#24A148"/>
<path opacity="0.01" fill-rule="evenodd" clip-rule="evenodd" d="M8.75 13.4944L5.625 10.3694L6.61937 9.375L8.75 11.5056L13.3812 6.875L14.3781 7.86563L8.75 13.4944Z" fill="black"/>
</svg>
