<svg width="16" height="16" viewBox="0 0 16 16" fill="none" xmlns="http://www.w3.org/2000/svg">
<path fill-rule="evenodd" clip-rule="evenodd" d="M8 1C4.13401 1 1 4.13401 1 8C1 11.866 4.13401 15 8 15C11.866 15 15 11.866 15 8C14.9956 4.13581 11.8642 1.00435 8 1Z" fill="white"/>
<path fill-rule="evenodd" clip-rule="evenodd" d="M8 1C4.13401 1 1 4.13401 1 8C1 11.866 4.13401 15 8 15C11.866 15 15 11.866 15 8C15 6.14348 14.2625 4.36301 12.9497 3.05025C11.637 1.7375 9.85652 1 8 1ZM7 10.7954L4.5 8.2954L5.2953 7.5L7 9.2046L10.705 5.5L11.5028 6.29295L7 10.7954Z" fill="#24A148"/>
<path opacity="0.01" fill-rule="evenodd" clip-rule="evenodd" d="M7 10.7955L4.5 8.2955L5.2955 7.5L7 9.2045L10.705 5.5L11.5025 6.2925L7 10.7955Z" fill="black"/>
</svg>
