<svg width="20" height="20" viewBox="0 0 20 20" fill="none" xmlns="http://www.w3.org/2000/svg">
<path fill-rule="evenodd" clip-rule="evenodd" d="M15.5714 8.71429H14.2857V4.85714C14.2857 2.7269 12.5588 1 10.4286 1C8.29833 1 6.57143 2.7269 6.57143 4.85714V8.71429H5.28571C4.57563 8.71429 4 9.28992 4 10V17.7143C4 18.4244 4.57563 19 5.28571 19H15.5714C16.2815 19 16.8571 18.4244 16.8571 17.7143V10C16.8571 9.28992 16.2815 8.71429 15.5714 8.71429ZM7.85685 4.85715C7.85685 3.43699 9.00812 2.28572 10.4283 2.28572C11.8484 2.28572 12.9997 3.43699 12.9997 4.85715V8.7143H7.85685V4.85715Z" fill="#697077"/>
</svg>
