<svg width="304" height="304" viewBox="0 0 304 304" fill="none" xmlns="http://www.w3.org/2000/svg">
<path d="M152.173 151.826L152.173 282L168.813 280.959L185.193 277.748L200.967 272.454L215.96 265.251L229.913 256.139L242.567 245.291L253.747 232.968L263.28 219.256L270.993 204.503L276.713 188.883L280.44 172.654L282 156.079L281.48 139.417L278.793 122.928L274.027 106.96L267.267 91.6863L258.6 77.4539L248.2 64.4366L236.24 52.8078L222.893 42.8278L208.42 34.6703L192.993 28.4219L176.873 24.1696L160.32 22L143.68 22L127.127 24.1696L111.007 28.4219L95.5801 34.6702L81.1067 42.8278L67.7601 52.8077L55.8001 64.4366L45.4001 77.4539L36.7334 91.6863L29.9734 106.96L25.2068 122.928L22.5201 139.417L22.0001 156.079L23.5601 172.654L27.2867 188.882L33.0068 204.503L40.72 219.256L50.2534 232.968L61.4334 245.291L74.0867 256.139L88.0401 265.251L103.033 272.454L118.807 277.748L135.187 280.959L152.173 282" fill="#0A0A0A"/>
<path d="M151.132 250.973L151.218 256.173L151.305 260.94L151.392 265.273L151.479 269.087L151.566 272.467L151.653 275.327L151.739 277.667L151.826 279.487L151.913 280.787L152 281.567L152 282L143.663 281.74L135.327 280.96L127.077 279.66L118.914 277.84L110.925 275.5L103.109 272.64L95.4669 269.26L88.0855 265.447L80.9646 261.113L74.1042 256.347L67.5912 251.147L61.4255 245.513L55.6072 239.533L50.2231 233.207L45.1864 226.533L40.6707 219.513L36.5892 212.233L32.9419 204.693L29.8156 196.98L27.2104 189.093L25.1263 181.033L23.5631 172.887L22.521 164.653L22 156.333L22 148.013L22.521 139.693L23.5631 131.46L25.1263 123.313L27.2104 115.253L29.8156 107.367L32.9419 99.6533L36.5892 92.1133L40.6707 84.8333L45.1864 77.8133L50.2231 71.14L55.6072 64.8133L61.4255 58.8333L67.5912 53.2L74.1042 48L80.9646 43.2333L88.0855 38.9L95.4669 35.0867L103.109 31.7067L110.925 28.8467L118.914 26.5067L127.077 24.6867L135.327 23.3867L143.663 22.6067L152 22L151.913 22.26L151.826 23.04L151.739 24.34L151.653 26.16L151.566 28.5L151.479 31.36L151.392 34.74L151.305 38.5533L151.218 42.8867L151.132 47.6533L151.045 52.8533L150.958 58.4867L150.871 64.4667L150.784 70.7933L150.697 77.4667L150.611 84.4867L150.524 91.7667L150.524 99.3067L150.524 107.02L150.524 114.907L150.524 122.967L150.524 131.113L150.524 139.347L150.524 147.667L150.524 155.987L150.524 164.307L150.524 172.54L150.524 180.687L150.524 188.747L150.524 196.633L150.524 204.347L150.524 211.887L150.611 219.167L150.697 226.187L150.784 232.86L150.871 239.187L150.958 245.167" fill="white"/>
</svg>
