<svg width="304" height="304" viewBox="0 0 304 304" fill="none" xmlns="http://www.w3.org/2000/svg">
<path d="M152.173 152L152.173 282L168.813 280.96L185.193 277.753L200.967 272.467L215.96 265.273L229.913 256.173L242.567 245.34L253.747 233.033L263.28 219.34L270.993 204.606L276.713 189.006L280.44 172.8L282 156.246L281.48 139.606L278.793 123.139L274.027 107.193L267.267 91.9393L258.6 77.7259L248.2 64.7259L236.24 53.1125L222.893 43.1458L208.42 34.9991L192.993 28.7591L176.873 24.5124L160.32 22.3457L143.68 22.3457L127.127 24.5124L111.007 28.7591L95.5801 34.9991L81.1067 43.1458L67.7601 53.1125L55.8 64.7259L45.4 77.7259L36.7334 91.9393L29.9734 107.193L25.2067 123.139L22.52 139.606L22 156.246L23.56 172.8L27.2867 189.006L33.0067 204.606L40.72 219.34L50.2533 233.033L61.4334 245.34L74.0867 256.173L88.04 265.273L103.033 272.467L118.807 277.753L135.187 280.96L152.173 282" fill="#0A0A0A"/>
<path d="M81.2808 43.0605L88.3874 38.7272L95.7541 34.9138L103.381 31.5338L111.181 28.6738L119.154 26.3338L127.301 24.5138L135.534 23.2138L143.854 22.4338L152.174 22.0005L155.901 22.2605L159.541 23.0405L163.181 24.3405L166.821 26.1605L170.374 28.5005L173.841 31.3605L177.221 34.7405L180.514 38.5539L183.634 42.8872L186.667 47.6539L189.527 52.8539L192.301 58.4873L194.901 64.4673L197.327 70.7939L199.581 77.4673L201.574 84.4873L203.394 91.7674L205.041 99.3074L206.427 107.021L207.554 114.907L208.507 122.967L209.201 131.114L209.634 139.348L209.894 147.668L209.894 155.988L209.634 164.308L209.201 172.541L208.507 180.688L207.554 188.748L206.427 196.634L205.041 204.348L203.394 211.888L201.574 219.168L199.581 226.188L197.327 232.861L194.901 239.188L192.301 245.168L189.527 250.801L186.667 256.001L183.634 260.768L180.514 265.101L177.221 268.915L173.841 272.295L170.374 275.155L166.821 277.495L163.181 279.315L159.541 280.615L155.901 281.395L152.174 281.655L143.854 281.395L135.534 280.615L127.301 279.315L119.154 277.495L111.181 275.155L103.381 272.295L95.7541 268.915L88.3874 265.101L81.2808 260.768L74.4341 256.001L67.9341 250.801L61.7808 245.168L55.9741 239.188L50.6007 232.861L45.5741 226.188L41.0674 219.168L36.9941 211.888L33.3541 204.348L30.2341 196.634L27.6341 188.748L25.5541 180.688L23.9941 172.541L22.9541 164.308L22.4341 155.988L22.4341 147.668L22.9541 139.347L23.9941 131.114L25.5541 122.967L27.6341 114.907L30.2341 107.021L33.3541 99.3074L36.9941 91.7673L41.0674 84.4873L45.5741 77.4673L50.6008 70.7939L55.9741 64.4673L61.7808 58.4872L67.9341 52.8539L74.4341 47.6539" fill="white"/>
</svg>
