<svg width="260" height="260" viewBox="0 0 260 260" fill="none" xmlns="http://www.w3.org/2000/svg">
<path d="M129.827 130V0L113.187 1.04L96.8067 4.24668L81.0333 9.53337L66.04 16.7267L52.0867 25.8268L39.4333 36.6601L28.2533 48.9668L18.72 62.6602L11.0067 77.3936L5.28667 92.9937L1.56 109.2L0 125.754L0.520005 142.394L3.20667 158.861L7.97334 174.807L14.7333 190.061L23.4 204.274L33.8 217.274L45.76 228.887L59.1067 238.854L73.58 247.001L89.0067 253.241L105.127 257.488L121.68 259.654H138.32L154.873 257.488L170.993 253.241L186.42 247.001L200.893 238.854L214.24 228.887L226.2 217.274L236.6 204.274L245.267 190.061L252.027 174.807L256.793 158.861L259.48 142.394L260 125.754L258.44 109.2L254.713 92.9937L248.993 77.3936L241.28 62.6602L231.747 48.9668L220.567 36.6601L207.913 25.8268L193.96 16.7267L178.967 9.53337L163.193 4.24668L146.813 1.04L129.827 0" fill="#0A0A0A"/>
<path d="M200.719 238.939L193.613 243.273L186.246 247.086L178.619 250.466L170.819 253.326L162.846 255.666L154.699 257.486L146.466 258.786L138.146 259.566L129.826 260L126.099 259.74L122.459 258.959L118.819 257.659L115.179 255.84L111.626 253.499L108.159 250.639L104.779 247.259L101.486 243.446L98.366 239.113L95.3326 234.346L92.4726 229.146L89.6993 223.513L87.0993 217.533L84.6726 211.206L82.4193 204.533L80.426 197.513L78.606 190.233L76.9593 182.693L75.5726 174.979L74.446 167.093L73.4926 159.032L72.7993 150.886L72.366 142.652L72.106 134.332V126.012L72.366 117.692L72.7993 109.459L73.4926 101.312L74.446 93.2523L75.5726 85.3656L76.9593 77.6522L78.606 70.1122L80.426 62.8322L82.4193 55.8121L84.6726 49.1388L87.0993 42.8121L89.6993 36.8321L92.4726 31.1987L95.3326 25.9987L98.366 21.232L101.486 16.8987L104.779 13.0853L108.159 9.7053L111.626 6.8453L115.179 4.50529L118.819 2.68528L122.459 1.38528L126.099 0.605273L129.826 0.345276L138.146 0.605273L146.466 1.38528L154.699 2.68528L162.846 4.50529L170.819 6.8453L178.619 9.7053L186.246 13.0853L193.613 16.8987L200.719 21.232L207.566 25.9987L214.066 31.1987L220.219 36.8321L226.026 42.8121L231.399 49.1388L236.426 55.8121L240.933 62.8322L245.006 70.1122L248.646 77.6522L251.766 85.3656L254.366 93.2523L256.446 101.312L258.006 109.459L259.046 117.692L259.566 126.012V134.332L259.046 142.652L258.006 150.886L256.446 159.032L254.366 167.093L251.766 174.979L248.646 182.693L245.006 190.233L240.933 197.513L236.426 204.533L231.399 211.206L226.026 217.533L220.219 223.513L214.066 229.146L207.566 234.346" fill="white"/>
</svg>
